<svg xmlns="http://www.w3.org/2000/svg" viewBox="0 0 53.2 53.3"><title>BusinessPack_diagonal</title><g id="Ebene_2" data-name="Ebene 2"><g id="Leistungen"><path d="M25.3,37.5c-3.2-2.9-6.2-5.9-9.5-8.8,1.3-1.7,1.9-3.7,3.5-5.2a18,18,0,0,0,1.9-2A18.1,18.1,0,0,1,24.5,18a1.2,1.2,0,0,0,.4-1.1C28.7,14,32.2,11,36.4,8.6s8.1-3,12.3-4.4a1.5,1.5,0,0,0,2.5-.1l1.1-1.5A1.5,1.5,0,0,0,50.6.4C45.8,2.2,41,2.9,36.4,5.2S26.6,12,21.5,15.8a1.9,1.9,0,0,0-.6,1.3l-1.6,1.6a23.2,23.2,0,0,1-2.6,3c-1.9,1.6-2,4-3.8,5.8a1.3,1.3,0,0,0-.4,1.4,1.1,1.1,0,0,0,0,.8,1.5,1.5,0,0,0-.9.7,6.9,6.9,0,0,1-.7,1.5c-1,1.4,1,2.7,2.2,1.9,2.2,2.7,4.9,5.2,7.3,7.7a1.5,1.5,0,0,0,2.1-2.1l-5-5.1c1.9,1.8,3.7,3.6,5.7,5.3S26.7,38.8,25.3,37.5Z" style="fill:#fff"/><path d="M52.7,1.6C42.5,2.8,31.5,8.3,22.3,17.5A56.6,56.6,0,0,0,13,29.4L24.8,41.3a61.4,61.4,0,0,0,12-9.3C46,22.8,51.4,11.8,52.7,1.6Z" style="fill:#82b541"/><line x1="0.4" y1="52.8" x2="11.7" y2="41.5" style="fill:#82b541;stroke:#231f20;stroke-miterlimit:10;stroke-width:1.21579766273499px"/><line x1="3.4" y1="45.1" x2="9.4" y2="39.2" style="fill:#82b541;stroke:#231f20;stroke-miterlimit:10;stroke-width:1.21579766273499px"/><line x1="8.2" y1="49.8" x2="14.1" y2="43.9" style="fill:#82b541;stroke:#231f20;stroke-miterlimit:10;stroke-width:1.21579766273499px"/><path d="M11,31.6l-7.9-.7a1.5,1.5,0,0,1-1-2.6L9,21.5a5.5,5.5,0,0,1,4.7-1.7l4.1.3" style="fill:#82b541;stroke:#231f20;stroke-miterlimit:10;stroke-width:1.21579766273499px"/><path d="M21.5,42.1l.7,7.9c.1,1.3,1.6,1.8,3,1.1l6.9-6.8a10.4,10.4,0,0,0,1.2-4.9l-.4-4.1" style="fill:#82b541;stroke:#231f20;stroke-miterlimit:10;stroke-width:1.21579766273499px"/><line x1="12.4" y1="29.8" x2="23.5" y2="40.9" style="fill:#82b541;stroke:#231f20;stroke-miterlimit:10;stroke-width:1.21579766273499px"/><path d="M19.6,42.8A53,53,0,0,0,37.8,30.9c8.9-9,13.9-20,14.7-30.2-10.3.7-21.3,5.8-30.2,14.7A51.2,51.2,0,0,0,10.4,33.5Z" style="fill:none;stroke:#231f20;stroke-miterlimit:10;stroke-width:1.21579766273499px"/><path d="M43.9,12.6a2.2,2.2,0,1,1-3.1-3.1,2.1,2.1,0,0,1,3.1,0A2.3,2.3,0,0,1,43.9,12.6Z" style="fill:#ebebeb;stroke:#231f20;stroke-miterlimit:10;stroke-width:1.21579766273499px"/><path d="M12.2,30.4a25.9,25.9,0,0,0-1.4,2.9L20,42.5A20,20,0,0,0,22.9,41Z" style="fill:#82b541"/><path d="M35.4,28.5a7.4,7.4,0,0,1-10.5,0,7.2,7.2,0,0,1,0-10.5A7.4,7.4,0,0,1,35.4,28.5Z" style="fill:#ebebeb;stroke:#231f20;stroke-miterlimit:10;stroke-width:1.21579766273499px"/><path d="M26.8,26.5a4.7,4.7,0,1,1,6.6,0A4.5,4.5,0,0,1,26.8,26.5Z" style="fill:#ebebeb;stroke:#231f20;stroke-miterlimit:10;stroke-width:1.21579766273499px"/></g></g></svg>