<svg xmlns="http://www.w3.org/2000/svg" viewBox="0 0 83.07 39"><defs><style>.cls-1{fill:#fff;}</style></defs><title>cloudTwo</title><g id="Ebene_2" data-name="Ebene 2"><g id="Section_-_Seo" data-name="Section - Seo"><path class="cls-1" d="M71.57,16.74c0-.2,0-.4,0-.6C71.61,7.23,62.38,0,51,0,43.21,0,36.43,3.38,32.92,8.36a15.81,15.81,0,0,0-3.7-.44c-5.67,0-10.46,2.93-12,7-.56,0-1.13-.08-1.71-.08C6.92,14.79,0,20.21,0,26.9S6.92,39,15.47,39H69.32c7.59,0,13.75-5.71,13.75-11.66C83.07,22,78.09,17.59,71.57,16.74Z"/></g></g></svg>