<svg xmlns="http://www.w3.org/2000/svg" xmlns:xlink="http://www.w3.org/1999/xlink" viewBox="0 0 22.6 50"><defs><symbol id="business_icon_green" data-name="business icon green" viewBox="0 0 33.7 74.6"><path d="M23.5,46.2c-4.4.2-8.6.2-12.9.6-.3-2.2-1.3-4.1-1.3-6.2a13.1,13.1,0,0,0-.1-2.8A25.7,25.7,0,0,1,9.1,33a1.8,1.8,0,0,0-.4-1.1,84.9,84.9,0,0,1,2.2-14c1.3-4.4,3.6-7.9,5.6-11.7a1.7,1.7,0,0,0,1.7-1.9l-.3-1.8a1.6,1.6,0,0,0-2.8-.4c-2,4.7-5,8.5-6.6,13.4s-2.1,11.7-3,18.1a1.5,1.5,0,0,0,.4,1.3,17.7,17.7,0,0,0,0,2.3,16.3,16.3,0,0,1,.3,3.9c-.2,2.5,1.5,4.3,1.4,6.8a1.3,1.3,0,0,0,.8,1.3,1.2,1.2,0,0,0,.5.5,1.2,1.2,0,0,0-.1,1.2,4.3,4.3,0,0,1,.5,1.6c.4,1.6,2.7,1.2,2.9-.2,3.5.3,7.2.1,10.7.2a1.5,1.5,0,0,0,0-3c-2.4-.1-4.8,0-7.2,0l7.8-.3C25.4,49.1,25.4,46.1,23.5,46.2Z" style="fill:#fff"/><path d="M17.4,1.5C11.1,9.5,7.2,21.2,7.2,34.2A60.4,60.4,0,0,0,9,49.2H25.8a60.4,60.4,0,0,0,1.9-15C27.7,21.2,23.7,9.5,17.4,1.5Z" style="fill:#82b541"/><line x1="16.7" y1="74.6" x2="16.7" y2="58.7" style="fill:#82b541;stroke:#231f20;stroke-miterlimit:10;stroke-width:1.21579766273499px"/><line x1="13.4" y1="67.1" x2="13.4" y2="58.7" style="fill:#82b541;stroke:#231f20;stroke-miterlimit:10;stroke-width:1.21579766273499px"/><line x1="20.1" y1="67.1" x2="20.1" y2="58.7" style="fill:#82b541;stroke:#231f20;stroke-miterlimit:10;stroke-width:1.21579766273499px"/><path d="M9.2,52.2l-6.1,5A1.5,1.5,0,0,1,.6,56.1V46.4a6,6,0,0,1,2.1-4.5l3.2-2.6" style="fill:#82b541;stroke:#231f20;stroke-miterlimit:10;stroke-width:1.21579766273499px"/><path d="M24,52.2l6.1,5c1,.9,2.5.2,3-1.3V46.2a9.6,9.6,0,0,0-2.6-4.3l-3.2-2.6" style="fill:#82b541;stroke:#231f20;stroke-miterlimit:10;stroke-width:1.21579766273499px"/><line x1="8.9" y1="49.9" x2="24.6" y2="49.9" style="fill:#82b541;stroke:#231f20;stroke-miterlimit:10;stroke-width:1.21579766273499px"/><path d="M23.2,54a52.3,52.3,0,0,0,4.4-21.3C27.6,20.1,23.4,8.8,16.7.9c-6.8,7.9-11,19.2-11,31.8A52.3,52.3,0,0,0,10.1,54Z" style="fill:none;stroke:#231f20;stroke-miterlimit:10;stroke-width:1.21579766273499px"/><path d="M19,15.5a2.2,2.2,0,1,1-2.2-2.2A2.2,2.2,0,0,1,19,15.5Z" style="fill:#ebebeb;stroke:#231f20;stroke-miterlimit:10;stroke-width:1.21579766273499px"/><path d="M9.2,50.4c.3,1.1.7,2.1,1,3.1H23.3c.3-1,.7-2,1-3.1Z" style="fill:#82b541"/><path d="M24.3,32.7a7.6,7.6,0,0,1-7.5,7.5,7.5,7.5,0,0,1-7.4-7.5,7.4,7.4,0,0,1,7.4-7.4A7.5,7.5,0,0,1,24.3,32.7Z" style="fill:#ebebeb;stroke:#231f20;stroke-miterlimit:10;stroke-width:1.21579766273499px"/><path d="M16.8,37.4a4.7,4.7,0,1,1,4.7-4.7A4.7,4.7,0,0,1,16.8,37.4Z" style="fill:#ebebeb;stroke:#231f20;stroke-miterlimit:10;stroke-width:1.21579766273499px"/></symbol></defs><title>iconBusiness</title><g id="Ebene_2" data-name="Ebene 2"><g id="Leistungen"><use width="33.7" height="74.65" transform="scale(0.67)" xlink:href="#business_icon_green"/></g></g></svg>