<svg xmlns="http://www.w3.org/2000/svg" viewBox="0 0 53.4 55.3"><title>iconBasic</title><g id="Ebene_2" data-name="Ebene 2"><g id="Leistungen"><path d="M51.4,26.2c-.7-.2-1-.9-1.6-1.2s-3.5-.5-5.1-.6c-5.3-.4-10.6-.2-15.9-.1-9.1.1-18,.2-27,1.9-1.9.3-1.1,3.2.8,2.9,8.7-1.7,17.4-1.7,26.2-1.8s14.9-.8,21.8,1.8C52.4,29.8,53.2,26.9,51.4,26.2Z" style="fill:#f2f2f2"/><path d="M28.5,22.3a104.6,104.6,0,0,0-4.1-11.9C22.8,6.9,23.1,4,20.5.9c-1.3-1.4-3.4.7-2.1,2.2S20.5,9,21.8,12a85.4,85.4,0,0,1,3.8,11.1C26.2,24.9,29.1,24.1,28.5,22.3Z" style="fill:#82b541"/><path d="M28.9,32.6c.1-1.9-2.9-1.9-3,0s-1.3,4-1.8,5.6-1.9,4.6-2.6,7l-.3.2A4.2,4.2,0,0,0,20,48v.2h0a1.6,1.6,0,0,0-.1,1.5A24.3,24.3,0,0,1,18,52.7c-.9,1.3.9,2.7,2.1,2.1l1.7-1a1.4,1.4,0,0,0,.5-2.1,24.9,24.9,0,0,0,3.6-9.8C27.2,38.8,28.7,35.8,28.9,32.6Z" style="fill:#82b541"/><path d="M8.8,22.7c-1.4-.4-1.8-2.1-2.5-3.1a1.2,1.2,0,0,0-.7-.5v-.6c-.3-.8-1.2-1.3-1.8-1.8H3.5A1,1,0,0,0,2.2,16a1.1,1.1,0,0,0-.8,1.4l.9,2.5a1.2,1.2,0,0,0,.7.7v.2c0,.4.3.7.4,1.1a1.2,1.2,0,0,0,.6,1,1.2,1.2,0,0,0,.1,1.5c1.2,1.5,2.8.4,4.4.5S10,23,8.8,22.7Z" style="fill:#82b541"/><path d="M8.3,30.2a1.5,1.5,0,0,0-.9.2h0l-.7.2a.8.8,0,0,1-.7-.2,1.1,1.1,0,0,0-1.6,0,1.1,1.1,0,0,0-.2,1.4,1.1,1.1,0,0,0-.4.9.8.8,0,0,0-.2.4,23.9,23.9,0,0,1-2,4.3,1.1,1.1,0,0,0,1.6,1.5,13.7,13.7,0,0,0,2.6-2.8c.5-.5.6-1.2,1-1.6s1-.7,1.3-1.3a1.3,1.3,0,0,0,.1-.6h.2C9.6,32.2,9.6,30.2,8.3,30.2Z" style="fill:#82b541"/><path d="M14.7,31.1,7,30.5a16.5,16.5,0,0,1-4.3-.9l-2.2-1c0-1.2,12.5-2.2,14.2-2.2H46.3c1.8,0,6.4,1,6.4,2.2V29c0,1.2-4.6,2.1-6.4,2.1Z" style="fill:#82b541"/><line x1="5.6" y1="27.7" x2="10.1" y2="27.7" style="fill:#82b541;stroke:#231f20;stroke-miterlimit:10;stroke-width:1.04763213345194px"/><line x1="1.9" y1="48.5" x2="15.6" y2="48.5" style="fill:#82b541;stroke:#231f20;stroke-miterlimit:10;stroke-width:1.04763213345194px"/><line x1="8.6" y1="46.1" x2="15.9" y2="46.1" style="fill:#82b541;stroke:#231f20;stroke-miterlimit:10;stroke-width:1.04763213345194px"/><line x1="8.2" y1="27.7" x2="12.7" y2="27.7" style="fill:#82b541;stroke:#231f20;stroke-miterlimit:10;stroke-width:1.04763213345194px"/><line x1="3.6" y1="8.6" x2="17.4" y2="8.6" style="fill:#82b541;stroke:#231f20;stroke-miterlimit:10;stroke-width:1.04763213345194px"/><path d="M52.1,26.4a1.3,1.3,0,0,1,.8,1.2,1.3,1.3,0,0,1-.8,1.3" style="fill:#82b541;stroke:#231f20;stroke-miterlimit:10;stroke-width:1.04763213345194px"/><line x1="3.4" y1="8.6" x2="17.2" y2="8.6" style="fill:#82b541;stroke:#231f20;stroke-miterlimit:10;stroke-width:1.04763213345194px"/><line x1="10.2" y1="6.2" x2="17.4" y2="6.2" style="fill:#82b541;stroke:#231f20;stroke-miterlimit:10;stroke-width:1.04763213345194px"/><path d="M49.5,26.4a1.3,1.3,0,0,1,.8,1.2,1.3,1.3,0,0,1-.8,1.3" style="fill:#82b541;stroke:#231f20;stroke-miterlimit:10;stroke-width:1.04763213345194px"/><line x1="3.4" y1="48.5" x2="17.2" y2="48.5" style="fill:#82b541;stroke:#231f20;stroke-miterlimit:10;stroke-width:1.04763213345194px"/><line x1="10.2" y1="46.1" x2="17.4" y2="46.1" style="fill:#82b541;stroke:#231f20;stroke-miterlimit:10;stroke-width:1.04763213345194px"/><line x1="10.2" y1="6.2" x2="17.4" y2="6.2" style="fill:#82b541;stroke:#231f20;stroke-miterlimit:10;stroke-width:1.04763213345194px"/><path d="M39.4,24.2a4.6,4.6,0,0,1-1.6-1.4L21.3,1.9s6,18.5,6.4,20.3a1.8,1.8,0,0,1-.6,2.1" style="fill:#82b541"/><path d="M27.4,31.3a2,2,0,0,1,.3,1.8c-.4,1.8-6.4,20.4-6.4,20.4L37.8,32.6a4.8,4.8,0,0,1,1.5-1.4" style="fill:#82b541"/><path d="M14.7,31.1C13,31.1.5,29.7.5,27.9v-.5c0-1.8,12.5-3.2,14.2-3.2H46.3c1.8,0,6.4,1.4,6.4,3.2v.5c0,1.8-4.6,3.2-6.4,3.2Z" style="fill:none;stroke:#231f20;stroke-miterlimit:10;stroke-width:1.04763213345194px"/><path d="M39.5,24.2a3.6,3.6,0,0,1-1.9-1.4L28.5,11.2s-5.8-8.6-6.9-9.6A5.7,5.7,0,0,0,19.1.5c-1.4-.1-1,1.4-1,1.4s7.1,18.5,7.6,20.3a1.9,1.9,0,0,1-.4,1.8" style="fill:none;stroke:#231f20;stroke-miterlimit:10;stroke-width:1.04763213345194px"/><path d="M25.1,31.1a1.7,1.7,0,0,1,.6,2c-.5,1.8-7.6,20.4-7.6,20.4s-.4,1.4,1,1.3a5.7,5.7,0,0,0,2.5-1.1c1.1-1,6.9-9.5,6.9-9.5l9.1-11.6a3.2,3.2,0,0,1,.8-.9" style="fill:none;stroke:#231f20;stroke-miterlimit:10;stroke-width:1.04763213345194px"/><path d="M10.1,24.6,5.3,18.3s-1.3-2-2.9-2H1.1l3.4,9.4" style="fill:none;stroke:#231f20;stroke-miterlimit:10;stroke-width:1.04763213345194px"/><path d="M4.4,29.8,1.1,39.2H2.4c1.6,0,2.9-2,2.9-2L10,30.9" style="fill:none;stroke:#231f20;stroke-miterlimit:10;stroke-width:1.04763213345194px"/><path d="M39.4,24.2a4.3,4.3,0,0,1-1.8-1.4L28.5,11.2s-5.8-8.6-6.9-9.6A5.7,5.7,0,0,0,19.1.5c-1.4-.1-1,1.4-1,1.4s7.1,18.5,7.6,20.3a1.8,1.8,0,0,1-.7,2.1" style="fill:none;stroke:#231f20;stroke-miterlimit:10;stroke-width:1.04763213345194px"/><path d="M25.3,31.3a2,2,0,0,1,.4,1.8c-.5,1.8-7.6,20.4-7.6,20.4s-.4,1.4,1,1.3a5.7,5.7,0,0,0,2.5-1.1c1.1-1,6.9-9.5,6.9-9.5l9.1-11.6a4.6,4.6,0,0,1,1.6-1.4" style="fill:none;stroke:#231f20;stroke-miterlimit:10;stroke-width:1.04763213345194px"/></g></g></svg>