<svg xmlns="http://www.w3.org/2000/svg" xmlns:xlink="http://www.w3.org/1999/xlink" viewBox="0 0 70.8 63.9"><defs><linearGradient id="basic" x1="19.55" y1="21.46" x2="57.24" y2="21.46" gradientUnits="userSpaceOnUse"><stop offset="0" stop-color="#9bc44e"/><stop offset="1" stop-color="#83b641"/></linearGradient><linearGradient id="basic-2" x1="31.22" y1="58.82" x2="45.57" y2="58.82" xlink:href="#basic"/><linearGradient id="basic-3" x1="24.72" y1="26.6" x2="26.21" y2="26.6" xlink:href="#basic"/><linearGradient id="basic-4" x1="43.82" y1="48.54" x2="47.62" y2="48.54" xlink:href="#basic"/><linearGradient id="basic-5" x1="29.06" y1="48.54" x2="32.87" y2="48.54" xlink:href="#basic"/><linearGradient id="basic-6" x1="33.82" y1="48.54" x2="35.49" y2="48.54" xlink:href="#basic"/><linearGradient id="basic-7" x1="41.19" y1="48.54" x2="42.86" y2="48.54" xlink:href="#basic"/><linearGradient id="basic-8" x1="38.34" y1="48.38" x2="38.34" y2="48.38" xlink:href="#basic"/></defs><title>iconStarter</title><g id="Ebene_2" data-name="Ebene 2"><g id="Leistungen"><path d="M53,7.6A18.9,18.9,0,0,0,19.5,19.5c0,5.2,4.8,14.6,9.5,22.8H47.8c4.7-8.2,9.4-17.6,9.4-22.8V17.6" style="stroke:#262626;stroke-miterlimit:10;stroke-width:1.31399357318878px;fill:url(#basic)"/><polygon points="31.2 54.4 33.7 63.3 43.1 63.3 45.6 54.4 31.2 54.4" style="stroke:#262626;stroke-miterlimit:10;stroke-width:1.31399357318878px;fill:url(#basic-2)"/><path d="M23.9,22.1a12.5,12.5,0,0,1-.4-2.6A14.9,14.9,0,0,1,38.4,4.6" style="fill:none;stroke:#f2f2f2;stroke-miterlimit:10;stroke-width:1.31399357318878px"/><path d="M26.2,28.4c-.6-1.4-1.1-2.6-1.5-3.7" style="stroke:#ebebeb;stroke-miterlimit:10;stroke-width:1.31399357318878px;fill:url(#basic-3)"/><line x1="47.6" y1="42.6" x2="43.8" y2="54.5" style="stroke:#262626;stroke-miterlimit:10;stroke-width:1.31399357318878px;fill:url(#basic-4)"/><line x1="29.1" y1="42.6" x2="32.9" y2="54.5" style="stroke:#262626;stroke-miterlimit:10;stroke-width:1.31399357318878px;fill:url(#basic-5)"/><line x1="33.8" y1="42.6" x2="35.5" y2="54.5" style="stroke:#262626;stroke-miterlimit:10;stroke-width:1.31399357318878px;fill:url(#basic-6)"/><line x1="42.9" y1="42.6" x2="41.2" y2="54.5" style="stroke:#262626;stroke-miterlimit:10;stroke-width:1.31399357318878px;fill:url(#basic-7)"/><line x1="38.3" y1="42.3" x2="38.3" y2="54.5" style="stroke:#262626;stroke-miterlimit:10;stroke-width:1.31399357318878px;fill:url(#basic-8)"/><path d="M68.6,11.3a5.5,5.5,0,0,0,.6-2.6A6.3,6.3,0,0,0,57,6.3h-.8A4.1,4.1,0,0,0,52,10.5V11a3.3,3.3,0,0,0,.9,6.5h14a3.4,3.4,0,0,0,3.4-3.3A3.4,3.4,0,0,0,68.6,11.3Z" style="fill:#fff;stroke:#262626;stroke-miterlimit:10"/><path d="M14.7,30.8a5.8,5.8,0,0,0,.4-1.9,4.8,4.8,0,0,0-4.8-4.8,4.7,4.7,0,0,0-4.4,3H5.3a3.2,3.2,0,0,0-3.2,3.2v.4A2.5,2.5,0,0,0,.3,33a2.5,2.5,0,0,0,2.5,2.5H13.4a2.5,2.5,0,0,0,1.3-4.7Z" style="fill:#f2f2f2;stroke:#262626;stroke-miterlimit:10;stroke-width:0.656996786594391px"/></g></g></svg>