<svg xmlns="http://www.w3.org/2000/svg" xmlns:xlink="http://www.w3.org/1999/xlink" viewBox="0 0 217.6 98.5"><defs><linearGradient id="Business" x1="122.31" y1="-0.22" x2="41.73" y2="82.59" gradientUnits="userSpaceOnUse"><stop offset="0" stop-color="#5494cd"/><stop offset="1" stop-color="#467cc1"/></linearGradient><linearGradient id="Business-2" x1="81.87" y1="-16.99" x2="53.53" y2="12.13" xlink:href="#Business"/><linearGradient id="linear-gradient" x1="50.88" y1="60.39" x2="69.02" y2="60.39" gradientUnits="userSpaceOnUse"><stop offset="0" stop-color="#f8d196"/><stop offset="0.21" stop-color="#f8cf90"/><stop offset="0.49" stop-color="#f7c780"/><stop offset="0.8" stop-color="#f5bc65"/><stop offset="1" stop-color="#f4b350"/></linearGradient><linearGradient id="linear-gradient-2" x1="6.79" y1="92.45" x2="21.1" y2="92.45" xlink:href="#linear-gradient"/><linearGradient id="linear-gradient-3" x1="6.79" y1="85.58" x2="21.1" y2="85.58" xlink:href="#linear-gradient"/><linearGradient id="linear-gradient-4" x1="74.43" y1="92.45" x2="88.75" y2="92.45" xlink:href="#linear-gradient"/><linearGradient id="linear-gradient-5" x1="73.29" y1="85.58" x2="87.6" y2="85.58" xlink:href="#linear-gradient"/><linearGradient id="linear-gradient-6" x1="74.43" y1="78.71" x2="88.75" y2="78.71" xlink:href="#linear-gradient"/><linearGradient id="linear-gradient-7" x1="91.9" y1="92.45" x2="106.21" y2="92.45" xlink:href="#linear-gradient"/><linearGradient id="linear-gradient-8" x1="91.9" y1="85.58" x2="106.21" y2="85.58" xlink:href="#linear-gradient"/><linearGradient id="linear-gradient-9" x1="93.04" y1="78.71" x2="107.36" y2="78.71" xlink:href="#linear-gradient"/><linearGradient id="linear-gradient-10" x1="74.43" y1="71.84" x2="88.75" y2="71.84" xlink:href="#linear-gradient"/><linearGradient id="linear-gradient-11" x1="73.29" y1="64.97" x2="87.6" y2="64.97" xlink:href="#linear-gradient"/><linearGradient id="Business-3" x1="228.61" y1="-30.13" x2="158.58" y2="41.83" xlink:href="#Business"/><linearGradient id="Business-4" x1="215.35" y1="64.55" x2="199.77" y2="80.57" xlink:href="#Business"/></defs><title>MonatlicheZahlung</title><g id="Ebene_2" data-name="Ebene 2"><g id="Startseite"><g id="Slider_3" data-name="Slider 3"><g id="MonatlicheZahlung"><ellipse cx="57.3" cy="95.6" rx="57.3" ry="2.9" style="fill:#141c23"/><ellipse cx="174.6" cy="95.6" rx="28.6" ry="1.7" style="fill:#141c23"/><path d="M68.1,17.2H52C40.2,24.8,21.1,49.6,21.1,64.7c0,12.7,3.9,20.8,12.2,27.7a13.6,13.6,0,0,0,8.8,3.2H77.9a13.7,13.7,0,0,0,8.9-3.2C95.1,85.5,99,77.4,99,64.7,99,49.6,79.9,24.8,68.1,17.2Z" style="fill:url(#Business)"/><path d="M75.9,3a5,5,0,0,0-3.2-.2L68.8,4a3.9,3.9,0,0,1-3-.4L61.4.4a2.8,2.8,0,0,0-2.8,0L54.3,3.6a4.2,4.2,0,0,1-3.1.4L47.4,2.8a5,5,0,0,0-3.2.2L41.3,4.4A1.1,1.1,0,0,0,41,6.3L51.1,16A5,5,0,0,0,54,17.2H66A5.3,5.3,0,0,0,69,16L79.1,6.3a1.1,1.1,0,0,0-.3-1.9Z" style="fill:url(#Business-2)"/><path d="M61.9,57.2c-3.6-1.4-4.1-2.1-4.1-3.2s.2-2,2.8-2A8,8,0,0,1,65,53.2l.9.5a.7.7,0,0,0,.8-.3l1.6-4.3a.6.6,0,0,0-.2-.7l-.7-.4a12.5,12.5,0,0,0-4.5-1.4V43.2a.6.6,0,0,0-.6-.6H58.1a.6.6,0,0,0-.6.6v3.7a7.8,7.8,0,0,0-6.1,7.6c0,4.6,3.8,6.7,7.6,8.2s3.6,2.4,3.6,3.4-1.3,2.5-3.3,2.5a9.8,9.8,0,0,1-5.1-1.5l-.9-.6a.5.5,0,0,0-.8.3l-1.6,4.3a.7.7,0,0,0,.2.7l.6.3a12.4,12.4,0,0,0,5.5,2v3.5a.6.6,0,0,0,.6.6h4.3a.6.6,0,0,0,.5-.6V73.8a8.3,8.3,0,0,0,6.4-8C69,60.7,65.2,58.5,61.9,57.2Z" style="fill:url(#linear-gradient)"/><path d="M70.1,20H50a2.9,2.9,0,0,1,0-5.7H70.1a2.9,2.9,0,0,1,0,5.7Z" style="fill:#162030"/><rect x="6.8" y="89.3" width="14.3" height="6.3" rx="0.6" ry="0.6" style="fill:url(#linear-gradient-2)"/><rect x="6.8" y="82.4" width="14.3" height="6.3" rx="0.6" ry="0.6" style="fill:url(#linear-gradient-3)"/><rect x="74.4" y="89.3" width="14.3" height="6.3" rx="0.6" ry="0.6" style="fill:url(#linear-gradient-4)"/><rect x="73.3" y="82.4" width="14.3" height="6.3" rx="0.6" ry="0.6" style="fill:url(#linear-gradient-5)"/><rect x="74.4" y="75.6" width="14.3" height="6.3" rx="0.6" ry="0.6" style="fill:url(#linear-gradient-6)"/><rect x="91.9" y="89.3" width="14.3" height="6.3" rx="0.6" ry="0.6" style="fill:url(#linear-gradient-7)"/><rect x="91.9" y="82.4" width="14.3" height="6.3" rx="0.6" ry="0.6" style="fill:url(#linear-gradient-8)"/><rect x="93" y="75.6" width="14.3" height="6.3" rx="0.6" ry="0.6" style="fill:url(#linear-gradient-9)"/><rect x="74.4" y="68.7" width="14.3" height="6.3" rx="0.6" ry="0.6" style="fill:url(#linear-gradient-10)"/><rect x="73.3" y="61.8" width="14.3" height="6.3" rx="0.6" ry="0.6" style="fill:url(#linear-gradient-11)"/><rect x="131.7" y="17.2" width="85.9" height="71.57" rx="3.4" ry="3.4" style="fill:#fff"/><path d="M214.1,17.2h-79a3.4,3.4,0,0,0-3.4,3.4V31.5h85.9V20.6A3.5,3.5,0,0,0,214.1,17.2Z" style="fill:url(#Business-3)"/><path d="M160.3,27.2a2.8,2.8,0,0,1-2.8-2.9V10a2.8,2.8,0,0,1,2.8-2.9,2.9,2.9,0,0,1,2.9,2.9V24.3A2.9,2.9,0,0,1,160.3,27.2Z" style="fill:#162030"/><path d="M188.9,27.2a2.9,2.9,0,0,1-2.8-2.9V10a2.9,2.9,0,1,1,5.7,0V24.3A2.9,2.9,0,0,1,188.9,27.2Z" style="fill:#162030"/><line x1="188.9" y1="88.7" x2="188.9" y2="31.5" style="fill:none;stroke:#22313f;stroke-miterlimit:10;stroke-width:1.14512271649375px"/><line x1="131.7" y1="60.1" x2="217.6" y2="60.1" style="fill:none;stroke:#22313f;stroke-miterlimit:10;stroke-width:1.14512271649375px"/><line x1="160.3" y1="88.7" x2="160.3" y2="31.5" style="fill:none;stroke:#22313f;stroke-miterlimit:10;stroke-width:1.14512271649375px"/><path d="M202.1,67.4l-6,11.9a1.3,1.3,0,0,0,1.2,1.9h11.9a1.3,1.3,0,0,0,1.2-1.9l-6-11.9A1.3,1.3,0,0,0,202.1,67.4Z" style="fill:url(#Business-4)"/></g></g></g></g></svg>