<svg xmlns="http://www.w3.org/2000/svg" viewBox="0 0 132.9 120"><title>ResponsiveDesign</title><g id="Ebene_2" data-name="Ebene 2"><g id="Startseite"><g id="Section_-_Visuell_ansprechend_und_benutzerfreundlich" data-name="Section - Visuell ansprechend und benutzerfreundlich"><g id="ResponsiveDesign"><path d="M77.3,5.2V47.8H3.7V5.2A1.7,1.7,0,0,1,5.5,3.7H75.6A1.7,1.7,0,0,1,77.3,5.2Z" style="fill:#fff"/><path d="M0,51.5v4.3a5.3,5.3,0,0,0,5.5,5.1H75.6A5.3,5.3,0,0,0,81,55.8V51.5Zm45.5,5.9H35.6a1,1,0,0,1-1-1,.9.9,0,0,1,1-1h9.8a.9.9,0,0,1,1.1.9,1,1,0,0,1-.9,1c-.1.1-.1.1-.2,0Z" style="fill:#87aad6"/><path d="M75.6,0H5.5A5.4,5.4,0,0,0,0,5.2V51.5H81V5.2A5.3,5.3,0,0,0,75.6,0Zm1.7,47.8H3.7V5.2A1.7,1.7,0,0,1,5.5,3.7H75.6a1.7,1.7,0,0,1,1.7,1.5Z" style="fill:#515b64"/><path d="M45.4,55.4H35.6a.9.9,0,0,0-1.1.9,1,1,0,0,0,1,1c0,.1,0,.1.1,0h9.8a.9.9,0,0,0,1.1-.9,1,1,0,0,0-.9-1Z" style="fill:#666f77"/><polygon points="49.4 69.1 31.6 69.1 33.4 60.9 47.6 60.9 49.4 69.1" style="fill:#467cc0"/><rect x="25.5" y="69.1" width="30.1" height="3.31" style="fill:#87aad6"/><rect x="32.8" y="7.2" width="40.7" height="6.37" style="fill:#a3a8ad"/><rect x="7.6" y="7.2" width="22.6" height="6.37" style="fill:#82b541"/><rect x="59.8" y="16.6" width="13.7" height="10.83" style="fill:#87aad6"/><rect x="42.4" y="16.6" width="13.7" height="10.83" style="fill:#87aad6"/><rect x="25" y="16.6" width="13.7" height="10.83" style="fill:#87aad6"/><rect x="7.6" y="16.6" width="13.7" height="10.83" style="fill:#87aad6"/><rect x="7.6" y="29.1" width="13.7" height="3.28" style="fill:#cce1b1"/><rect x="25" y="29.1" width="13.7" height="3.28" style="fill:#cce1b1"/><rect x="42.4" y="29.1" width="13.7" height="3.28" style="fill:#cce1b1"/><rect x="59.8" y="29.1" width="13.7" height="3.28" style="fill:#cce1b1"/><rect x="7.6" y="34.6" width="13.7" height="1.86" style="fill:#87aad6"/><rect x="25" y="34.6" width="13.7" height="1.86" style="fill:#87aad6"/><rect x="42.4" y="34.6" width="13.7" height="1.86" style="fill:#87aad6"/><rect x="59.8" y="34.6" width="13.7" height="1.86" style="fill:#87aad6"/><rect x="7.6" y="38.5" width="13.7" height="1.86" style="fill:#87aad6"/><rect x="25" y="38.5" width="13.7" height="1.86" style="fill:#87aad6"/><rect x="42.4" y="38.5" width="13.7" height="1.86" style="fill:#87aad6"/><rect x="59.8" y="38.5" width="13.7" height="1.86" style="fill:#87aad6"/><rect x="7.6" y="42.5" width="13.7" height="1.86" style="fill:#87aad6"/><rect x="25" y="42.5" width="13.7" height="1.86" style="fill:#87aad6"/><rect x="42.4" y="42.5" width="13.7" height="1.86" style="fill:#87aad6"/><rect x="59.8" y="42.5" width="13.7" height="1.86" style="fill:#87aad6"/><path d="M123.9,66.6H66a4.6,4.6,0,0,0-4.5,4.6h0v40.7h66.9V71.2A4.6,4.6,0,0,0,123.9,66.6Zm1.3,42.1H64.7V71.2A1.3,1.3,0,0,1,66,69.8h57.9a1.3,1.3,0,0,1,1.3,1.4Z" style="fill:#515b64"/><path d="M125.2,71.2v37.5H64.7V71.2A1.3,1.3,0,0,1,66,69.8h57.9A1.3,1.3,0,0,1,125.2,71.2Z" style="fill:#fff"/><path d="M132.9,111.9v4c0,2.3-2.8,4.1-6.3,4.1H63.3c-3.5,0-6.3-1.8-6.3-4.1v-4Z" style="fill:#87aad6"/><path d="M99.6,116.8H90.3a.9.9,0,0,1-.9-.9h0a.9.9,0,0,1,.9-.9h9.3a.9.9,0,0,1,.9.9h0A.9.9,0,0,1,99.6,116.8Z" style="fill:#666f77"/><rect x="79.2" y="73" width="40" height="6.37" style="fill:#a3a8ad"/><rect x="70.7" y="73" width="6.9" height="6.37" style="fill:#82b541"/><rect x="105.5" y="82.3" width="13.7" height="10.83" style="fill:#87aad6"/><rect x="88.1" y="82.3" width="13.7" height="10.83" style="fill:#87aad6"/><rect x="70.7" y="82.3" width="13.7" height="10.83" style="fill:#87aad6"/><rect x="70.7" y="94.8" width="13.7" height="3.28" style="fill:#cce1b1"/><rect x="88.1" y="94.8" width="13.7" height="3.28" style="fill:#cce1b1"/><rect x="105.5" y="94.8" width="13.7" height="3.28" style="fill:#cce1b1"/><rect x="70.7" y="100.4" width="13.7" height="1.86" style="fill:#87aad6"/><rect x="88.1" y="100.4" width="13.7" height="1.86" style="fill:#87aad6"/><rect x="105.5" y="100.4" width="13.7" height="1.86" style="fill:#87aad6"/><rect x="70.7" y="104.3" width="13.7" height="1.86" style="fill:#87aad6"/><rect x="88.1" y="104.3" width="13.7" height="1.86" style="fill:#87aad6"/><rect x="105.5" y="104.3" width="13.7" height="1.86" style="fill:#87aad6"/><path d="M121.5,57.7V14.1a2.8,2.8,0,0,0-2.8-3H90.5a2.9,2.9,0,0,0-2.9,3V57.7a3,3,0,0,0,2.9,3.1h28.2A2.9,2.9,0,0,0,121.5,57.7Z" style="fill:#515b64"/><path d="M106.9,12.8h-4.6a.5.5,0,0,0-.5.5.5.5,0,0,0,.5.5h4.6c.2,0,.4-.3.4-.5a.5.5,0,0,0-.4-.5Z" style="fill:#666f77"/><path d="M90.6,53.2h0V15.5h27.9V53.2H90.6Z" style="fill:#fff"/><rect x="102.9" y="55.3" width="3.3" height="3.31" rx="1.3" ry="1.3" style="fill:#666f77"/><rect x="100" y="18.5" width="16.4" height="4.87" style="fill:#a3a8ad"/><rect x="92.7" y="18.5" width="5.2" height="4.87" style="fill:#82b541"/><rect x="106" y="25.7" width="10.5" height="8.28" style="fill:#87aad6"/><rect x="92.7" y="25.7" width="10.5" height="8.28" style="fill:#87aad6"/><rect x="92.7" y="35.2" width="10.5" height="2.5" style="fill:#cce1b1"/><rect x="106" y="35.2" width="10.5" height="2.5" style="fill:#cce1b1"/><rect x="92.7" y="39.5" width="10.5" height="1.42" style="fill:#87aad6"/><rect x="106" y="39.5" width="10.5" height="1.42" style="fill:#87aad6"/><rect x="92.7" y="42.5" width="10.5" height="1.42" style="fill:#87aad6"/><rect x="106" y="42.5" width="10.5" height="1.42" style="fill:#87aad6"/><rect x="92.7" y="45.4" width="10.5" height="1.42" style="fill:#87aad6"/><rect x="106" y="45.4" width="10.5" height="1.42" style="fill:#87aad6"/><rect x="92.7" y="48.5" width="10.5" height="1.42" style="fill:#87aad6"/><rect x="106" y="48.5" width="10.5" height="1.42" style="fill:#87aad6"/><rect x="29.5" y="76.6" width="22.7" height="43.38" rx="6.7" ry="6.7" style="fill:#515b64"/><path d="M43.4,79.2H38.3a.5.5,0,0,0,0,1h5.1a.5.5,0,0,0,0-1Z" style="fill:#666f77"/><rect x="30.7" y="82.5" width="20.3" height="29.14" style="fill:#fff"/><rect x="39" y="113.8" width="3.7" height="3.69" rx="1.4" ry="1.4" style="fill:#666f77"/><rect x="34" y="84.1" width="14.1" height="2.76" style="fill:#a3a8ad"/><rect x="33.6" y="89.5" width="14.5" height="9.38" style="fill:#87aad6"/><rect x="33.6" y="100.3" width="14.5" height="2.84" style="fill:#cce1b1"/><rect x="33.6" y="105.1" width="14.5" height="1.61" style="fill:#87aad6"/><rect x="33.6" y="108.5" width="14.5" height="1.61" style="fill:#87aad6"/><path d="M10.8,86.5h9.3a4.2,4.2,0,0,1,4.1,4.2h0v25.2A4.2,4.2,0,0,1,20,120H10.8a4.1,4.1,0,0,1-4.1-4.1h0V90.7a4.1,4.1,0,0,1,4.1-4.2Z" style="fill:#515b64"/><path d="M17.4,88.5H13.5a.5.5,0,0,0-.4.5.4.4,0,0,0,.4.3h3.9a.4.4,0,0,0,.4-.4C17.7,88.7,17.6,88.5,17.4,88.5Z" style="fill:#666f77"/><rect x="7.6" y="91" width="15.7" height="22.48" style="fill:#fff"/><rect x="14" y="115.2" width="2.8" height="2.85" rx="1.1" ry="1.1" style="fill:#666f77"/><rect x="10.1" y="92.3" width="10.9" height="2.13" style="fill:#82b541"/><rect x="9.9" y="96.5" width="11.2" height="7.23" style="fill:#87aad6"/><rect x="9.9" y="104.8" width="11.2" height="2.19" style="fill:#cce1b1"/><rect x="9.9" y="108.5" width="11.2" height="1.24" style="fill:#87aad6"/><rect x="9.9" y="111.1" width="11.2" height="1.24" style="fill:#87aad6"/></g></g></g></g></svg>