<svg xmlns="http://www.w3.org/2000/svg" viewBox="0 0 166.17 150"><defs><style>.cls-1{fill:#fff;}.cls-2{fill:#e3e3e3;}.cls-3{fill:#002b45;}.cls-4{fill:#154763;}.cls-5{fill:#d4d4d4;}.cls-6{fill:#00bfd9;}.cls-7{fill:#ff5d54;}.cls-8{fill:#ffdc12;}</style></defs><title>ResponsiveDesign</title><g id="Ebene_2" data-name="Ebene 2"><g id="Section_-_Visuell_ansprechend_und_benutzerfreundlich" data-name="Section - Visuell ansprechend und benutzerfreundlich"><path class="cls-1" d="M96.66,6.49V59.71h-92V6.49A2.07,2.07,0,0,1,6.85,4.66H94.46A2,2,0,0,1,96.66,6.49Z"/><path class="cls-2" d="M0,64.38V69.7a6.68,6.68,0,0,0,6.85,6.48H94.46a6.67,6.67,0,0,0,6.85-6.48V64.38Zm56.82,7.33H44.49a1.25,1.25,0,1,1,0-2.5H56.78a1.24,1.24,0,0,1,.16,2.48h-.16Z"/><path class="cls-3" d="M94.46,0H6.85A6.67,6.67,0,0,0,0,6.49V64.38H101.31V6.49A6.68,6.68,0,0,0,94.46,0Zm2.21,59.71h-92V6.49A2.07,2.07,0,0,1,6.85,4.66H94.46a2,2,0,0,1,2.21,1.83Z"/><path class="cls-4" d="M56.79,69.2H44.49a1.24,1.24,0,0,0-.16,2.48H56.78a1.24,1.24,0,0,0,.16-2.48h-.15Z"/><polygon class="cls-5" points="61.78 86.38 39.51 86.38 41.78 76.15 59.52 76.15 61.78 86.38"/><rect class="cls-2" x="31.82" y="86.38" width="37.66" height="4.14"/><rect class="cls-6" x="41.01" y="9.02" width="50.84" height="7.96"/><rect class="cls-7" x="9.44" y="9.02" width="28.19" height="7.96"/><rect class="cls-2" x="74.75" y="20.73" width="17.11" height="13.54"/><rect class="cls-2" x="52.98" y="20.73" width="17.11" height="13.54"/><rect class="cls-2" x="31.21" y="20.73" width="17.11" height="13.54"/><rect class="cls-2" x="9.44" y="20.73" width="17.11" height="13.54"/><rect class="cls-8" x="9.44" y="36.36" width="17.11" height="4.1"/><rect class="cls-8" x="31.21" y="36.36" width="17.11" height="4.1"/><rect class="cls-8" x="52.98" y="36.36" width="17.11" height="4.1"/><rect class="cls-8" x="74.75" y="36.36" width="17.11" height="4.1"/><rect class="cls-2" x="9.44" y="43.3" width="17.11" height="2.32"/><rect class="cls-2" x="31.21" y="43.3" width="17.11" height="2.32"/><rect class="cls-2" x="52.98" y="43.3" width="17.11" height="2.32"/><rect class="cls-2" x="74.75" y="43.3" width="17.11" height="2.32"/><rect class="cls-2" x="9.44" y="48.18" width="17.11" height="2.32"/><rect class="cls-2" x="31.21" y="48.18" width="17.11" height="2.32"/><rect class="cls-2" x="52.98" y="48.18" width="17.11" height="2.32"/><rect class="cls-2" x="74.75" y="48.18" width="17.11" height="2.32"/><rect class="cls-2" x="9.44" y="53.07" width="17.11" height="2.32"/><rect class="cls-2" x="31.21" y="53.07" width="17.11" height="2.32"/><rect class="cls-2" x="52.98" y="53.07" width="17.11" height="2.32"/><rect class="cls-2" x="74.75" y="53.07" width="17.11" height="2.32"/><path class="cls-3" d="M154.87,83.29H82.51A5.67,5.67,0,0,0,76.85,89h0v50.85h83.68V89A5.67,5.67,0,0,0,154.87,83.29Zm1.67,52.53H80.84V89a1.68,1.68,0,0,1,1.66-1.69h72.37A1.68,1.68,0,0,1,156.54,89Z"/><path class="cls-1" d="M156.52,89v46.86H80.84V89a1.68,1.68,0,0,1,1.66-1.69h72.37A1.68,1.68,0,0,1,156.52,89Z"/><path class="cls-2" d="M166.17,139.82v5.09c0,2.81-3.55,5.09-7.92,5.09H79.11c-4.37,0-7.92-2.28-7.92-5.09v-5.09Z"/><path class="cls-4" d="M124.5,146H112.87a1.11,1.11,0,0,1-1.11-1.11h0a1.11,1.11,0,0,1,1.11-1.11H124.5a1.11,1.11,0,0,1,1.11,1.11h0A1.11,1.11,0,0,1,124.5,146Z"/><rect class="cls-6" x="99.03" y="91.19" width="49.98" height="7.96"/><rect class="cls-7" x="88.36" y="91.2" width="8.57" height="7.96"/><rect class="cls-2" x="131.9" y="102.91" width="17.11" height="13.54"/><rect class="cls-2" x="110.13" y="102.91" width="17.11" height="13.54"/><rect class="cls-2" x="88.37" y="102.91" width="17.11" height="13.54"/><rect class="cls-8" x="88.37" y="118.53" width="17.11" height="4.1"/><rect class="cls-8" x="110.13" y="118.53" width="17.11" height="4.1"/><rect class="cls-8" x="131.9" y="118.53" width="17.11" height="4.1"/><rect class="cls-2" x="88.37" y="125.48" width="17.11" height="2.32"/><rect class="cls-2" x="110.13" y="125.48" width="17.11" height="2.32"/><rect class="cls-2" x="131.9" y="125.48" width="17.11" height="2.32"/><rect class="cls-2" x="88.37" y="130.36" width="17.11" height="2.32"/><rect class="cls-2" x="110.13" y="130.36" width="17.11" height="2.32"/><rect class="cls-2" x="131.9" y="130.36" width="17.11" height="2.32"/><path class="cls-3" d="M151.93,72.18V17.68a3.71,3.71,0,0,0-3.61-3.82H113.1a3.71,3.71,0,0,0-3.61,3.82V72.18A3.71,3.71,0,0,0,113.1,76h35.22A3.71,3.71,0,0,0,151.93,72.18Z"/><path class="cls-4" d="M133.57,16h-5.72a.58.58,0,0,0,0,1.16h5.72a.58.58,0,1,0,0-1.16Z"/><path class="cls-1" d="M113.25,66.5a.19.19,0,0,1,0,0V19.4a.2.2,0,0,1,0,0h34.91a.16.16,0,0,1,0,0V66.45a.14.14,0,0,1,0,0Z"/><rect class="cls-4" x="128.63" y="69.18" width="4.14" height="4.14" rx="1.27" ry="1.27"/><rect class="cls-6" x="125.03" y="23.14" width="20.54" height="6.08"/><rect class="cls-7" x="115.85" y="23.14" width="6.54" height="6.08"/><rect class="cls-2" x="132.48" y="32.09" width="13.08" height="10.35"/><rect class="cls-2" x="115.85" y="32.09" width="13.08" height="10.35"/><rect class="cls-8" x="115.85" y="44.04" width="13.08" height="3.13"/><rect class="cls-8" x="132.48" y="44.04" width="13.08" height="3.13"/><rect class="cls-2" x="115.85" y="49.34" width="13.08" height="1.77"/><rect class="cls-2" x="132.48" y="49.34" width="13.08" height="1.77"/><rect class="cls-2" x="115.85" y="53.07" width="13.08" height="1.77"/><rect class="cls-2" x="132.48" y="53.07" width="13.08" height="1.77"/><rect class="cls-2" x="115.85" y="56.8" width="13.08" height="1.77"/><rect class="cls-2" x="132.48" y="56.8" width="13.08" height="1.77"/><rect class="cls-2" x="115.85" y="60.67" width="13.08" height="1.77"/><rect class="cls-2" x="132.48" y="60.67" width="13.08" height="1.77"/><rect class="cls-3" x="36.9" y="95.78" width="28.37" height="54.22" rx="6.72" ry="6.72"/><path class="cls-4" d="M54.26,99H47.89a.64.64,0,0,0,0,1.29h6.37a.64.64,0,0,0,0-1.29Z"/><rect class="cls-1" x="38.36" y="103.08" width="25.42" height="36.42"/><rect class="cls-4" x="48.77" y="142.21" width="4.62" height="4.62" rx="1.41" ry="1.41"/><rect class="cls-6" x="42.49" y="105.17" width="17.65" height="3.45"/><rect class="cls-2" x="42.02" y="111.87" width="18.11" height="11.72"/><rect class="cls-8" x="42.02" y="125.41" width="18.11" height="3.55"/><rect class="cls-2" x="42.02" y="131.42" width="18.11" height="2.01"/><rect class="cls-2" x="42.02" y="135.66" width="18.11" height="2.01"/><path class="cls-3" d="M13.54,108.17H25.07a5.18,5.18,0,0,1,5.18,5.18h0v31.47A5.18,5.18,0,0,1,25.06,150H13.54a5.18,5.18,0,0,1-5.18-5.18h0V113.35a5.18,5.18,0,0,1,5.18-5.18Z"/><path class="cls-4" d="M21.76,110.65H16.84a.5.5,0,0,0,0,1h4.92a.5.5,0,0,0,0-1Z"/><rect class="cls-1" x="9.49" y="113.79" width="19.62" height="28.1"/><rect class="cls-4" x="17.52" y="143.99" width="3.56" height="3.56" rx="1.09" ry="1.09"/><rect class="cls-7" x="12.67" y="115.41" width="13.62" height="2.66"/><rect class="cls-2" x="12.31" y="120.58" width="13.97" height="9.04"/><rect class="cls-8" x="12.31" y="131.03" width="13.97" height="2.74"/><rect class="cls-2" x="12.31" y="135.67" width="13.97" height="1.55"/><rect class="cls-2" x="12.31" y="138.93" width="13.97" height="1.55"/></g></g></svg>