<svg xmlns="http://www.w3.org/2000/svg" xmlns:xlink="http://www.w3.org/1999/xlink" viewBox="0 0 53.64 110.1"><defs><style>.cls-1{fill:#e08c8c;}.cls-2{fill:#fbb03b;}.cls-3{fill:#419faf;}.cls-4{fill:#255a63;}</style><symbol id="Rocket" data-name="Rocket" viewBox="0 0 53.64 110.1"><polygon class="cls-1" points="24.55 110.1 19.45 69.76 35.16 70.84 24.55 110.1"/><polygon class="cls-2" points="25.36 98.48 22.08 72.59 32.17 73.29 25.36 98.48"/><path class="cls-3" d="M37.68,68.16A104,104,0,0,0,42.61,42C44.18,19.3,32.17,0,32.17,0S17.62,17.47,16,40.15a104,104,0,0,0,1.28,26.6Z"/><path class="cls-3" d="M40.48,68.35l13,12.08c1.61-26.31-8.36-36.16-8.36-36.16A89.69,89.69,0,0,1,40.48,68.35Z"/><path class="cls-3" d="M14.53,66.56,0,76.74C2,50.46,13.25,42.07,13.25,42.07A89.67,89.67,0,0,0,14.53,66.56Z"/><circle class="cls-4" cx="30.13" cy="29.49" r="7.38" transform="translate(-1.37 57.51) rotate(-86.04)"/></symbol></defs><title>rocket</title><g id="Ebene_2" data-name="Ebene 2"><g id="Section_-_Seo" data-name="Section - Seo"><use id="Rocket-3" data-name="Rocket" width="53.64" height="110.1" xlink:href="#Rocket"/></g></g></svg>