<svg xmlns="http://www.w3.org/2000/svg" viewBox="0 0 684 754"><defs><style>.cls-1{fill:#c4c4c4;}.cls-2{fill:#34c9a2;}.cls-3{fill:#27ba90;}.cls-4{fill:#fff;}.cls-5{fill:#e4e5e7;}</style></defs><title>Zeichenfläche 2</title><g id="art"><g id="usability_testing" data-name="usability testing"><rect class="cls-1" x="274.75" y="293" width="124.37" height="10"/><rect class="cls-1" x="274.75" y="318" width="124.37" height="10"/><rect class="cls-1" x="274.75" y="343" width="124.37" height="10"/><rect class="cls-1" x="274.75" y="368" width="62.19" height="10"/><rect class="cls-1" x="437.67" y="293" width="124.38" height="10"/><rect class="cls-1" x="437.67" y="318" width="124.38" height="10"/><rect class="cls-1" x="437.67" y="343" width="124.38" height="10"/><rect class="cls-1" x="437.67" y="368" width="62.19" height="10"/><rect class="cls-2" x="274.75" y="173" width="125.83" height="100"/><rect class="cls-2" x="437.67" y="173" width="125.83" height="100"/><rect class="cls-3" x="437.67" y="498" width="50" height="225"/><rect class="cls-3" x="41.84" y="23" width="600" height="75"/><rect x="71.84" y="55.5" width="16" height="10"/><rect x="103.84" y="55.5" width="16" height="10"/><rect x="135.84" y="55.5" width="16" height="10"/><rect x="205.47" y="55.5" width="109.09" height="10"/><rect class="cls-4" x="314.56" y="55.5" width="270.67" height="10"/><rect x="41.83" y="93" width="600" height="10"/><rect x="41.83" y="618" width="370.83" height="10"/><rect x="512.67" y="618" width="125" height="10"/><polygon points="646.83 678 512.67 678 512.67 668 636.83 668 636.83 28 46.83 28 46.83 668 412.67 668 412.67 678 36.83 678 36.83 18 646.83 18 646.83 678"/><rect class="cls-1" x="112.67" y="293" width="124.38" height="10"/><rect class="cls-1" x="112.67" y="318" width="124.38" height="10"/><rect class="cls-1" x="112.67" y="343" width="124.38" height="10"/><rect class="cls-1" x="112.67" y="368" width="62.19" height="10"/><rect class="cls-1" x="112.67" y="468" width="274.37" height="10"/><rect class="cls-1" x="112.67" y="493" width="274.37" height="10"/><rect class="cls-1" x="112.67" y="518" width="274.37" height="10"/><rect class="cls-1" x="112.67" y="543" width="137.19" height="10"/><rect x="177.67" y="23" width="10" height="75"/><path d="M462.67,478a130,130,0,1,1,130-130A130.14,130.14,0,0,1,462.67,478Zm0-250a120,120,0,1,0,120,120A120.14,120.14,0,0,0,462.67,228Z"/><circle class="cls-1" cx="462.67" cy="348" r="100"/><path class="cls-5" d="M392,418.71A100,100,0,0,1,533.38,277.29Z"/><rect x="457.67" y="473" width="10" height="25"/><path d="M492.67,728h-60V493h60Zm-50-10h40V503h-40Z"/><polygon class="cls-1" points="617.67 603 512.67 603 512.67 593 607.67 593 607.67 128 71.83 128 71.83 593 412.67 593 412.67 603 61.83 603 61.83 118 617.67 118 617.67 603"/><rect class="cls-2" x="111.84" y="173" width="125.83" height="100"/><rect x="111.84" y="418" width="100.83" height="10"/><rect x="111.84" y="443" width="25.83" height="10"/><rect x="161.84" y="443" width="25.83" height="10"/></g></g></svg>