<svg xmlns="http://www.w3.org/2000/svg" xmlns:xlink="http://www.w3.org/1999/xlink" viewBox="0 0 204.6 101.1"><defs><clipPath id="clip-path"><circle cx="73.1" cy="55.2" r="8.1" transform="translate(-9.7 16) rotate(-11.7)" style="fill:#82b541"/></clipPath></defs><title>searchWebsite</title><g id="Ebene_2" data-name="Ebene 2"><g id="Startseite"><g id="Section_-_Willkommen" data-name="Section - Willkommen"><g id="searchWebsite"><circle cx="23.5" cy="45.2" r="23.5" style="fill:#6491ca"/><circle cx="23.5" cy="45.2" r="20.3" style="fill:#fdfaf0"/><circle cx="23.5" cy="45.2" r="16.7" style="fill:#6491ca"/><circle cx="23.5" cy="45.2" r="13.6" style="fill:#fdfaf0"/><circle cx="23.5" cy="45.2" r="10.3" style="fill:#6491ca"/><circle cx="23.5" cy="45.2" r="7.2" style="fill:#fdfaf0"/><circle cx="23.5" cy="45.2" r="3.1" style="fill:#5a636c"/><polygon points="44.6 35.9 45.5 35.5 48 29.3 47.1 29.7 44.6 35.9" style="fill:#737583"/><polygon points="46.4 35.1 47.3 34.7 49.7 28.6 48.8 29 46.4 35.1" style="fill:#737583"/><polygon points="48.1 34.4 49 34 51.5 27.8 50.5 28.2 48.1 34.4" style="fill:#737583"/><polygon points="49.8 33.6 50.8 33.2 53.2 27.1 52.3 27.5 49.8 33.6" style="fill:#737583"/><polygon points="51.6 32.9 52.5 32.5 54.9 26.3 54 26.7 51.6 32.9" style="fill:#737583"/><polygon points="53.3 32.1 54.2 31.7 56.7 25.6 55.7 26 53.3 32.1" style="fill:#737583"/><polygon points="44.6 35.9 45.6 35.5 51.7 38 50.8 38.4 44.6 35.9" style="fill:#272b40"/><polygon points="46.4 35.2 47.3 34.8 53.4 37.2 52.5 37.6 46.4 35.2" style="fill:#272b40"/><polygon points="48.1 34.4 49 34 55.2 36.5 54.2 36.9 48.1 34.4" style="fill:#272b40"/><polygon points="49.8 33.7 50.8 33.3 56.9 35.7 56 36.1 49.8 33.7" style="fill:#272b40"/><polygon points="51.6 32.9 52.5 32.5 58.7 35 57.7 35.4 51.6 32.9" style="fill:#272b40"/><polygon points="53.3 32.2 54.3 31.8 60.4 34.2 59.5 34.6 53.3 32.2" style="fill:#272b40"/><rect x="24.7" y="37.1" width="32" height="0.91" rx="0.1" ry="0.1" transform="translate(-11.5 19.1) rotate(-23.3)" style="fill:#515b64"/><polygon points="24.6 44.6 26.6 43.7 25.8 41.7 24.2 43.6 24.6 44.6" style="fill:#737583"/><polygon points="25 45.5 27.5 45.6 26.6 43.7 24.6 44.6 25 45.5" style="fill:#272b40"/><rect x="6.2" y="66.3" width="49.9" height="34.78" rx="17.4" ry="17.4" style="fill:#ebebeb"/><rect x="6.2" y="57.4" width="49.9" height="42.53" rx="21.1" ry="21.1" style="fill:#efefef"/><rect x="6.2" y="57.1" width="49.9" height="41.66" rx="20.8" ry="20.8" style="fill:#fdfaf0"/><rect x="8.6" y="70.8" width="5.8" height="5.93" rx="0.3" ry="0.3" style="fill:#90969c"/><rect x="8.6" y="77.4" width="5.8" height="5.93" rx="0.3" ry="0.3" style="fill:#90969c"/><rect x="8.6" y="84.1" width="5.8" height="5.93" rx="0.3" ry="0.3" style="fill:#90969c"/><rect x="8.6" y="90.8" width="5.8" height="5.93" rx="0.3" ry="0.3" style="fill:#90969c"/><rect x="15.2" y="70.8" width="5.8" height="5.93" rx="0.3" ry="0.3" style="fill:#90969c"/><rect x="15.2" y="77.4" width="5.8" height="5.93" rx="0.3" ry="0.3" style="fill:#90969c"/><rect x="15.2" y="84.1" width="5.8" height="5.93" rx="0.3" ry="0.3" style="fill:#90969c"/><rect x="15.2" y="90.8" width="5.8" height="5.93" rx="0.3" ry="0.3" style="fill:#90969c"/><rect x="21.7" y="70.8" width="5.8" height="5.93" rx="0.3" ry="0.3" style="fill:#90969c"/><rect x="21.7" y="77.4" width="5.8" height="5.93" rx="0.3" ry="0.3" style="fill:#90969c"/><rect x="21.7" y="84.1" width="5.8" height="5.93" rx="0.3" ry="0.3" style="fill:#90969c"/><rect x="21.7" y="90.8" width="5.8" height="5.93" rx="0.3" ry="0.3" style="fill:#90969c"/><rect x="28.2" y="70.8" width="5.8" height="5.93" rx="0.3" ry="0.3" style="fill:#90969c"/><rect x="28.2" y="77.4" width="5.8" height="5.93" rx="0.3" ry="0.3" style="fill:#6491ca"/><rect x="28.2" y="84.1" width="5.8" height="5.93" rx="0.3" ry="0.3" style="fill:#90969c"/><rect x="28.2" y="90.8" width="5.8" height="5.93" rx="0.3" ry="0.3" style="fill:#90969c"/><rect x="34.8" y="70.8" width="5.8" height="5.93" rx="0.3" ry="0.3" style="fill:#90969c"/><rect x="34.8" y="77.4" width="5.8" height="5.93" rx="0.3" ry="0.3" style="fill:#90969c"/><rect x="34.8" y="84.1" width="5.8" height="5.93" rx="0.3" ry="0.3" style="fill:#90969c"/><rect x="34.8" y="90.8" width="5.8" height="5.93" rx="0.3" ry="0.3" style="fill:#90969c"/><path d="M52.7,56.2H9.6a3.2,3.2,0,0,0-3.4,2.9v9.7H56.1V59.1A3.2,3.2,0,0,0,52.7,56.2ZM11.8,63.6a2.3,2.3,0,1,1,2.3-2.3A2.3,2.3,0,0,1,11.8,63.6Zm6.4,0a2.3,2.3,0,1,1,0-4.6,2.3,2.3,0,0,1,0,4.6Zm6.5,0A2.3,2.3,0,1,1,27,61.3,2.3,2.3,0,0,1,24.7,63.6Zm6.5,0a2.3,2.3,0,0,1,0-4.6,2.3,2.3,0,1,1,0,4.6Zm6.4,0a2.3,2.3,0,0,1,0-4.6,2.3,2.3,0,0,1,0,4.6Zm6.5,0a2.3,2.3,0,1,1,2.3-2.3A2.3,2.3,0,0,1,44.1,63.6Zm6.5,0a2.3,2.3,0,1,1,0-4.6,2.3,2.3,0,1,1,0,4.6Z" style="fill:#5a636c"/><rect x="41.3" y="70.8" width="5.8" height="5.93" rx="0.3" ry="0.3" style="fill:#90969c"/><rect x="41.3" y="77.4" width="5.8" height="5.93" rx="0.3" ry="0.3" style="fill:#90969c"/><rect x="41.3" y="84.1" width="5.8" height="5.93" rx="0.3" ry="0.3" style="fill:#90969c"/><rect x="41.3" y="90.8" width="5.8" height="5.93" rx="0.3" ry="0.3" style="fill:#90969c"/><rect x="47.8" y="70.8" width="5.8" height="5.93" rx="0.3" ry="0.3" style="fill:#90969c"/><rect x="47.8" y="77.4" width="5.8" height="5.93" rx="0.3" ry="0.3" style="fill:#90969c"/><rect x="47.8" y="84.1" width="5.8" height="5.93" rx="0.3" ry="0.3" style="fill:#90969c"/><rect x="47.8" y="90.8" width="5.8" height="5.93" rx="0.3" ry="0.3" style="fill:#90969c"/><path d="M11.8,53.9h0a.9.9,0,0,0-1,1v5.4a1,1,0,0,0,1,1h0a1,1,0,0,0,1-1V54.9A.9.9,0,0,0,11.8,53.9Z" style="fill:#efefef"/><path d="M18.2,53.9h0a1,1,0,0,0-1,1v5.4a1.1,1.1,0,0,0,1,1h0a1.1,1.1,0,0,0,1.1-1V54.9A1,1,0,0,0,18.2,53.9Z" style="fill:#efefef"/><path d="M24.7,53.9h0a.9.9,0,0,0-1,1v5.4a1,1,0,0,0,1,1h0a1,1,0,0,0,1-1V54.9A.9.9,0,0,0,24.7,53.9Z" style="fill:#efefef"/><path d="M31.2,53.9h0a1,1,0,0,0-1.1,1v5.4a1.1,1.1,0,0,0,1.1,1h0a1.1,1.1,0,0,0,1-1V54.9A1,1,0,0,0,31.2,53.9Z" style="fill:#efefef"/><path d="M37.6,53.9h0a1,1,0,0,0-1,1v5.4a1.1,1.1,0,0,0,1,1h0a1.1,1.1,0,0,0,1.1-1V54.9A1,1,0,0,0,37.6,53.9Z" style="fill:#efefef"/><path d="M44.1,53.9h0a.9.9,0,0,0-1,1v5.4a1,1,0,0,0,1,1h0a1,1,0,0,0,1-1V54.9A.9.9,0,0,0,44.1,53.9Z" style="fill:#efefef"/><path d="M50.6,53.9h0a1,1,0,0,0-1.1,1v5.4a1.1,1.1,0,0,0,1.1,1h0a1.1,1.1,0,0,0,1-1V54.9A1,1,0,0,0,50.6,53.9Z" style="fill:#efefef"/><path d="M31,75.7l-1.2.4a2.7,2.7,0,0,0-1,.6,3.9,3.9,0,0,0-1.4,1.7,3,3,0,0,0-.3,2.1,1.9,1.9,0,0,0,.3,1,.4.4,0,0,0,.1.3V82h.2v.2l.4.5.2.2.2.2.4.3.2.2.2.2a7.5,7.5,0,0,0,2,1,4.5,4.5,0,0,0,2,.1H35l.4-.3.8-.7v-.2c.1,0,.1,0,.1-.1l.2-.2v-.2h0v-.2l.3-1a4.3,4.3,0,0,0,.1-.5v-.6a5.7,5.7,0,0,0-.2-2.2,4.2,4.2,0,0,0-.4-1,10.4,10.4,0,0,0-.4-1,8,8,0,0,0-1.5-1.7l-1-.5-1-.4H30.3l-1,.5-1,.7h0l.9-.8,1.1-.5,1.1-.2a2.4,2.4,0,0,1,1.2,0,4.3,4.3,0,0,1,2.2.9A4.6,4.6,0,0,1,36.5,76a8.8,8.8,0,0,1,1,2.2,9.9,9.9,0,0,1,.3,2.4v.3a.4.4,0,0,1-.1.3v.6a4.9,4.9,0,0,1-.4,1.1v.2h0l-.2.3v.2h-.1V84a2.4,2.4,0,0,1-.9.8l-.5.4H33.7a6.3,6.3,0,0,1-2.4-.2l-2.2-1.1a6.9,6.9,0,0,1-1.6-1.8l-.2-.2h-.1v-.2L27,82v-.3a2.7,2.7,0,0,1-.3-1.2,3.7,3.7,0,0,1,.5-2.3,4.4,4.4,0,0,1,1.6-1.7,4.9,4.9,0,0,1,2.3-.8Z" style="fill:#515b64"/><path d="M194.8,48.3c5.8-5.8,7.2-13.9,7.2-13.9l-21,21A28.1,28.1,0,0,0,194.8,48.3Z" style="fill:#3e4654"/><path d="M181,55.4l21-21s-8.1,1.4-13.8,7.2A28.8,28.8,0,0,0,181,55.4Z" style="fill:#162030"/><path d="M190.9,32.8a21,21,0,0,0,5.1-9.9l-15,15A21,21,0,0,0,190.9,32.8Z" style="fill:#3e4654"/><path d="M181,37.9l15-15a20.6,20.6,0,0,0-9.9,5.1A21,21,0,0,0,181,37.9Z" style="fill:#162030"/><path d="M167.1,48.3c-5.8-5.8-7.2-13.9-7.2-13.9l21,21A28.1,28.1,0,0,1,167.1,48.3Z" style="fill:#3e4654"/><path d="M180.9,55.4l-21-21s8.1,1.4,13.9,7.2A28.1,28.1,0,0,1,180.9,55.4Z" style="fill:#162030"/><path d="M171,32.8a21,21,0,0,1-5.1-9.9l15,15A21,21,0,0,1,171,32.8Z" style="fill:#3e4654"/><path d="M180.9,37.9l-15-15a20.6,20.6,0,0,1,9.9,5.1A20,20,0,0,1,180.9,37.9Z" style="fill:#162030"/><polygon points="180.9 23.1 181.1 23.1 182.5 73.6 179.5 73.6 180.9 23.1" style="fill:#3e4654"/><circle cx="181" cy="13.1" r="12.1" transform="translate(37.1 123.7) rotate(-41.7)" style="fill:#737583;stroke:#ebce3d;stroke-miterlimit:10;stroke-width:2.13858592164819px"/><path d="M174.8,18.9l1.3-1.6a9.9,9.9,0,0,1-2.3-3.1l2.1-1.5a8.6,8.6,0,0,0,2.3,3c.9.8,1.9.9,2.5.3s.3-1.5-.7-3-1.9-3.9-.5-5.6,3.2-1.8,5.3-.7l1.3-1.6,1.7,1.3-1.2,1.5a7.8,7.8,0,0,1,2,2.6l-2,1.5a7.3,7.3,0,0,0-2-2.5c-1.1-.9-1.9-.7-2.3-.3s-.1,1.4.9,3.1,1.5,4,.3,5.5a4.2,4.2,0,0,1-5.6.7l-1.4,1.8Z" style="fill:#ebce3d"/><polygon points="195.7 101.1 166.3 101.1 159.8 58.7 202.1 58.7 195.7 101.1" style="fill:#262626"/><rect x="156.3" y="57" width="48.3" height="7.41" rx="3.7" ry="3.7" style="fill:#5c5c5c"/><path d="M136.9,39.5H60.8A2.5,2.5,0,0,0,58.3,42V92a2.5,2.5,0,0,0,2.5,2.5h76.1a2.5,2.5,0,0,0,2.5-2.5V42A2.5,2.5,0,0,0,136.9,39.5ZM98.7,42.8a1.1,1.1,0,1,1,1.1-1.1A1.1,1.1,0,0,1,98.7,42.8Z" style="fill:#515b64"/><path d="M114.1,96.3a1.7,1.7,0,0,1-1.3.9H85.1a1.4,1.4,0,0,1-1.3-.9H49.5v2.2a2.8,2.8,0,0,0,2.8,2.6h93.2a2.8,2.8,0,0,0,2.9-2.6V96.3ZM58.7,99.1h-.4V97.7h.4Zm.8,0h-.4V97.7h.4Zm.8,0h-.5V97.7h.5Zm.8,0h-.5V97.7h.5Zm.7,0h-.4V97.7h.4Zm.8,0h-.4V97.7h.4Zm.8,0H63V97.7h.4Zm.8,0h-.5V97.7h.5Zm.8,0h-.5V97.7H65Zm.7,0h-.4V97.7h.4Zm.8,0h-.4V97.7h.4Zm.8,0h-.5V97.7h.5Zm.8,0h-.5V97.7h.5Zm.7,0h-.4V97.7h.4Zm.8,0h-.4V97.7h.4Zm.8,0H70V97.7h.4Zm.8,0h-.5V97.7h.5Zm.8,0h-.5V97.7H72Zm.7,0h-.4V97.7h.4Zm.8,0h-.4V97.7h.4Zm.8,0h-.5V97.7h.5Zm.9,0h-.6V97.7h.6Zm47.8,0h-.5V97.7h.5Zm.7,0h-.4V97.7h.4Zm.8,0h-.4V97.7h.4Zm.8,0h-.4V97.7h.4Zm.8,0h-.5V97.7h.5Zm.8,0h-.5V97.7h.5Zm.7,0h-.4V97.7h.4Zm.8,0H128V97.7h.4Zm.8,0h-.5V97.7h.5Zm.8,0h-.5V97.7h.5Zm.7,0h-.4V97.7h.4Zm.8,0h-.4V97.7h.4Zm.8,0h-.5V97.7h.5Zm.8,0h-.5V97.7h.5Zm.7,0h-.4V97.7h.4Zm.8,0h-.4V97.7h.4Zm.8,0H135V97.7h.4Zm.8,0h-.5V97.7h.5Zm.8,0h-.5V97.7h.5Zm.7,0h-.4V97.7h.4Zm.8,0h-.4V97.7h.4Zm.9,0h-.6V97.7h.6Z" style="fill:#515b64"/><circle cx="98.7" cy="41.7" r="1.2" style="fill:#fdfaf0"/><path d="M65.3,43.5a2.1,2.1,0,0,0-2.1,2.2V88.3a2.1,2.1,0,0,0,2.1,2.2H82.9v-47Z" style="fill:#737583"/><path d="M132.4,43.5H82.9v47h49.5a2.2,2.2,0,0,0,2.2-2.2V45.7A2.2,2.2,0,0,0,132.4,43.5Z" style="fill:#fdfaf0"/><rect x="65" y="74.4" width="16.3" height="5.05" style="fill:#34384b"/><rect x="65" y="68.5" width="16.2" height="1.5" style="fill:#fdfaf0"/><rect x="65" y="71.3" width="16.2" height="1.5" style="fill:#fdfaf0"/><rect x="65" y="80.7" width="16.2" height="1.5" style="fill:#34384b"/><circle cx="73.1" cy="55.2" r="8.1" transform="translate(-9.7 16) rotate(-11.7)" style="fill:#82b541"/><g style="clip-path:url(#clip-path)"><polygon points="69.3 58.1 66.2 61.2 68.3 63.2 69.3 62.1 69.3 58.1" style="fill:#7c848b"/><path d="M74,58.2a.9.9,0,0,1-1,.8h0a.9.9,0,0,1-.9-.8V56.1a.9.9,0,0,1,.9-.8h0a.9.9,0,0,1,1,.8Z" style="fill:#bebebe"/><path d="M74,57c0,.3-.4.5-1,.5h0c-.5,0-.9-.2-.9-.5V55.8c0-.3.4-.5.9-.5h0c.6,0,1,.2,1,.5Z" style="fill:#a2a2a2"/><path d="M76.4,54.1c0,.5-.2.9-.5.9s-.6-.4-.6-.9.2-.8.6-.8S76.4,53.7,76.4,54.1Z" style="fill:#bebebe"/><path d="M76.3,54.1c0,.4-.2.7-.4.7s-.5-.3-.5-.7a.6.6,0,0,1,.5-.6C76.1,53.5,76.3,53.8,76.3,54.1Z" style="fill:#a2a2a2"/><path d="M70.8,54.1c0,.5-.2.9-.5.9s-.6-.4-.6-.9.2-.8.6-.8S70.8,53.7,70.8,54.1Z" style="fill:#bebebe"/><path d="M70.7,54.1c0,.4-.2.7-.4.7s-.5-.3-.5-.7a.6.6,0,0,1,.5-.6C70.5,53.5,70.7,53.8,70.7,54.1Z" style="fill:#a2a2a2"/><polygon points="71.1 57.8 71.1 63.6 71.1 69 75 69 75 57.8 75 57.8 71.1 57.8" style="fill:#fdfaf0"/><polygon points="73.3 64 73.5 58.4 72.6 58.4 72.8 64 73.3 64" style="fill:#6491ca"/><path d="M76.1,53.4A2.9,2.9,0,0,1,73,56.1h0a2.9,2.9,0,0,1-3-2.7V51.2a2.8,2.8,0,0,1,3-2.6h0a2.8,2.8,0,0,1,3.1,2.6Z" style="fill:#f2f2f2"/><path d="M71.3,57.8l-2,.3V68.8c0,.1,0,.2.1.2h3.5c.1,0,.1-.1.1-.2v-5h0l-1.6-5.9Z" style="fill:#90969c"/><path d="M75.7,54.6V52.4A2.6,2.6,0,0,0,73,49.8v7.4A2.6,2.6,0,0,0,75.7,54.6Z" style="fill:#adadad"/><path d="M73,49.8a2.6,2.6,0,0,0-2.6,2.6v2.2A2.6,2.6,0,0,0,73,57.2h0V49.8Z" style="fill:#bebebe"/><path d="M72.9,55.8a1.2,1.2,0,0,1-1.1-.7h-.2a1.4,1.4,0,0,0,1.3,1.2,1.4,1.4,0,0,0,1.4-1.2h-.2A1.4,1.4,0,0,1,72.9,55.8Z" style="fill:#fff"/><path d="M72.4,53.4a.4.4,0,0,1-.4.4.5.5,0,0,1-.5-.4.5.5,0,0,1,.5-.5A.5.5,0,0,1,72.4,53.4Z" style="fill:#fff"/><path d="M72.2,53.4a.2.2,0,0,1-.2.2c-.2,0-.3-.1-.3-.2a.3.3,0,0,1,.3-.3C72.1,53.1,72.2,53.2,72.2,53.4Z"/><path d="M74.4,53.4a.5.5,0,0,1-.5.4.4.4,0,0,1-.4-.4.5.5,0,0,1,.4-.5A.5.5,0,0,1,74.4,53.4Z" style="fill:#fff"/><path d="M74.2,53.4c0,.1-.1.2-.3.2a.2.2,0,0,1-.2-.2c0-.2.1-.3.2-.3A.3.3,0,0,1,74.2,53.4Z"/><path d="M72.5,52.7a.7.7,0,0,0-1,0h-.2a1,1,0,0,1,1.4,0Z" style="fill:#f2f2f2"/><path d="M74.5,52.7a.8.8,0,0,0-1.1,0h-.2a1,1,0,0,1,1.4,0Z" style="fill:#f2f2f2"/><path d="M72.7,54a.4.4,0,0,0,.3.4v-.7A.3.3,0,0,0,72.7,54Z" style="fill:#adadad"/><path d="M75.4,51.1c0,.4-1.1.7-2.4.7s-2.3-.3-2.3-.7,1-.8,2.3-.8S75.4,50.6,75.4,51.1Z" style="fill:#f2f2f2"/><path d="M75.4,50.5c0,.4-1.1.8-2.4.8s-2.3-.4-2.3-.8,1-.8,2.3-.8S75.4,50.1,75.4,50.5Z" style="fill:#f2f2f2"/><path d="M76.6,49.4c0,.6-.5,1.4-2.2,1.4s-3.2-.5-3.2-1.1,1.4-1.1,3.2-1.1S76.6,48.8,76.6,49.4Z" style="fill:#e5c13f"/><path d="M77.3,49.6c0,.6-1.4,1-3.2,1s-3.1-.4-3.1-1,1.4-1.1,3.1-1.1S77.3,49,77.3,49.6Z" style="fill:#f2f2f2"/><path d="M72.3,57.9v.2c0,.6.3,1,.7,1s.8-.4.8-1v-.2Z" style="fill:#467cc0"/><path d="M72.2,57.8V58c0,.6.3,1.1.8,1.1a1,1,0,0,0,.9-1.1v-.2Z" style="fill:#6491ca"/><polygon points="73.1 57.8 72.2 59.3 71.4 57.8 73.1 57.8" style="fill:#fff"/><polygon points="76.8 58.1 79.8 61.2 77.8 63.2 76.7 62.1 76.8 58.1" style="fill:#707980"/><path d="M74.8,57.8a13.8,13.8,0,0,1,2,.3V68.8a.3.3,0,0,1-.1.2H73.2a.2.2,0,0,1-.2-.2v-5h0l1.6-5.7v-.2A.1.1,0,0,1,74.8,57.8Z" style="fill:#7c848b"/><polygon points="73 57.8 73.9 59.3 74.7 57.8 73 57.8" style="fill:#fff"/><rect x="74.2" y="61.6" width="2.3" height="0.59" style="fill:#707980"/><polygon points="74.7 57.9 75.2 59.5 74.6 60 74.4 61.4 73.2 63.1 74.7 57.9" style="fill:#90969c"/><polygon points="71.4 57.9 70.9 59.5 71.5 60 71.6 61.4 72.8 63.1 71.4 57.9" style="fill:#7c848b"/></g><path d="M84.8,66.7h2.6a4.6,4.6,0,0,0,4.4,4.5v2.5A7.1,7.1,0,0,1,84.8,66.7Z" style="fill:#90969c"/><path d="M87.4,66.4H84.8a7.2,7.2,0,0,1,7-7V62A4.4,4.4,0,0,0,87.4,66.4Z" style="fill:#6491ca"/><path d="M92.1,62V59.4a7.1,7.1,0,0,1,7,7H96.6A4.6,4.6,0,0,0,92.1,62Z" style="fill:#5a636c"/><path d="M92.1,73.7V71.2a4.8,4.8,0,0,0,4.5-4.5h2.5A7,7,0,0,1,92.1,73.7Z" style="fill:#737583"/><path d="M117.1,66.7h2.6a4.7,4.7,0,0,0,4.4,4.5v2.5A7.1,7.1,0,0,1,117.1,66.7Z" style="fill:#82b541"/><path d="M119.7,66.4h-2.6a7.2,7.2,0,0,1,7-7V62A4.5,4.5,0,0,0,119.7,66.4Z" style="fill:#5c5c5c"/><path d="M124.5,62V59.4a7.2,7.2,0,0,1,7,7h-2.6A4.5,4.5,0,0,0,124.5,62Z" style="fill:#ebebeb"/><path d="M124.5,73.7V71.2a4.7,4.7,0,0,0,4.4-4.5h2.6A7.1,7.1,0,0,1,124.5,73.7Z" style="fill:#192333"/><path d="M100.9,66.4a7.2,7.2,0,0,1,14.4.2,7,7,0,0,1-7,7.1V71.2a4.7,4.7,0,1,0-4.8-4.8Z" style="fill:#3e4654"/><path d="M108,73.7a7.1,7.1,0,0,1-7.1-7h2.6a4.8,4.8,0,0,0,4.5,4.5Z" style="fill:#6491ca"/><rect x="84.8" y="51.2" width="46.5" height="1.5" style="fill:#efefef"/><rect x="84.8" y="54" width="46.5" height="1.5" style="fill:#efefef"/><path d="M82.9,43.5h46.6a5.1,5.1,0,0,1,5.1,5.1v0a0,0,0,0,1,0,0H82.9a0,0,0,0,1,0,0V43.5A0,0,0,0,1,82.9,43.5Z" style="fill:#90969c"/><path d="M121.9,81.1a1.3,1.3,0,0,0-1.3-1.4H96.7a1.3,1.3,0,0,0-1.3,1.4v1.7h26.5Z" style="fill:#ebce3d"/><path d="M95.4,82.8v1.7a1.3,1.3,0,0,0,1.3,1.4h23.9a1.3,1.3,0,0,0,1.3-1.4V82.8Z" style="fill:#ebce3d"/><rect x="142" y="52.1" width="28.9" height="48.97" rx="1.1" ry="1.1" transform="translate(-0.2 0.4) rotate(-0.1)" style="fill:#666f77"/><rect x="144.4" y="54.6" width="24.2" height="39.96" transform="translate(-0.2 0.4) rotate(-0.1)" style="fill:#fdfaf0"/><path d="M158.7,53a.3.3,0,0,1,.3.3h0a.3.3,0,0,1-.3.3h-4.8c-.1,0-.2-.1-.2-.3h0c0-.1.1-.3.2-.3Z" style="fill:#fdfaf0"/><rect x="154.6" y="95.9" width="3.7" height="3.71" rx="1.1" ry="1.1" transform="translate(-0.2 0.4) rotate(-0.1)" style="fill:none;stroke:#fdfaf0;stroke-width:0.331678013018687px"/><rect x="148.5" y="97" width="1.5" height="1.45" rx="0.3" ry="0.3" transform="translate(-0.2 0.4) rotate(-0.1)" style="fill:#fdfaf0"/><rect x="150.9" y="97" width="1.5" height="1.45" rx="0.3" ry="0.3" transform="translate(-0.2 0.4) rotate(-0.1)" style="fill:#fdfaf0"/><rect x="160.7" y="97" width="1.5" height="1.45" rx="0.3" ry="0.3" transform="translate(-0.2 0.4) rotate(-0.1)" style="fill:#fdfaf0"/><rect x="163.1" y="97" width="1.5" height="1.45" rx="0.3" ry="0.3" transform="translate(-0.2 0.4) rotate(-0.1)" style="fill:#fdfaf0"/><rect x="145.6" y="85.2" width="21.7" height="1.05" style="fill:#efefef"/><rect x="144.3" y="54.6" width="24.2" height="3.54" style="fill:#3e4654"/><rect x="145.6" y="63.4" width="10.3" height="3.54" style="fill:#ebebeb"/><rect x="157" y="63.4" width="10.3" height="3.54" style="fill:#ebebeb"/><rect x="145.6" y="59.3" width="21.7" height="1.05" style="fill:#efefef"/><rect x="145.6" y="61.2" width="21.7" height="1.05" style="fill:#efefef"/><path d="M164.8,89.1H148.1a.9.9,0,0,0-.9.9v2.4a.9.9,0,0,0,.9.9h16.7a.9.9,0,0,0,.9-.9V90A.9.9,0,0,0,164.8,89.1Z" style="fill:#f6f6f6"/><rect x="145.5" y="80.5" width="1.9" height="3.87" style="fill:#6491ca"/><rect x="148.4" y="77.8" width="1.9" height="6.59" style="fill:#6491ca"/><rect x="151.2" y="75.4" width="1.9" height="9.03" style="fill:#6491ca"/><rect x="154.1" y="72.8" width="1.9" height="11.61" style="fill:#6491ca"/><rect x="156.9" y="71.5" width="1.9" height="12.9" style="fill:#6491ca"/><rect x="159.8" y="71.9" width="1.9" height="12.47" style="fill:#6491ca"/><rect x="162.6" y="70.4" width="1.9" height="14.05" style="fill:#6491ca"/><rect x="165.4" y="67.8" width="1.9" height="16.63" style="fill:#6491ca"/></g></g></g></g></svg>