<svg xmlns="http://www.w3.org/2000/svg" viewBox="0 0 774.1 530"><title>sendMail</title><g style="isolation:isolate"><g id="Ebene_2" data-name="Ebene 2"><g id="Facebook"><circle cx="390.9" cy="265" r="265" style="fill:#467cc0"/><path d="M183.5,431.8s-57.6,16.2-48,16.2l513.4-1.5L617.7,428Z" style="fill:#82b541;opacity:0.2;mix-blend-mode:multiply"/><path d="M595.9,186a20.1,20.1,0,0,0-20-20h-374a20.1,20.1,0,0,0-20,20V417h414Z" style="fill:#5a636c"/><path d="M197.9,401V186a4,4,0,0,1,4-4h374a4,4,0,0,1,4,4V401Z" style="fill:#162030"/><path d="M632.2,419.6l-3.1,6.4-3.5,7.4a6.8,6.8,0,0,1-5.7,3.6h-462a6.8,6.8,0,0,1-5.7-3.6l-3.5-7.4-3.1-6.4c-.9-2,.1-3.6,2.3-3.6h482C632.1,416,633.1,417.6,632.2,419.6Z" style="fill:#5a636c"/><path d="M632.2,419.6l-3.1,6.4H148.7l-3.1-6.4c-.9-2,.1-3.6,2.3-3.6h482C632.1,416,633.1,417.6,632.2,419.6Z" style="fill:#272b40"/><rect x="369.9" y="417" width="38" height="9" style="fill:#f2f2f2"/><rect x="250.9" y="69" width="279" height="33" style="fill:#5a636c"/><rect x="250.9" y="102" width="279" height="298" style="fill:#fff"/><rect x="269.9" y="313" width="238" height="8" style="fill:#ebce3d"/><rect x="269.9" y="297" width="238" height="8" style="fill:#ebce3d"/><rect x="269.9" y="281" width="238" height="8" style="fill:#ebce3d"/><rect x="269.9" y="360" width="106" height="8" style="fill:#ebce3d"/><rect x="269.9" y="344" width="106" height="8" style="fill:#ebce3d"/><rect x="269.9" y="328" width="106" height="8" style="fill:#ebce3d"/><rect x="279.9" y="122" width="220" height="9" style="fill:#ebce3d"/><rect x="529.9" y="181" width="14" height="220" style="fill:#5a636c;opacity:0.2;mix-blend-mode:multiply"/><rect x="282.9" y="83" width="156" height="8" style="fill:#fff"/><rect x="415.9" y="83" width="23" height="8" style="fill:#fff"/><circle cx="488.9" cy="86.5" r="4.5" style="fill:#ebebeb"/><circle cx="474.9" cy="86.5" r="4.5" style="fill:#262626"/><circle cx="460.9" cy="86.5" r="4.5" style="fill:#fff"/><rect x="282.9" y="142" width="214" height="122"/><polygon points="496.9 264 389.9 264 282.9 264 282.9 203 282.9 142 389.9 202 496.9 142 496.9 203 496.9 264" style="fill:#e5c13f"/><polygon points="496.9 264 389.9 202 496.9 142 496.9 203 496.9 264" style="fill:#515b64;opacity:0.1;mix-blend-mode:multiply"/><rect x="388.9" y="328" width="120" height="42" style="fill:#82b541"/><rect x="388.9" y="328" width="120" height="24" style="fill:#82b541;opacity:0.2;mix-blend-mode:screen"/><path d="M426.3,357.7a6.6,6.6,0,0,1-1.5-4.1l2.4-.7a7.2,7.2,0,0,0,.8,3,2.3,2.3,0,0,0,3.6.6,2.3,2.3,0,0,0,.5-1.7,3.3,3.3,0,0,0-.5-2,6.1,6.1,0,0,0-1.6-1.7l-3.2-2.9a5.3,5.3,0,0,1-1.5-1.9,6.1,6.1,0,0,1-.4-2.4,4.2,4.2,0,0,1,1.2-3.3,5,5,0,0,1,3.5-1.2,4.5,4.5,0,0,1,3.4,1.2,6.3,6.3,0,0,1,1.3,3.8l-2.3.6a5,5,0,0,0-.6-2.6,1.8,1.8,0,0,0-1.8-.9c-1.5,0-2.3.7-2.3,2.1a2.6,2.6,0,0,0,.3,1.4,5,5,0,0,0,1,1.3l3.3,2.8a11.6,11.6,0,0,1,2,2.5,6.1,6.1,0,0,1,.8,3,4.9,4.9,0,0,1-1.3,3.4,4.9,4.9,0,0,1-3.4,1.2A4.5,4.5,0,0,1,426.3,357.7Z" style="fill:#fff"/><path d="M436.8,339.6h7.5v2h-4.8V348h3.9v1.9h-3.9v7.2h4.9V359h-7.6Z" style="fill:#fff"/><path d="M446.5,339.6h1.9l5.5,12.9V339.6h2.3V359h-1.8l-5.6-13.3V359h-2.3Z" style="fill:#fff"/><path d="M459.2,339.6h4.2c2.1,0,3.6.4,4.5,1.4a6.5,6.5,0,0,1,1.3,4.5v7.1c0,2.2-.4,3.8-1.3,4.8s-2.3,1.6-4.3,1.6h-4.4Zm4.3,17.5a2.8,2.8,0,0,0,2-.6,2.8,2.8,0,0,0,.8-1.5,18.5,18.5,0,0,0,.2-2.9v-6.3a14.7,14.7,0,0,0-.2-2.5,2.5,2.5,0,0,0-.9-1.3,3.5,3.5,0,0,0-2-.4h-1.5v15.5Z" style="fill:#fff"/><circle cx="488.9" cy="154" r="20" style="fill:#262626"/><path d="M482.1,146.8l-1.4.4-2,.3v-1.9a7.1,7.1,0,0,0,4-2.1h2v19.4h-2.6Z" style="fill:#fff"/><path d="M490.3,161.6a7,7,0,0,1-1.2-4.2V149a6.6,6.6,0,0,1,1.2-4.2,5.1,5.1,0,0,1,7.2,0,6.6,6.6,0,0,1,1.2,4.2v8.4a7,7,0,0,1-1.2,4.2,5.1,5.1,0,0,1-7.2,0Zm5.8-4.2V149a5.4,5.4,0,0,0-.5-2.7,1.7,1.7,0,0,0-1.7-.9,1.8,1.8,0,0,0-1.7.9,5.4,5.4,0,0,0-.5,2.7v8.4c0,2.4.7,3.6,2.2,3.6S496.1,159.8,496.1,157.4Z" style="fill:#fff"/><polygon points="511.2 371.4 483.3 348.3 484.2 384.4 491.5 372 499.8 389.1 505.2 386.5 496.9 369.4 511.2 371.4" style="fill:#515b64"/><rect x="141.9" y="79" width="91" height="65" style="fill:#5a636c"/><polygon points="232.9 144 187.4 144 141.9 144 141.9 111.5 141.9 79 187.4 112 232.9 79 232.9 111.5 232.9 144" style="fill:#fff"/><polygon points="232.9 144 186.9 112 232.9 79 232.9 111.5 232.9 144" style="fill:#515b64;opacity:0.1;mix-blend-mode:multiply"/><polygon points="135.9 128 111.9 128 106.4 122 135.9 122 135.9 128" style="fill:#fff"/><polygon points="135.9 113 91.9 113 81.9 107 135.9 107 135.9 113" style="fill:#fff"/><polygon points="135.9 98 79.9 98 69.9 92 135.9 92 135.9 98" style="fill:#fff"/><rect x="550.9" y="32" width="111" height="108" style="fill:#fff"/><path d="M593.4,108.3a20.4,20.4,0,0,1-8.8-8.4,27.6,27.6,0,0,1-3.2-13.8c0-7,1.2-12.9,3.5-17.6a23.4,23.4,0,0,1,9.5-10.6,28.2,28.2,0,0,1,14.2-3.5,20.5,20.5,0,0,1,11.6,3.2,19.4,19.4,0,0,1,7.1,8.4,28.7,28.7,0,0,1,2.3,11.4,26.4,26.4,0,0,1-1.8,9.9,17.5,17.5,0,0,1-5.1,7.2,12,12,0,0,1-7.5,2.6,6.1,6.1,0,0,1-4.3-1.5,5.5,5.5,0,0,1-1.7-4,8.2,8.2,0,0,1-1.9,3.7,5.4,5.4,0,0,1-3.8,1.7h-.8a6.8,6.8,0,0,1-6-3.2,12.6,12.6,0,0,1-2.2-7.6,23.3,23.3,0,0,1,1.9-9.2,18.9,18.9,0,0,1,5.1-7.4,10.2,10.2,0,0,1,7.2-2.9,5.9,5.9,0,0,1,2.1.4,7.8,7.8,0,0,1,1.8,1.1l.6-1.1h4.7l-3.4,22.1a16.4,16.4,0,0,0-.2,2.2,2.1,2.1,0,0,0,.4,1.5c.2.4.6.5,1.2.5a6,6,0,0,0,4.5-2.1,14.6,14.6,0,0,0,3.3-5.6,24.5,24.5,0,0,0,1.2-7.8,23.5,23.5,0,0,0-1.8-9.4,15.2,15.2,0,0,0-5.6-6.7,17.1,17.1,0,0,0-9.4-2.5,18.5,18.5,0,0,0-10.9,3.3,20.6,20.6,0,0,0-7.3,9.2,33.5,33.5,0,0,0-2.6,13.9c0,6.7,1.7,11.8,5.2,15.2s8.2,5.1,14.1,5.1a39.3,39.3,0,0,0,11-1.7l1.1,4.7a44.3,44.3,0,0,1-12.6,1.9A28.6,28.6,0,0,1,593.4,108.3Zm13.9-17.7a9.7,9.7,0,0,0,2.1-4.8l2.1-14-1.7-.3a6.6,6.6,0,0,0-4.5,2,16.3,16.3,0,0,0-3.5,5.4,22.6,22.6,0,0,0-1.3,7.4,7.7,7.7,0,0,0,1,4.2,2.8,2.8,0,0,0,2.6,1.6A4.5,4.5,0,0,0,607.3,90.6Z" style="fill:#5a636c"/><rect x="567.9" y="46" width="76" height="77" style="fill:#515b64;opacity:0.1;mix-blend-mode:multiply"/><polygon points="566.9 127 563.9 152 579.9 128 566.9 127" style="fill:#fff"/><rect x="128.7" y="214.4" width="26.2" height="18.08" style="fill:#fff"/><polygon points="155 232.4 141.9 232.4 128.7 232.4 128.7 223.4 128.7 214.4 141.9 223.4 155 214.4 155 223.4 155 232.4" style="fill:#fff"/><polygon points="155 232.4 141.9 223.4 155 214.4 155 223.4 155 232.4" style="fill:#515b64;opacity:0.1;mix-blend-mode:multiply"/><rect x="139.2" y="250.7" width="22.1" height="31.98" transform="translate(-48.1 33.6) rotate(-11)" style="fill:#162030"/><polygon points="136.4 253.1 139.5 268.8 142.5 284.5 153.3 282.4 164.1 280.3 150.3 266.7 158 248.9 147.2 251 136.4 253.1" style="fill:#fff"/><polygon points="136.4 253.1 150.3 266.7 158 248.9 147.2 251 136.4 253.1" style="fill:#515b64;opacity:0.1;mix-blend-mode:multiply"/><rect x="77" y="253.2" width="39" height="26.9" style="fill:#e5c13f"/><polygon points="116 280.1 96.5 280.1 77 280.1 77 266.7 77 253.2 96.5 266.7 116 253.2 116 266.7 116 280.1" style="fill:#fff"/><polygon points="116 280.1 96.5 266.7 116 253.2 116 266.7 116 280.1" style="fill:#515b64;opacity:0.1;mix-blend-mode:multiply"/><rect x="92.6" y="307.3" width="32.8" height="47.56" transform="translate(-61.2 26.9) rotate(-11)" style="fill:#5a636c"/><polygon points="88.4 310.9 92.9 334.2 97.4 357.6 113.5 354.4 129.6 351.3 109 331.1 120.6 304.6 104.5 307.7 88.4 310.9" style="fill:#fff"/><polygon points="88.4 310.9 109 331.1 120.6 304.6 104.5 307.7 88.4 310.9" style="fill:#515b64;opacity:0.1;mix-blend-mode:multiply"/><rect y="311.1" width="58" height="40" style="fill:#262626"/><polygon points="58 351.1 29 351.1 0 351.1 0 331.1 0 311.1 29 331.1 58 311.1 58 331.1 58 351.1" style="fill:#fff"/><polygon points="58 351.1 29 331.1 58 311.1 58 331.1 58 351.1" style="fill:#515b64;opacity:0.1;mix-blend-mode:multiply"/><rect x="619.2" y="214.4" width="26.2" height="18.08" style="fill:#fff"/><polygon points="619.2 232.4 632.3 232.4 645.4 232.4 645.4 223.4 645.4 214.4 632.3 223.4 619.2 214.4 619.2 223.4 619.2 232.4" style="fill:#fff"/><polygon points="619.2 232.4 632.3 223.4 619.2 214.4 619.2 223.4 619.2 232.4" style="fill:#515b64;opacity:0.1;mix-blend-mode:multiply"/><rect x="607.9" y="255.7" width="32" height="22.05" transform="translate(243 828.2) rotate(-79)" style="fill:#162030"/><polygon points="637.8 253.1 634.7 268.8 631.6 284.5 620.8 282.4 610 280.3 623.9 266.7 616.1 248.9 626.9 251 637.8 253.1" style="fill:#fff"/><polygon points="637.8 253.1 623.9 266.7 616.1 248.9 626.9 251 637.8 253.1" style="fill:#515b64;opacity:0.1;mix-blend-mode:multiply"/><rect x="658.2" y="253.2" width="39" height="26.9" style="fill:#e5c13f"/><polygon points="658.2 280.1 677.7 280.1 697.2 280.1 697.2 266.7 697.2 253.2 677.7 266.7 658.2 253.2 658.2 266.7 658.2 280.1" style="fill:#fff"/><polygon points="658.2 280.1 677.7 266.7 658.2 253.2 658.2 266.7 658.2 280.1" style="fill:#515b64;opacity:0.1;mix-blend-mode:multiply"/><rect x="641.4" y="314.7" width="47.6" height="32.8" transform="translate(213.2 920.8) rotate(-79)" style="fill:#5a636c"/><polygon points="685.8 310.9 681.2 334.2 676.7 357.6 660.6 354.4 644.5 351.3 665.1 331.1 653.6 304.6 669.7 307.7 685.8 310.9" style="fill:#fff"/><polygon points="685.8 310.9 665.1 331.1 653.6 304.6 669.7 307.7 685.8 310.9" style="fill:#515b64;opacity:0.1;mix-blend-mode:multiply"/><rect x="716.1" y="311.1" width="58" height="40" style="fill:#262626"/><polygon points="716.1 351.1 745.1 351.1 774.1 351.1 774.1 331.1 774.1 311.1 745.1 331.1 716.1 311.1 716.1 331.1 716.1 351.1" style="fill:#fff"/><polygon points="716.1 351.1 745.1 331.1 716.1 311.1 716.1 331.1 716.1 351.1" style="fill:#515b64;opacity:0.1;mix-blend-mode:multiply"/></g></g></g></svg>