<svg xmlns="http://www.w3.org/2000/svg" xmlns:xlink="http://www.w3.org/1999/xlink" viewBox="0 0 261.2 124.5"><defs><linearGradient id="linear-gradient" x1="114.47" y1="113.99" x2="114.47" y2="112.15" gradientUnits="userSpaceOnUse"><stop offset="0.02" stop-color="#4f4f4f"/><stop offset="0.48" stop-color="#2f067f"/><stop offset="0.5" stop-color="#381185"/><stop offset="0.58" stop-color="#523094"/><stop offset="0.66" stop-color="#6446a0"/><stop offset="0.74" stop-color="#6f53a7"/><stop offset="0.81" stop-color="#7358a9"/></linearGradient><linearGradient id="linear-gradient-2" x1="123.98" y1="114.07" x2="123.98" y2="112.25" xlink:href="#linear-gradient"/><linearGradient id="linear-gradient-3" x1="132.77" y1="112.29" x2="132.77" y2="112.25" xlink:href="#linear-gradient"/></defs><title>seoClaimImage</title><g id="Ebene_2" data-name="Ebene 2"><g id="Startseite"><g id="Section_-_Seo" data-name="Section - Seo"><path d="M50.2,2.6A2.4,2.4,0,0,1,50.9.7,2.5,2.5,0,0,1,53,0h1.3l.9.2V1H53.3c-1.2,0-1.8.5-1.8,1.6a1.6,1.6,0,0,0,.3,1.1,2.7,2.7,0,0,0,.8.7l1,.5a2.1,2.1,0,0,1,1,.6,2.4,2.4,0,0,1,.8.9,2.6,2.6,0,0,1,.3,1.4A2.2,2.2,0,0,1,55.5,9a1.9,1.9,0,0,1-.5.9l-1,.5-1.6.2H51.1l-.9-.2V9.6h1.9a2.8,2.8,0,0,0,1.8-.4,2,2,0,0,0,.5-1.4,1.5,1.5,0,0,0-.3-1,1.6,1.6,0,0,0-.8-.6,3.1,3.1,0,0,0-1-.5l-1-.6-.8-.9A3.5,3.5,0,0,1,50.2,2.6Z" style="fill:#080808"/><path d="M58.6,9.4h3.7v1h-5V.1h5V1.2H58.6V4.6h3.2v1H58.6Z" style="fill:#080808"/><path d="M65.1,7.8l-.6,2.6H63.1L65.6.1h2l2.5,10.3H68.7l-.6-2.6Zm1.5-6.2h0L65.4,6.8h2.5Z" style="fill:#080808"/><path d="M77,3.5c0,.5-.1,1-.1,1.3l-.3,1-.5.6-.6.4,1.8,3.6H75.8L74.2,7.1H72.7v3.3H71.4V.3L72.5.1h1.2l1.5.2a1.7,1.7,0,0,1,1,.6,2,2,0,0,1,.6,1.1A7,7,0,0,1,77,3.5ZM73.7,6h.9l.6-.4a1.9,1.9,0,0,0,.3-.8,4.1,4.1,0,0,0,.1-1.2,4.1,4.1,0,0,0-.1-1.2,1.9,1.9,0,0,0-.3-.8l-.6-.4H72.7V6Z" style="fill:#080808"/><path d="M81.8,10.6a2.9,2.9,0,0,1-1.4-.3,1.6,1.6,0,0,1-1-.8,5.9,5.9,0,0,1-.7-1.6,18.4,18.4,0,0,1-.2-2.6,18.4,18.4,0,0,1,.2-2.6,9.1,9.1,0,0,1,.6-1.6,2.8,2.8,0,0,1,1-.9L81.6,0h1.3l.9.2V1H81.1a2.3,2.3,0,0,0-.7.7A4.7,4.7,0,0,0,80,3.2a10.6,10.6,0,0,0-.2,2.1A10.6,10.6,0,0,0,80,7.4a12.7,12.7,0,0,0,.4,1.4,1.9,1.9,0,0,0,.7.6,1.5,1.5,0,0,0,.9.2h2v.7l-1,.2Z" style="fill:#080808"/><path d="M90.9.1V10.4H89.6V5.7H86.5v4.7H85.2V.1h1.3V4.7h3.1V.1Z" style="fill:#080808"/><path d="M98,9.4h3.7v1h-5V.1h5V1.2H98V4.6h3.2v1H98Z" style="fill:#080808"/><path d="M104.6,10.4h-1.3V.1h1.5l3,7.3h.1V.1h1.3V10.4h-1.5l-3-7.2h-.1Z" style="fill:#080808"/><path d="M116.7,10.3l-1,.2h-1.2a4.1,4.1,0,0,1-1.6-.3,2.1,2.1,0,0,1-1.1-.8,3.8,3.8,0,0,1-.6-1.6,9.8,9.8,0,0,1-.3-2.6,9.8,9.8,0,0,1,.3-2.6,3.4,3.4,0,0,1,.6-1.6,2.8,2.8,0,0,1,1-.9l1.4-.2h1.2l1,.2V1h-2.8a2.3,2.3,0,0,0-.7.7,4.6,4.6,0,0,0-.5,1.4,12.2,12.2,0,0,0-.1,2.1,12.2,12.2,0,0,0,.1,2.1,4.6,4.6,0,0,0,.5,1.4,1.6,1.6,0,0,0,.8.6,2,2,0,0,0,1.1.2h.6V4.9h1.3Z" style="fill:#080808"/><path d="M119.9.1V10.4h-1.3V.1Z" style="fill:#080808"/><path d="M123.3,10.4H122V.1h1.5l3,7.3h0V.1h1.4V10.4h-1.5l-3-7.2h-.1Z" style="fill:#080808"/><path d="M131.2,9.4h3.7v1h-5V.1h5V1.2h-3.7V4.6h3.3v1h-3.3Z" style="fill:#080808"/><path d="M143.1,0l1.3.2a2.8,2.8,0,0,1,1,.9,3.4,3.4,0,0,1,.6,1.6,10.2,10.2,0,0,1,.2,2.6,10.2,10.2,0,0,1-.2,2.6,3.8,3.8,0,0,1-.6,1.6,1.9,1.9,0,0,1-1,.8,2.8,2.8,0,0,1-1.3.3,2.5,2.5,0,0,1-1.3-.3,1.6,1.6,0,0,1-1-.8,5.9,5.9,0,0,1-.7-1.6,18.4,18.4,0,0,1-.2-2.6,18.4,18.4,0,0,1,.2-2.6,4.8,4.8,0,0,1,.7-1.6,2.2,2.2,0,0,1,1-.9Zm0,9.7.7-.2a1.4,1.4,0,0,0,.6-.7,10.4,10.4,0,0,0,.4-1.3,14.1,14.1,0,0,0,.1-2.2,14.1,14.1,0,0,0-.1-2.2,6.8,6.8,0,0,0-.4-1.3,1.4,1.4,0,0,0-.6-.7,1.3,1.3,0,0,0-1.4,0,1.4,1.4,0,0,0-.6.7,3.3,3.3,0,0,0-.4,1.3,12.7,12.7,0,0,0-.2,2.2,12.7,12.7,0,0,0,.2,2.2,4,4,0,0,0,.4,1.3,1.4,1.4,0,0,0,.6.7Z" style="fill:#080808"/><path d="M149.3,10.4H148V.3l1.1-.2h1.3l1.5.2a2.1,2.1,0,0,1,1,.6,3.7,3.7,0,0,1,.5,1.1,9,9,0,0,1,.2,1.8,9,9,0,0,1-.2,1.8,1.9,1.9,0,0,1-.5,1.1,1.6,1.6,0,0,1-.8.6,2.7,2.7,0,0,1-1.3.2h-1.5Zm1.1-4h.8a1,1,0,0,0,.6-.5,1.5,1.5,0,0,0,.4-.8c0-.4.1-.8.1-1.3s-.1-1-.1-1.3a1.9,1.9,0,0,0-.4-.9.9.9,0,0,0-.6-.4h-1.9V6.4Z" style="fill:#080808"/><path d="M154.3.1h6.1V1.2H158v9.2h-1.3V1.2h-2.4Z" style="fill:#080808"/><path d="M162.9.1V10.4h-1.4V.1Z" style="fill:#080808"/><path d="M168.7,9.1l-2.2-6.3h0l-.5,7.6h-1.3L165.3.1h1.6l2.4,7.1h.1L171.8.1h1.6l.6,10.3h-1.3l-.5-7.6h-.1L170,9.1Z" style="fill:#080808"/><path d="M177.1.1V10.4h-1.3V.1Z" style="fill:#080808"/><path d="M180,9.4h3.8v1h-5.3V9.5l3.8-8.3h-3.8V.1h5.3v1Z" style="fill:#080808"/><path d="M186.4,7.8l-.7,2.6h-1.3L186.9.1h1.9l2.5,10.3H190l-.7-2.6Zm1.5-6.2h-.1l-1.2,5.2h2.5Z" style="fill:#080808"/><path d="M191,.1h6.1V1.2h-2.4v9.2h-1.3V1.2H191Z" style="fill:#080808"/><path d="M199.6.1V10.4h-1.4V.1Z" style="fill:#080808"/><path d="M204.5,0l1.3.2a2.8,2.8,0,0,1,1,.9,3.4,3.4,0,0,1,.6,1.6,9.8,9.8,0,0,1,.3,2.6,9.8,9.8,0,0,1-.3,2.6,3.8,3.8,0,0,1-.6,1.6,1.9,1.9,0,0,1-1,.8,3,3,0,0,1-2.6,0,1.6,1.6,0,0,1-1-.8,5.9,5.9,0,0,1-.7-1.6,18.4,18.4,0,0,1-.2-2.6,18.4,18.4,0,0,1,.2-2.6,4.8,4.8,0,0,1,.7-1.6,2.2,2.2,0,0,1,1-.9Zm0,9.7.7-.2a1.4,1.4,0,0,0,.6-.7,10.4,10.4,0,0,0,.4-1.3,14.1,14.1,0,0,0,.1-2.2,14.1,14.1,0,0,0-.1-2.2,6.8,6.8,0,0,0-.4-1.3,1.4,1.4,0,0,0-.6-.7,1.3,1.3,0,0,0-1.4,0,1.4,1.4,0,0,0-.6.7,6.8,6.8,0,0,0-.4,1.3,14.1,14.1,0,0,0-.1,2.2,14.1,14.1,0,0,0,.1,2.2,10.4,10.4,0,0,0,.4,1.3,1.4,1.4,0,0,0,.6.7Z" style="fill:#080808"/><path d="M210.7,10.4h-1.3V.1h1.5l3,7.3h.1V.1h1.3V10.4h-1.5l-3-7.2h-.1Z" style="fill:#080808"/><path d="M118.3,117.3h60.8a2.9,2.9,0,0,0,.2-.9V53.2c0-1.7-1.1-3.1-2.4-3.1H78.5c-1.3,0-2.4,1.4-2.4,3.1v4.6h.2v4.9a12.4,12.4,0,0,0-2.8,16.1,12.2,12.2,0,0,0,2.8,3.2v4.9h-.2v29.6c0,.3.1.6.1.9h42.1Zm.9-37.7,1.6-1.4,4.4,3.8a.9.9,0,0,1-.6.3H113.8a.9.9,0,0,1-.6-.3l4.5-3.8Zm-6-6a.9.9,0,0,1,.6-.3h10.8l.6.3-6,5.1Zm7.9,4.3,4.4-3.8v7.4Zm-8.2-3.8,4.4,3.8-4.4,3.6ZM80.2,84a12.4,12.4,0,1,0,0-23.5V56.2A16.5,16.5,0,0,1,92.6,86.4a16.1,16.1,0,0,1-12.4,1.9ZM90,68.7l2.3-1.4a9.6,9.6,0,0,1-3.2,13.2l-1.5-2.3A7,7,0,0,0,90,68.7Z" style="fill:#cde"/><path d="M195.5,121.2H59.9s-1.2.3-1.4-.4.7,1.6,5.3,2.6H191.4s4.3-.2,5.4-2.3h0C196.7,121.1,196.4,121.2,195.5,121.2Z" style="fill:#cde"/><path d="M196.9,117.3H137.2c.1.9-.2,1.4-.6,1.6a1.9,1.9,0,0,1-1,.3h-16a1.5,1.5,0,0,1-1.1-.6,1.7,1.7,0,0,1-.3-1.4H58.6v3.4h0c.2.7,1.4.4,1.4.4H195.5c.9,0,1.2-.1,1.3-.2a.3.3,0,0,0,.1-.2Zm-11.4,1.8h4.7c.2,0,.3.1.3.2a.3.3,0,0,1-.3.3h-4.7c-.1,0-.2-.1-.2-.3Z" style="fill:#cde"/><path d="M185.5,119.6h4.7a.3.3,0,0,0,.3-.3c0-.1-.1-.2-.3-.2h-4.7l-.2.2C185.3,119.5,185.4,119.6,185.5,119.6Z" style="fill:#cde"/><path d="M135.7,119.2H119.3a1.5,1.5,0,0,1-.8-.4,1.5,1.5,0,0,0,1.1.6h16a1.9,1.9,0,0,0,1-.3A2.3,2.3,0,0,1,135.7,119.2Z" style="fill:#cde"/><path d="M119.3,119.1h16.2s1.6.3,1.5-1.7H118.4A1.4,1.4,0,0,0,119.3,119.1Z" style="fill:#cde"/><path d="M118.3,117.3h-.1a1.7,1.7,0,0,0,.3,1.4,1.5,1.5,0,0,0,.8.4,1.4,1.4,0,0,1-.9-1.8h-.1Z" style="fill:#cde"/><path d="M135.5,119.1h.2a2.3,2.3,0,0,0,.9-.2c.4-.2.7-.7.6-1.6H137C137.1,119.4,135.5,119.1,135.5,119.1Z" style="fill:#cde"/><path d="M191.7,99.1h31a1.1,1.1,0,0,0,1.1-1.1V56.8a1,1,0,0,0-1.1-1H208.8a2.2,2.2,0,0,0-4.2,0H191.7a1,1,0,0,0-1.1,1V98A1.1,1.1,0,0,0,191.7,99.1Zm8-26-1.9,1.7a.5.5,0,0,1-.6-.1l-.8-1a.5.5,0,0,1,.1-.6.5.5,0,0,1,.6.1l.5.6,1.6-1.3c.2-.2.4-.1.6,0S199.9,73,199.7,73.1Zm0,6.3L197.8,81a.4.4,0,0,1-.6,0l-.8-1a.5.5,0,0,1,.1-.6.5.5,0,0,1,.6.1l.5.6,1.6-1.3c.2-.2.4-.1.6,0S199.9,79.3,199.7,79.4Zm0-13.1-1.9,1.6c-.2.2-.4.1-.6,0l-.8-1a.4.4,0,0,1,.7-.5l.5.6,1.6-1.3a.4.4,0,0,1,.6,0C199.9,65.9,199.9,66.2,199.7,66.3Zm-3.3,19.5c.2-.1.5-.1.6.1l.6.6,1.6-1.3c.1-.2.4-.2.6,0s.1.5-.1.6l-1.9,1.6a.5.5,0,0,1-.6,0l-.8-1C196.2,86.2,196.3,86,196.4,85.8Zm10.3-30.9a1.2,1.2,0,0,1,1.2.9h-2.4A1.2,1.2,0,0,1,206.7,54.9Z" style="fill:#cde"/><path d="M199.8,65.7a.4.4,0,0,0-.6,0L197.6,67l-.5-.6a.4.4,0,0,0-.7.5l.8,1c.2.1.4.2.6,0l1.9-1.6C199.9,66.2,199.9,65.9,199.8,65.7Z" style="fill:#cde"/><path d="M199.8,72.5c-.2-.1-.4-.2-.6,0l-1.6,1.3-.5-.6a.5.5,0,0,0-.6-.1.5.5,0,0,0-.1.6l.8,1a.5.5,0,0,0,.6.1l1.9-1.7C199.9,73,199.9,72.7,199.8,72.5Z" style="fill:#cde"/><path d="M199.2,78.8l-1.6,1.3-.5-.6a.5.5,0,0,0-.6-.1.5.5,0,0,0-.1.6l.8,1a.4.4,0,0,0,.6,0l1.9-1.6c.2-.1.2-.4.1-.6S199.4,78.6,199.2,78.8Z" style="fill:#cde"/><path d="M197.2,87.4a.5.5,0,0,0,.6,0l1.9-1.6c.2-.1.2-.4.1-.6s-.5-.2-.6,0l-1.6,1.3-.6-.6c-.1-.2-.4-.2-.6-.1s-.2.4,0,.6Z" style="fill:#cde"/><path d="M65.1,110.3V84.9A2.1,2.1,0,0,0,63,82.7H50.4a2.1,2.1,0,0,0-2.1,2.2v25.4a2.1,2.1,0,0,0,2.1,2.2H63A2.1,2.1,0,0,0,65.1,110.3Z" style="fill:#cde"/><path d="M113.8,82.3h10.8a.9.9,0,0,0,.6-.3l-4.4-3.8-1.6,1.4-1.5-1.4L113.2,82A.9.9,0,0,0,113.8,82.3Z" style="fill:#cde"/><path d="M125.2,73.6l-.6-.3H113.8a.9.9,0,0,0-.6.3l6,5.1Z" style="fill:#cde"/><polygon points="112.9 74.1 112.9 81.5 117.3 77.9 112.9 74.1" style="fill:#cde"/><polygon points="125.5 74.1 121.1 77.9 125.5 81.5 125.5 74.1" style="fill:#cde"/><path d="M31.9,62.7l32.9,9.1a20.6,20.6,0,0,1,2-8.1L33.9,54.6a4.2,4.2,0,0,0-5,3A4.3,4.3,0,0,0,31.9,62.7Z" style="fill:#cde"/><path d="M76.3,81.9a12.2,12.2,0,0,1-2.8-3.2,12.4,12.4,0,0,1,2.8-16.1V57.7h-.2l-.6.3a16.6,16.6,0,0,0-5.6,22.7,16.9,16.9,0,0,0,6.2,6h.2Z" style="fill:#cde"/><path d="M92.6,86.4A16.5,16.5,0,0,0,80.2,56.2v4.3a12.4,12.4,0,1,1,0,23.5v4.3A16.1,16.1,0,0,0,92.6,86.4Z" style="fill:#cde"/><path d="M89.1,80.5a9.6,9.6,0,0,0,3.2-13.2L90,68.7a7,7,0,0,1-2.4,9.5Z" style="fill:#cde"/><polygon points="255.5 111.1 255.5 117.4 249.8 117.4 249.8 121.1 255.5 121.1 261.2 121.1 261.2 111.1 255.5 111.1" style="fill:#cde"/><polygon points="249.8 110.8 244.2 110.8 244.2 121.1 249.8 121.1 249.8 117.4 249.8 110.8" style="fill:#cde"/><polygon points="244.2 100.4 238.5 100.4 238.5 93 232.8 93 232.8 109.1 227.1 109.1 227.1 116.1 227.1 121.1 232.8 121.1 238.5 121.1 244.2 121.1 244.2 110.8 244.2 100.4" style="fill:#cde"/><rect x="221.4" y="116.1" width="5.7" height="5.01" style="fill:#cde"/><path d="M40.7,101.9c-.2-12.2-8.6-22-18.7-21.8S4,90.4,4.3,102.7s7.6,20.8,16.8,21.8h.8c.6-.2,10.4,1.5,23.5-11.5a40.2,40.2,0,0,1-7.2.7A25.2,25.2,0,0,0,40.7,101.9Z" style="fill:#cde"/><path d="M175,111.3c0,1.7-1.1,3.1-2.4,3.1H74.2c-1.3,0-2.3-1.4-2.3-3.1V48.1c0-1.7,1-3.1,2.3-3.1h98.4c1.3,0,2.4,1.4,2.4,3.1Z" style="fill:#080808"/><rect x="76" y="48.8" width="95.2" height="58.68" style="fill:#ebf1f8"/><path d="M54.3,115.4s-.9,1.6,5.2,2.9H187.2s4.2-.2,5.4-2.3v-1.1Z" style="fill:#080808"/><path d="M54.3,112.2H192.6v3.5s.2.5-1.4.4H55.6s-1.2.3-1.4-.5Z" style="fill:#ded7eb"/><path d="M186.2,114.2c0,.2-.1.3-.2.3h-4.7c-.1,0-.2-.1-.2-.3h0a.2.2,0,0,1,.2-.2H186a.2.2,0,0,1,.2.2Z" style="fill:#080808"/><path d="M114.1,112.2s-.5,1.8,1.2,2h16.1s1.7.2,1.5-1.9Z" style="fill:#080808"/><path d="M114.2,112.2H114a1.3,1.3,0,0,0,1,1.8C113.7,113.6,114.2,112.2,114.2,112.2Z" style="fill:url(#linear-gradient)"/><path d="M132.9,112.3h-.1c.1,2-1.5,1.7-1.5,1.7h.2S133.1,114.3,132.9,112.3Z" style="fill:url(#linear-gradient-2)"/><path d="M132.8,112.3Z" style="fill:url(#linear-gradient-3)"/><path d="M104.6,76.5v1.3H83.9V57.1h1.3V76.5ZM102,57.1l-5.1.8,1.3,1.5L87.4,68.3l.8,1L99,60.4l1.2,1.5Zm-1.4,7.4L99.4,63V75.2H102V60.8Zm-8.9,3.6v7.1h2.6V66Zm-3.7,3-.2-.3v4.4h2.6v-6Zm7.5-6.2V75.2h2.6V62.8Z" style="fill:#666"/><path d="M104.6,103.5v1.3H83.9V84.1h1.3v19.4ZM102,84.1l-5.1.8,1.3,1.5L87.4,95.2l.8,1L99,87.4l1.2,1.5Zm-1.4,7.4L99.4,90v12.2H102V87.7Zm-8.9,3.6v7.1h2.6V92.9ZM88,98l-.2-.2v4.4h2.6V96.1Zm7.5-6.1v10.3h2.6V89.7Z" style="fill:#b8b8b8"/><rect x="106.5" y="56.8" width="21.3" height="3.58" style="fill:#558ec6"/><rect x="106.5" y="64.6" width="21.3" height="1.62" style="fill:#666"/><rect x="106.5" y="66.2" width="21.3" height="14.8" style="fill:#8ab1d8"/><rect x="131.5" y="53" width="36" height="14.8" style="fill:#8ab1d8"/><rect x="106.5" y="86.4" width="21.5" height="5.95" style="fill:#b8b8b8"/><rect x="106.5" y="96.6" width="21.5" height="5.1" style="fill:#666"/><rect x="186.4" y="50.7" width="33.2" height="43.36" rx="1.1" ry="1.1" style="fill:#080808"/><rect x="188.9" y="53.2" width="27.2" height="39.11" style="fill:#ebf1f8"/><path d="M204.9,52.4s.1-3.2-2.4-3.2-2.4,3.2-2.4,3.2h-4.4v3.4h13.6V52.4Zm-2.4-2.6c1.4,0,1.4,2,1.4,2.3h-2.8C201,49.6,202.5,49.8,202.5,49.8Z" style="fill:#558ec6"/><rect x="197.4" y="61.7" width="15.3" height="0.85" style="fill:#333"/><rect x="197.4" y="68.5" width="15.3" height="0.85" style="fill:#333"/><rect x="197.4" y="74.5" width="15.3" height="0.85" style="fill:#333"/><rect x="197.4" y="81.3" width="15.3" height="0.85" style="fill:#333"/><path d="M195,60.6l-1.6,1.3-.6-.6c-.1-.2-.4-.2-.6-.1a.4.4,0,0,0,0,.6l.8,1a.5.5,0,0,0,.6,0l1.9-1.6c.2-.1.2-.4,0-.6A.3.3,0,0,0,195,60.6Z" style="fill:#333"/><path d="M195,67.4l-1.6,1.3-.6-.6c-.1-.2-.4-.2-.6-.1s-.2.5,0,.6l.8,1c.1.2.4.2.6.1l1.9-1.7c.2-.1.2-.4,0-.6S195.1,67.2,195,67.4Z" style="fill:#333"/><path d="M195,73.7,193.4,75l-.6-.6c-.1-.2-.4-.2-.6-.1s-.2.5,0,.6l.8,1c.1.2.4.2.6,0l1.9-1.6c.2-.1.2-.4,0-.6S195.1,73.5,195,73.7Z" style="fill:#333"/><path d="M194.9,80.1l-1.6,1.3-.5-.6a.4.4,0,1,0-.7.5l.8,1c.2.1.5.2.6,0l2-1.6a.5.5,0,0,0,0-.6C195.4,79.9,195.1,79.9,194.9,80.1Z" style="fill:#333"/><path d="M58.7,77.6H46.2A2.2,2.2,0,0,0,44,79.8v25.4a2.2,2.2,0,0,0,2.2,2.2H58.7a2.2,2.2,0,0,0,2.2-2.2V79.8A2.2,2.2,0,0,0,58.7,77.6Z" style="fill:#080808"/><polygon points="55.3 79.8 49.5 79.8 49.5 79.2 55.4 79.2 55.4 79.8 55.3 79.8" style="fill:#fdfdfe"/><path d="M57.8,79.5a.6.6,0,0,1-.5.6.6.6,0,0,1,0-1.2A.6.6,0,0,1,57.8,79.5Z" style="fill:#fdfdfe"/><rect x="49.8" y="103.4" width="5.3" height="1.63" style="fill:#fdfdfe"/><rect x="46.1" y="82.1" width="11.9" height="12.75" style="fill:#d9d9d9"/><rect x="46.1" y="96.6" width="11.9" height="4.25" style="fill:#558ec6"/><path d="M115,74.5l-1.6-1.4L109,76.9a.7.7,0,0,0,.6.3h10.7a.7.7,0,0,0,.6-.3l-4.4-3.8Z" style="fill:#fdfdfe"/><path d="M120.9,68.5a.7.7,0,0,0-.6-.3H109.6a.7.7,0,0,0-.6.3l6,5.1Z" style="fill:#fdfdfe"/><polygon points="108.7 69 108.7 76.4 113 72.8 108.7 69" style="fill:#fdfdfe"/><polygon points="116.9 72.8 121.2 76.4 121.2 69 116.9 72.8" style="fill:#fdfdfe"/><path d="M94.9,67.1a15,15,0,1,1-15-15A15,15,0,0,1,94.9,67.1Z" style="fill:#ebf1f8"/><path d="M27.7,57.6l32.9,9.1a18.9,18.9,0,0,1,1.9-8.1L29.7,49.5a4.1,4.1,0,0,0-5,3A4.2,4.2,0,0,0,27.7,57.6Z" style="fill:#080808"/><path d="M65.7,75.7A16.5,16.5,0,1,0,71.3,53,16.6,16.6,0,0,0,65.7,75.7Zm7.7-19.2a12.4,12.4,0,1,1-4.2,17.1A12.6,12.6,0,0,1,73.4,56.5Z" style="fill:#080808"/><path d="M88.1,62.2l-2.4,1.4a6.9,6.9,0,0,1-2.3,9.5l1.4,2.3A9.6,9.6,0,0,0,88.1,62.2Z" style="fill:#080808"/><rect x="72" y="48.4" width="3.9" height="54.7" style="fill:#080808"/><rect x="140.4" y="69.6" width="27.1" height="1.97" style="fill:#0156a9"/><rect x="131.6" y="73.1" width="35.8" height="1.97" style="fill:#0156a9"/><rect x="131.6" y="77.2" width="35.8" height="1.97" style="fill:#0156a9"/><rect x="131.6" y="80.9" width="35.8" height="1.97" style="fill:#0156a9"/><rect x="131.6" y="84.3" width="35.8" height="1.97" style="fill:#0156a9"/><rect x="131.6" y="88.4" width="35.8" height="1.97" style="fill:#0156a9"/><rect x="131.6" y="93" width="35.8" height="1.97" style="fill:#0156a9"/><rect x="131.6" y="96.5" width="35.8" height="1.97" style="fill:#0156a9"/><rect x="131.6" y="100.6" width="35.8" height="1.97" style="fill:#0156a9"/><rect x="251.3" y="106" width="5.7" height="10.03" style="fill:#080808"/><rect x="245.6" y="112.3" width="5.7" height="3.68" style="fill:#558ec6"/><rect x="239.9" y="105.7" width="5.7" height="10.36" style="fill:#828282"/><rect x="234.2" y="95.3" width="5.7" height="20.72" style="fill:#080808"/><rect x="228.6" y="87.9" width="5.7" height="28.07" style="fill:#558ec6"/><rect x="222.9" y="104" width="5.7" height="12.03" style="fill:#8ab1d8"/><rect x="217.2" y="111" width="5.7" height="5.01" style="fill:#828282"/><path d="M0,97.6c.3,11.5,7.7,20.8,16.9,21.8h.7c.6-.2,10.5,1.5,23.6-11.5a40.2,40.2,0,0,1-7.2.7,25.2,25.2,0,0,0,2.5-11.8c-.3-12.2-8.6-22-18.7-21.8S-.3,85.3,0,97.6Z" style="fill:#b8b8b8"/><path d="M18,104.2a2.3,2.3,0,0,1,2.4,2.2,2.3,2.3,0,1,1-4.6.1A2.3,2.3,0,0,1,18,104.2Z" style="fill:#ebf1f8"/><path d="M17.9,95.8A2.2,2.2,0,0,1,20.2,98a2.3,2.3,0,1,1-2.3-2.2Z" style="fill:#ebf1f8"/><path d="M17.7,87.1A2.3,2.3,0,0,1,20,89.4a2.2,2.2,0,0,1-2.2,2.3,2.3,2.3,0,1,1-.1-4.6Z" style="fill:#ebf1f8"/></g></g></g></svg>