<svg xmlns="http://www.w3.org/2000/svg" viewBox="0 0 207.9 138.2"><title>sliderWebsiteBuilding</title><g style="isolation:isolate"><g id="Ebene_2" data-name="Ebene 2"><g id="Startseite"><g id="Slider"><g id="sliderWebsiteBuilding"><path d="M166.7,58a24.4,24.4,0,0,1,24.4,24.4h16.8a41.2,41.2,0,0,0-82.4,0h16.8A24.4,24.4,0,0,1,166.7,58Z" style="fill:#afc7e4;opacity:0.75;mix-blend-mode:multiply"/><path d="M142.3,82.4H125.5a41.1,41.1,0,0,0,41.2,41.2V106.8A24.4,24.4,0,0,1,142.3,82.4Z" style="fill:#afc7e4;opacity:0.25;mix-blend-mode:multiply"/><path d="M166.7,95.5v9a22.1,22.1,0,0,0,22.1-22.1h-9A13.1,13.1,0,0,1,166.7,95.5Z" style="fill:#d3e0f0;opacity:0.5;mix-blend-mode:multiply"/><path d="M166.7,60.3v9a13.1,13.1,0,0,1,13.1,13.1h9A22.1,22.1,0,0,0,166.7,60.3Z" style="fill:#afc7e4;opacity:0.4;mix-blend-mode:multiply"/><rect x="31.7" y="45.2" width="2.8" height="2.77" style="fill:#729bcf"/><rect x="27.3" y="45.2" width="2.8" height="2.77" style="fill:#729bcf"/><rect x="27.3" y="49" width="2.8" height="2.77" style="fill:#729bcf"/><rect x="22.9" y="49" width="2.8" height="2.77" style="fill:#729bcf"/><rect x="31.7" y="49" width="2.8" height="2.77" style="fill:#729bcf"/><rect x="27.4" y="53.3" width="2.8" height="2.77" style="fill:#729bcf"/><rect x="22.9" y="53.3" width="2.8" height="2.77" style="fill:#729bcf"/><rect x="31.7" y="53.3" width="2.8" height="2.77" style="fill:#729bcf"/><g style="mix-blend-mode:multiply"><rect x="117.6" y="93" width="20.2" height="0.37" style="fill:#4c80c2"/><rect x="139.6" y="93" width="10.3" height="0.37" style="fill:#4c80c2"/><rect x="146.2" y="100.5" width="10.3" height="0.37" style="fill:#4c80c2"/><rect x="166.1" y="102.9" width="10.3" height="0.37" style="fill:#4c80c2"/><rect x="147.4" y="99.3" width="17.3" height="0.37" style="fill:#4c80c2"/><rect x="147.4" y="102.9" width="17.3" height="0.37" style="fill:#4c80c2"/><rect x="157.7" y="111.4" width="10.3" height="0.37" style="fill:#4c80c2"/><rect x="138.9" y="111.4" width="10.6" height="0.37" style="fill:#4c80c2"/><rect x="117.6" y="94.2" width="20.2" height="0.37" style="fill:#4c80c2"/><rect x="155" y="95.4" width="20.2" height="0.37" style="fill:#4c80c2"/><rect x="117.6" y="95.4" width="35.8" height="0.37" style="fill:#4c80c2"/><rect x="141.3" y="97.8" width="35.8" height="0.37" style="fill:#fff"/><rect x="117.6" y="96.6" width="23.3" height="0.37" style="fill:#4c80c2"/><rect x="117.6" y="97.8" width="20.2" height="0.37" style="fill:#fff"/><rect x="117.8" y="113.1" width="20.2" height="0.37" style="fill:#fff"/><rect x="139.8" y="113.1" width="10.3" height="0.37" style="fill:#4c80c2"/><rect x="117.8" y="114.3" width="8.5" height="0.37" style="fill:#4c80c2"/><rect x="155.1" y="115.5" width="20.2" height="0.37" style="fill:#4c80c2"/><rect x="117.8" y="115.5" width="23.4" height="0.37" style="fill:#4c80c2"/><rect x="141.5" y="117.9" width="35.8" height="0.37" style="fill:#4c80c2"/><rect x="117.8" y="116.7" width="35.8" height="0.37" style="fill:#4c80c2"/><rect x="117.8" y="117.9" width="20.2" height="0.37" style="fill:#fff"/><rect x="117.6" y="106.7" width="13.3" height="0.37" style="fill:#4c80c2"/><rect x="117.6" y="107.9" width="35.6" height="0.37" style="fill:#fff"/><rect x="117.6" y="109.1" width="20.2" height="0.37" style="fill:#4c80c2"/><rect x="139" y="109.1" width="20.2" height="0.37" style="fill:#fff"/><rect x="117.6" y="110.2" width="10.1" height="0.37" style="fill:#4c80c2"/><rect x="117.6" y="111.4" width="12.2" height="0.37" style="fill:#4c80c2"/><rect x="124.7" y="99.3" width="20.2" height="0.37" transform="translate(269.6 199) rotate(180)" style="fill:#fff"/><rect x="124.7" y="100.5" width="20.2" height="0.37" transform="translate(269.6 201.4) rotate(180)" style="fill:#fff"/><rect x="124.7" y="101.7" width="10.7" height="0.37" transform="translate(260.1 203.8) rotate(180)" style="fill:#4c80c2"/><rect x="124.7" y="102.9" width="20.2" height="0.37" transform="translate(269.6 206.1) rotate(180)" style="fill:#4c80c2"/><rect x="124.7" y="104.1" width="20.2" height="0.37" transform="translate(269.6 208.5) rotate(180)" style="fill:#4c80c2"/><rect x="117.7" y="119.8" width="20.2" height="0.37" style="fill:#4c80c2"/><rect x="139.7" y="119.8" width="10.3" height="0.37" style="fill:#4c80c2"/><rect x="117.7" y="121" width="20.2" height="0.37" style="fill:#4c80c2"/><rect x="155" y="122.2" width="20.2" height="0.37" style="fill:#4c80c2"/><rect x="117.7" y="122.2" width="35.8" height="0.37" style="fill:#4c80c2"/><rect x="141.4" y="124.6" width="35.8" height="0.37" style="fill:#fff"/><rect x="117.7" y="123.4" width="23.3" height="0.37" style="fill:#4c80c2"/><rect x="117.7" y="124.6" width="20.2" height="0.37" style="fill:#fff"/></g><polygon points="92.3 8.5 79.3 8.5 78.7 8.5 66.4 8.5 65.1 8.5 53.5 8.5 53.4 8.5 40.5 8.5 40.5 8.5 27.5 8.5 14.5 8.5 14.5 16.7 27.5 16.7 40.5 16.7 40.5 16.7 53.4 16.7 53.5 16.7 65.1 16.7 66.4 16.7 78.7 16.7 79.3 16.7 92.3 16.7 92.4 16.7 92.4 8.5 92.3 8.5" style="fill:#fff;mix-blend-mode:multiply"/><polygon points="90.3 6.5 77.3 6.5 64.4 6.5 51.5 6.5 51.4 6.5 38.5 6.5 38.4 6.5 25.5 6.5 12.5 6.5 12.5 14.7 25.5 14.7 38.4 14.7 38.5 14.7 51.4 14.7 51.5 14.7 64.4 14.7 77.3 14.7 90.3 14.7 90.4 14.7 90.4 6.5 90.3 6.5" style="fill:#fff"/><rect x="63.1" y="6.5" width="13.6" height="8.2" style="fill:#729bcf"/><path d="M17.6,9.9v1.5h-.2v-.7h-.9v.7h-.1V9.9h.1v.6h.9V9.9Z" style="fill:#1a1a1a"/><path d="M18.5,11.4h-.2l-.3-.2v-.8c0-.1.1-.1.1-.2l.3-.2h.5l.2.2.2.2v.6c-.1.1-.1.2-.2.2l-.2.2Zm-.5-.8V11l.2.2h.5V11c.1,0,.1-.1.1-.2s.1-.1.1-.2v-.2c0-.1,0-.2-.1-.2h-.8c0,.1,0,.1-.1.2Z" style="fill:#1a1a1a"/><path d="M20.8,11.4V10.1l-.5,1h-.1l-.5-1v1.3h-.2V9.9h.2l.5,1,.6-1H21v1.5Z" style="fill:#1a1a1a"/><path d="M22.3,11.2v.2h-1V9.9h.2v.5h.7v.2h-.7v.5Z" style="fill:#1a1a1a"/><path d="M26.9,11.4l.6-1.5h.2l.6,1.5h-.2l-.2-.5h-.6l-.2.5Zm.7-1.4-.3.8h.6Z" style="fill:#1a1a1a"/><path d="M43.2,11.4l.6-1.5h.1l.7,1.5h-.2l-.2-.5h-.6l-.2.5Zm.7-1.4-.3.8h.6Z" style="fill:#1a1a1a"/><path d="M29.6,11H28.5V9.9h1v.4h0A.4.4,0,0,1,29.6,11Zm-1-1v.6h0Zm.9.9h-.1a.1.1,0,0,0-.1-.1h-.7v.5h.8Z" style="fill:#1a1a1a"/><path d="M30.5,11.4h-.3l-.2-.2c-.1,0-.1-.1-.2-.2v-.6l.2-.2.2-.2h.6l.2.2v1l-.3.2Zm-.6-.8c0,.1,0,.2.1.2s0,.2.1.2l.2.2h.4l.2-.2v-.8h-.8v.4Z" style="fill:#1a1a1a"/><path d="M32,11.2h.3V11c.1,0,.1-.1.1-.2V9.9h.2v.7a.4.4,0,0,1-.1.3c0,.1,0,.2-.1.2a.2.2,0,0,1-.2.2h-.6v-.2c-.1,0-.1-.1-.1-.2a.4.4,0,0,1-.1-.3V9.9h.2v.9c0,.1,0,.2.1.2v.2Z" style="fill:#1a1a1a"/><path d="M34.1,10h-.6v1.4h-.1V10h.7Z" style="fill:#1a1a1a"/><path d="M37.2,10.6a.4.4,0,0,1,.1-.3.3.3,0,0,1,.1-.2l.2-.2h.7l.2.2h-.1v-.2h-.8c0,.1-.1.1-.1.2V11l.2.2h.8v.2a.1.1,0,0,0-.1.1h-.7l-.2-.2v-.2A.4.4,0,0,1,37.2,10.6Z" style="fill:#1a1a1a"/><path d="M39.3,11.4h-.2l-.3-.2v-.8c0-.1.1-.1.1-.2l.3-.2h.5l.2.2c.1.1.1.2.2.2v.6l-.2.2a.2.2,0,0,1-.2.2Zm-.5-.8V11l.2.2h.5V11c.1,0,.1-.1.1-.2s.1-.1.1-.2v-.2c0-.1,0-.2-.1-.2h-.8c0,.1,0,.1-.1.2Z" style="fill:#1a1a1a"/><path d="M40.4,10.1v1.3h-.1V9.9h.1l1,1.2V9.9h.1v1.5h-.1Z" style="fill:#1a1a1a"/><path d="M43,10h-.6v1.4h-.1V10H43Z" style="fill:#1a1a1a"/><path d="M44.7,10.6v-.5l.3-.2h.6l.2.2h-.1c0-.1-.1-.1-.1-.2h-.8c0,.1,0,.1-.1.2v.4l.2.2v.2h.8v.2a.1.1,0,0,0-.1.1h-.6a.2.2,0,0,1-.2-.2.2.2,0,0,1-.2-.2Z" style="fill:#1a1a1a"/><path d="M47.2,10h-.5v1.4h-.1V10h.6Z" style="fill:#1a1a1a"/><path d="M51.9,10.2V10h-.5c-.1,0-.1.1-.1.2h.7a.1.1,0,0,1,.1.1c.1,0,.1.1.1.2H52v.2h-.3a.8.8,0,0,1-.6-.2V11l.3.2h.5V11H51c0-.1,0-.1.1-.2H52Z" style="fill:#1a1a1a"/><path d="M53.3,11.2v.2h-1V9.9h.2v.5h.7v.2h-.7v.5Z" style="fill:#1a1a1a"/><path d="M53.5,11.4l.6-1.5h.1l.6,1.5h-.1l-.2-.5h-.7l-.2.5Zm.6-1.4-.3.8h.6Z" style="fill:#1a1a1a"/><path d="M55,11.4V9.9h1v.2h0v.2h-.2a.1.1,0,0,1-.1.1l.3.6H56l-.4-.6h-.4v.6Zm.2-.7h.7v-.2h-.7Z" style="fill:#1a1a1a"/><path d="M56.3,10.6a.4.4,0,0,1,.1-.3.3.3,0,0,1,.1-.2l.2-.2h.6l.3.2h-.2v-.2h-.8V11l.2.2h.8v.2h-.8c-.1,0-.1-.1-.2-.2s-.1-.1-.1-.2A.4.4,0,0,1,56.3,10.6Z" style="fill:#1a1a1a"/><path d="M59,9.9v1.5h-.1v-.7H58v.7h-.2V9.9H58v.6h.9V9.9Z" style="fill:#1a1a1a"/><path d="M66.9,11.4V9.9h.2v1.3h.8v.2Z" style="fill:#fff"/><path d="M68.6,11.4h-.2l-.3-.2v-.8c0-.1.1-.1.1-.2l.3-.2h.5l.2.2.2.2v.6c-.1.1-.1.2-.2.2a.2.2,0,0,1-.2.2Zm-.5-.8V11l.2.2h.5V11c.1,0,.1-.1.1-.2s.1-.1.1-.2v-.2c0-.1,0-.2-.1-.2h-.8c0,.1,0,.1-.1.2Z" style="fill:#fff"/><path d="M70.7,11.1c-.2.2-.3.3-.5.3h-.3c-.1,0-.1-.1-.2-.2v-.2a.5.5,0,0,1,0-.6c0-.1,0-.1.1-.2l.2-.2h.7a.3.3,0,0,0-.1-.2h-.7v.9h.7l.2-.2v-.3h.1v.8h-.1Z" style="fill:#fff"/><path d="M71.1,11.4V9.9h.2v1.5Z" style="fill:#fff"/><path d="M71.8,10.1v1.3h-.2V9.9h.1l1,1.2V9.9h.2v1.5h-.2Z" style="fill:#fff"/><path d="M82.8,10.9v.2h-.2a.1.1,0,0,1-.1.1h-.6V10h.9v.2h0C82.7,10.8,82.8,10.8,82.8,10.9Zm-.9-.8v.5h0Zm.7.8h-.7v.5h.7Z" style="fill:#1a1a1a"/><path d="M83.5,11.2h.4v-.2c0-.1.1-.1.1-.2V10h.1v.9c-.1,0-.1.1-.1.2h-.5c-.1,0-.2,0-.2-.1h-.2V10h.1v1h.3Z" style="fill:#1a1a1a"/><path d="M84.4,10l.4.7.4-.7h.2l-.5.8v.5h-.2v-.5l-.5-.8Z" style="fill:#1a1a1a"/><g style="mix-blend-mode:multiply"><rect x="104.8" y="114.6" width="25.8" height="4.18" style="fill:#fff"/><rect x="104.8" y="97" width="25.8" height="4.18" style="fill:#fff"/><rect x="111" y="120.2" width="25.8" height="4.18" style="fill:#fff"/><rect x="111" y="126.3" width="25.8" height="4.18" style="fill:#fff"/><rect x="111" y="102.6" width="25.8" height="4.18" style="fill:#fff"/><rect x="111" y="108.7" width="25.8" height="4.18" style="fill:#fff"/></g><rect x="103.4" y="112.5" width="25.8" height="4.18" style="fill:#729bcf"/><rect x="103.4" y="94.9" width="25.8" height="4.18" style="fill:#729bcf"/><path d="M107.6,113.9h-1.9a.4.4,0,0,0-.4.4v.9c0,.2.1.4.3.4h2a.4.4,0,0,0,.4-.4h0v-.9A.4.4,0,0,0,107.6,113.9Zm-.1.2-.8.5h0l-1-.5Zm-2,1.2h0v-.9h0l.9.4Zm.3.1.8-.6h.1l.8.6Zm2-.2h-.1l-.8-.6.9-.5h0Z" style="fill:#fff"/><rect x="109.7" y="118.1" width="25.8" height="4.18" style="fill:#fff"/><rect x="109.7" y="124.2" width="25.8" height="4.18" style="fill:#fff"/><rect x="109.7" y="100.5" width="25.8" height="4.18" style="fill:#fff"/><rect x="109.7" y="106.6" width="25.8" height="4.18" style="fill:#fff"/><g style="opacity:0.9"><path d="M105.3,96.5h0a.5.5,0,0,1,1,0h.3a.8.8,0,0,0-.8-.8.9.9,0,0,0-.8.8h.3Z" style="fill:#fff"/><path d="M106.8,96.9c0-.2-.1-.3-.2-.3H105c-.1,0-.2.1-.2.3v.4h2Z" style="fill:#fff"/><path d="M104.8,98.1a.2.2,0,0,0,.2.2h1.6a.2.2,0,0,0,.2-.2v-.5h-2Z" style="fill:#fff"/></g><path d="M112.7,119.5v1.3h-.2v-.6h-.8v.6h-.1v-1.3h.1v.6h.8v-.6Z" style="fill:#1a1a1a"/><path d="M113.5,120.8h-.2a.2.2,0,0,1-.2-.2c-.1,0-.1-.1-.1-.2v-.2a.4.4,0,0,1,.1-.3c0-.1,0-.1.1-.2s.1-.1.2-.1h.7v.9l-.2.2Zm-.5-.6v.4h.7v-.8h-.2c0-.1-.1-.1-.2-.1h-.3c-.1,0-.1.1-.1.2S113,120.1,113,120.2Z" style="fill:#1a1a1a"/><path d="M115.6,120.8v-1l-.5.8H115l-.5-.8v1h-.1v-1.3h.1l.5.9.6-.9h.1v1.3Z" style="fill:#1a1a1a"/><path d="M116.9,120.7H116v-1.3h.2v.5h0v.5Z" style="fill:#1a1a1a"/><path d="M111.6,109.4l.6-1.3h.1l.5,1.3h-.1l-.2-.4h-.6v.4Zm.6-1.2-.2.7h.5Z" style="fill:#1a1a1a"/><path d="M114,109.1h-1v-1.3h1v.2h0A.4.4,0,0,1,114,109.1Zm-.9-.9v.5h.6c0-.1,0-.1.1-.1h-.7Zm.8.8h-.1c0-.1,0-.1-.1-.1h-.6v.5h.8Z" style="fill:#1a1a1a"/><path d="M114.8,109.4h-.4l-.2-.2v-.5c.1-.1.1-.2.2-.2l.2-.2h.5c0,.1.1.1.1.2l.2.2v.5l-.2.2H115C115,109.4,114.9,109.4,114.8,109.4Zm-.5-.7v.4h.8v-.6h-.1l-.2-.2h-.4l-.2.2h-.1Z" style="fill:#1a1a1a"/><path d="M116.2,109.3h.2c.1,0,.1,0,.1-.1s.1-.1.1-.2v-.8h.2v.6a.4.4,0,0,1-.1.3v.2h-.8v-1.1h.2v.8c0,.1,0,.2.1.2s0,.1.1.1Z" style="fill:#1a1a1a"/><path d="M118,108.2h-.5v1.2h-.1v-1.2h.6Z" style="fill:#1a1a1a"/><path d="M112.5,102.2c0-.1-.1-.1-.2-.1h-.4c-.1,0-.1.1-.1.2h.7a.1.1,0,0,0,.1.1v.2h0c0,.1-.1.1-.1.2h-.9v-.2l.2.2h.5v-.2h-.8v-.2h.7l.2.2Z" style="fill:#1a1a1a"/><path d="M113.7,103.1h-.8v-1.3h.1v.5h0v.5Z" style="fill:#1a1a1a"/><path d="M113.9,103.2l.5-1.3h.1l.6,1.3h-.2v-.4h-.6l-.2.4Zm.6-1.1-.3.6h.5Z" style="fill:#1a1a1a"/><path d="M115.3,103.2v-1.3h.8c0,.1.1.1.1.2h0v.2h-.3l.3.5h-.1l-.3-.5h-.4v.5Zm.1-.6h.7a.1.1,0,0,1-.1-.1h-.6Z" style="fill:#1a1a1a"/><path d="M116.4,102.6v-.3l.2-.2h.7a.2.2,0,0,1,.2.2h-.1v-.2h-.5a.1.1,0,0,0-.1.1c-.1,0-.1.1-.1.2s-.1.1-.1.2a4917165483550.1,4917165483550.1,0,0,0,.2.4h.8v.2h-.7l-.2-.2-.2-.2Z" style="fill:#1a1a1a"/><path d="M118.8,101.9v1.3h-.1v-.6h-.8v.6h-.1v-1.3h.1v.6h.8v-.6Z" style="fill:#1a1a1a"/><path d="M111.6,127v-1.3h.1v1.2h-.1Z" style="fill:#1a1a1a"/><path d="M113.2,127h-.5v-.2c0-.1-.1-.2-.1-.3v-.2c0-.1.1-.2.1-.3h.7a.2.2,0,0,1,.2.2c.1,0,.1.1.1.2v.2a.4.4,0,0,1-.1.3c0,.1,0,.1-.1.2h-.4Zm-.5-.7v.4h.2c0,.1.1.1.2.1h.3v-.2a.3.3,0,0,0,.1-.2c0-.1-.1-.1-.1-.2v-.2h-.7v.4Z" style="fill:#1a1a1a"/><path d="M115,126.8l-.4.2h-.5v-.7c0-.1.1-.2.1-.3h.9c0,.1,0,.1.1.1H115l-.2-.2h-.6v.8h.2c0,.1.1.1.2.1h.4v-.3h.1v.7H115Z" style="fill:#1a1a1a"/><path d="M115.4,127v-1.3h.1V127Z" style="fill:#1a1a1a"/><path d="M116,125.9V127h-.2v-1.3h.1l.9,1.1v-1.1h.1V127h-.1Z" style="fill:#1a1a1a"/><rect x="131.6" y="135.6" width="2.6" height="2.61" style="fill:#729bcf"/><rect x="127.5" y="135.6" width="2.6" height="2.61" style="fill:#729bcf"/><polygon points="18.6 63.9 18.6 67.3 18.6 67.3 18.6 102.1 54.7 102.1 54.7 67.3 54.7 67.3 54.7 63.9 18.6 63.9" style="fill:#fff;mix-blend-mode:multiply"/><rect x="15.8" y="64.4" width="36.1" height="34.77" style="fill:#789fd1"/><polygon points="51.9 61 15.8 61 15.8 61 15.8 64.4 51.9 64.4 51.9 61" style="fill:#1a1a1a"/><path d="M21.9,63.4h0a.7.7,0,0,1-.7-.7h0a.7.7,0,0,1,.7-.7h0a.7.7,0,0,1,.7.7h0A.7.7,0,0,1,21.9,63.4Z" style="fill:#fff"/><path d="M19.7,63.4h0a.7.7,0,0,1-.7-.7h0a.7.7,0,0,1,.7-.7h0a.7.7,0,0,1,.7.7h0A.7.7,0,0,1,19.7,63.4Z" style="fill:#fff"/><path d="M17.3,63.4h0a.8.8,0,0,1-.8-.7h0a.8.8,0,0,1,.8-.7h0a.8.8,0,0,1,.7.7h0A.8.8,0,0,1,17.3,63.4Z" style="fill:#fff"/><rect x="22.7" y="72.9" width="22.2" height="0.45" style="fill:#fff"/><rect x="22.7" y="74.4" width="22.2" height="0.45" style="fill:#fff"/><rect x="22.7" y="75.8" width="22.2" height="0.45" style="fill:#fff"/><rect x="22.7" y="77.3" width="22.2" height="0.45" style="fill:#fff"/><rect x="22.7" y="78.7" width="22.2" height="0.45" style="fill:#fff"/><rect x="31.5" y="66" width="4.7" height="4.63" style="fill:#fff"/><rect x="22.7" y="90.7" width="22.2" height="0.45" style="fill:#fff"/><rect x="22.7" y="92.2" width="22.2" height="0.45" style="fill:#fff"/><rect x="22.7" y="93.7" width="22.2" height="0.45" style="fill:#fff"/><rect x="22.7" y="95.1" width="22.2" height="0.45" style="fill:#fff"/><rect x="22.7" y="96.6" width="22.2" height="0.45" style="fill:#fff"/><rect x="22.7" y="81.8" width="22.2" height="0.45" transform="translate(67.6 164) rotate(180)" style="fill:#fff"/><rect x="22.7" y="83.2" width="22.2" height="0.45" transform="translate(67.6 166.9) rotate(180)" style="fill:#fff"/><rect x="22.7" y="84.7" width="22.2" height="0.45" transform="translate(67.6 169.8) rotate(180)" style="fill:#fff"/><rect x="22.7" y="86.1" width="22.2" height="0.45" transform="translate(67.6 172.7) rotate(180)" style="fill:#fff"/><rect x="22.7" y="87.6" width="22.2" height="0.45" transform="translate(67.6 175.6) rotate(180)" style="fill:#fff"/><polygon points="67.7 39.8 67.7 44.6 67.7 44.6 67.7 94.8 168.6 94.8 168.6 44.6 168.6 44.6 168.6 39.8 67.7 39.8" style="fill:#fff;mix-blend-mode:multiply"/><rect x="64.9" y="41.4" width="100.9" height="50.21" style="fill:#a4bfe0"/><polygon points="165.8 36.5 64.9 36.5 64.9 36.5 64.9 41.4 165.8 41.4 165.8 36.5" style="fill:#1a1a1a"/><path d="M73.8,40h0a1,1,0,0,1-1-1h0a1,1,0,0,1,1-1.1h0a1,1,0,0,1,1,1.1h0A1,1,0,0,1,73.8,40Z" style="fill:#fff"/><path d="M70.5,40h0a1.1,1.1,0,0,1-1-1h0a1.1,1.1,0,0,1,1-1.1h0A1.1,1.1,0,0,1,71.6,39h0A1.1,1.1,0,0,1,70.5,40Z" style="fill:#fff"/><path d="M67.1,40h0A1.1,1.1,0,0,1,66,39h0a1.1,1.1,0,0,1,1.1-1.1h0a1.1,1.1,0,0,1,1,1.1h0A1.1,1.1,0,0,1,67.1,40Z" style="fill:#fff"/><rect x="119.4" y="44.6" width="6.8" height="6.69" style="fill:#1a1a1a"/><rect x="128.9" y="44.6" width="6.8" height="6.69" style="fill:#fff"/><rect x="138" y="44.6" width="6.8" height="6.69" style="fill:#fff"/><rect x="147.5" y="44.6" width="6.8" height="6.69" style="fill:#fff"/><rect x="156.5" y="44.6" width="6.8" height="6.69" style="fill:#fff"/><g style="mix-blend-mode:multiply"><rect x="68.4" y="44.7" width="16.4" height="0.51" style="fill:#4c80c2"/><rect x="86.3" y="44.7" width="8.3" height="0.51" style="fill:#4c80c2"/><rect x="91.6" y="54.9" width="8.3" height="0.51" style="fill:#4c80c2"/><rect x="107.8" y="58.2" width="8.3" height="0.51" style="fill:#4c80c2"/><rect x="92.6" y="53.3" width="14.1" height="0.51" style="fill:#4c80c2"/><rect x="92.6" y="58.2" width="14.1" height="0.51" style="fill:#4c80c2"/><rect x="100.9" y="69.8" width="8.3" height="0.51" style="fill:#4c80c2"/><rect x="85.7" y="69.8" width="8.6" height="0.51" style="fill:#4c80c2"/><rect x="68.4" y="46.3" width="16.4" height="0.51" style="fill:#4c80c2"/><rect x="98.7" y="48" width="16.4" height="0.51" style="fill:#4c80c2"/><rect x="68.4" y="48" width="29.1" height="0.51" style="fill:#4c80c2"/><rect x="87.7" y="51.2" width="29.1" height="0.51" style="fill:#fff"/><rect x="68.4" y="49.6" width="18.9" height="0.51" style="fill:#4c80c2"/><rect x="68.4" y="51.2" width="16.4" height="0.51" style="fill:#fff"/><rect x="68.5" y="72.1" width="16.4" height="0.51" style="fill:#fff"/><rect x="86.4" y="72.1" width="8.3" height="0.51" style="fill:#4c80c2"/><rect x="68.5" y="73.8" width="6.9" height="0.51" style="fill:#4c80c2"/><rect x="98.9" y="75.4" width="16.4" height="0.51" style="fill:#4c80c2"/><rect x="68.5" y="75.4" width="19" height="0.51" style="fill:#4c80c2"/><rect x="87.8" y="78.7" width="29.1" height="0.51" style="fill:#4c80c2"/><rect x="68.5" y="77" width="29.1" height="0.51" style="fill:#4c80c2"/><rect x="68.5" y="78.7" width="16.4" height="0.51" style="fill:#fff"/><rect x="68.4" y="63.3" width="10.8" height="0.51" style="fill:#4c80c2"/><rect x="68.4" y="64.9" width="28.9" height="0.51" style="fill:#fff"/><rect x="68.4" y="66.6" width="16.4" height="0.51" style="fill:#4c80c2"/><rect x="85.8" y="66.6" width="16.4" height="0.51" style="fill:#fff"/><rect x="68.4" y="68.2" width="8.2" height="0.51" style="fill:#4c80c2"/><rect x="68.4" y="69.8" width="9.9" height="0.51" style="fill:#4c80c2"/><rect x="74.1" y="53.3" width="16.4" height="0.51" transform="translate(164.7 107) rotate(180)" style="fill:#fff"/><rect x="74.1" y="54.9" width="16.4" height="0.51" transform="translate(164.7 110.3) rotate(180)" style="fill:#fff"/><rect x="74.1" y="56.5" width="8.7" height="0.51" transform="translate(157 113.6) rotate(180)" style="fill:#4c80c2"/><rect x="74.1" y="58.2" width="16.4" height="0.51" transform="translate(164.7 116.8) rotate(180)" style="fill:#4c80c2"/><rect x="74.1" y="59.8" width="16.4" height="0.51" transform="translate(164.7 120.1) rotate(180)" style="fill:#4c80c2"/><rect x="68.5" y="81.3" width="16.4" height="0.51" style="fill:#4c80c2"/><rect x="86.3" y="81.3" width="8.3" height="0.51" style="fill:#4c80c2"/><rect x="68.5" y="82.9" width="16.4" height="0.51" style="fill:#4c80c2"/><rect x="98.8" y="84.6" width="16.4" height="0.51" style="fill:#4c80c2"/><rect x="68.5" y="84.6" width="29.1" height="0.51" style="fill:#4c80c2"/><rect x="87.7" y="87.8" width="29.1" height="0.51" style="fill:#fff"/><rect x="68.5" y="86.2" width="18.9" height="0.51" style="fill:#4c80c2"/><rect x="68.5" y="87.8" width="16.4" height="0.51" style="fill:#fff"/></g><polygon points="106.9 21 106.9 26.7 106.9 26.7 106.9 85.9 168.3 85.9 168.3 26.7 168.3 26.7 168.3 21 106.9 21" style="fill:#fff;mix-blend-mode:multiply"/><rect x="104.8" y="23.6" width="61.4" height="59.13" style="fill:#fff"/><rect x="123.1" y="68.6" width="8" height="7.87" style="fill:#729bcf"/><rect x="134.2" y="68.6" width="8" height="7.87" style="fill:#729bcf"/><rect x="145" y="68.6" width="8" height="7.87" style="fill:#729bcf"/><polygon points="166.2 17.9 104.8 17.9 104.8 17.9 104.8 23.6 166.2 23.6 166.2 17.9" style="fill:#1a1a1a"/><path d="M115.3,22h0a1.2,1.2,0,0,1-1.2-1.2h0a1.2,1.2,0,0,1,1.2-1.2h0a1.2,1.2,0,0,1,1.2,1.2h0A1.3,1.3,0,0,1,115.3,22Z" style="fill:#fff"/><path d="M111.4,22h0a1.3,1.3,0,0,1-1.2-1.2h0a1.2,1.2,0,0,1,1.2-1.2h0a1.2,1.2,0,0,1,1.2,1.2h0A1.2,1.2,0,0,1,111.4,22Z" style="fill:#fff"/><path d="M107.3,22h0a1.3,1.3,0,0,1-1.2-1.2h0a1.2,1.2,0,0,1,1.2-1.2h0a1.2,1.2,0,0,1,1.2,1.2h0A1.2,1.2,0,0,1,107.3,22Z" style="fill:#fff"/><g style="opacity:0.5;mix-blend-mode:multiply"><rect x="111.4" y="59.3" width="16.1" height="0.35" style="fill:#4c80c2"/><rect x="128.9" y="59.3" width="8.2" height="0.35" style="fill:#4c80c2"/><rect x="134.1" y="52.2" width="8.2" height="0.35" style="fill:#4c80c2"/><rect x="150" y="49.9" width="8.2" height="0.35" style="fill:#4c80c2"/><rect x="135" y="53.3" width="13.7" height="0.35" style="fill:#4c80c2"/><rect x="135" y="49.9" width="13.7" height="0.35" style="fill:#4c80c2"/><rect x="143.2" y="41.7" width="8.2" height="0.35" style="fill:#4c80c2"/><rect x="128.3" y="41.7" width="8.4" height="0.35" style="fill:#4c80c2"/><rect x="111.4" y="58.2" width="16.1" height="0.35" style="fill:#4c80c2"/><rect x="141.1" y="57" width="16.1" height="0.35" style="fill:#4c80c2"/><rect x="111.4" y="57" width="28.5" height="0.35" style="fill:#4c80c2"/><rect x="130.3" y="54.8" width="28.5" height="0.35" style="fill:#fff"/><rect x="111.4" y="55.9" width="18.5" height="0.35" style="fill:#4c80c2"/><rect x="111.4" y="54.8" width="16.1" height="0.35" style="fill:#fff"/><rect x="111.5" y="40.1" width="16.1" height="0.35" style="fill:#fff"/><rect x="129" y="40.1" width="8.2" height="0.35" style="fill:#4c80c2"/><rect x="111.5" y="39" width="6.8" height="0.35" style="fill:#4c80c2"/><rect x="141.2" y="37.8" width="16.1" height="0.35" style="fill:#4c80c2"/><rect x="111.5" y="37.8" width="18.6" height="0.35" style="fill:#4c80c2"/><rect x="130.4" y="35.6" width="28.5" height="0.35" style="fill:#4c80c2"/><rect x="111.5" y="36.7" width="28.5" height="0.35" style="fill:#4c80c2"/><rect x="111.5" y="35.6" width="16.1" height="0.35" style="fill:#fff"/><rect x="111.4" y="46.3" width="10.6" height="0.35" style="fill:#4c80c2"/><rect x="111.4" y="45.2" width="28.3" height="0.35" style="fill:#fff"/><rect x="111.4" y="44" width="16.1" height="0.35" style="fill:#4c80c2"/><rect x="128.4" y="44" width="16.1" height="0.35" style="fill:#fff"/><rect x="111.4" y="42.9" width="8" height="0.35" style="fill:#4c80c2"/><rect x="111.4" y="41.7" width="9.7" height="0.35" style="fill:#4c80c2"/><rect x="117" y="53.3" width="16.1" height="0.35" transform="translate(250.1 107) rotate(180)" style="fill:#fff"/><rect x="117" y="52.2" width="16.1" height="0.35" transform="translate(250.1 104.8) rotate(180)" style="fill:#fff"/><rect x="117" y="51" width="8.5" height="0.35" transform="translate(242.6 102.4) rotate(180)" style="fill:#4c80c2"/><rect x="117" y="49.9" width="16.1" height="0.35" transform="translate(250.1 100.2) rotate(180)" style="fill:#4c80c2"/><rect x="117" y="48.8" width="16.1" height="0.35" transform="translate(250.1 97.9) rotate(180)" style="fill:#4c80c2"/><rect x="111.5" y="33.8" width="16.1" height="0.35" style="fill:#4c80c2"/><rect x="128.9" y="33.8" width="8.2" height="0.35" style="fill:#4c80c2"/><rect x="111.5" y="32.6" width="16.1" height="0.35" style="fill:#4c80c2"/><rect x="141.2" y="31.5" width="16.1" height="0.35" style="fill:#4c80c2"/><rect x="111.5" y="31.5" width="28.5" height="0.35" style="fill:#4c80c2"/><rect x="130.3" y="29.2" width="28.5" height="0.35" style="fill:#fff"/><rect x="111.5" y="30.3" width="18.5" height="0.35" style="fill:#4c80c2"/><rect x="111.5" y="29.2" width="16.1" height="0.35" style="fill:#fff"/></g><polygon points="33.5 78.6 33.5 81.8 33.5 81.9 33.5 116 68.9 116 68.9 81.9 68.9 81.8 68.9 78.6 33.5 78.6" style="fill:#fff;mix-blend-mode:multiply"/><rect x="30.7" y="78.9" width="35.5" height="34.16" style="fill:#fff"/><polygon points="66.2 75.6 30.7 75.6 30.7 75.6 30.7 78.9 66.2 78.9 66.2 75.6" style="fill:#1a1a1a"/><path d="M36.7,78h0a.8.8,0,0,1-.7-.7h0a.8.8,0,0,1,.7-.7h0a.7.7,0,0,1,.7.7h0A.7.7,0,0,1,36.7,78Z" style="fill:#fff"/><path d="M34.5,78h0a.7.7,0,0,1-.7-.7h0a.7.7,0,0,1,.7-.7h0a.7.7,0,0,1,.7.7h0A.7.7,0,0,1,34.5,78Z" style="fill:#fff"/><path d="M32.1,78h0a.7.7,0,0,1-.6-.7h0a.7.7,0,0,1,.6-.7h0a.7.7,0,0,1,.7.7h0A.7.7,0,0,1,32.1,78Z" style="fill:#fff"/><rect x="32.8" y="82.6" width="7.5" height="7.41" style="fill:#729bcf"/><rect x="42.2" y="82.5" width="22.1" height="0.54" style="fill:#1a1a1a"/><rect x="42.2" y="84.3" width="22.1" height="0.54" style="fill:#fff"/><rect x="42.2" y="86" width="22.1" height="0.54" style="fill:#fff"/><rect x="42.2" y="87.7" width="22.1" height="0.54" style="fill:#fff"/><rect x="42.2" y="89.5" width="22.1" height="0.54" style="fill:#fff"/><rect x="32.7" y="103.8" width="7.5" height="7.41" style="fill:#aec5e3"/><rect x="42" y="103.7" width="22.1" height="0.54" style="fill:#1a1a1a"/><rect x="42" y="105.4" width="22.1" height="0.54" style="fill:#fff"/><rect x="42" y="107.2" width="22.1" height="0.54" style="fill:#fff"/><rect x="42" y="108.9" width="22.1" height="0.54" style="fill:#fff"/><rect x="42" y="110.6" width="22.1" height="0.54" style="fill:#fff"/><rect x="56.6" y="93.1" width="7.5" height="7.41" transform="translate(120.8 193.6) rotate(180)" style="fill:#bed1e9"/><rect x="32.7" y="93.1" width="22.1" height="0.54" transform="translate(87.5 186.7) rotate(180)" style="fill:#1a1a1a"/><rect x="32.7" y="94.8" width="22.1" height="0.54" transform="translate(87.5 190.1) rotate(180)" style="fill:#fff"/><rect x="32.7" y="96.5" width="22.1" height="0.54" transform="translate(87.5 193.6) rotate(180)" style="fill:#fff"/><rect x="32.7" y="98.2" width="22.1" height="0.54" transform="translate(87.5 197) rotate(180)" style="fill:#fff"/><rect x="32.7" y="100" width="22.1" height="0.54" transform="translate(87.5 200.5) rotate(180)" style="fill:#fff"/><path d="M176.4,80.8l2.4-.6-.9-3.5-2.4.6a10.9,10.9,0,0,0-.8-1.5l1.6-1.6-2.5-2.5-1.6,1.6-1.6-.8.6-2.4-3.4-.9-.6,2.4H166l-.7-2.3-3.4,1,.7,2.2-1.4.8-1.6-1.6-2.5,2.5,1.6,1.6c-.3.4-.5.9-.8,1.4l-2.2-.7-1,3.4,2.3.7v1.2l-2.4.6.9,3.4,2.3-.6.9,1.6-1.6,1.6,2.5,2.5,1.6-1.6,1.5.8-.6,2.4,3.5.9.6-2.4h1.2l.7,2.3,3.4-1-.7-2.3,1.4-.7,1.6,1.6,2.5-2.5-1.6-1.6a9.1,9.1,0,0,0,.7-1.4l2.3.7,1-3.4-2.4-.7A4.9,4.9,0,0,0,176.4,80.8Zm-6.2,4a5,5,0,0,1-7,0,4.8,4.8,0,0,1,0-7,4.9,4.9,0,0,1,7,7Z" style="fill:#1a1a1a"/><path d="M163.2,77.8a4.8,4.8,0,0,0,0,7,4.9,4.9,0,1,0,0-7Zm6,6a3.5,3.5,0,1,1,0-5A3.5,3.5,0,0,1,169.2,83.8Z" style="fill:#729bcf"/><circle cx="65" cy="37.1" r="4.6" style="fill:#4c80c2"/><path d="M80.4,34.1l3.1-.8-.5-2-3.1.8a15.5,15.5,0,0,0-3.1-5.4l2.3-2.3H79L77.6,23h0l-2.2,2.2a17.7,17.7,0,0,0-5.5-3.1l.8-3.1-1.9-.5L68,21.6a15.1,15.1,0,0,0-6,0l-.8-3.1-2,.5.8,3.1a15.8,15.8,0,0,0-5.4,3.2L52.3,23l-1.4,1.4,2.3,2.3a14.1,14.1,0,0,0-3.1,5.4L47,31.3l-.6,1.9,3.1.9a15.1,15.1,0,0,0,0,6l-3.1.8.6,1.9,3.1-.8a13.4,13.4,0,0,0,3.1,5.4l-2.3,2.3h0l1.4,1.4h.1l2.2-2.3A15.5,15.5,0,0,0,60,52l-.8,3.1,2,.5.8-3.1a15.2,15.2,0,0,0,6,0l.8,3.1,2-.5L70,52a18.4,18.4,0,0,0,5.4-3.1l2.2,2.3,1.5-1.5-2.3-2.2A15.9,15.9,0,0,0,79.9,42l3.1.8.5-1.9-3.1-.8A15.2,15.2,0,0,0,80.4,34.1Zm-8,10.4a10.5,10.5,0,1,1,0-14.9A10.4,10.4,0,0,1,72.4,44.5Z" style="fill:#729bcf"/><path d="M57.5,29.6A10.5,10.5,0,0,0,72.4,44.5a10.4,10.4,0,0,0,0-14.9A10.6,10.6,0,0,0,57.5,29.6ZM70.6,42.7a7.9,7.9,0,1,1,0-11.2A7.9,7.9,0,0,1,70.6,42.7Z" style="fill:#aac3e2"/><path d="M80.4,34.1l3.1-.8-.5-2-3.1.8a15.5,15.5,0,0,0-3.1-5.4l2.3-2.3H79L77.6,23h0l-2.2,2.2a17.7,17.7,0,0,0-5.5-3.1l.8-3.1-1.9-.5L68,21.6a15.1,15.1,0,0,0-6,0l-.8-3.1-2,.5.8,3.1a15.8,15.8,0,0,0-5.4,3.2L52.3,23l-1.4,1.4,2.3,2.3a14.1,14.1,0,0,0-3.1,5.4L47,31.3l-.6,1.9,3.1.9a15.1,15.1,0,0,0,0,6l-3.1.8.6,1.9,3.1-.8a13.4,13.4,0,0,0,3.1,5.4l-2.3,2.3h0l1.4,1.4h.1l2.2-2.3A15.5,15.5,0,0,0,60,52l-.8,3.1,2,.5.8-3.1a15.2,15.2,0,0,0,6,0l.8,3.1,2-.5L70,52a18.4,18.4,0,0,0,5.4-3.1l2.2,2.3,1.5-1.5-2.3-2.2A15.9,15.9,0,0,0,79.9,42l3.1.8.5-1.9-3.1-.8A15.2,15.2,0,0,0,80.4,34.1ZM76,48.1A15.6,15.6,0,1,1,76,26,15.5,15.5,0,0,1,76,48.1Z" style="fill:#467cc0"/><path d="M169.8,74.2l-2.1,6.4H166l-2.1-6.4,1.3-3.8h0V35.8a1.6,1.6,0,0,1,1.6-1.6,1.6,1.6,0,0,1,1.7,1.6V70.4h0Z"/><rect x="163.6" width="6.2" height="38.77" style="fill:#729bcf"/><polygon points="159.6 38.8 159.6 35.8 162.7 32.1 159.6 27.7 159.6 0 163.1 0 163.6 0 163.6 38.8 159.6 38.8" style="fill:#8eafd9"/><polygon points="173.7 0 173.7 27.7 170.7 32.1 173.7 35.8 173.7 38.8 169.8 38.8 169.8 0 170.2 0 173.7 0" style="fill:#467cc0"/><polygon points="169.8 41 163.6 41 159 41 159 38.8 159.6 38.8 163.6 38.8 169.8 38.8 173.7 38.8 174.4 38.8 174.4 41 169.8 41" style="fill:#729bcf"/><path d="M60.3,37.8h0l3-5.2h5.6l-.6-.6h-.1a7,7,0,0,0-1.7-1.3l-1.3-.6-1.4-.3h-.9a8.2,8.2,0,0,0-6.8,3.7H19.5A8.6,8.6,0,0,0,18,31.3a9.5,9.5,0,0,0-7.2-3.2,7.6,7.6,0,0,0-2.1.3l-.9.2H7.5a7.2,7.2,0,0,0-2,.9L3.7,31,2.5,32.5a12,12,0,0,0-1.3,3.1c0,.2-.1.4-.1.6a9.5,9.5,0,0,0,2.6,8.5A10,10,0,0,0,7.5,47h.3a10.5,10.5,0,0,0,3,.5,9.7,9.7,0,0,0,8.7-5.4H56.1a8.2,8.2,0,0,0,6.8,3.7,8,8,0,0,0,5.4-2.2h.1l.5-.6H63.3ZM7.5,32.5h6.2l3.1,5.3h0l-3.1,5.4H7.5L4.4,37.8Z" style="fill:#fff;mix-blend-mode:multiply"/><path d="M18.6,41.4H55.2a7.8,7.8,0,0,0,6.7,3.7A8,8,0,0,0,68,42.3H62.4l-3-5.2h0l3-5.3H68a8.8,8.8,0,0,0-2.4-1.9,9,9,0,0,0-2.8-.8h-.9a8,8,0,0,0-6.7,3.7H18.6a10.7,10.7,0,0,0-1.5-2.2,10.1,10.1,0,0,0-7.2-3.2,7.1,7.1,0,0,0-2.1.3l-.9.2H6.6a11.4,11.4,0,0,0-3.8,2.3,9.8,9.8,0,0,0,0,13.7,10,10,0,0,0,3.8,2.3h.3a10.5,10.5,0,0,0,3,.5A9.7,9.7,0,0,0,18.6,41.4Zm-12.1,1L3.4,37.1l3.1-5.4h6.2l3.1,5.4-3.1,5.3Z" style="fill:#1a1a1a"/><polygon points="6.6 31.7 12.8 31.7 15.9 37.1 17 37.1 13.4 30.8 6.1 30.8 2.5 37.1 3.5 37.1 6.6 31.7"/><polygon points="13.4 43.4 17 37.1 15.9 37.1 12.8 42.4 6.6 42.4 3.5 37.1 2.5 37.1 6.1 43.4 13.4 43.4" style="fill:#4c80c2"/><path d="M58.6,37.1h.8l3-5.3H68l-.6-.6H62Z"/><path d="M58.6,37.1h0L62,42.9h5.5l.5-.6H62.4l-3-5.2h-.8Z" style="fill:#4c80c2"/><path d="M6.5,31.7h6.2l3.1,5.4H59.4l3-5.3H68a8.8,8.8,0,0,0-2.4-1.9,9,9,0,0,0-2.8-.8h-.9a8,8,0,0,0-6.7,3.7H18.6a10.7,10.7,0,0,0-1.5-2.2,10.1,10.1,0,0,0-7.2-3.2,7.1,7.1,0,0,0-2.1.3l-.9.2H6.6a11.4,11.4,0,0,0-3.8,2.3A9.7,9.7,0,0,0,0,37.1H3.4Z" style="fill:#fff;opacity:0.1"/></g></g></g></g></g></svg>