<svg xmlns="http://www.w3.org/2000/svg" viewBox="0 0 250.7 140.3"><title>Suchmaschinenoptimierung</title><g id="Ebene_2" data-name="Ebene 2"><g id="Startseite"><g id="Section_-_Seo" data-name="Section - Seo"><g id="Suchmaschinenoptimierung"><g id="Suchmaschinenoptimierung-2" data-name="Suchmaschinenoptimierung"><path d="M42,13.3a49.8,49.8,0,0,1,10.6,1.3,28.9,28.9,0,0,1,10.5,4.2c3,2,4.4,4.5,4.4,7.6a10.3,10.3,0,0,1-2.4,6.8A7.8,7.8,0,0,1,58.8,36a13.6,13.6,0,0,1-3.8-.6l-4.3-1.5a24.4,24.4,0,0,0-4.4-1.3,18.6,18.6,0,0,0-4.8-.5A12.6,12.6,0,0,0,34,34.4a7.3,7.3,0,0,0-3.2,6.2c0,2.8,2.4,5,7.1,6.7l15.8,5.4a36.4,36.4,0,0,1,14.7,8.8c4,4,6,9.9,6,17.5a28,28,0,0,1-4.6,15.9,29.9,29.9,0,0,1-12.1,10.7A37.5,37.5,0,0,1,41,109.3,69.4,69.4,0,0,1,19.6,106c-6.9-2.2-10.3-5.9-10.3-11.3a9.2,9.2,0,0,1,2.4-6.6A8,8,0,0,1,18,85.4a16.7,16.7,0,0,1,4.2.7c1.5.4,3.5,1,5.9,1.9l6.2,1.9a26,26,0,0,0,5.6.6,16,16,0,0,0,7.2-1.4,11.3,11.3,0,0,0,4.6-4,11.1,11.1,0,0,0,1.5-5.8c0-3.3-1.1-5.4-3.4-6.5s-7.7-2.8-16-5.4-14.4-5.7-18.3-9.1S9.7,49.7,9.7,42.9a27.4,27.4,0,0,1,4.4-15.6A29.4,29.4,0,0,1,26,16.9,36.1,36.1,0,0,1,42,13.3Z"/><path d="M43.6,14.8a57.4,57.4,0,0,1,10.5,1.3,30.1,30.1,0,0,1,10.5,4.3q4.5,2.9,4.5,7.5a9.9,9.9,0,0,1-2.4,6.8,7.9,7.9,0,0,1-6.3,2.9,11.5,11.5,0,0,1-3.9-.7l-4.3-1.5a35.2,35.2,0,0,0-4.3-1.3,24.6,24.6,0,0,0-4.9-.5,12.6,12.6,0,0,0-7.5,2.3,7.2,7.2,0,0,0-3.1,6.2c0,2.8,2.3,5,7,6.7l15.8,5.4a36.6,36.6,0,0,1,14.7,8.9q6,6,6,17.4a28.5,28.5,0,0,1-4.5,15.9,30.2,30.2,0,0,1-12.2,10.7,37.3,37.3,0,0,1-16.7,3.8,69.9,69.9,0,0,1-21.4-3.3c-6.8-2.2-10.3-6-10.3-11.4a9.6,9.6,0,0,1,2.4-6.6A8.4,8.4,0,0,1,19.6,87a17.6,17.6,0,0,1,4.2.6l5.8,1.9c2.4.8,4.5,1.5,6.3,1.9a24.5,24.5,0,0,0,5.6.7,15.2,15.2,0,0,0,7.1-1.5,9.9,9.9,0,0,0,4.6-3.9,11.5,11.5,0,0,0,1.6-5.8c0-3.3-1.2-5.5-3.5-6.5s-7.6-2.9-16-5.5S20.9,63.2,17,59.8s-5.8-8.6-5.8-15.4a28.2,28.2,0,0,1,4.4-15.6A29,29,0,0,1,27.5,18.5,36.6,36.6,0,0,1,43.6,14.8Z" style="fill:#162030;opacity:0.75"/><path d="M65.5,27.6a6.4,6.4,0,0,1-12.8,0,6.4,6.4,0,1,1,12.8,0Z" style="fill:#1a1a1a"/><path d="M64.5,26.5a6.4,6.4,0,1,1-12.8,0,6.4,6.4,0,0,1,6.4-6.4A6.4,6.4,0,0,1,64.5,26.5Z" style="fill:#4a7fc1"/><path d="M27,96.4a6.4,6.4,0,0,1-6.4,6.4A6.5,6.5,0,1,1,27,96.4Z" style="fill:#1a1a1a"/><path d="M26,95.3a6.4,6.4,0,1,1-12.8,0,6.4,6.4,0,0,1,6.4-6.4A6.4,6.4,0,0,1,26,95.3Z" style="fill:#7c848b"/><path d="M90.8,97.9V26.2A12.1,12.1,0,0,1,93.5,18c1.7-2.1,4.2-3.1,7.5-3.1h32.4a9,9,0,0,1,6.8,2.6,9.6,9.6,0,0,1,1.3,10.8,7.6,7.6,0,0,1-3.1,3.3,9.1,9.1,0,0,1-5,1.3h-23v19h21.4a9.7,9.7,0,0,1,7.1,2.6,9.1,9.1,0,0,1,2.4,6.4,8.8,8.8,0,0,1-2.5,6.3,9.1,9.1,0,0,1-7,2.7H110.4V89.7h24.1a9,9,0,0,1,6.9,2.6,9.3,9.3,0,0,1,2.4,6.4,8.6,8.6,0,0,1-1.1,4.3,7.3,7.3,0,0,1-3.1,3.4,9.2,9.2,0,0,1-5.1,1.3H100.9a10.1,10.1,0,0,1-7.2-2.7A9.4,9.4,0,0,1,90.8,97.9Z"/><path d="M92.4,99.5V27.8A12.4,12.4,0,0,1,95,19.6c1.7-2.1,4.3-3.2,7.6-3.2h32.3a8.7,8.7,0,0,1,6.9,2.7,9.1,9.1,0,0,1,2.3,6.3,9.6,9.6,0,0,1-1,4.5,10.1,10.1,0,0,1-3.2,3.3,9.8,9.8,0,0,1-5,1.3h-23V53.4h21.4a9.5,9.5,0,0,1,7.1,2.6,9.4,9.4,0,0,1,2.5,6.5,8.9,8.9,0,0,1-2.6,6.2,9.1,9.1,0,0,1-7,2.7H111.9V91.2h24.2a8.7,8.7,0,0,1,6.9,2.7,9.1,9.1,0,0,1,2.4,6.4,10.2,10.2,0,0,1-1.1,4.3,8.7,8.7,0,0,1-3.2,3.4,10,10,0,0,1-5,1.3H102.4a10,10,0,0,1-7.1-2.7A9.1,9.1,0,0,1,92.4,99.5Z" style="fill:#162030;opacity:0.75"/><path d="M108.6,61.7a6.4,6.4,0,0,1-6.4,6.4,6.5,6.5,0,1,1,6.4-6.4Z" style="fill:#1a1a1a"/><path d="M107.6,60.6a6.4,6.4,0,1,1-12.8,0,6.4,6.4,0,0,1,6.4-6.4A6.4,6.4,0,0,1,107.6,60.6Z" style="fill:#a8adb1"/><path d="M141.8,99.6a6.5,6.5,0,0,1-12.9,0,6.5,6.5,0,0,1,12.9,0Z" style="fill:#1a1a1a"/><path d="M140.7,98.5a6.4,6.4,0,1,1-6.4-6.4A6.4,6.4,0,0,1,140.7,98.5Z" style="fill:#769ed0"/><path d="M141.4,25a6.4,6.4,0,1,1-12.8,0,6.4,6.4,0,1,1,12.8,0Z" style="fill:#1a1a1a"/><path d="M140.4,24a6.4,6.4,0,0,1-6.4,6.4,6.5,6.5,0,0,1,0-12.9A6.5,6.5,0,0,1,140.4,24Z" style="fill:#467cc0"/><path d="M249.3,61.4a47.8,47.8,0,1,1-47.8-47.8A47.8,47.8,0,0,1,249.3,61.4ZM201.5,32.1a29.3,29.3,0,1,0,29.3,29.3A29.3,29.3,0,0,0,201.5,32.1Z"/><path d="M250.7,62.8A47.8,47.8,0,1,1,202.9,15,47.8,47.8,0,0,1,250.7,62.8ZM202.9,33.5a29.3,29.3,0,1,0,29.2,29.3A29.3,29.3,0,0,0,202.9,33.5Z" style="fill:#162030;opacity:0.75"/><path d="M231.7,81.3a6.4,6.4,0,1,1-6.4,6.4A6.4,6.4,0,0,1,231.7,81.3Z" style="fill:#1a1a1a"/><path d="M230.7,80.4a6.4,6.4,0,0,1,6.4,6.4,6.4,6.4,0,0,1-6.4,6.4,6.4,6.4,0,1,1,0-12.8Z" style="fill:#bbbfc3"/><path d="M173,31.9a6.4,6.4,0,1,1,0,12.8,6.4,6.4,0,0,1-6.4-6.4A6.4,6.4,0,0,1,173,31.9Z" style="fill:#1a1a1a"/><path d="M172,30.9a6.5,6.5,0,0,1,0,12.9,6.5,6.5,0,0,1,0-12.9Z" style="fill:#5385c4"/><path d="M161.2,29l1.7-2a62.5,62.5,0,0,1,4.5-4.4,52,52,0,0,1,73.4,4.6l1.4,1.7L250,23c-.6-.7-1.2-1.5-1.9-2.2a20.9,20.9,0,0,0-2-2.2l-4.4,2.5a50.8,50.8,0,0,0-4.3-3.8l2-4.7q-2.4-1.8-4.8-3.3l-3.8,3.4a48.2,48.2,0,0,0-5-2.7l.7-5q-2.7-1.2-5.4-2.1l-2.8,4.3a55.4,55.4,0,0,0-5.5-1.4L212.3.7,206.5,0l-1.7,4.8h-5.7L197.4,0a57.3,57.3,0,0,0-5.8.7l-.5,5a57.3,57.3,0,0,0-5.6,1.4l-2.7-4.3a52,52,0,0,0-5.5,2.1l.7,5-5,2.6-3.8-3.4q-2.4,1.5-4.8,3.3l1.9,4.7-2.2,1.8c-.7.7-1.4,1.3-2,2l-4.5-2.5-2.1,2.2-1.8,2.1Z" style="fill:#5385c4"/><path d="M161.2,94.9c.6.7,1.1,1.4,1.7,2a47.8,47.8,0,0,0,4.5,4.5,52,52,0,0,0,73.4-4.7l1.4-1.6,7.8,5.8-1.9,2.3-2,2.1-4.4-2.4c-1.4,1.3-2.8,2.6-4.3,3.8l2,4.7-4.8,3.3-3.8-3.4-5,2.6.7,5q-2.7,1.2-5.4,2.1l-2.8-4.2-5.5,1.4-.5,5c-2,.3-3.9.6-5.8.7l-1.7-4.7h-5.7l-1.7,4.8-5.8-.7-.5-5.1a56.6,56.6,0,0,1-5.6-1.3l-2.7,4.2a51.4,51.4,0,0,1-5.5-2l.7-5a48.2,48.2,0,0,1-5-2.7l-3.8,3.5q-2.4-1.5-4.8-3.3l1.9-4.7-2.2-1.9a18,18,0,0,1-2-1.9l-4.5,2.5-2.1-2.3-1.8-2.1Z" style="fill:#bbbfc3"/><path d="M170.6,45.7a5.9,5.9,0,0,1-.4,1.8,3.3,3.3,0,0,1-4.6,1.9,3.5,3.5,0,0,1-2-4.9,3.2,3.2,0,0,1,1-1.5l.8.7a2.3,2.3,0,0,0-.8,1.2,2.3,2.3,0,0,0,1.4,3.2,2.3,2.3,0,0,0,3.3-1.2,4.4,4.4,0,0,0,.3-1.4Z" style="fill:#dee0e2"/><path d="M174.2,34.9a3.4,3.4,0,0,1,.7,5c-1.2,1.5-3.2,1.5-4.8.2a3.3,3.3,0,0,1-.7-4.9C170.7,33.6,172.6,33.7,174.2,34.9ZM171,39.1c1.1.9,2.4,1,3.2.1s.3-2.3-.8-3.2-2.5-1.1-3.3-.1S169.8,38.1,171,39.1Z" style="fill:#dee0e2"/><path d="M180.2,34.3l-3.9-5.8,1.2-.8,3.2,1.5a16.7,16.7,0,0,1,2.3,1.2h0a22.9,22.9,0,0,1-1.7-2.3L179.9,26l1-.6,3.9,5.8-1.1.7-3.2-1.5a18.3,18.3,0,0,1-2.4-1.3H178l1.8,2.5,1.4,2Z" style="fill:#dee0e2"/><path d="M185.4,24.3l-1.8.8-.4-1L188,22l.5,1-1.9.8,2.4,5.5-1.2.5Z" style="fill:#dee0e2"/><path d="M195.2,24.1l-2.6.7.5,2,2.9-.7.2,1-4.1,1-1.7-6.8,4-1,.2,1-2.7.7.5,1.8,2.5-.7Z" style="fill:#dee0e2"/><path d="M197.8,26.8l-.4-7h1.5l1.9,3a13.5,13.5,0,0,1,1.4,2.2h0c-.1-.9-.2-1.8-.3-2.9V19.6H203l.3,7H202l-2-3a13.4,13.4,0,0,1-1.3-2.3h-.1a25.1,25.1,0,0,1,.2,3l.2,2.5Z" style="fill:#dee0e2"/><path d="M207.4,21l-2-.3.2-1,5.2.7v1l-2-.2-.8,5.9-1.3-.2Z" style="fill:#dee0e2"/><path d="M58.1,21.3a5.3,5.3,0,0,0,0,10.5,5.3,5.3,0,0,0,0-10.5Zm-.4,3L56.5,24a6.1,6.1,0,0,1,1.2-1.6Zm0,.6v1.3H55.8a9.4,9.4,0,0,1,.4-1.6A4,4,0,0,0,57.7,24.9Zm0,2v1.3a4,4,0,0,0-1.5.3,9.4,9.4,0,0,1-.4-1.6Zm0,1.9v1.9a6.1,6.1,0,0,1-1.2-1.6A5.3,5.3,0,0,1,57.7,28.8Zm.7,0a6.1,6.1,0,0,1,1.3.3,6.5,6.5,0,0,1-1.3,1.6Zm0-.6V26.9h1.9a4.5,4.5,0,0,1-.3,1.6A4.5,4.5,0,0,0,58.4,28.2Zm0-2V24.9a4.5,4.5,0,0,0,1.6-.3,4.5,4.5,0,0,1,.3,1.6Zm0-1.9V22.4A6.5,6.5,0,0,1,59.7,24,6.1,6.1,0,0,1,58.4,24.3Zm.6-2.2a5.1,5.1,0,0,1,2.2,1.1l-.9.6A5.2,5.2,0,0,0,59,22.1Zm-3.2,1.7-.8-.6a5.3,5.3,0,0,1,2.1-1.1A10.9,10.9,0,0,0,55.8,23.8Zm-.2.6a3.9,3.9,0,0,0-.4,1.8H53.5a5.5,5.5,0,0,1,1-2.5Zm-.4,2.5a3.9,3.9,0,0,0,.4,1.8l-1.1.7a5.5,5.5,0,0,1-1-2.5Zm.6,2.4A10.9,10.9,0,0,0,57.1,31,5.3,5.3,0,0,1,55,29.9Zm4.5,0,.9.6A5.1,5.1,0,0,1,59,31,5.2,5.2,0,0,0,60.3,29.3Zm.3-.6a11.6,11.6,0,0,0,.4-1.8h1.6a4.6,4.6,0,0,1-1,2.5Zm.4-2.5a11.6,11.6,0,0,0-.4-1.8l1-.7a4.6,4.6,0,0,1,1,2.5Z" style="fill:#dee0e2"/><path d="M138.4,21.2h0a.1.1,0,0,1-.1-.1h-8.6a.1.1,0,0,0-.1.1h-.1v5.5c0,.1,0,.1.1.2h0c0,.1,0,.1.1.1h8.7V21.2Zm-4,3.1a.6.6,0,0,1-.8,0l-2.9-2.8h6.6Zm-2.1-.3-2.1,2V22Zm.5.4.3.3a1.2,1.2,0,0,0,.9.4.9.9,0,0,0,.8-.4l.4-.3,2.1,2h-6.6Zm2.8-.4,2.2-2v4Z" style="fill:#efeff1"/><path d="M202.4,81.9a19.9,19.9,0,1,1,19.8-19.8A19.8,19.8,0,0,1,202.4,81.9Zm0-36.9a17.1,17.1,0,1,0,17.1,17.1A17.1,17.1,0,0,0,202.4,45Z" style="fill:#515b64"/><path d="M202.4,76.4a14.4,14.4,0,1,1,14.4-14.3A14.4,14.4,0,0,1,202.4,76.4Zm0-25.9A11.6,11.6,0,1,0,214,62.1,11.6,11.6,0,0,0,202.4,50.5Z" style="fill:#515b64"/><path d="M202.4,71a8.9,8.9,0,1,1,8.9-8.9A8.9,8.9,0,0,1,202.4,71Zm0-15.1a6.2,6.2,0,0,0-6.2,6.2,6.2,6.2,0,0,0,12.4,0A6.2,6.2,0,0,0,202.4,55.9Z" style="fill:#515b64"/><path d="M204.4,62.1a2,2,0,0,1-2,2,2.1,2.1,0,1,1,0-4.1A2,2,0,0,1,204.4,62.1Z" style="fill:#515b64"/><path d="M202.4,65.5a3.4,3.4,0,1,1,3.4-3.4A3.4,3.4,0,0,1,202.4,65.5Zm0-4.1a.7.7,0,1,0,.7.7A.7.7,0,0,0,202.4,61.4Z" style="fill:#515b64"/><path d="M138,99.1a2.7,2.7,0,0,1-.3,1.2l.6.6a1.8,1.8,0,0,1-.5.7l-.8-.4-1,.7.2.9-.9.3-.4-.8h-1.2l-.4.8-.8-.3v-.9l-1-.7-.8.4a1.8,1.8,0,0,1-.5-.7l.6-.6a5.3,5.3,0,0,1-.3-1.2h-.9c0-.2-.1-.3-.1-.5s.1-.2.1-.4h.9a5.3,5.3,0,0,1,.3-1.2l-.6-.6a1.8,1.8,0,0,1,.5-.7l.8.4,1-.7v-.9c.2-.2.5-.2.8-.3l.4.8h1.2l.4-.8.9.3-.2.9,1,.7.8-.4a1.8,1.8,0,0,1,.5.7l-.6.6A2.7,2.7,0,0,1,138,98h1V99Zm-3.7-2.2a1.6,1.6,0,0,0-1.6,1.6,1.6,1.6,0,1,0,3.2,0A1.6,1.6,0,0,0,134.3,96.9Z" style="fill:#dee0e2"/><path d="M21.9,93.3h-.2a1.2,1.2,0,0,0-1.7,0,.3.3,0,0,1-.4-.4,2.1,2.1,0,0,1,1.3-.5h0a1.8,1.8,0,0,1,1.2.5.3.3,0,0,1,0,.4Z" style="fill:#dee0e2"/><path d="M23,96.3a3.1,3.1,0,0,0,0-4.4,2.9,2.9,0,0,0-4.3.1,3,3,0,0,0-.5,3.7l-2.5,2.4a.8.8,0,0,0,1.2,1.2l2.4-2.5A3,3,0,0,0,23,96.3Zm-3.8-.6a2.4,2.4,0,0,1,0-3.2,2.4,2.4,0,0,1,3.3,0,2.2,2.2,0,0,1,0,3.2A2.4,2.4,0,0,1,19.2,95.7Z" style="fill:#dee0e2"/><path d="M233.3,91s-3.5-1.4-5.3-1.2-1.3-1.1-.2-1.2a5.6,5.6,0,0,1,2.2.1l-4-3.4c-.6-.6.1-1.5.8-.9l3.2,2.8.2-.3-1.2-1c-.7-.6,0-1.4.7-.8l1.6,1.3.2-.2-1-.8c-.6-.6,0-1.4.7-.8l1.3,1.1.2-.2-.6-.6c-.7-.5-.1-1.3.6-.7l.8.7a9,9,0,0,1,2.4,3Z" style="fill:#efeff1"/><path d="M21.9,6.6a3.8,3.8,0,0,0,1.7.5c.8,0,1.3-.4,1.3-1s-.4-.8-1.3-1.2-1.9-1-1.9-2,1-2,2.5-2a4,4,0,0,1,1.7.3l-.3,1.1a2.6,2.6,0,0,0-1.4-.4c-.8,0-1.2.5-1.2.9s.4.8,1.3,1.1S26.2,5,26.2,6s-.9,2.1-2.7,2.1a4.9,4.9,0,0,1-1.9-.4Z" style="fill:#4a7fc1"/><path d="M34.1,4.4c0,2.4-1.5,3.7-3.4,3.7s-3.2-1.5-3.2-3.6a3.3,3.3,0,1,1,6.6-.1Zm-5.3.1c0,1.4.7,2.6,2,2.6s1.9-1.2,1.9-2.6S32,1.9,30.8,1.9,28.8,3.1,28.8,4.5Z" style="fill:#4a7fc1"/><path d="M40.7,7.8a5.9,5.9,0,0,1-1.8.3,3.3,3.3,0,0,1-3.6-3.5A3.5,3.5,0,0,1,39.1.9a3.4,3.4,0,0,1,1.7.3l-.3,1a4.2,4.2,0,0,0-1.4-.3,2.3,2.3,0,0,0-2.4,2.6A2.2,2.2,0,0,0,39.1,7l1.4-.2Z" style="fill:#4a7fc1"/><path d="M43.6,1V8H42.3V1Z" style="fill:#4a7fc1"/><path d="M47,6l-.6,2H45.1l2.2-7h1.6l2.3,7H49.8l-.6-2Zm2-1-.6-1.7L48.1,2h0a6.5,6.5,0,0,1-.4,1.3L47.2,5Z" style="fill:#4a7fc1"/><path d="M52.7,1H54V6.9h2.9V8H52.7Z" style="fill:#4a7fc1"/><path d="M103,61h-2.6v2h2.9v1.1H99.1v-7h4.1v1h-2.8v1.8H103Z" style="fill:#dee0e2"/><path d="M112.6,60.2v.9H110v-.9Z" style="fill:#dee0e2"/><path d="M120.1,61.2a28.1,28.1,0,0,1,0-2.9H120a25.8,25.8,0,0,1-.8,2.6l-1,3.1h-1l-1-3c-.2-.9-.5-1.9-.7-2.7h0c0,.9-.1,2-.1,2.9l-.2,2.9H114l.5-7h1.7l.9,2.8a21.7,21.7,0,0,1,.7,2.4h0a21.7,21.7,0,0,1,.7-2.4l.9-2.8h1.7l.4,7h-1.2Z" style="fill:#dee0e2"/><path d="M124.7,62.1l-.6,2h-1.3l2.2-7h1.6l2.3,7h-1.4l-.6-2Zm2-1-.6-1.7-.3-1.3h0a6.5,6.5,0,0,1-.4,1.3l-.5,1.7Z" style="fill:#dee0e2"/><path d="M131.7,57.1v7h-1.3v-7Z" style="fill:#dee0e2"/><path d="M133.7,57.1H135V63h2.8v1.1h-4.1Z" style="fill:#dee0e2"/><path d="M.3,122.7a2.9,2.9,0,0,0,1.7.5c.8,0,1.3-.4,1.3-1s-.4-.8-1.3-1.1S.1,120,.1,119s1-2,2.5-2a5.8,5.8,0,0,1,1.7.3L4,118.4a2.6,2.6,0,0,0-1.4-.4c-.8,0-1.2.5-1.2.9s.4.8,1.3,1.1,1.9,1.1,1.9,2.1-.9,2.1-2.7,2.1a4.9,4.9,0,0,1-1.9-.4Z" style="fill:#7c848b"/><path d="M10.2,121H7.5v2.1h3v1H6.2v-7h4.1v1.1H7.5V120h2.7Z" style="fill:#7c848b"/><path d="M13.5,122.1l-.6,2H11.6l2.2-7h1.7l2.3,7H16.4l-.7-2Zm2-.9-.5-1.8a6.5,6.5,0,0,1-.4-1.3h0l-.3,1.3-.6,1.8Z" style="fill:#7c848b"/><path d="M19.2,117.2h2a3.4,3.4,0,0,1,2.2.5A2,2,0,0,1,24,119a2.1,2.1,0,0,1-1.3,1.8h0a1.9,1.9,0,0,1,1,1.4c.2.8.4,1.7.5,1.9H22.9a10.4,10.4,0,0,1-.5-1.6c-.2-1-.5-1.2-1.2-1.3h-.7v2.9H19.2Zm1.3,3.1h.8a1.3,1.3,0,0,0,1.4-1.2c0-.7-.6-1.1-1.4-1.1h-.8Z" style="fill:#7c848b"/><path d="M30.7,123.9a3.9,3.9,0,0,1-1.8.3,3.3,3.3,0,0,1-3.6-3.5,3.5,3.5,0,0,1,3.8-3.7,5.2,5.2,0,0,1,1.7.3l-.3,1-1.4-.2a2.2,2.2,0,0,0-2.4,2.5,2.3,2.3,0,0,0,2.4,2.6,2.9,2.9,0,0,0,1.4-.3Z" style="fill:#7c848b"/><path d="M33.6,117.1v2.8h3v-2.8h1.3v7H36.6V121h-3v3.1H32.3v-7Z" style="fill:#7c848b"/><path d="M108.4,121h-2.6v2.1h2.9v1h-4.2v-7h4.1v1.1h-2.8V120h2.6Z" style="fill:#769ed0"/><path d="M110.4,124.1v-7h1.4l1.8,3a13.4,13.4,0,0,1,1.2,2.4h0c0-1-.1-1.9-.1-3v-2.4h1.2v7h-1.3l-1.8-3.1a11.2,11.2,0,0,1-1.3-2.4h0v5.5Z" style="fill:#769ed0"/><path d="M123.5,123.8a5.7,5.7,0,0,1-2.2.4,4.1,4.1,0,0,1-2.8-.9,3.8,3.8,0,0,1-1-2.6c0-2.2,1.6-3.7,4-3.7a3.7,3.7,0,0,1,1.8.4l-.3,1a3.2,3.2,0,0,0-1.6-.3,2.3,2.3,0,0,0-2.5,2.5,2.3,2.3,0,0,0,2.4,2.5h1v-1.7h-1.2v-1.1h2.4Z" style="fill:#769ed0"/><path d="M126.6,117.1v7h-1.2v-7Z" style="fill:#769ed0"/><path d="M128.6,124.1v-7h1.5l1.8,3a13.4,13.4,0,0,1,1.2,2.4h0a29.1,29.1,0,0,1-.1-3v-2.4h1.2v7h-1.3L131,121a17.9,17.9,0,0,1-1.2-2.4h-.1a28.1,28.1,0,0,1,.1,3v2.5Z" style="fill:#769ed0"/><path d="M140.1,121h-2.6v2.1h2.9v1h-4.2v-7h4.1v1.1h-2.8V120h2.6Z" style="fill:#769ed0"/><path d="M171.7,130.9c-1,2.1-2.9,2.7-4.6,1.9s-2.3-2.7-1.5-4.6,2.8-2.8,4.6-1.9S172.5,129,171.7,130.9Zm-4.8-2.1c-.6,1.3-.4,2.6.7,3.1s2.2-.2,2.8-1.6.5-2.6-.7-3.1S167.5,127.5,166.9,128.8Z" style="fill:#bbbfc3"/><path d="M174.6,128.4l1.9.5a3.2,3.2,0,0,1,1.8,1.2,2.5,2.5,0,0,1,.1,1.7,2.1,2.1,0,0,1-1.1,1.3,3,3,0,0,1-2.3,0l-.6-.3-.9,2.5-1.2-.4Zm.1,3.5.6.2a1.3,1.3,0,0,0,1.9-.7c.2-.7-.1-1.3-1-1.6h-.7Z" style="fill:#bbbfc3"/><path d="M181.7,131.7l-1.9-.5.2-1,5.2,1.3-.3,1-2-.5-1.4,5.8-1.3-.4Z" style="fill:#bbbfc3"/><path d="M187.9,132l-1.4,6.9-1.2-.3,1.3-6.9Z" style="fill:#bbbfc3"/><path d="M195.3,137.2c0-.9.1-2,.2-3h0c-.4.9-.7,1.8-1.1,2.6l-1.4,2.9h-1l-.6-3.1a27,27,0,0,1-.4-2.8h0a26.8,26.8,0,0,1-.5,3l-.4,2.8h-1.2l1.2-7,1.7.2.6,2.9c.2.9.3,1.7.4,2.5h0a22.9,22.9,0,0,1,1-2.3L195,133h1.7l-.4,7.1-1.2-.2Z" style="fill:#bbbfc3"/><path d="M200.2,133.2v7h-1.3l.2-7Z" style="fill:#bbbfc3"/><path d="M202.1,139.6l3.4-5.4h-3.3v-1l4.9-.2v.7l-3.3,5.3h0l3.6-.2v1.1l-5.3.2Z" style="fill:#bbbfc3"/><path d="M210.8,137.7l-.3,2.1h-1.3l1.3-7.2,1.6-.2,3.2,6.7h-1.4l-.9-1.9Zm1.9-1.2-.8-1.6a6.9,6.9,0,0,1-.5-1.3h0c-.1.4-.1.9-.2,1.4l-.3,1.7Z" style="fill:#bbbfc3"/><path d="M216.6,132.8l-2,.4-.2-1,5.2-1.1.2,1-2,.5,1.3,5.8-1.3.2Z" style="fill:#bbbfc3"/><path d="M222.2,130.4l1.9,6.7-1.3.4-1.8-6.8Z" style="fill:#bbbfc3"/><path d="M231.2,131a3.3,3.3,0,0,1-1.9,4.6,3.4,3.4,0,0,1-4.3-2.3,3.5,3.5,0,0,1,1.9-4.6C228.9,128,230.5,129.1,231.2,131Zm-4.9,1.8c.5,1.4,1.5,2.2,2.7,1.8s1.4-1.8.9-3.1-1.4-2.2-2.6-1.8S225.8,131.5,226.3,132.8Z" style="fill:#bbbfc3"/><path d="M234.5,133.4l-3-6.3,1.3-.7,3,2,2.1,1.6h0c-.5-.8-.9-1.6-1.4-2.6l-1-2.2,1-.5,3.1,6.3-1.2.6-3-2a12.8,12.8,0,0,1-2.2-1.7h0l1.3,2.6,1.1,2.3Z" style="fill:#bbbfc3"/></g></g></g></g></g></svg>