<svg xmlns="http://www.w3.org/2000/svg" viewBox="0 0 250.66 140.28"><defs><style>.cls-1{fill:#4d4d4d;opacity:0.75;}.cls-2{fill:#1a1a1a;}.cls-3{fill:#39b54a;}.cls-4{fill:#d64983;}.cls-5{fill:#e08c8c;}.cls-6{fill:#979ece;}.cls-7{fill:#14b2a3;}.cls-8{fill:#fbb03b;}.cls-9{fill:#29abe2;}.cls-10{fill:#e6e6e6;}.cls-11{fill:#f2f2f2;}.cls-12{fill:red;}</style></defs><title>Suchmaschinenoptimierung</title><g id="Ebene_2" data-name="Ebene 2"><g id="Section_-_Seo" data-name="Section - Seo"><path d="M42,13.31a52.47,52.47,0,0,1,10.54,1.27,29.93,29.93,0,0,1,10.54,4.23q4.46,3,4.46,7.54a10.19,10.19,0,0,1-2.42,6.84A7.9,7.9,0,0,1,58.82,36,12.57,12.57,0,0,1,55,35.37q-2.07-.67-4.27-1.5a31.4,31.4,0,0,0-4.39-1.31,22.65,22.65,0,0,0-4.81-.48A12.48,12.48,0,0,0,34,34.38a7.25,7.25,0,0,0-3.15,6.18q0,4.2,7.1,6.72T53.7,52.65a36.4,36.4,0,0,1,14.67,8.88q6,6,6,17.48a28.4,28.4,0,0,1-4.52,15.85,30,30,0,0,1-12.16,10.69A37.28,37.28,0,0,1,41,109.31,70.08,70.08,0,0,1,19.57,106Q9.29,102.76,9.29,94.67a9.46,9.46,0,0,1,2.39-6.59A8.13,8.13,0,0,1,18,85.44a15.81,15.81,0,0,1,4.2.64q2.29.64,5.86,1.88t6.24,1.91a23,23,0,0,0,5.6.67,16.54,16.54,0,0,0,7.19-1.43,10.48,10.48,0,0,0,4.55-4,10.87,10.87,0,0,0,1.56-5.79q0-5-3.47-6.49T33.8,67.36q-12.48-3.95-18.3-9.1T9.67,42.91A27.74,27.74,0,0,1,14.1,27.28,29.27,29.27,0,0,1,26,16.94,36.14,36.14,0,0,1,42,13.31Z"/><path class="cls-1" d="M43.56,14.85a52.43,52.43,0,0,1,10.54,1.27,30,30,0,0,1,10.54,4.23q4.46,3,4.46,7.54a10.18,10.18,0,0,1-2.42,6.84,7.9,7.9,0,0,1-6.3,2.83,12.57,12.57,0,0,1-3.85-.67q-2.07-.67-4.27-1.5a31.78,31.78,0,0,0-4.39-1.31A22.65,22.65,0,0,0,43,33.63a12.48,12.48,0,0,0-7.54,2.29,7.25,7.25,0,0,0-3.15,6.18q0,4.2,7.1,6.72t15.79,5.38a36.41,36.41,0,0,1,14.67,8.88q6,6,6,17.48A28.38,28.38,0,0,1,71.38,96.4a30,30,0,0,1-12.16,10.7,37.3,37.3,0,0,1-16.68,3.76,70.08,70.08,0,0,1-21.42-3.28q-10.28-3.28-10.28-11.36a9.46,9.46,0,0,1,2.39-6.59A8.13,8.13,0,0,1,19.55,87a15.92,15.92,0,0,1,4.2.64q2.29.64,5.86,1.88t6.24,1.91a23,23,0,0,0,5.6.67,16.54,16.54,0,0,0,7.19-1.43,10.48,10.48,0,0,0,4.55-4,10.86,10.86,0,0,0,1.56-5.79q0-5-3.47-6.49T35.34,68.9Q22.87,65,17,59.79T11.22,44.45a27.76,27.76,0,0,1,4.42-15.63A29.29,29.29,0,0,1,27.51,18.47,36.15,36.15,0,0,1,43.56,14.85Z"/><circle class="cls-2" cx="59.1" cy="27.58" r="6.42"/><circle class="cls-3" cx="58.07" cy="26.55" r="6.42"/><circle class="cls-2" cx="20.62" cy="96.36" r="6.42"/><circle class="cls-4" cx="19.59" cy="95.34" r="6.42"/><path d="M90.85,97.92V26.23A12.38,12.38,0,0,1,93.46,18Q96.07,14.9,101,14.9h32.34a8.74,8.74,0,0,1,6.84,2.65,9.17,9.17,0,0,1,2.39,6.36,9.22,9.22,0,0,1-1.08,4.44,8.65,8.65,0,0,1-3.15,3.29,9.34,9.34,0,0,1-5,1.28h-23v19h21.39q4.58,0,7.07,2.61a9,9,0,0,1,2.48,6.43,8.87,8.87,0,0,1-2.55,6.27,9.15,9.15,0,0,1-7,2.71H110.39V89.7h24.13q4.52,0,6.91,2.64a9.2,9.2,0,0,1,2.39,6.4,9.49,9.49,0,0,1-1.08,4.27,8.29,8.29,0,0,1-3.18,3.44,9.51,9.51,0,0,1-5,1.27H100.91A10.06,10.06,0,0,1,93.71,105,9.31,9.31,0,0,1,90.85,97.92Z"/><path class="cls-1" d="M92.39,99.46V27.77A12.37,12.37,0,0,1,95,19.56q2.61-3.12,7.58-3.12h32.34a8.73,8.73,0,0,1,6.84,2.65,9.17,9.17,0,0,1,2.39,6.36,9.22,9.22,0,0,1-1.08,4.44,8.65,8.65,0,0,1-3.15,3.29,9.34,9.34,0,0,1-5,1.28h-23v19h21.39q4.58,0,7.07,2.61a9,9,0,0,1,2.48,6.43,8.87,8.87,0,0,1-2.55,6.27,9.15,9.15,0,0,1-7,2.71H111.93v19.8h24.13q4.52,0,6.91,2.64a9.21,9.21,0,0,1,2.39,6.4,9.49,9.49,0,0,1-1.08,4.27,8.28,8.28,0,0,1-3.18,3.44,9.52,9.52,0,0,1-5,1.27H102.45a10.07,10.07,0,0,1-7.19-2.71A9.32,9.32,0,0,1,92.39,99.46Z"/><circle class="cls-2" cx="102.21" cy="61.66" r="6.42"/><circle class="cls-5" cx="101.18" cy="60.64" r="6.42"/><circle class="cls-2" cx="135.33" cy="99.57" r="6.42"/><circle class="cls-6" cx="134.31" cy="98.55" r="6.42"/><circle class="cls-2" cx="135" cy="24.99" r="6.42"/><circle class="cls-7" cx="133.98" cy="23.97" r="6.42"/><path d="M249.34,61.38a47.8,47.8,0,1,1-47.8-47.8A47.8,47.8,0,0,1,249.34,61.38Zm-47.8-29.26a29.26,29.26,0,1,0,29.26,29.26A29.26,29.26,0,0,0,201.54,32.11Z"/><path class="cls-1" d="M250.66,62.78A47.8,47.8,0,1,1,202.87,15,47.8,47.8,0,0,1,250.66,62.78Zm-47.8-29.26a29.26,29.26,0,1,0,29.26,29.26A29.26,29.26,0,0,0,202.87,33.52Z"/><circle class="cls-2" cx="231.71" cy="87.72" r="6.42"/><circle class="cls-8" cx="230.68" cy="86.79" r="6.42"/><circle class="cls-2" cx="173.02" cy="38.29" r="6.42"/><circle class="cls-9" cx="171.99" cy="37.37" r="6.42"/><path class="cls-9" d="M161.22,29q.82-1,1.69-2a52.07,52.07,0,0,1,77.9.21q.72.82,1.4,1.66L250,23q-.91-1.14-1.88-2.24t-2-2.15l-4.45,2.44q-2-2-4.25-3.8l1.92-4.69Q237,10.8,234.58,9.26l-3.73,3.44a56.52,56.52,0,0,0-5-2.67l.73-5q-2.68-1.17-5.45-2.08l-2.79,4.23a56.65,56.65,0,0,0-5.53-1.38l-.49-5q-2.88-.5-5.8-.72L204.77,4.8q-2.85-.15-5.7,0L197.39,0q-2.91.2-5.8.68l-.52,5a57,57,0,0,0-5.54,1.35l-2.77-4.25q-2.76.89-5.45,2l.71,5A56.73,56.73,0,0,0,173,12.54l-3.72-3.45q-2.46,1.53-4.81,3.31l1.89,4.7q-1.11.88-2.18,1.83t-2.09,1.94l-4.43-2.47q-1.08,1.1-2.09,2.24t-1.8,2.12Z"/><path class="cls-8" d="M161.22,94.95q.82,1,1.69,2a52.07,52.07,0,0,0,77.9-.21q.72-.82,1.4-1.66l7.8,5.86q-.91,1.14-1.88,2.24t-2,2.15l-4.45-2.44q-2,2-4.25,3.8l1.92,4.69q-2.33,1.79-4.78,3.32l-3.73-3.44a56.52,56.52,0,0,1-5,2.67l.73,5q-2.68,1.17-5.45,2.08l-2.79-4.23a56.65,56.65,0,0,1-5.53,1.38l-.49,5q-2.88.5-5.8.72l-1.71-4.78q-2.85.15-5.7,0L197.39,124q-2.91-.2-5.8-.68l-.52-5a57,57,0,0,1-5.54-1.35l-2.77,4.25q-2.76-.89-5.45-2l.71-5a56.73,56.73,0,0,1-5.06-2.64l-3.72,3.45q-2.46-1.53-4.81-3.31l1.89-4.7q-1.11-.88-2.18-1.83t-2.09-1.94l-4.43,2.47q-1.08-1.1-2.09-2.24t-1.8-2.12Z"/><path class="cls-10" d="M170.62,45.67a4.42,4.42,0,0,1-.42,1.79,3.31,3.31,0,0,1-4.64,1.92,3.53,3.53,0,0,1-1.95-4.89,4,4,0,0,1,1-1.45l.83.66a3.42,3.42,0,0,0-.78,1.16A2.34,2.34,0,0,0,166,48.12a2.3,2.3,0,0,0,3.28-1.26,3.6,3.6,0,0,0,.31-1.39Z"/><path class="cls-10" d="M174.17,34.93c1.83,1.48,2,3.44.75,4.94s-3.21,1.55-4.8.25a3.36,3.36,0,0,1-.75-4.9A3.24,3.24,0,0,1,174.17,34.93ZM171,39.05c1.11.9,2.44,1.06,3.21.1s.33-2.22-.81-3.15-2.41-1.11-3.22-.12S169.83,38.14,171,39.05Z"/><path class="cls-10" d="M180.21,34.3l-3.94-5.8,1.2-.82,3.19,1.47A19.4,19.4,0,0,1,183,30.43h0c-.59-.73-1.13-1.46-1.73-2.35l-1.37-2,1-.67,3.94,5.8-1.09.74-3.24-1.52a24.29,24.29,0,0,1-2.4-1.3l0,0c.55.72,1.08,1.48,1.73,2.44l1.41,2.07Z"/><path class="cls-10" d="M185.44,24.31l-1.83.79-.42-1L188,22l.42,1-1.85.8L189,29.26l-1.18.51Z"/><path class="cls-10" d="M195.17,24.15l-2.57.63.49,2,2.87-.7.25,1-4.12,1-1.66-6.82,4-1,.25,1-2.72.66.43,1.76,2.57-.63Z"/><path class="cls-10" d="M197.78,26.82l-.35-7,1.45-.07,2,2.91a19.22,19.22,0,0,1,1.31,2.29h0c-.13-.93-.21-1.83-.26-2.9l-.12-2.44,1.18-.06.35,7-1.32.07-2-3a24.49,24.49,0,0,1-1.38-2.36h0c.1.9.15,1.83.21,3l.13,2.51Z"/><path class="cls-10" d="M207.42,21l-2-.27.15-1.06,5.25.72-.15,1.06-2-.28-.81,5.89-1.27-.17Z"/><path class="cls-10" d="M58.07,21.35a5.2,5.2,0,1,0,5.2,5.2A5.21,5.21,0,0,0,58.07,21.35Zm-.33,2.91A5.18,5.18,0,0,1,56.46,24a6.48,6.48,0,0,1,1.29-1.64Zm0,.65v1.32H55.82a5.2,5.2,0,0,1,.36-1.62A5.86,5.86,0,0,0,57.75,24.9Zm0,2v1.32a5.89,5.89,0,0,0-1.57.3,5.19,5.19,0,0,1-.36-1.62Zm0,2v1.88a6.5,6.5,0,0,1-1.29-1.64A5.22,5.22,0,0,1,57.75,28.84Zm.65,0a5.21,5.21,0,0,1,1.29.24,6.5,6.5,0,0,1-1.29,1.64Zm0-.64V26.87h1.93A5.19,5.19,0,0,1,60,28.49,5.89,5.89,0,0,0,58.4,28.19Zm0-2V24.9a5.87,5.87,0,0,0,1.57-.3,5.19,5.19,0,0,1,.36,1.62Zm0-2V22.38A6.5,6.5,0,0,1,59.69,24,5.19,5.19,0,0,1,58.4,24.26ZM59,22.1a4.54,4.54,0,0,1,2.13,1.12,4.72,4.72,0,0,1-.87.55A7,7,0,0,0,59,22.1Zm-3.2,1.67a4.72,4.72,0,0,1-.87-.55A4.54,4.54,0,0,1,57.1,22.1,7,7,0,0,0,55.85,23.77Zm-.27.59a5.84,5.84,0,0,0-.41,1.86H53.54a4.53,4.53,0,0,1,1-2.52A5.3,5.3,0,0,0,55.58,24.36Zm-.41,2.51a5.84,5.84,0,0,0,.41,1.86,5.3,5.3,0,0,0-1,.66,4.53,4.53,0,0,1-1-2.52Zm.68,2.45A7,7,0,0,0,57.1,31,4.55,4.55,0,0,1,55,29.87,4.72,4.72,0,0,1,55.85,29.33Zm4.45,0a4.75,4.75,0,0,1,.87.55A4.54,4.54,0,0,1,59,31,7,7,0,0,0,60.3,29.33Zm.27-.59A5.85,5.85,0,0,0,61,26.87h1.63a4.53,4.53,0,0,1-1,2.52A5.3,5.3,0,0,0,60.57,28.74ZM61,26.22a5.84,5.84,0,0,0-.41-1.86,5.33,5.33,0,0,0,1-.66,4.53,4.53,0,0,1,1,2.52Z"/><path class="cls-11" d="M138.45,21.2a.29.29,0,0,0,0,0,.4.4,0,0,0,0-.07l0-.06,0,0h0l-.07,0,0,0h-8.43l-.08,0h0l0,0-.06,0h0l0,0,0,.06a.3.3,0,0,0,0,.07.3.3,0,0,0,0,0v5.53a.32.32,0,0,0,0,.16l0,0a.32.32,0,0,0,.12.1h0l.13,0h8.29l.13,0h0a.32.32,0,0,0,.12-.1l0,0a.32.32,0,0,0,0-.16Zm-4.09,3.07a.58.58,0,0,1-.77,0l-2.94-2.74h6.64Zm-2-.3-2.16,2V22Zm.48.45.36.33a1.23,1.23,0,0,0,1.66,0l.36-.33,2.14,2h-6.64Zm2.85-.45,2.16-2v4Z"/><path class="cls-12" d="M202.39,81.91a19.83,19.83,0,1,1,19.83-19.83A19.85,19.85,0,0,1,202.39,81.91Zm0-36.94a17.1,17.1,0,1,0,17.1,17.1A17.12,17.12,0,0,0,202.39,45Z"/><path class="cls-12" d="M202.39,76.45a14.37,14.37,0,1,1,14.37-14.37A14.39,14.39,0,0,1,202.39,76.45Zm0-26A11.62,11.62,0,1,0,214,62.08,11.64,11.64,0,0,0,202.39,50.45Z"/><path class="cls-12" d="M202.39,71a8.89,8.89,0,1,1,8.89-8.89A8.9,8.9,0,0,1,202.39,71Zm0-15a6.16,6.16,0,1,0,6.16,6.16A6.17,6.17,0,0,0,202.39,55.92Z"/><circle class="cls-12" cx="202.39" cy="62.08" r="2.05"/><path class="cls-12" d="M202.39,65.5a3.42,3.42,0,1,1,3.42-3.42A3.44,3.44,0,0,1,202.39,65.5Zm0-4.11a.68.68,0,1,0,.68.68A.68.68,0,0,0,202.39,61.4Z"/><path class="cls-10" d="M138,99.12a3.74,3.74,0,0,1-.37,1.15l.65.64a4.72,4.72,0,0,1-.52.71l-.81-.42a3.83,3.83,0,0,1-1,.71l.15.91a4.79,4.79,0,0,1-.84.27l-.41-.82a3.49,3.49,0,0,1-1.21,0l-.41.82a4.8,4.8,0,0,1-.84-.27l.15-.91a3.82,3.82,0,0,1-1-.71l-.81.42a4.76,4.76,0,0,1-.52-.71l.65-.64a3.71,3.71,0,0,1-.37-1.15l-.91-.14c0-.15,0-.29,0-.44s0-.3,0-.44l.91-.14a3.72,3.72,0,0,1,.37-1.15l-.65-.64a4.73,4.73,0,0,1,.52-.71l.81.42a3.89,3.89,0,0,1,1-.71l-.15-.9a4.36,4.36,0,0,1,.84-.27l.41.82a3.67,3.67,0,0,1,1.21,0l.41-.82a4.55,4.55,0,0,1,.84.27l-.15.91a3.76,3.76,0,0,1,1,.71l.81-.42a4.72,4.72,0,0,1,.52.71l-.65.64A3.77,3.77,0,0,1,138,98l.91.14c0,.15,0,.29,0,.44s0,.3,0,.44Zm-3.73-2.2a1.63,1.63,0,1,0,1.63,1.63A1.63,1.63,0,0,0,134.31,96.92Z"/><path class="cls-10" d="M21.91,93.33a.25.25,0,0,1-.18-.07,1.27,1.27,0,0,0-1.76,0,.25.25,0,0,1-.35-.35,1.73,1.73,0,0,1,1.23-.51h0a1.73,1.73,0,0,1,1.23.51.25.25,0,0,1-.18.42Z"/><path class="cls-10" d="M23,96.32a3.09,3.09,0,1,0-4.86-.65l-2.45,2.45a.81.81,0,0,0,1.14,1.14l2.45-2.45A3.09,3.09,0,0,0,23,96.32Zm-3.8-.57a2.28,2.28,0,1,1,3.23,0A2.29,2.29,0,0,1,19.24,95.75Z"/><path class="cls-11" d="M233.28,91s-3.5-1.4-5.3-1.22c-1,.1-1.27-1-.14-1.19a6.62,6.62,0,0,1,2.17.12l-4-3.42c-.66-.59.07-1.44.74-.87L230,87.17l.2-.23-1.17-1c-.73-.63,0-1.45.72-.84l1.52,1.31.2-.23-.91-.78c-.68-.57,0-1.35.67-.78l1.26,1.08.2-.23-.6-.51c-.66-.56,0-1.35.65-.76l.82.7a9.36,9.36,0,0,1,2.35,3Z"/><path class="cls-3" d="M21.88,6.6a3.54,3.54,0,0,0,1.7.45c.82,0,1.28-.39,1.28-1s-.35-.84-1.25-1.17c-1.16-.42-1.89-1-1.89-2s1-2,2.48-2a3.7,3.7,0,0,1,1.69.35l-.31,1a3,3,0,0,0-1.39-.33c-.81,0-1.17.44-1.17.84s.41.79,1.34,1.16C25.56,4.38,26.16,5,26.16,6s-.85,2.1-2.66,2.1a4.17,4.17,0,0,1-1.89-.44Z"/><path class="cls-3" d="M34.06,4.42c0,2.35-1.43,3.7-3.36,3.7S27.47,6.6,27.47,4.54A3.36,3.36,0,0,1,30.8.87,3.24,3.24,0,0,1,34.06,4.42Zm-5.24.1c0,1.43.72,2.56,1.95,2.56S32.7,5.94,32.7,4.47,32,1.9,30.77,1.9,28.82,3.08,28.82,4.52Z"/><path class="cls-3" d="M40.7,7.79a4.43,4.43,0,0,1-1.81.31,3.31,3.31,0,0,1-3.58-3.53A3.53,3.53,0,0,1,39.06.87a4,4,0,0,1,1.71.31l-.28,1a3.41,3.41,0,0,0-1.37-.27,2.34,2.34,0,0,0-2.46,2.58A2.3,2.3,0,0,0,39.1,7a3.59,3.59,0,0,0,1.39-.26Z"/><path class="cls-3" d="M43.6,1V8H42.31V1Z"/><path class="cls-3" d="M47,6l-.6,2H45.06l2.25-7h1.63l2.28,7H49.85l-.64-2Zm2-1-.55-1.73c-.14-.43-.25-.91-.35-1.31h0c-.1.41-.21.9-.33,1.31L47.2,5Z"/><path class="cls-3" d="M52.72,1H54V6.93h2.88V8H52.72Z"/><path class="cls-10" d="M103,61h-2.64V63h3v1.05H99.08v-7h4.08V58.1h-2.8v1.81H103Z"/><path class="cls-10" d="M112.64,60.2v.89H110V60.2Z"/><path class="cls-10" d="M120.13,61.21c0-.91-.09-2-.08-2.95h0c-.23.85-.52,1.8-.83,2.69l-1,3h-1l-.94-3c-.27-.9-.52-1.85-.71-2.73h0c0,.92-.07,2-.12,3l-.16,2.82H114l.47-7h1.69l.92,2.82c.25.82.47,1.65.65,2.44h0c.19-.76.43-1.62.7-2.45l1-2.81h1.67l.41,7h-1.25Z"/><path class="cls-10" d="M124.68,62.08l-.6,2h-1.32l2.25-7h1.63l2.28,7h-1.37l-.64-2Zm2-1-.55-1.73c-.14-.43-.25-.91-.35-1.31h0c-.1.41-.21.9-.33,1.31l-.54,1.73Z"/><path class="cls-10" d="M131.69,57.05v7h-1.28v-7Z"/><path class="cls-10" d="M133.68,57.05H135V63h2.88v1.07h-4.16Z"/><path class="cls-4" d="M.28,122.73a3.54,3.54,0,0,0,1.7.45c.82,0,1.28-.38,1.28-1s-.35-.84-1.25-1.17c-1.16-.42-1.89-1-1.89-2s1-2,2.48-2a3.71,3.71,0,0,1,1.69.35l-.31,1A3,3,0,0,0,2.57,118c-.81,0-1.17.44-1.17.84s.41.79,1.34,1.16c1.22.46,1.81,1.07,1.81,2.08s-.85,2.1-2.66,2.1A4.16,4.16,0,0,1,0,123.79Z"/><path class="cls-4" d="M10.16,121H7.51v2.06h3v1.05H6.23v-7h4.08v1.05H7.51V120h2.64Z"/><path class="cls-4" d="M13.52,122.13l-.6,2H11.59l2.25-7h1.63l2.28,7H16.38l-.64-2Zm2-1L15,119.44c-.14-.43-.25-.91-.35-1.31h0c-.1.41-.21.9-.33,1.31l-.54,1.73Z"/><path class="cls-4" d="M19.25,117.2a12.09,12.09,0,0,1,1.94-.15,3.25,3.25,0,0,1,2.16.56A1.77,1.77,0,0,1,24,119a1.87,1.87,0,0,1-1.27,1.76v0a1.78,1.78,0,0,1,1,1.35,14,14,0,0,0,.55,2H22.89a9.93,9.93,0,0,1-.47-1.65c-.2-.92-.53-1.21-1.26-1.23h-.65v2.88H19.25Zm1.27,3.1h.76c.86,0,1.41-.46,1.41-1.16S22.14,118,21.31,118a3.68,3.68,0,0,0-.79.06Z"/><path class="cls-4" d="M30.72,123.91a4.43,4.43,0,0,1-1.81.31,3.31,3.31,0,0,1-3.58-3.53A3.53,3.53,0,0,1,29.07,117a4,4,0,0,1,1.71.31l-.28,1a3.4,3.4,0,0,0-1.37-.27,2.34,2.34,0,0,0-2.46,2.58,2.3,2.3,0,0,0,2.45,2.53,3.58,3.58,0,0,0,1.39-.26Z"/><path class="cls-4" d="M33.61,117.1v2.81h3V117.1h1.28v7H36.58V121h-3v3.09H32.33v-7Z"/><path class="cls-6" d="M108.4,121h-2.64v2.06h3v1.05h-4.24v-7h4.08v1.05h-2.8V120h2.64Z"/><path class="cls-6" d="M110.36,124.12v-7h1.46l1.81,3a19.32,19.32,0,0,1,1.2,2.35h0c-.08-.94-.11-1.84-.11-2.91V117.1h1.19v7H114.6L112.76,121a24.5,24.5,0,0,1-1.26-2.43h0c.05.91.06,1.83.06,3v2.51Z"/><path class="cls-6" d="M123.53,123.79a7,7,0,0,1-2.26.4,3.78,3.78,0,0,1-2.75-.94,3.47,3.47,0,0,1-1-2.58,3.56,3.56,0,0,1,3.9-3.64,4.65,4.65,0,0,1,1.86.33l-.28,1a3.78,3.78,0,0,0-1.59-.3,2.35,2.35,0,0,0-2.55,2.52,2.32,2.32,0,0,0,2.44,2.54,2.47,2.47,0,0,0,1-.14v-1.75h-1.24v-1h2.48Z"/><path class="cls-6" d="M126.64,117.1v7h-1.28v-7Z"/><path class="cls-6" d="M128.63,124.12v-7h1.46l1.81,3a19.32,19.32,0,0,1,1.2,2.35h0c-.08-.94-.11-1.84-.11-2.91V117.1h1.19v7h-1.32L131,121a24.63,24.63,0,0,1-1.26-2.43h0c.05.91.06,1.83.06,3v2.51Z"/><path class="cls-6" d="M140.11,121h-2.64v2.06h3v1.05h-4.24v-7h4.08v1.05h-2.8V120h2.64Z"/><path class="cls-8" d="M171.68,130.86c-1,2.14-2.84,2.76-4.6,2s-2.3-2.72-1.44-4.59a3.36,3.36,0,0,1,4.56-1.95A3.24,3.24,0,0,1,171.68,130.86Zm-4.8-2.09c-.6,1.3-.42,2.63.7,3.14s2.24-.23,2.85-1.56.48-2.61-.69-3.14S167.48,127.45,166.88,128.77Z"/><path class="cls-8" d="M174.61,128.39a11.06,11.06,0,0,1,1.89.51,3.17,3.17,0,0,1,1.77,1.22,2,2,0,0,1,.14,1.69,2.12,2.12,0,0,1-1.09,1.3,3.1,3.1,0,0,1-2.34,0,3.64,3.64,0,0,1-.58-.25l-.87,2.5-1.2-.42Zm.12,3.5a2.6,2.6,0,0,0,.57.26c.9.32,1.61.07,1.88-.71s-.12-1.31-1-1.6a3.54,3.54,0,0,0-.72-.18Z"/><path class="cls-8" d="M181.71,131.69l-1.93-.5.27-1,5.13,1.33-.27,1-2-.51-1.49,5.75-1.24-.32Z"/><path class="cls-8" d="M187.85,132l-1.33,6.89-1.26-.24,1.33-6.89Z"/><path class="cls-8" d="M195.26,137.17c.06-.9.12-2,.24-2.94h0c-.32.82-.71,1.73-1.12,2.58L193,139.72l-1-.11-.61-3.08c-.17-.92-.32-1.9-.41-2.78h0c-.13.91-.29,2-.45,3l-.46,2.78-1.19-.13,1.22-6.92,1.67.18.61,2.9c.16.84.29,1.69.38,2.49h0c.27-.73.6-1.57,1-2.35L195,133l1.65.18-.35,7-1.24-.13Z"/><path class="cls-8" d="M200.23,133.22l-.18,7-1.28,0,.18-7Z"/><path class="cls-8" d="M202.08,139.58l3.38-5.35v0l-3.27.13,0-1.06,4.93-.19,0,.75-3.33,5.3v0l3.59-.14,0,1.06-5.3.21Z"/><path class="cls-8" d="M210.81,137.73l-.34,2-1.31.17,1.32-7.25,1.62-.21,3.17,6.66-1.36.18-.89-1.89Zm1.87-1.22-.77-1.64c-.19-.41-.37-.86-.52-1.25h0c-.05.42-.09.91-.16,1.34l-.31,1.78Z"/><path class="cls-8" d="M216.59,132.81l-2,.41-.22-1,5.18-1.09.22,1-2,.41,1.22,5.81-1.25.26Z"/><path class="cls-8" d="M222.2,130.35l1.87,6.76-1.23.34L221,130.69Z"/><path class="cls-8" d="M231.2,131c.79,2.21-.1,4-1.92,4.61s-3.54-.33-4.24-2.27a3.36,3.36,0,0,1,1.9-4.58A3.24,3.24,0,0,1,231.2,131Zm-4.89,1.86c.48,1.34,1.54,2.17,2.69,1.75s1.44-1.73.94-3.11-1.48-2.2-2.69-1.77S225.82,131.46,226.3,132.82Z"/><path class="cls-8" d="M234.54,133.4l-3-6.33,1.31-.63,2.93,1.93a19.21,19.21,0,0,1,2.1,1.6h0c-.48-.81-.9-1.61-1.36-2.58l-1.06-2.21,1.07-.51,3,6.33-1.19.57-3-2a24.54,24.54,0,0,1-2.18-1.64l0,0c.44.79.85,1.63,1.35,2.67l1.08,2.26Z"/></g></g></svg>