<svg xmlns="http://www.w3.org/2000/svg" viewBox="0 0 169.3 120"><title>VisuellAnsprechend</title><g id="Ebene_2" data-name="Ebene 2"><g id="Startseite"><g id="Section_-_Visuell_ansprechend_und_benutzerfreundlich" data-name="Section - Visuell ansprechend und benutzerfreundlich"><g id="VisuellAnsprechend"><path d="M60.9,120h46.7c0-2-1.3-3.7-2.9-3.7H63.8C62.2,116.3,60.9,118,60.9,120Z" style="fill:#5a616c"/><path d="M71.6,103.4c-.1,6.5-2,11.1-6.4,12.9h38.1c-4.4-1.9-6.3-6.4-6.4-12.9Z" style="fill:#b9bcc1"/><path d="M71.6,103.4a21.7,21.7,0,0,1-.1,2.6H97c0-.8-.1-1.7-.1-2.6l-.8-.7H71.8Z" style="fill:#5a616c"/><path d="M29.3,103.4H139.2a3.5,3.5,0,0,0,3.5-3.5v-7H25.8v7A3.5,3.5,0,0,0,29.3,103.4Z" style="fill:#b9bcc1"/><path d="M29.3,23.6H139.2a3.5,3.5,0,0,1,3.5,3.4V93.3H25.8V27A3.5,3.5,0,0,1,29.3,23.6Z" style="fill:#162030"/><rect x="30.7" y="28.4" width="107.2" height="60.01" style="fill:#353d4b"/><path d="M31.9,27.4h.8V30H36V27.4h.8V30h3.4V27.4H41V30h3.3V27.4h.8V30h3.4V27.4h.8V30h3.4V27.4h.8V30h3.3V27.4h.8V30H61V27.4h.8V30h3.4V27.4h.7V30h3.4V27.4h.8V30h3.4V27.4h.8V30h3.4V27.4h.7V30h3.4V27.4h.8V30h3.2V27.4h.8V30H90V27.4h.8V30h3.3V27.4h.8V30h3.4V27.4h.8V30h3.4V27.4h.8V30h3.3V27.4h.8V30h3.4V27.4h.8V30H115V27.4h.8V30h3.3V27.4h.8V30h3.4V27.4h.8V30h3.4V27.4h.8V30h3.3V27.4h.8V30h3.4V27.4h.8V30h1.2v.7h-1.2v3.4h1.2v.8h-1.2v3.4h1.2v.8h-1.2v3.4h1.2v.7h-1.2v3.4h1.2v.8h-1.2v3.4h1.2v.8h-1.2v3.3h1.2v.8h-1.2v3.4h1.2v.8h-1.2v3.4h1.2v.8h-1.2v3.3h1.2v.8h-1.2v3.4h1.2v.8h-1.2v3.4h1.2v.8h-1.2v3.3h1.2v.8h-1.2v3.4h1.2v.8h-1.2v2.5h-.8V84.8h-3.4v2.6h-.8V84.8h-3.3v2.6h-.8V84.8h-3.4v2.6h-.8V84.8h-3.4v2.6h-.8V84.8h-3.3v2.6H115V84.8h-3.4v2.6h-.8V84.8h-3.4v2.6h-.8V84.8h-3.3v2.6h-.8V84.8H99.1v2.6h-.8V84.8H94.9v2.6h-.8V84.8H90.8v2.6H90V84.8H86.6v2.6h-.8V84.8H82.6v2.6h-.8V84.8H78.4v2.6h-.7V84.8H74.3v2.6h-.8V84.8H70.1v2.6h-.8V84.8H66v2.6h-.8V84.8H61.8v2.6H61V84.8H57.6v2.6h-.8V84.8H53.5v2.6h-.8V84.8H49.3v2.6h-.8V84.8H45.1v2.6h-.7V84.8H41v2.6h-.8V84.8H36.8v2.6H36V84.8H32.7v2.6h-.8V84.8H30.6V84h1.3V80.7H30.6v-.8h1.3V76.5H30.6v-.8h1.3V72.4H30.6v-.8h1.3V68.2H30.6v-.8h1.3V64H30.6v-.7h1.3V59.9H30.6v-.8h1.3V55.7H30.6v-.8h1.3V51.6H30.6v-.8h1.3V47.4H30.6v-.8h1.3V43.2H30.6v-.8h1.3V39.1H30.6v-.8h1.3V34.9H30.6v-.8h1.3V30.7H30.6V30h1.3Zm53.5,3.3H82.6v3.4h3.2V30.7Zm0,4.2H82.6v3.4h3.2V34.9Zm0,4.2H82.6v3.4h3.2V39.1Zm0,4.1H82.6v3.4h3.2V43.2Zm0,4.2H82.6v3.4h3.2V47.4Zm0,4.2H82.6v3.3h3.2V51.6Zm0,4.1H82.6v3.4h3.2V55.7Zm0,4.2H82.6v3.4h3.2V59.9Zm0,4.2H82.6v3.3h3.2V64Zm0,4.1H82.6v3.4h3.2V68.2Zm0,4.2H82.6v3.4h3.2V72.4Zm0,4.2H82.6v3.3h3.2V76.5Zm0,4.1H82.6v3.4h3.2V80.7Zm5.4-49.9v3.3h3.3V30.7Zm0,4.1v3.4h3.3V34.9Zm0,4.2v3.4h3.3V39.1Zm0,4.2v3.3h3.3V43.2Zm0,4.1v3.4h3.3V47.4Zm0,4.2V55h3.3V51.6Zm0,4.2v3.3h3.3V55.7Zm0,4.1v3.4h3.3V59.9Zm0,4.2v3.4h3.3V64Zm0,4.2v3.3h3.3V68.2Zm0,4.1v3.4h3.3V72.4Zm0,4.2V80h3.3V76.5Zm0,4.2v3.3h3.3V80.7ZM90,84.1V80.7H86.6v3.4ZM90,80V76.5H86.6v3.4Zm0-4.2V72.4H86.6v3.3Zm0-4.2V68.2H86.6v3.4Zm0-4.1V64H86.6v3.4Zm0-4.2V59.9H86.6v3.4Zm0-4.2V55.7H86.6v3.4ZM90,55V51.6H86.6v3.3Zm0-4.2V47.4H86.6v3.4Zm0-4.2V43.2H86.6v3.4Zm0-4.1V39.1H86.6v3.3Zm0-4.2V34.9H86.6v3.4Zm0-4.2V30.7H86.6v3.4Zm4.9-3.3v3.3h3.4V30.7Zm0,4.1v3.4h3.4V34.9Zm0,4.2v3.4h3.4V39.1Zm0,4.2v3.3h3.4V43.2Zm0,4.1v3.4h3.4V47.4Zm0,4.2V55h3.4V51.6Zm0,4.2v3.3h3.4V55.7Zm0,4.1v3.4h3.4V59.9Zm0,4.2v3.4h3.4V64Zm0,4.2v3.3h3.4V68.2Zm0,4.1v3.4h3.4V72.4Zm0,4.2V80h3.4V76.5Zm0,4.2v3.3h3.4V80.7Zm4.2-50v3.3h3.4V30.7Zm0,4.2v3.3h3.4V34.9Zm0,4.1v3.4h3.4V39.1Zm0,4.2v3.4h3.4V43.2Zm0,4.2v3.3h3.4V47.4Zm0,4.1V55h3.4V51.6Zm0,4.2v3.3h3.4V55.7Zm0,4.2v3.3h3.4V59.9Zm0,4.1v3.4h3.4V64Zm0,4.2v3.4h3.4V68.2Zm0,4.2v3.3h3.4V72.4Zm0,4.1V80h3.4V76.5Zm0,4.2v3.4h3.4V80.7Zm4.2-50v3.3h3.3V30.7Zm0,4.2v3.4h3.3V34.9Zm0,4.2v3.3h3.3V39.1Zm0,4.1v3.4h3.3V43.2Zm0,4.2v3.4h3.3V47.4Zm0,4.2V55h3.3V51.6Zm0,4.1v3.3h3.3V55.7Zm0,4.2v3.4h3.3V59.9Zm0,4.2v3.3h3.3V64Zm0,4.1v3.4h3.3V68.2Zm0,4.2v3.4h3.3V72.4Zm0,4.2V80h3.3V76.5Zm0,4.1v3.4h3.3V80.7Zm4.1-49.9v3.2h3.4V30.7Zm0,4.1v3.4h3.4V34.9Zm0,4.2v3.4h3.4V39.1Zm0,4.2v3.3h3.4V43.2Zm0,4.1v3.4h3.4V47.4Zm0,4.2v3.4h3.4V51.6Zm0,4.2v3.2h3.4V55.7Zm0,4.1v3.4h3.4V59.9Zm0,4.2v3.4h3.4V64Zm0,4.1v3.4h3.4V68.2Zm0,4.2v3.4h3.4V72.4Zm0,4.2v3.4h3.4V76.5Zm0,4.1v3.4h3.4V80.7Zm4.2-49.9v3.2H115V30.7Zm0,4.2v3.3H115V34.9Zm0,4.1v3.4H115V39.1Zm0,4.2v3.4H115V43.2Zm0,4.1v3.4H115V47.4Zm0,4.2v3.4H115V51.6Zm0,4.2v3.2H115V55.7Zm0,4.1v3.4H115V59.9Zm0,4.2v3.4H115V64Zm0,4.2v3.3H115V68.2Zm0,4.1v3.4H115V72.4Zm0,4.2v3.4H115V76.5Zm0,4.2v3.3H115V80.7Zm4.2-50v3.2h3.3V30.7Zm0,4.2v3.4h3.3V34.9Zm0,4.1v3.4h3.3V39.1Zm0,4.2v3.4h3.3V43.2Zm0,4.2v3.3h3.3V47.4Zm0,4.1v3.4h3.3V51.6Zm0,4.2v3.2h3.3V55.7Zm0,4.2v3.3h3.3V59.9Zm0,4.1v3.4h3.3V64Zm0,4.2v3.4h3.3V68.2Zm0,4.2v3.3h3.3V72.4Zm0,4.1v3.4h3.3V76.5Zm0,4.2v3.4h3.3V80.7Zm4.1-50v3.2h3.4V30.7Zm0,4.2v3.4h3.4V34.9Zm0,4.2v3.3h3.4V39.1Zm0,4.1v3.4h3.4V43.2Zm0,4.2V51h3.4V47.4Zm0,4.2v3.3h3.4V51.6Zm0,4.1v3.2h3.4V55.7Zm0,4.2v3.4h3.4V59.9Zm0,4.2v3.3h3.4V64Zm0,4.1v3.4h3.4V68.2Zm0,4.2V76h3.4V72.4Zm0,4.2v3.3h3.4V76.5Zm0,4.1v3.4h3.4V80.7ZM124.1,31v3.1h3.4V30.7Zm0,4.1v3.4h3.4V34.9Zm0,4.2v3.4h3.4V39.1Zm0,4.2v3.3h3.4V43.2Zm0,4.1V51h3.4V47.4Zm0,4.2v3.4h3.4V51.6Zm0,4.2v3.1h3.4V55.7Zm0,4.1v3.4h3.4V59.9Zm0,4.2v3.4h3.4V64Zm0,4.2v3.3h3.4V68.2Zm0,4.1V76h3.4V72.4Zm0,4.2v3.4h3.4V76.5Zm0,4.2v3.3h3.4V80.7Zm4.1-50v3.1h3.4V30.7Zm0,4.2v3.3h3.4V34.9Zm0,4.1v3.4h3.4V39.1Zm0,4.2v3.4h3.4V43.2Zm0,4.2V51h3.4V47.4Zm0,4.1v3.4h3.4V51.6Zm0,4.2v3.1h3.4V55.7Zm0,4.2v3.3h3.4V59.9Zm0,4.1v3.4h3.4V64Zm0,4.2v3.4h3.4V68.2Zm0,4.2V76h3.4V72.4Zm0,4.1v3.4h3.4V76.5Zm0,4.2v3.4h3.4V80.7Zm4.2-50v3.1h3.4V30.7Zm0,4.2v3.4h3.4V34.9Zm0,4.2v3.3h3.4V39.1Zm0,4.1v3.4h3.4V43.2Zm0,4.2v3.4h3.4V47.4Zm0,4.2v3.3h3.4V51.6Zm0,4.1v3.1h3.4V55.7Zm0,4.2v3.4h3.4V59.9Zm0,4.1v3.4h3.4V64Zm0,4.2v3.4h3.4V68.2Zm0,4.2v3.4h3.4V72.4Zm0,4.1v3.4h3.4V76.5Zm0,4.2v3.4h3.4V80.7ZM32.7,30.7v3.4H36V30.7Zm0,4.2v3.4H36V34.9Zm0,4.2v3.4H36V39.1Zm0,4.1v3.4H36V43.2Zm0,4.2v3.4H36V47.4Zm0,4.2v3.3H36V51.6Zm0,4.1v3.4H36V55.7Zm0,4.2v3.4H36V59.9Zm0,4.2v3.3H36V64Zm0,4.1v3.4H36V68.2Zm0,4.2v3.4H36V72.4Zm0,4.2v3.3H36V76.5Zm0,4.1v3.4H36V80.7Zm4.1-49.9v3.3h3.4V30.7Zm0,4.1v3.4h3.4V34.9Zm0,4.2v3.4h3.4V39.1Zm0,4.2v3.3h3.4V43.2Zm0,4.1v3.4h3.4V47.4Zm0,4.2V55h3.4V51.6Zm0,4.2v3.3h3.4V55.7Zm0,4.1v3.4h3.4V59.9Zm0,4.2v3.4h3.4V64Zm0,4.2v3.3h3.4V68.2Zm0,4.1v3.4h3.4V72.4Zm0,4.2V80h3.4V76.5Zm0,4.2v3.3h3.4V80.7ZM41,30.7v3.4h3.3V30.7Zm0,4.2v3.4h3.3V34.9Zm0,4.2v3.4h3.3V39.1Zm0,4.1v3.4h3.3V43.2Zm0,4.2v3.4h3.3V47.4Zm0,4.2v3.3h3.3V51.6Zm0,4.1v3.4h3.3V55.7Zm0,4.2v3.4h3.3V59.9Zm0,4.2v3.3h3.3V64Zm0,4.1v3.4h3.3V68.2Zm0,4.2v3.4h3.3V72.4Zm0,4.2v3.3h3.3V76.5Zm0,4.1v3.4h3.3V80.7Zm4.1-49.9v3.3h3.4V30.7Zm0,4.1v3.4h3.4V34.9Zm0,4.2v3.4h3.4V39.1Zm0,4.2v3.3h3.4V43.2Zm0,4.1v3.4h3.4V47.4Zm0,4.2V55h3.4V51.6Zm0,4.2v3.3h3.4V55.7Zm0,4.1v3.4h3.4V59.9Zm0,4.2v3.4h3.4V64Zm0,4.2v3.3h3.4V68.2Zm0,4.1v3.4h3.4V72.4Zm0,4.2V80h3.4V76.5Zm0,4.2v3.3h3.4V80.7Zm4.2-50v3.3h3.4V30.7Zm0,4.2v3.3h3.4V34.9Zm0,4.1v3.4h3.4V39.1Zm0,4.2v3.4h3.4V43.2Zm0,4.2v3.3h3.4V47.4Zm0,4.1V55h3.4V51.6Zm0,4.2v3.3h3.4V55.7Zm0,4.2v3.3h3.4V59.9Zm0,4.1v3.4h3.4V64Zm0,4.2v3.4h3.4V68.2Zm0,4.2v3.3h3.4V72.4Zm0,4.1V80h3.4V76.5Zm0,4.2v3.4h3.4V80.7Zm4.2-50v3.3h3.3V30.7Zm0,4.2v3.4h3.3V34.9Zm0,4.2v3.3h3.3V39.1Zm0,4.1v3.4h3.3V43.2Zm0,4.2v3.4h3.3V47.4Zm0,4.2V55h3.3V51.6Zm0,4.1v3.3h3.3V55.7Zm0,4.2v3.4h3.3V59.9Zm0,4.2v3.3h3.3V64Zm0,4.1v3.4h3.3V68.2Zm0,4.2v3.4h3.3V72.4Zm0,4.2V80h3.3V76.5Zm0,4.1v3.4h3.3V80.7Zm4.1-50.1v3.4H61V30.7Zm0,4.2v3.4H61V34.9Zm0,4.2v3.4H61V39.1Zm0,4.1v3.4H61V43.2Zm0,4.2v3.4H61V47.4Zm0,4.2v3.3H61V51.6Zm0,4.1v3.4H61V55.7Zm0,4.2v3.4H61V59.9Zm0,4.2v3.3H61V64Zm0,4.1v3.4H61V68.2Zm0,4.2v3.4H61V72.4Zm0,4.2v3.3H61V76.5Zm0,4.1v3.4H61V80.7Zm4.2-49.9v3.3h3.4V30.7Zm0,4.1v3.4h3.4V34.9Zm0,4.2v3.4h3.4V39.1Zm0,4.2v3.3h3.4V43.2Zm0,4.1v3.4h3.4V47.4Zm0,4.2V55h3.4V51.6Zm0,4.2v3.3h3.4V55.7Zm0,4.1v3.4h3.4V59.9Zm0,4.2v3.4h3.4V64Zm0,4.2v3.3h3.4V68.2Zm0,4.1v3.4h3.4V72.4Zm0,4.2V80h3.4V76.5Zm0,4.2v3.3h3.4V80.7Zm4.2-50v3.3h3.3V30.7ZM66,35v3.3h3.3V34.9Zm0,4.1v3.4h3.3V39.1Zm0,4.2v3.4h3.3V43.2Zm0,4.2v3.3h3.3V47.4Zm0,4.1V55h3.3V51.6Zm0,4.2v3.3h3.3V55.7ZM66,60v3.3h3.3V59.9Zm0,4.1v3.4h3.3V64Zm0,4.2v3.4h3.3V68.2Zm0,4.2v3.3h3.3V72.4Zm0,4.1V80h3.3V76.5Zm0,4.2v3.4h3.3V80.7Zm4.1-50v3.3h3.4V30.7Zm0,4.2v3.4h3.4V34.9Zm0,4.2v3.3h3.4V39.1Zm0,4.1v3.4h3.4V43.2Zm0,4.2v3.4h3.4V47.4Zm0,4.2V55h3.4V51.6Zm0,4.1v3.3h3.4V55.7Zm0,4.2v3.4h3.4V59.9Zm0,4.2v3.3h3.4V64Zm0,4.1v3.4h3.4V68.2Zm0,4.2v3.4h3.4V72.4Zm0,4.2V80h3.4V76.5Zm0,4.1v3.4h3.4V80.7Zm4.2-49.9v3.2h3.4V30.7Zm0,4.1v3.4h3.4V34.9Zm0,4.2v3.4h3.4V39.1Zm0,4.2v3.3h3.4V43.2Zm0,4.1v3.4h3.4V47.4Zm0,4.2v3.4h3.4V51.6Zm0,4.2v3.2h3.4V55.7Zm0,4.1v3.4h3.4V59.9Zm0,4.2v3.4h3.4V64Zm0,4.1v3.4h3.4V68.2Zm0,4.2v3.4h3.4V72.4Zm0,4.2v3.4h3.4V76.5Zm0,4.1v3.4h3.4V80.7Zm4.2-49.9v3.2h3.3V30.7Zm0,4.2v3.3h3.3V34.9Zm0,4.1v3.4h3.3V39.1Zm0,4.2v3.4h3.3V43.2Zm0,4.1v3.4h3.3V47.4Zm0,4.2v3.4h3.3V51.6Zm0,4.2v3.2h3.3V55.7Zm0,4.1v3.4h3.3V59.9Zm0,4.2v3.4h3.3V64Zm0,4.2v3.3h3.3V68.2Zm0,4.1v3.4h3.3V72.4Zm0,4.2v3.4h3.3V76.5Zm0,4.2v3.3h3.3V80.7Z" style="fill:#4a515e"/><polygon points="82 96.4 86.5 96.4 84.2 100.3 82 96.4" style="fill:#162030"/><rect x="8.3" y="30.9" width="15.2" height="49.77" rx="1.8" ry="1.8" style="fill:#162030"/><path d="M11.1,33.9a.6.6,0,0,1-.6-.5.6.6,0,0,1,.6-.6h1.8a.6.6,0,0,1,.6.6.6.6,0,0,1-.6.5Zm7.7,0a.5.5,0,0,1-.5-.5.6.6,0,0,1,.5-.6h1.9a.6.6,0,0,1,.5.6.5.5,0,0,1-.5.5Zm-3.8,0a.6.6,0,0,1-.6-.5.6.6,0,0,1,.6-.6h1.8a.6.6,0,0,1,.6.6.6.6,0,0,1-.6.5Z" style="fill:#f2f2f2"/><rect x="14.2" y="60.5" width="6.6" height="6.61" style="fill:#f2f2f2"/><rect x="10.9" y="57.2" width="6.6" height="6.61" style="fill:#f8efc1"/><path d="M10.9,70.4h10v6.4h-10Zm5,1.4a1.9,1.9,0,0,0-1.8,1.9,1.8,1.8,0,0,0,3.6,0A1.9,1.9,0,0,0,15.9,71.8Z" style="fill:#f2f2f2"/><path d="M14.7,44.7a.4.4,0,0,1,0,.5h-.5L10,40.9a.3.3,0,0,1,0-.4c.1-.2.3-.2.5,0h0Z" style="fill:#f2f2f2"/><rect x="17.2" y="47.9" width="4.4" height="4.38" style="fill:#f2f2f2"/><circle cx="12.3" cy="50.1" r="2.1" style="fill:#f2f2f2"/><path d="M18.2,45a.4.4,0,0,1-.5.2c-.1,0-.2-.2-.1-.4l1.5-4.2c.1-.2.3-.3.4-.2s.3.2.2.4Z" style="fill:#f2f2f2"/><path d="M21.3,44.8c0,.2-.1.4-.2.4s-.4,0-.4-.2l-1.6-4.2c-.1-.2,0-.3.2-.4s.4,0,.4.2Z" style="fill:#f2f2f2"/><path d="M18.2,44.2a.4.4,0,0,1,0-.7h2.4c.2,0,.3.2.3.4a.3.3,0,0,1-.3.3Z" style="fill:#f2f2f2"/><path d="M119.8,3.5a2,2,0,1,1-2,2,2,2,0,0,1,2-2Zm-11.7.9a1,1,0,0,1,1,1.1,1,1,0,0,1-1,1.1,1.1,1.1,0,1,1,0-2.2Zm5.4-.5A1.5,1.5,0,0,1,115,5.4,1.5,1.5,0,0,1,113.5,7,1.5,1.5,0,0,1,112,5.5a1.4,1.4,0,0,1,1.5-1.6Z" style="fill:#9da1a8"/><path d="M12.5,22.5A4.7,4.7,0,0,0,17.6,18v-.6a4.9,4.9,0,0,0,4.5,5.1h.6A4.8,4.8,0,0,0,17.6,27v.6a4.8,4.8,0,0,0-4.4-5.1Z" style="fill:#f8efc1"/><polygon points="119.6 69.9 122.1 72.8 120.3 74.4 117.8 71.6 116.3 74.2 114.2 65.8 122.3 68.8 119.6 69.9" style="fill:#f2f2f2"/><path d="M0,90.7c4.6,0,7.6-3.1,7.6-7.7,0,4.7,3.1,7.7,7.7,7.7-4.6,0-7.7,3-7.7,7.6C7.6,93.7,4.6,90.7,0,90.7Z" style="fill:#9da1a8"/><path d="M103.2,120h47.1a1.8,1.8,0,0,0,1.8-1.8v-15H110V99.7h-8.6v18.5A1.8,1.8,0,0,0,103.2,120Z" style="fill:#162030"/><path d="M152.1,103.5V88.8a1.8,1.8,0,0,0-1.8-1.8H103.2a1.8,1.8,0,0,0-1.8,1.8v14.7h1.2a3.1,3.1,0,0,1,6.2,0h43.3Z" style="fill:#5a616c"/><path d="M148.3,103.5V91.6a.9.9,0,0,0-.8-.8H110.9a.9.9,0,0,0-.9.8v23.8a.9.9,0,0,0,.9.8h36.6a.9.9,0,0,0,.8-.8Z" style="fill:#b9bcc1"/><path d="M105.3,110.2h.8a.6.6,0,0,0,.6-.5h0v-.8a.6.6,0,0,0-.6-.6h-.8a.6.6,0,0,0-.5.6h0v.8a.5.5,0,0,0,.5.5Zm0-11.5h.8a.6.6,0,0,0,.6-.6v-.8a.6.6,0,0,0-.6-.5h-.8a.5.5,0,0,0-.5.5v.8a.6.6,0,0,0,.5.6Zm0-3h.8a.6.6,0,0,0,.6-.6v-.8a.6.6,0,0,0-.6-.5h-.8a.5.5,0,0,0-.5.5v.9a.5.5,0,0,0,.5.5Zm0-3h.8a.6.6,0,0,0,.6-.5v-.8a.6.6,0,0,0-.6-.6h-.8a.6.6,0,0,0-.5.6v.7a.6.6,0,0,0,.5.6Zm0,23.5h.8a.6.6,0,0,0,.6-.5h0v-.9a.6.6,0,0,0-.6-.5h-.8a.5.5,0,0,0-.5.5h0v.9a.5.5,0,0,0,.5.5Zm0-3h.8a.6.6,0,0,0,.6-.5h0v-.8a.6.6,0,0,0-.6-.6h-.8a.6.6,0,0,0-.5.6h0v.8a.5.5,0,0,0,.5.5Z" style="fill:#b9bcc1"/><circle cx="105.7" cy="103.5" r="2.1" style="fill:#b9bcc1"/><path d="M122.4,106a.5.5,0,0,1,.4.3c0,.1,0,.3-.2.3a3.8,3.8,0,0,1-4.3-.4,4,4,0,0,1-1.2-2.7,4.9,4.9,0,0,1-1.3-1.2,5.7,5.7,0,0,1-1.1-5.9,4.6,4.6,0,0,1,1.3-1.8,5,5,0,0,1,1.9-1,5.3,5.3,0,0,1,5.3,1.7,3.5,3.5,0,0,1,.8,1.6,2,2,0,0,1-.3,1.5l-.6.6h0a3.2,3.2,0,0,1-1.4.3,2.4,2.4,0,0,1-1.4-.5,4.5,4.5,0,0,1-1.1-1.3c-.1-.2,0-.4.1-.4s.3-.1.4.1a4.7,4.7,0,0,0,1,1,1.5,1.5,0,0,0,1.1.4,1,1,0,0,0,.9-.2h0a.8.8,0,0,0,.4-.4,1.2,1.2,0,0,0,.2-1,2.3,2.3,0,0,0-.6-1.2,4.5,4.5,0,0,0-4.6-1.6,4.2,4.2,0,0,0-1.7,1,3.3,3.3,0,0,0-1.1,1.5c-.7,1.4-.5,3.3,1,5.2l.8.8a2.7,2.7,0,0,1,2.2-2.3,2.1,2.1,0,0,1,2.3.7,1.6,1.6,0,0,1,.4.7h0a1.4,1.4,0,0,1,0,.9,2.3,2.3,0,0,1-1.8,1.5,4,4,0,0,1-2.4-.2h-.1l.2.5a2.6,2.6,0,0,0,.8,1.3,3.2,3.2,0,0,0,3.6.3Zm-4.6-3h0a.5.5,0,0,0,.4.2,3.1,3.1,0,0,0,1.9.2,1.7,1.7,0,0,0,1.3-1,.6.6,0,0,0,0-.6h0a1.7,1.7,0,0,0-.2-.5,1.8,1.8,0,0,0-1.7-.4,2.2,2.2,0,0,0-1.8,2Z" style="fill:#162030"/><path d="M123.7,104l1,.8-1.2,1.5a.6.6,0,0,1-.9.1h0a.6.6,0,0,1-.1-.9Z" style="fill:#5a616c"/><path d="M145.9,80.6l-2.6-2.1,1.8-2.3a1.7,1.7,0,1,1,2.7,2.1h0Z" style="fill:#162030"/><polygon points="123.9 100.8 124.2 100.8 127.7 103.7 127.8 104 124.4 105.5 123.8 104.9 123.1 104.4 123.9 100.8" style="fill:#162030"/><path d="M147,78.4l-1.7-1.5a1.4,1.4,0,0,0-2,.2l-19.4,23.7,4,3.2,19.3-23.7a1.4,1.4,0,0,0-.1-1.9Z" style="fill:#162030"/><path d="M145.3,77.7l-.4-.4a.8.8,0,0,0-1.2.2l-19,23.2,1.1.9Z" style="fill:#5a616c"/><rect x="125.7" y="99.5" width="0.9" height="5.11" transform="translate(-32.7 135) rotate(-50.7)" style="fill:#b9bcc1"/><rect x="126.9" y="98.1" width="0.9" height="5.11" transform="translate(-31.2 135.4) rotate(-50.7)" style="fill:#b9bcc1"/><rect x="13.1" y="104.5" width="43.2" height="14.11" rx="2.9" ry="2.9" style="fill:#f2f2f2"/><circle cx="49.8" cy="111.6" r="2.5" style="fill:#162030"/><rect x="17.4" y="106.5" width="6.3" height="10.15" style="fill:#ebce3d"/><rect x="27.1" y="106.5" width="6.3" height="10.15" style="fill:#f3e28d"/><rect x="36.8" y="106.5" width="6.3" height="10.15" style="fill:#f8efc1"/><path d="M13.1,110.9v-3.5a2.9,2.9,0,0,1,2.9-2.9H53.4a2.9,2.9,0,0,1,2.9,2.9v8.4a2.8,2.8,0,0,1-2.8,2.8h-.1l-7.9-.3-30.7-6.6A5.3,5.3,0,0,1,13.1,110.9Z" style="opacity:0.129999995231628;isolation:isolate"/><circle cx="49.8" cy="111.6" r="2.5" style="opacity:0.129999995231628;isolation:isolate"/><circle cx="49.8" cy="111.6" r="2.5" style="fill:#162030"/><path d="M13.3,106.1l2.1-8A3,3,0,0,1,19,96l36.1,9.7a2.9,2.9,0,0,1,2.1,3.5L55,117.3a2.8,2.8,0,0,1-3.5,2l-36.2-9.7A2.8,2.8,0,0,1,13.3,106.1Z" style="fill:#f2f2f2"/><circle cx="49.8" cy="111.6" r="2.5" style="fill:#162030"/><rect x="17" y="100.9" width="10.2" height="6.38" transform="translate(-84.2 98.5) rotate(-75)" style="fill:#2b3443"/><rect x="25.9" y="103.4" width="10.1" height="6.35" transform="translate(-80 108.9) rotate(-75)" style="fill:#4e5662"/><rect x="35.3" y="105.9" width="10.1" height="6.35" transform="translate(-75.4 119.8) rotate(-75)" style="fill:#7f858d"/><path d="M32.3,99.6l22.8,6.1a2.9,2.9,0,0,1,2.1,3.5l-2,7.3-4.6,2.6-5.1-.8Z" style="opacity:0.129999995231628;isolation:isolate"/><path d="M27.8,81.9,35,77.7a3,3,0,0,1,4,1.1l18.7,32.4a3,3,0,0,1-1,4l-7.3,4.1a2.8,2.8,0,0,1-3.9-1L26.8,85.9A2.9,2.9,0,0,1,27.8,81.9Z" style="fill:#f2f2f2"/><circle cx="49.8" cy="111.6" r="2.5" style="fill:#162030"/><rect x="30.1" y="83.1" width="10.1" height="6.35" transform="translate(-38.4 29.1) rotate(-30)" style="fill:#353d4b"/><rect x="35" y="91.6" width="10.1" height="6.35" transform="translate(-42 32.7) rotate(-30)" style="fill:#6c737d"/><rect x="39.8" y="100" width="10.1" height="6.35" transform="translate(-45.6 36.3) rotate(-30)" style="fill:#9da1a8"/><polygon points="11 14 11 14.8 19.2 10 11 14" style="fill:#7f858d"/><polygon points="103.6 13.5 106 14.5 106 12.4 103.6 13.5" style="fill:#162030"/><path d="M106,12.4v2.1l-2.4-1,2.4-1.1Zm4.6-.2a1.7,1.7,0,0,1-.9-1.4l-6.1,2.7,6.1-5.9c0-.6.4,7.5.9,7.3a1.6,1.6,0,0,1-.8-2,1.8,1.8,0,0,1,.8-.7Z" style="fill:#f7edb7"/><path d="M109.7,10.8a1.6,1.6,0,0,0,.9,1.3h47.7V10.8Z" style="fill:#7f858d"/><path d="M158.3,12.2H110.6a1.4,1.4,0,0,0-.7,1.9,1.8,1.8,0,0,0,.7.8h47.7Z" style="fill:#4e5662"/><path d="M158.3,14.9H110.6c-.5.2-.9-7.9-.9-7.3h48.6Z" style="fill:#2b3443"/><path d="M42.2,46.1h-.3a4.8,4.8,0,0,0-3.4,1.4h0a4.9,4.9,0,0,0,0,6.9h0a4.8,4.8,0,0,0,3.4,1.4H52.3a4.4,4.4,0,0,0,4.4-4.3,4.2,4.2,0,0,0-1-2.8h0a4.1,4.1,0,0,0-2.5-1.5.8.8,0,0,1-.4-.7.2.2,0,0,1,.2-.2,2.3,2.3,0,0,0,.6-1.6,1.3,1.3,0,0,0-.1-.6,2.3,2.3,0,0,0-2-1.6h-.6a.5.5,0,0,1-.7-.3,4,4,0,0,0-4.6-1.8A3.9,3.9,0,0,0,43,45.4a.5.5,0,0,1-.3.7h-.5ZM41.8,45v-.7a5,5,0,0,1,5-5.1A4.8,4.8,0,0,1,51,41.5a.4.4,0,0,1,.5,0,3.2,3.2,0,0,1,3.2,3.2,3.4,3.4,0,0,1-.5,1.7A5.3,5.3,0,0,1,56.5,48h0a5.5,5.5,0,0,1-.3,7.4h0A5.7,5.7,0,0,1,52.3,57H41.9a5.9,5.9,0,0,1-4.2-1.7h0a6,6,0,0,1,0-8.4h0A6.1,6.1,0,0,1,41.8,45Z" style="fill:#f2f2f2"/><path d="M75.5,54h1.1A7.9,7.9,0,0,1,91,47.9a4.7,4.7,0,0,1,5.9,3.2,4.8,4.8,0,0,1-1.3,4.8,8.7,8.7,0,0,1-1.7,17.2H75.5a9.6,9.6,0,0,1,0-19.1Z" style="fill:#f2f2f2"/><path d="M106.2,12.5h48.4a4,4,0,0,1,4,4h0a4.1,4.1,0,0,1-4,4H106.2Zm47.5,4a1.3,1.3,0,1,0,2.6,0,1.3,1.3,0,0,0-2.6,0Z" style="fill:#f0da6f"/><path d="M145,20.5V17.8h1v2.7Zm3.3,0V16.2h1v4.3Zm-39.6,0V16.2h1v4.3Zm13.2,0V16.2h1v4.3Zm13.2,0V16.2h1v4.3Zm-23,0V17.8h.9v2.7Zm3.3,0V17.8h.9v2.7Zm3.3,0V17.8h.9v2.7Zm6.6,0V17.8h.9v2.7Zm3.3,0V17.8h.9v2.7Zm3.3,0V17.8h.9v2.7Zm6.6,0V17.8h.9v2.7Zm3.3,0V17.8h.9v2.7Z" style="fill:#162030"/><rect x="144.8" y="41.4" width="24.5" height="28.74" rx="1.1" ry="1.1" style="fill:#162030"/><path d="M144.8,46.2V42.4a1,1,0,0,1,1-1h22.4a1,1,0,0,1,1.1,1v3.8Z" style="fill:#5a616c"/><rect x="146.8" y="62.6" width="5.8" height="5.82" style="fill:#353d4b"/><polygon points="146.8 62.6 149.2 62.6 146.8 65 146.8 62.6" style="fill:#f2f2f2"/><rect x="154.1" y="62.6" width="5.8" height="5.82" style="fill:#6c737d"/><polygon points="154.1 62.6 156.5 62.6 154.1 65 154.1 62.6" style="fill:#f2f2f2"/><rect x="161.4" y="62.6" width="5.8" height="5.82" style="fill:#b9bcc1"/><polygon points="161.4 62.6 163.8 62.6 161.4 65 161.4 62.6" style="fill:#f2f2f2"/><rect x="146.8" y="55.3" width="5.8" height="5.82" style="fill:#2b3443"/><polygon points="146.8 55.3 149.2 55.3 146.8 57.7 146.8 55.3" style="fill:#f2f2f2"/><rect x="154.1" y="55.3" width="5.8" height="5.82" style="fill:#4e5662"/><polygon points="154.1 55.3 156.5 55.3 154.1 57.7 154.1 55.3" style="fill:#f2f2f2"/><rect x="161.4" y="55.3" width="5.8" height="5.82" style="fill:#7f858d"/><polygon points="161.4 55.3 163.8 55.3 161.4 57.7 161.4 55.3" style="fill:#f2f2f2"/><rect x="146.8" y="48" width="5.8" height="5.82" style="fill:#ebce3d"/><polygon points="146.8 48 149.2 48 146.8 50.4 146.8 48" style="fill:#f2f2f2"/><rect x="154.1" y="48" width="5.8" height="5.82" style="fill:#f3e28d"/><polygon points="154.1 48 156.5 48 154.1 50.4 154.1 48" style="fill:#f2f2f2"/><rect x="161.4" y="48" width="5.8" height="5.82" style="fill:#f8efc1"/><polygon points="161.4 48 163.8 48 161.4 50.4 161.4 48" style="fill:#f2f2f2"/><path d="M166.6,42.8a1.1,1.1,0,1,1-1.1,1.1h0A1.1,1.1,0,0,1,166.6,42.8Zm-5.8,0a1.1,1.1,0,1,1-1.1,1.1h0a1.1,1.1,0,0,1,1.1-1.1Zm2.9,0a1.1,1.1,0,0,1,1.1,1.1,1.2,1.2,0,0,1-1.1,1.1,1.1,1.1,0,0,1-1.1-1.1h0a1.1,1.1,0,0,1,1.1-1.1Z" style="fill:#f2f2f2"/><polygon points="123.8 37 125.6 42.7 131.5 42.7 126.7 46.1 128.5 51.7 123.8 48.3 119 51.7 120.8 46.1 116 42.7 121.9 42.7 123.8 37" style="fill:#f2f2f2"/><polygon points="160.1 74 161.6 78.7 166.6 78.7 162.6 81.6 164.1 86.3 160.1 83.4 156.1 86.3 157.6 81.6 153.6 78.7 158.6 78.7 160.1 74" style="fill:#9da1a8"/><path d="M59.2,77.6h5.9v5.9H59.2Zm0-44.2h5.9v5.8H59.2V33.4Zm44.2,0h5.9v5.8h-5.9V33.4Zm0,44.2h5.9v5.9h-5.9Z" style="fill:#162030"/><path d="M61.6,75.4h1.1v2.2H61.6Zm5.7-39.6v1.1H65.1V35.8Zm36.1,0v1.1h-2.2V35.8Zm-3.6,0v1.1H97.6V35.8Zm-3.6,0v1.1H94V35.8Zm-3.6,0v1.1H90.4V35.8Zm-3.6,0v1.1H86.7V35.8Zm-3.7,0v1.1H83.1V35.8Zm-3.6,0v1.1H79.5V35.8Zm-3.6,0v1.1H75.9V35.8Zm-3.6,0v1.1H72.3V35.8Zm-3.6,0v1.1H68.7V35.8Zm34.9,39.6h1.1v2.2h-1.1Zm0-36.1h1.1v2.2h-1.1Zm0,3.6h1.1v2.2h-1.1Zm0,3.6h1.1v2.2h-1.1Zm0,3.6h1.1v2.2h-1.1Zm0,3.6h1.1v2.2h-1.1Zm0,3.7h1.1v2.2h-1.1Zm0,3.6h1.1v2.2h-1.1Zm0,3.6h1.1v2.2h-1.1V64.6Zm0,3.6h1.1v2.2h-1.1V68.2Zm0,3.6h1.1V74h-1.1ZM67.3,80v1.1H65.1V79.9Zm36.1,0v1.1h-2.2V79.9Zm-3.6,0v1.1H97.6V79.9Zm-3.6,0v1.1H94V79.9Zm-3.6,0v1.1H90.4V79.9ZM89,80v1.1H86.7V79.9Zm-3.7,0v1.1H83.1V79.9Zm-3.6,0v1.1H79.5V79.9Zm-3.6,0v1.1H75.9V79.9Zm-3.6,0v1.1H72.3V79.9Zm-3.6,0v1.1H68.7V79.9ZM61.6,39.3h1.1v2.2H61.6Zm0,3.6h1.1v2.2H61.6Zm0,3.6h1.1v2.2H61.6Zm0,3.6h1.1v2.2H61.6Zm0,3.6h1.1v2.2H61.6Zm0,3.7h1.1v2.2H61.6Zm0,3.6h1.1v2.2H61.6Zm0,3.6h1.1v2.2H61.6V64.6Zm0,3.6h1.1v2.2H61.6V68.2Zm0,3.6h1.1V74H61.6Z" style="fill:#f2f2f2"/><path d="M48.2,21.4h-19a3.8,3.8,0,0,1-3.9-3.8V9.9A3.9,3.9,0,0,1,29,6.1H50.3A3.8,3.8,0,0,1,54,9.9v7.7a3.8,3.8,0,0,1-3.9,3.8H48.2Z" style="fill:#b9bcc1"/><rect x="35.8" y="7" width="7.6" height="2.88" rx="0.7" ry="0.7" style="fill:#f2f2f2"/><path d="M39.6,7h3.1a.7.7,0,0,1,.7.7V9.1a.8.8,0,0,1-.7.8H39.6Z" style="fill:#5a616c"/><path d="M31.6,6.3h2V4.5H31.9a.3.3,0,0,0-.3.3Z" style="fill:#5a616c"/><path d="M39.6,11.8c4.1,0,7.4-5.3,7.4-1.2a7.4,7.4,0,1,1-14.7,0C32.3,6.5,35.6,11.8,39.6,11.8Z" style="fill:#162030"/><circle cx="39.6" cy="10.6" r="4.7" style="fill:#353d4b"/><path d="M38.1,11.9a.6.6,0,0,1,0,.8.5.5,0,0,1-.8-.1h0a3.2,3.2,0,0,1,2.3-5.2.6.6,0,0,1,.6.6.6.6,0,0,1-.6.5,2,2,0,0,0-2,2.1A1.9,1.9,0,0,0,38.1,11.9Zm3.5-1.8a2,2,0,0,1-1.3,2.4.6.6,0,0,0,.3,1.1h0a3.2,3.2,0,0,0,2.1-3.7c-.1-.3-.4-.5-.6-.4a.6.6,0,0,0-.5.6Z" style="fill:#f2f2f2"/><path d="M25.3,16.1h3.9a.7.7,0,0,1,.8.8h0a.7.7,0,0,1-.8.7H25.3Zm0-5.9h3.9a.7.7,0,0,1,.8.7h0a.7.7,0,0,1-.8.7H25.3V10.1Zm0,2.9h3.9a.8.8,0,0,1,.8.8h0a.7.7,0,0,1-.8.7H25.3Z" style="fill:#162030"/><path d="M35.2,6.3H33.3V4.5h1.5c.2,0,.4.1.4.3Z" style="fill:#162030"/><path d="M29.2,14.6h1.1L32,14a6.7,6.7,0,0,0,1.4-.9l2.1-1.4a5.9,5.9,0,0,1,1.4-.6,8.4,8.4,0,0,1,2.7-.4h1l1.2.2.6.2a4.2,4.2,0,0,1,1.4.6c.9.5,1.6,1.1,2.5,1.7A8.1,8.1,0,0,0,49,14.5h4.9V10a4.1,4.1,0,0,0-.3-1.6,3.6,3.6,0,0,0-1.4-1.6,3.3,3.3,0,0,0-1.7-.7H29.2a4.4,4.4,0,0,0-2.2.7,3.4,3.4,0,0,0-1.3,1.6,2.8,2.8,0,0,0-.4,1.5v4.7Zm6.6-5.5V7.7a.8.8,0,0,1,.8-.7h6.1a.7.7,0,0,1,.7.7V9.1a.8.8,0,0,1-.7.8H36.6a.9.9,0,0,1-.8-.8Z" style="fill:#162030"/><rect x="60.5" y="2.8" width="37.6" height="16.78" style="fill:#f2f2f2"/><rect x="62.1" y="4.4" width="34.4" height="13.61" style="fill:#353d4b"/><path d="M67.6,14.8c2.1,0,3.7-6.9,3.7-4.9a3.7,3.7,0,0,1-7.3,0C64,7.9,65.6,14.8,67.6,14.8Z" style="fill:#f3e28d"/><polygon points="86 18 62.1 18 73.2 10.3 86 18" style="fill:#162030"/><polygon points="96.5 18 77.1 18 86.1 13.5 96.5 18" style="fill:#162030"/><polygon points="57.9 7.2 64.8 0 67 2.1 60.1 9.3 57.9 7.2" style="fill:#b9bcc1"/><polygon points="91.5 20.2 98.4 13 100.6 15.1 93.7 22.3 91.5 20.2" style="fill:#b9bcc1"/><polygon points="152.3 27.1 153.4 30.6 157 30.6 154.1 32.8 155.2 36.2 152.3 34.1 149.3 36.2 150.4 32.8 147.5 30.6 151.1 30.6 152.3 27.1" style="fill:#7f858d"/><polygon points="156 97.1 156 103.5 161.6 100.3 156 97.1" style="fill:#7f858d"/></g></g></g></g></svg>