<svg xmlns="http://www.w3.org/2000/svg" viewBox="0 0 197.48 140"><defs><style>.cls-1{fill:#838b9a;}.cls-2{fill:#c9ced3;}.cls-3{fill:#535b6a;}.cls-4{fill:#1e86d5;}.cls-5{fill:#3592d9;}.cls-6{fill:#fff;}.cls-7{fill:#ffd900;}.cls-8{fill:#93c5eb;}.cls-9{fill:#e02d31;}.cls-10{fill:#ff8a2b;}.cls-11{opacity:0.13;isolation:isolate;}.cls-12{fill:#378943;}.cls-13{fill:#44a952;}.cls-14{fill:#77c181;}.cls-15{fill:#5ba7e0;}.cls-16{fill:#ebc275;}.cls-17{fill:#b3805f;}</style></defs><title>ViduellAnsprechend</title><g id="Ebene_2" data-name="Ebene 2"><g id="Section_-_Visuell_ansprechend_und_benutzerfreundlich" data-name="Section - Visuell ansprechend und benutzerfreundlich"><path class="cls-1" d="M71,140h54.59c0-2.34-1.54-4.3-3.44-4.3H74.44C72.55,135.73,71,137.65,71,140Z"/><path class="cls-2" d="M83.55,120.65c-.15,7.53-2.35,12.9-7.53,15.05h44.5c-5.16-2.21-7.37-7.53-7.53-15.05Z"/><path class="cls-1" d="M83.55,120.65a23.6,23.6,0,0,1-.19,3.08h29.86q-.16-1.46-.19-3.08l-.86-.83-28.41-.11Z"/><path class="cls-2" d="M34.17,120.65H162.42a4.07,4.07,0,0,0,4.05-4.05v-8.18H30.11v8.18A4.07,4.07,0,0,0,34.17,120.65Z"/><path class="cls-3" d="M34.17,27.49H162.42a4.07,4.07,0,0,1,4.05,4.05v77.32H30.11V31.56A4.07,4.07,0,0,1,34.17,27.49Z"/><rect class="cls-4" x="35.79" y="33.18" width="125.01" height="70.02"/><path class="cls-5" d="M37.18,32h.92v3H42V32H43v3H46.9V32h.88v3h3.94V32h.92v3h3.94V32h.92v3h3.94V32h.92v3H66.3V32h.92v3h3.94V32h.92v3H76V32h.92v3h3.94V32h.92v3h3.94V32h.92v3H90.6V32h.92v3h3.94V32h.92v3h3.74V32H101v3H105V32h.92v3h3.94V32h.92v3h3.94V32h.92v3h3.94V32h.92v3h3.94V32h.92v3h3.94V32h.92v3h3.94V32h.92v3H139V32h.92v3h3.94V32h.92v3h3.94V32h.92v3h3.94V32h.92v3h3.94V32h.92v3h1.43v.92h-1.43v3.94h1.43v.92h-1.43v3.94h1.43v.92h-1.43v3.94h1.43v.92h-1.43v3.94h1.43v.92h-1.43v3.94h1.43v.92h-1.43v3.94h1.43V65h-1.43v3.91h1.43v.92h-1.43v3.94h1.43v.92h-1.43v3.94h1.43v.92h-1.43v3.94h1.43v.92h-1.43v3.94h1.43v.92h-1.43v3.94h1.43v.92h-1.43v3.94h1.43V99h-1.43V102h-.92V99h-3.94v3h-.92V99h-3.94v3h-.92V99h-3.94v3h-.92V99h-3.94v3H139V99h-3.94v3h-.92V99h-3.94v3h-.92V99h-3.94v3h-.92V99h-4v3h-.92V99H115.6v3h-.92V99h-3.94v3h-.92V99h-3.94v3H105V99H101v3h-.92V99H96.38v3h-.92V99H91.52v3H90.6V99H86.67v3h-.92V99H81.81v3h-.92V99H77v3H76V99H72.09v3h-.92V99H67.24v3h-.92V99H62.38v3h-.92V99H57.52v3H56.6V99H52.67v3h-.92V99h-4v3h-.92V99H43v3H42V99H38.1v3h-.92V99H35.75v-.92h1.43v-3.9H35.75v-.92h1.43V89.29H35.75v-.92h1.43V84.44H35.75v-.92h1.43V79.58H35.75v-.92h1.43V74.72H35.75v-.92h1.43V69.86H35.75v-.91h1.43V65H35.75v-.92h1.43V60.15H35.75v-.92h1.43V55.29H35.75v-.92h1.43V50.44H35.75v-.92h1.43V45.58H35.75v-.92h1.43V40.72H35.75v-.91h1.43V35.87H35.75v-.92h1.43Zm62.49,3.9H96.38v3.94h3.74V35.87Zm0,4.86H96.38v3.94h3.74V40.72Zm0,4.86H96.38v3.94h3.74V45.58Zm0,4.86H96.38v3.94h3.74V50.44Zm0,4.86H96.38v3.94h3.74v-4Zm0,4.86H96.38v3.94h3.74v-4Zm0,4.86H96.38v3.91h3.74V65Zm0,4.86H96.38v3.94h3.74v-4Zm0,4.86H96.38v3.94h3.74v-4Zm0,4.86H96.38v3.94h3.74v-4Zm0,4.86H96.38v3.94h3.74v-4Zm0,4.86H96.38v3.94h3.74v-4Zm0,4.86H96.38v3.94h3.74v-4Zm6.23-58.29v3.9h3.94V35.87Zm0,4.86V44.7h3.94v-4Zm0,4.86v3.94h3.94v-4Zm0,4.86v3.94h3.94v-4Zm0,4.86v3.94h3.94v-4Zm0,4.86v3.94h3.94v-4Zm0,4.86v3.88h3.94V65Zm0,4.86v3.94h3.94v-4Zm0,4.86v3.94h3.94v-4Zm0,4.86v3.94h3.94v-4Zm0,4.86v3.94h3.94v-4Zm0,4.86V93.3h3.94v-4Zm0,4.86v3.94h3.94v-4ZM105,98.16v-4H101v3.94Zm0-4.86v-4H101v3.94Zm0-4.86v-4H101v3.94Zm0-4.86v-4H101v3.94Zm0-4.86v-4H101v3.94Zm0-4.86v-4H101v3.94ZM105,69V65H101v3.94Zm0-4.86v-4H101v3.94Zm0-4.86v-4H101v3.94Zm0-4.86v-4H101v3.94Zm0-4.86v-4H101v3.94Zm0-4.86v-4H101v3.94Zm0-4.86v-4H101v3.94Zm5.77-3.94v3.9h3.94V35.87Zm0,4.86V44.7h3.94v-4Zm0,4.86v3.94h3.94v-4Zm0,4.86v3.94h3.94v-4Zm0,4.86v3.94h3.94v-4Zm0,4.86v3.94h3.94v-4Zm0,4.86v3.88h3.94V65Zm0,4.86v3.94h3.94v-4Zm0,4.86v3.94h3.94v-4Zm0,4.86v3.94h3.94v-4Zm0,4.86v3.94h3.94v-4Zm0,4.86V93.3h3.94v-4Zm0,4.86v3.94h3.94v-4Zm4.86-58.29v3.87h3.94V35.87Zm0,4.86v3.94h3.94v-4Zm0,4.86v3.94h3.94v-4Zm0,4.86v3.94h3.94v-4Zm0,4.86v3.94h3.94v-4Zm0,4.86v3.94h3.94v-4Zm0,4.86v3.85h3.94V65Zm0,4.86v3.94h3.94v-4Zm0,4.86v3.94h3.94v-4Zm0,4.86v3.94h3.94v-4Zm0,4.86v3.94h3.94v-4Zm0,4.86v3.94h3.94v-4Zm0,4.86v3.94h3.94v-4ZM120.46,36v3.84h3.94V35.87Zm0,4.86v3.94h3.94v-4Zm0,4.86v3.94h3.94v-4Zm0,4.86v3.94h3.94v-4Zm0,4.86v3.94h3.94V55.29Zm0,4.86V64.2h3.94V60.15Zm0,4.86v3.82h3.94V65Zm0,4.86v3.94h3.94V69.86Zm0,4.86v3.94h3.94V74.72Zm0,4.86v3.94h3.94V79.58Zm0,4.86V88.5h3.94V84.44Zm0,4.86v3.94h3.94V89.29Zm0,4.86v3.94h3.94V94.15ZM125.32,36v3.81h3.94V35.87Zm0,4.86V44.8h3.94V40.72Zm0,4.86v3.94h3.94V45.58Zm0,4.86v3.94h3.94V50.44Zm0,4.86v3.94h3.94V55.29Zm0,4.86v3.94h3.94V60.15Zm0,4.86v3.78h3.94V65Zm0,4.86V74h3.94v-4.1Zm0,4.86v3.94h3.94v-4.1Zm0,4.86v3.94h3.94v-4.1Zm0,4.86v3.94h3.94v-4.1Zm0,4.86V93.4h3.94V89.29Zm0,4.86v3.94h3.94V94.15ZM130.18,36v3.77h3.94V35.87Zm0,4.86v3.94h3.94V40.72Zm0,4.86v3.94h3.94V45.58Zm0,4.86v3.94h3.94V50.44Zm0,4.86v3.94h3.94V55.29Zm0,4.86v3.94h3.94V60.15Zm0,4.86v3.75h3.94V65Zm0,4.86V74h3.94V69.86Zm0,4.86v3.94h3.94V74.72Zm0,4.86v3.94h3.94V79.58Zm0,4.86v3.94h3.94V84.44Zm0,4.86v3.94h3.94V89.29Zm0,4.86v3.94h3.94V94.15ZM135,36.07v3.74H139V35.87Zm0,4.86v3.94H139V40.72Zm0,4.86v3.94H139V45.58Zm0,4.86v3.94H139V50.44Zm0,4.86v3.94H139V55.29Zm0,4.86V64.3H139V60.15Zm0,4.86v3.72H139V65Zm0,4.86V74H139V69.86Zm0,4.86v3.94H139V74.72Zm0,4.86v3.94H139V79.58Zm0,4.86V88.6H139V84.44Zm0,4.86v3.94H139V89.29Zm0,4.86v3.94H139V94.15ZM139.9,36.1v3.71h3.94V35.87Zm0,4.86v3.94h3.94V40.72Zm0,4.86v3.94h3.94V45.58Zm0,4.86v3.94h3.94V50.44Zm0,4.86v3.94h3.94V55.29Zm0,4.86v3.94h3.94V60.15Zm0,4.86v3.69h3.94V65Zm0,4.86v3.94h3.94V69.86Zm0,4.86v3.94h3.94V74.72Zm0,4.86v3.94h3.94V79.58Zm0,4.86v3.94h3.94V84.44Zm0,4.86v3.94h3.94v-4.2Zm0,4.86v3.94h3.94v-4.2Zm4.86-58.29v3.68h3.94V35.87Zm0,4.86v3.94h3.94v-4.2Zm0,4.86v3.94h3.94v-4.2Zm0,4.86v3.94h3.94v-4.2Zm0,4.86v3.94h3.94V55.29Zm0,4.86v3.94h3.94V60.15Zm0,4.86v3.66h3.94V65Zm0,4.86v3.94h3.94V69.86Zm0,4.86v3.94h3.94V74.72Zm0,4.86V83.8h3.94V79.58Zm0,4.86v3.94h3.94V84.44Zm0,4.86v3.94h3.94V89.29Zm0,4.86v3.94h3.94V94.15Zm4.86-58.29v3.65h3.94V35.87Zm0,4.86V45h3.94V40.72Zm0,4.86v3.94h3.94V45.58Zm0,4.86v3.94h3.94V50.44Zm0,4.86v3.94h3.94V55.29Zm0,4.86V64.4h3.94V60.15Zm0,4.86v3.62h3.94V65Zm0,4.86v3.94h3.94V69.86Zm0,4.86V79h3.94V74.72Zm0,4.86v3.94h3.94V79.58Zm0,4.86V88.7h3.94V84.44Zm0,4.86v3.94h3.94V89.29Zm0,4.86v3.94h3.94V94.15Zm4.86-58.29v3.61h3.94V35.87Zm0,4.86V45h3.94V40.72Zm0,4.86v3.94h3.94V45.58Zm0,4.86v3.94h3.94V50.44Zm0,4.86v3.94h3.94V55.29Zm0,4.86v3.94h3.94V60.15Zm0,4.86v3.59h3.94V65Zm0,4.86v3.94h3.94V69.86Zm0,4.86V79h3.94V74.72Zm0,4.86v3.94h3.94V79.58Zm0,4.86v3.94h3.94V84.44Zm0,4.86v3.94h3.94v-4.3Zm0,4.86v3.94h3.94v-4.3ZM38.1,35.87v3.94H42V35.87Zm0,4.86v3.94H42V40.72Zm0,4.86v3.94H42V45.58Zm0,4.86v3.94H42V50.44Zm0,4.86v3.94H42v-4Zm0,4.86v3.94H42v-4Zm0,4.86v3.91H42V65Zm0,4.86v3.94H42v-4Zm0,4.86v3.94H42v-4Zm0,4.86v3.94H42v-4Zm0,4.86v3.94H42v-4Zm0,4.86v3.94H42v-4Zm0,4.86v3.94H42v-4ZM43,35.91v3.9H46.9V35.87Zm0,4.86V44.7H46.9v-4Zm0,4.86v3.94H46.9v-4Zm0,4.86v3.94H46.9v-4Zm0,4.86v3.94H46.9v-4Zm0,4.86v3.94H46.9v-4Zm0,4.86v3.88H46.9V65Zm0,4.86v3.94H46.9v-4Zm0,4.86v3.94H46.9v-4Zm0,4.86v3.94H46.9v-4Zm0,4.86v3.94H46.9v-4Zm0,4.86V93.3H46.9v-4Zm0,4.86v3.94H46.9v-4Zm4.82-58.35v3.94h3.94V35.87Zm0,4.86v3.94h3.94V40.72Zm0,4.86v3.94h3.94V45.58Zm0,4.86v3.94h3.94V50.44Zm0,4.86v3.94h3.94v-4Zm0,4.86v3.94h3.94v-4Zm0,4.86v3.91h3.94V65Zm0,4.86v3.94h3.94v-4Zm0,4.86v3.94h3.94v-4Zm0,4.86v3.94h3.94v-4Zm0,4.86v3.94h3.94v-4Zm0,4.86v3.94h3.94v-4Zm0,4.86v3.94h3.94v-4Zm4.86-58.29v3.9h3.94V35.87Zm0,4.86V44.7h3.94v-4Zm0,4.86v3.94h3.94v-4Zm0,4.86v3.94h3.94v-4Zm0,4.86v3.94h3.94v-4Zm0,4.86v3.94h3.94v-4Zm0,4.86v3.88h3.94V65Zm0,4.86v3.94h3.94v-4Zm0,4.86v3.94h3.94v-4Zm0,4.86v3.94h3.94v-4Zm0,4.86v3.94h3.94v-4Zm0,4.86V93.3h3.94v-4Zm0,4.86v3.94h3.94v-4ZM57.5,35.94v3.87h3.94V35.87Zm0,4.86v3.94h3.94v-4Zm0,4.86v3.94h3.94v-4Zm0,4.86v3.94h3.94v-4Zm0,4.86v3.94h3.94v-4Zm0,4.86v3.94h3.94v-4Zm0,4.86v3.85h3.94V65Zm0,4.86v3.94h3.94v-4Zm0,4.86v3.94h3.94v-4Zm0,4.86v3.94h3.94v-4Zm0,4.86v3.94h3.94v-4Zm0,4.86v3.94h3.94v-4Zm0,4.86v3.94h3.94v-4ZM62.36,36v3.84H66.3V35.87Zm0,4.86v3.94H66.3v-4Zm0,4.86v3.94H66.3v-4Zm0,4.86v3.94H66.3v-4Zm0,4.86v3.94H66.3V55.29Zm0,4.86V64.2H66.3V60.15Zm0,4.86v3.82H66.3V65Zm0,4.86v3.94H66.3V69.86Zm0,4.86v3.94H66.3V74.72Zm0,4.86v3.94H66.3V79.58Zm0,4.86V88.5H66.3V84.44Zm0,4.86v3.94H66.3V89.29Zm0,4.86v3.94H66.3V94.15Zm4.88-58.42v3.94h3.94V35.87Zm0,4.86v3.94h3.94V40.72Zm0,4.86v3.94h3.94V45.58Zm0,4.86v3.94h3.94V50.44Zm0,4.86v3.94h3.94v-4Zm0,4.86v3.94h3.94v-4Zm0,4.86v3.91h3.94V65Zm0,4.86v3.94h3.94v-4Zm0,4.86v3.94h3.94v-4Zm0,4.86v3.94h3.94v-4Zm0,4.86v3.94h3.94v-4Zm0,4.86v3.94h3.94v-4Zm0,4.86v3.94h3.94v-4ZM72.1,35.91v3.9H76V35.87Zm0,4.86V44.7H76v-4Zm0,4.86v3.94H76v-4Zm0,4.86v3.94H76v-4Zm0,4.86v3.94H76v-4Zm0,4.86v3.94H76v-4Zm0,4.86v3.88H76V65Zm0,4.86v3.94H76v-4Zm0,4.86v3.94H76v-4Zm0,4.86v3.94H76v-4Zm0,4.86v3.94H76v-4Zm0,4.86V93.3H76v-4Zm0,4.86v3.94H76v-4ZM77,35.94v3.87H80.9V35.87Zm0,4.86v3.94H80.9v-4Zm0,4.86v3.94H80.9v-4Zm0,4.86v3.94H80.9v-4Zm0,4.86v3.94H80.9v-4Zm0,4.86v3.94H80.9v-4Zm0,4.86v3.85H80.9V65ZM77,70v3.94H80.9v-4Zm0,4.86v3.94H80.9v-4Zm0,4.86v3.94H80.9v-4Zm0,4.86v3.94H80.9v-4Zm0,4.86v3.94H80.9v-4Zm0,4.86v3.94H80.9v-4ZM81.82,36v3.84h3.94V35.87Zm0,4.86v3.94h3.94v-4Zm0,4.86v3.94h3.94v-4Zm0,4.86v3.94h3.94v-4Zm0,4.86v3.94h3.94V55.29Zm0,4.86V64.2h3.94V60.15Zm0,4.86v3.82h3.94V65Zm0,4.86v3.94h3.94V69.86Zm0,4.86v3.94h3.94V74.72Zm0,4.86v3.94h3.94V79.58Zm0,4.86V88.5h3.94V84.44Zm0,4.86v3.94h3.94V89.29Zm0,4.86v3.94h3.94V94.15ZM86.68,36v3.81h3.94V35.87Zm0,4.86V44.8h3.94V40.72Zm0,4.86v3.94h3.94V45.58Zm0,4.86v3.94h3.94V50.44Zm0,4.86v3.94h3.94V55.29Zm0,4.86v3.94h3.94V60.15Zm0,4.86v3.78h3.94V65Zm0,4.86V74h3.94v-4.1Zm0,4.86v3.94h3.94v-4.1Zm0,4.86v3.94h3.94v-4.1Zm0,4.86v3.94h3.94v-4.1Zm0,4.86V93.4h3.94V89.29Zm0,4.86v3.94h3.94V94.15ZM91.54,36v3.77h3.94V35.87Zm0,4.86v3.94h3.94V40.72Zm0,4.86v3.94h3.94V45.58Zm0,4.86v3.94h3.94V50.44Zm0,4.86v3.94h3.94V55.29Zm0,4.86v3.94h3.94V60.15Zm0,4.86v3.75h3.94V65Zm0,4.86V74h3.94V69.86Zm0,4.86v3.94h3.94V74.72Zm0,4.86v3.94h3.94V79.58Zm0,4.86v3.94h3.94V84.44Zm0,4.86v3.94h3.94V89.29Zm0,4.86v3.94h3.94V94.15Z"/><polygon class="cls-3" points="95.68 112.46 100.91 112.46 98.27 117.06 95.68 112.46"/><rect class="cls-3" x="9.68" y="36" width="17.69" height="58.06" rx="2.14" ry="2.14"/><path class="cls-6" d="M12.93,39.6a.65.65,0,1,1,0-1.29h2.15a.65.65,0,1,1,0,1.29Zm9,0a.65.65,0,1,1,0-1.29h2.15a.65.65,0,1,1,0,1.29Zm-4.53,0a.65.65,0,1,1,0-1.29H19.6a.65.65,0,1,1,0,1.29Z"/><rect class="cls-6" x="16.62" y="70.59" width="7.71" height="7.71"/><rect class="cls-7" x="12.77" y="66.73" width="7.71" height="7.71"/><path class="cls-6" d="M12.72,82.17H24.39V89.6H12.72Zm5.84,1.65A2.15,2.15,0,1,0,20.71,86,2.15,2.15,0,0,0,18.56,83.81Z"/><path class="cls-6" d="M17.14,52.16a.38.38,0,1,1-.54.54l-4.95-4.95a.38.38,0,1,1,.54-.54h0Z"/><rect class="cls-6" x="20.08" y="55.94" width="5.11" height="5.11"/><circle class="cls-6" cx="14.4" cy="58.49" r="2.46"/><path class="cls-6" d="M21.19,52.55a.38.38,0,0,1-.71-.26l1.81-4.95a.38.38,0,1,1,.71.26Z"/><path class="cls-6" d="M24.8,52.3a.38.38,0,0,1-.71.26l-1.81-4.95a.38.38,0,0,1,.71-.26Z"/><path class="cls-6" d="M21.28,51.55a.38.38,0,1,1,0-.76H24a.38.38,0,1,1,0,.76Z"/><path class="cls-8" d="M139.76,4.07a2.32,2.32,0,1,1-2.32,2.32,2.32,2.32,0,0,1,2.32-2.32Zm-13.7,1.08a1.27,1.27,0,1,1-1.27,1.27,1.27,1.27,0,0,1,1.27-1.27Zm6.31-.58a1.8,1.8,0,1,1-1.76,1.84,1.8,1.8,0,0,1,1.76-1.84Z"/><path class="cls-7" d="M14.62,26.24a5.59,5.59,0,0,0,5.94-5.94,5.59,5.59,0,0,0,5.94,5.94,5.59,5.59,0,0,0-5.95,6,5.59,5.59,0,0,0-5.92-6Z"/><polygon class="cls-6" points="139.53 81.6 142.5 84.89 140.37 86.8 137.4 83.5 135.7 86.54 133.28 76.78 142.73 80.22 139.53 81.6"/><path class="cls-8" d="M0,105.79c5.38,0,8.9-3.55,8.9-8.9,0,5.38,3.55,8.9,8.9,8.9-5.38,0-8.9,3.55-8.9,8.9C8.9,109.34,5.35,105.79,0,105.79Z"/><path class="cls-3" d="M120.42,140h54.92a2.15,2.15,0,0,0,2.15-2.15V120.37h-49.1v-4.09h-10.1v21.59A2.15,2.15,0,0,0,120.42,140Z"/><path class="cls-1" d="M177.47,120.74V103.63a2.15,2.15,0,0,0-2.15-2.15h-54.9a2.15,2.15,0,0,0-2.15,2.15v17.12h1.47a3.57,3.57,0,1,1,7.14,0h50.59Z"/><path class="cls-2" d="M173,120.74V106.92a1,1,0,0,0-1-1H129.37a1,1,0,0,0-1,1v27.66a1,1,0,0,0,1,1h42.69a1,1,0,0,0,1-1Z"/><path class="cls-2" d="M122.87,128.59h.92a.65.65,0,0,0,.65-.65h0V127a.65.65,0,0,0-.65-.65h-.92a.65.65,0,0,0-.65.65h0V128a.65.65,0,0,0,.65.65h0Zm0-13.46h.92a.65.65,0,0,0,.65-.65v-.94a.65.65,0,0,0-.65-.65h-.92a.65.65,0,0,0-.65.65v.95a.65.65,0,0,0,.65.65Zm0-3.48h.92a.65.65,0,0,0,.65-.65v-.94a.65.65,0,0,0-.65-.65h-.92a.65.65,0,0,0-.65.65V111a.65.65,0,0,0,.65.65Zm0-3.48h.92a.65.65,0,0,0,.65-.65v-.94a.65.65,0,0,0-.65-.65h-.92a.65.65,0,0,0-.65.65v.88a.65.65,0,0,0,.65.65Zm0,27.41h.92a.65.65,0,0,0,.65-.65h0V134a.65.65,0,0,0-.65-.65h-.92a.65.65,0,0,0-.65.65h0v.94a.65.65,0,0,0,.65.65Zm0-3.48h.92a.65.65,0,0,0,.65-.65h0v-.94a.65.65,0,0,0-.65-.65h-.92a.65.65,0,0,0-.65.65h0v.95a.65.65,0,0,0,.65.62Z"/><circle class="cls-2" cx="123.34" cy="120.74" r="2.51"/><path class="cls-3" d="M142.75,123.72a.39.39,0,0,1,.32.7,4.35,4.35,0,0,1-5-.54,4.72,4.72,0,0,1-1.47-3.16,6.75,6.75,0,0,1-1.44-1.34c-2-2.48-2.15-5-1.33-6.92a5.81,5.81,0,0,1,1.53-2.05,5.87,5.87,0,0,1,2.25-1.2,6,6,0,0,1,6.19,2,3.7,3.7,0,0,1,1,1.82,2.29,2.29,0,0,1-.41,1.76,2.44,2.44,0,0,1-.75.68h0a2.71,2.71,0,0,1-1.53.37,3.23,3.23,0,0,1-1.69-.61,4.76,4.76,0,0,1-1.31-1.48.39.39,0,0,1,.67-.39,4,4,0,0,0,1.08,1.25,2.44,2.44,0,0,0,1.28.47,1.94,1.94,0,0,0,1.08-.26h0a1.66,1.66,0,0,0,.51-.46,1.55,1.55,0,0,0,.27-1.19,3,3,0,0,0-.77-1.43,5.28,5.28,0,0,0-5.38-1.8,5.11,5.11,0,0,0-1.95,1.08,5,5,0,0,0-1.32,1.78c-.74,1.69-.57,3.9,1.23,6.13a6.2,6.2,0,0,0,.89.9,3.28,3.28,0,0,1,2.57-2.72,2.6,2.6,0,0,1,2.71.78,2.29,2.29,0,0,1,.45.89h0a2,2,0,0,1,0,1,2.53,2.53,0,0,1-2.15,1.76,4.46,4.46,0,0,1-2.73-.26h-.12a4,4,0,0,0,.17.63,3.86,3.86,0,0,0,1,1.48,3.62,3.62,0,0,0,4.18.41Zm-5.38-3.61v.18a4.52,4.52,0,0,0,.48.24,3.71,3.71,0,0,0,2.27.23,1.8,1.8,0,0,0,1.53-1.19,1.29,1.29,0,0,0,0-.62h0a1.52,1.52,0,0,0-.3-.58,1.84,1.84,0,0,0-1.94-.54,2.56,2.56,0,0,0-2.06,2.29Z"/><path class="cls-1" d="M144.33,121.3l1.2,1L144.1,124a.78.78,0,0,1-1.08.11h0a.78.78,0,0,1-.11-1.08Z"/><path class="cls-3" d="M170.17,94.08l-3-2.48,2.15-2.72a2,2,0,1,1,3.08,2.46h0Z"/><polygon class="cls-3" points="144.55 117.57 144.87 117.64 149.03 121.03 149.15 121.34 145.18 123.06 144.42 122.42 143.66 121.8 144.55 117.57"/><path class="cls-3" d="M171.56,91.42l-2.1-1.71a1.62,1.62,0,0,0-2.28.23L144.6,117.57l4.6,3.77,22.58-27.63a1.62,1.62,0,0,0-.22-2.29Z"/><path class="cls-1" d="M169.57,90.66l-.54-.44a1,1,0,0,0-1.35.14l-22.21,27.12,1.28,1.08Z"/><rect class="cls-2" x="146.66" y="116.08" width="1.03" height="5.96" transform="translate(-38.18 157.51) rotate(-50.69)"/><rect class="cls-2" x="148.01" y="114.43" width="1.03" height="5.96" transform="translate(-36.41 157.95) rotate(-50.69)"/><rect class="cls-6" x="15.28" y="121.96" width="50.39" height="16.46" rx="3.35" ry="3.35"/><circle class="cls-3" cx="58.06" cy="130.18" r="2.96"/><rect class="cls-9" x="20.31" y="124.26" width="7.41" height="11.84"/><rect class="cls-10" x="31.64" y="124.26" width="7.41" height="11.84"/><rect class="cls-7" x="42.98" y="124.26" width="7.41" height="11.84"/><path class="cls-11" d="M15.28,129.37v-4.05A3.37,3.37,0,0,1,18.63,122H62.32a3.37,3.37,0,0,1,3.35,3.35v9.74a3.31,3.31,0,0,1-3.27,3.35h-.09L53.06,138,17.21,130.3A5.06,5.06,0,0,1,15.28,129.37Z"/><circle class="cls-11" cx="58.06" cy="130.18" r="2.96"/><circle class="cls-3" cx="58.06" cy="130.18" r="2.96"/><path class="cls-6" d="M15.48,123.82,18,114.41A3.37,3.37,0,0,1,22.13,112l42.19,11.3a3.37,3.37,0,0,1,2.38,4.12l-2.53,9.41A3.37,3.37,0,0,1,60,139.24l-42.2-11.34A3.37,3.37,0,0,1,15.48,123.82Z"/><circle class="cls-3" cx="58.06" cy="130.18" r="2.96" transform="translate(-82.72 152.57) rotate(-75)"/><rect class="cls-12" x="19.8" y="117.71" width="11.89" height="7.44" transform="translate(-98.2 114.86) rotate(-75)"/><rect class="cls-13" x="30.2" y="120.61" width="11.84" height="7.41" transform="translate(-93.31 127.03) rotate(-75)"/><rect class="cls-14" x="41.15" y="123.54" width="11.84" height="7.41" transform="translate(-88.02 139.78) rotate(-75)"/><path class="cls-11" d="M37.64,116.2l26.66,7.14a3.37,3.37,0,0,1,2.38,4.12l-2.27,8.45L59,139l-6-1Z"/><path class="cls-6" d="M32.45,95.57l8.44-4.87a3.37,3.37,0,0,1,4.59,1.23l21.84,37.83a3.37,3.37,0,0,1-1.21,4.59l-8.44,4.87A3.37,3.37,0,0,1,53.07,138L31.22,100.16A3.37,3.37,0,0,1,32.45,95.57Z"/><circle class="cls-3" cx="58.06" cy="130.19" r="2.96" transform="translate(-57.32 46.47) rotate(-30)"/><rect class="cls-4" x="35.11" y="96.99" width="11.84" height="7.41" transform="translate(-44.85 34.01) rotate(-30)"/><rect class="cls-15" x="40.79" y="106.81" width="11.84" height="7.41" transform="translate(-49 38.16) rotate(-30)"/><rect class="cls-8" x="46.45" y="116.63" width="11.84" height="7.41" transform="translate(-53.15 42.31) rotate(-30)"/><polygon class="cls-14" points="12.85 16.31 12.85 17.22 22.44 11.71 12.85 16.31"/><polygon class="cls-3" points="120.87 15.72 123.64 16.93 123.63 14.52 120.87 15.72"/><path class="cls-16" d="M123.64,14.52v2.42l-2.76-1.21,2.75-1.2Zm5.38-.33a2,2,0,0,1-1.08-1.58l-7.13,3.12,7.14-6.84c.07-.66.48,8.76,1.08,8.46a1.73,1.73,0,0,1,0-3.16Z"/><path class="cls-14" d="M128,12.59a2,2,0,0,0,1.08,1.58h55.65V12.59Z"/><path class="cls-13" d="M184.69,14.18H129a1.73,1.73,0,0,0,0,3.16h55.65Z"/><path class="cls-12" d="M184.69,17.34H129c-.6.3-1-9.12-1.08-8.46h56.67Z"/><path class="cls-6" d="M49.22,53.81H48.9a5.64,5.64,0,0,0-4,1.66h0a5.67,5.67,0,0,0,0,8h0a5.64,5.64,0,0,0,4,1.68H61a5.1,5.1,0,0,0,4-8.32h0A5.1,5.1,0,0,0,62.12,55,.65.65,0,0,1,61.78,54a2.48,2.48,0,0,0,.77-1.81,2.56,2.56,0,0,0-.09-.68,2.53,2.53,0,0,0-3.09-1.75.65.65,0,0,1-.81-.32A4.59,4.59,0,0,0,50.17,53a.65.65,0,0,1-.68.86h-.27Zm-.42-1.3a5.71,5.71,0,0,1-.06-.86,5.87,5.87,0,0,1,10.75-3.29,3.72,3.72,0,0,1,.54,0,3.8,3.8,0,0,1,3.23,5.72A6.45,6.45,0,0,1,66,56h0a6.39,6.39,0,0,1-.43,8.6h0A6.37,6.37,0,0,1,61,66.5H48.9a6.92,6.92,0,0,1-4.91-2h0a7,7,0,0,1,0-9.78h0A6.92,6.92,0,0,1,48.8,52.51Z"/><path class="cls-6" d="M88.1,63a11.22,11.22,0,0,1,1.26.08,9.2,9.2,0,0,1,16.81-7.23,5.55,5.55,0,0,1,5.38,9.35,10.12,10.12,0,0,1-2,20H88.1A11.11,11.11,0,0,1,88.1,63Z"/><path class="cls-17" d="M123.92,14.6h56.4A4.67,4.67,0,0,1,185,19.28v0h0A4.67,4.67,0,0,1,180.32,24h-56.4Zm55.38,4.7a1.55,1.55,0,1,0,1.55-1.55,1.55,1.55,0,0,0-1.55,1.55Z"/><path class="cls-3" d="M169.18,23.91V20.76h1.13v3.15Zm3.85,0v-5h1.13v5Zm-46.17,0v-5H128v5Zm15.39,0v-5h1.13v5Zm15.39,0v-5h1.13v5Zm-26.88,0V20.76h1.13v3.15Zm3.85,0V20.76h1.13v3.15Zm3.85,0V20.76h1.13v3.15Zm7.7,0V20.76h1.13v3.15Zm3.85,0V20.76h1v3.15Zm3.85,0V20.76H155v3.15Zm7.7,0V20.76h1.13v3.15Zm3.85,0V20.76h1.13v3.15Z"/><rect class="cls-3" x="168.92" y="48.24" width="28.56" height="33.52" rx="1.25" ry="1.25"/><path class="cls-1" d="M168.92,53.89V49.47a1.23,1.23,0,0,1,1.23-1.23h26.11a1.23,1.23,0,0,1,1.23,1.23v4.42Z"/><rect class="cls-4" x="171.29" y="73.04" width="6.78" height="6.78"/><polygon class="cls-6" points="171.29 73.04 174.04 73.04 171.29 75.79 171.29 73.04"/><rect class="cls-15" x="179.82" y="73.04" width="6.78" height="6.78"/><polygon class="cls-6" points="179.81 73.04 182.57 73.04 179.81 75.79 179.81 73.04"/><rect class="cls-2" x="188.33" y="73.04" width="6.78" height="6.78"/><polygon class="cls-6" points="188.33 73.04 191.08 73.04 188.33 75.79 188.33 73.04"/><rect class="cls-12" x="171.29" y="64.52" width="6.78" height="6.78"/><polygon class="cls-6" points="171.29 64.52 174.04 64.52 171.29 67.27 171.29 64.52"/><rect class="cls-13" x="179.82" y="64.52" width="6.78" height="6.78"/><polygon class="cls-6" points="179.81 64.52 182.57 64.52 179.81 67.27 179.81 64.52"/><rect class="cls-14" x="188.33" y="64.52" width="6.78" height="6.78"/><polygon class="cls-6" points="188.33 64.52 191.08 64.52 188.33 67.27 188.33 64.52"/><rect class="cls-9" x="171.29" y="56" width="6.78" height="6.78"/><polygon class="cls-6" points="171.29 55.99 174.04 55.99 171.29 58.75 171.29 55.99"/><rect class="cls-10" x="179.82" y="56" width="6.78" height="6.78"/><polygon class="cls-6" points="179.81 55.99 182.57 55.99 179.81 58.75 179.81 55.99"/><rect class="cls-7" x="188.33" y="56" width="6.78" height="6.78"/><polygon class="cls-6" points="188.33 55.99 191.08 55.99 188.33 58.75 188.33 55.99"/><path class="cls-6" d="M194.38,49.91a1.27,1.27,0,1,1-1.27,1.27h0A1.27,1.27,0,0,1,194.38,49.91Zm-6.76,0a1.27,1.27,0,1,1-1.27,1.27h0a1.27,1.27,0,0,1,1.25-1.27Zm3.39,0a1.27,1.27,0,1,1-1.26,1.28h0A1.27,1.27,0,0,1,191,49.91Z"/><polygon class="cls-6" points="144.39 43.22 146.51 49.78 153.41 49.77 147.82 53.81 149.96 60.37 144.39 56.31 138.82 60.37 140.97 53.81 135.38 49.77 142.27 49.78 144.39 43.22"/><polygon class="cls-8" points="186.77 86.29 188.56 91.82 194.35 91.81 189.65 95.21 191.46 100.72 186.77 97.3 182.08 100.72 183.89 95.21 179.19 91.81 185 91.82 186.77 86.29"/><path class="cls-3" d="M69.08,90.53h6.86v6.86H69.08Zm0-51.61h6.86v6.86H69.08V38.92Zm51.61,0h6.86v6.86h-6.86V38.92Zm0,51.61h6.86v6.86h-6.86Z"/><path class="cls-6" d="M71.87,87.95h1.29v2.58H71.87Zm6.66-46.23V43H75.94V41.72Zm42.12,0V43h-2.58V41.72Zm-4.21,0V43h-2.58V41.72Zm-4.21,0V43h-2.58V41.72Zm-4.21,0V43h-2.58V41.72Zm-4.21,0V43H101.2V41.72Zm-4.21,0V43H97V41.72Zm-4.21,0V43H92.77V41.72Zm-4.21,0V43H88.57V41.72Zm-4.21,0V43H84.38V41.72Zm-4.21,0V43H80.12V41.72Zm40.69,46.23h1.29v2.58h-1.29Zm0-42.12h1.29v2.58h-1.29Zm0,4.21h1.29v2.58h-1.29Zm0,4.21h1.29v2.58h-1.29Zm0,4.21h1.29v2.58h-1.29Zm0,4.21h1.29v2.58h-1.29Zm0,4.21h1.29v2.58h-1.29Zm0,4.21h1.29V73.7h-1.29Zm0,4.21h1.29v2.58h-1.29V75.34Zm0,4.21h1.29v2.58h-1.29V79.55Zm0,4.21h1.29v2.58h-1.29ZM78.52,93.32v1.25H75.94V93.27Zm42.12,0v1.25h-2.58V93.27Zm-4.21,0v1.25h-2.58V93.27Zm-4.21,0v1.25h-2.58V93.27Zm-4.21,0v1.25h-2.58V93.27Zm-4.21,0v1.25H101.2V93.27Zm-4.21,0v1.25H97V93.27Zm-4.21,0v1.25H92.77V93.27Zm-4.21,0v1.25H88.57V93.27Zm-4.21,0v1.25H84.38V93.27Zm-4.21,0v1.25H80.12V93.27ZM71.87,45.83h1.29v2.58H71.87Zm0,4.21h1.29v2.58H71.87Zm0,4.21h1.29v2.58H71.87Zm0,4.21h1.29v2.58H71.87Zm0,4.21h1.29v2.58H71.87Zm0,4.21h1.29v2.58H71.87Zm0,4.21h1.29V73.7H71.87Zm0,4.21h1.29v2.58H71.87V75.34Zm0,4.21h1.29v2.58H71.87V79.55Zm0,4.21h1.29v2.58H71.87Z"/><path class="cls-2" d="M56.2,25H34a4.48,4.48,0,0,1-4.48-4.47V11.6a4.48,4.48,0,0,1,4.3-4.46H58.68A4.48,4.48,0,0,1,63,11.6v8.92A4.48,4.48,0,0,1,58.49,25H56.2Z"/><rect class="cls-6" x="41.81" y="8.17" width="8.87" height="3.35" rx="0.85" ry="0.85"/><path class="cls-1" d="M46.24,8.17h3.58a.86.86,0,0,1,.85.85v1.65a.86.86,0,0,1-.85.85H46.24Z"/><path class="cls-1" d="M36.83,7.34h2.32V5.19H37.2a.38.38,0,0,0-.38.38Z"/><path class="cls-3" d="M46.24,13.78c4.74,0,8.58-6.16,8.58-1.42a8.58,8.58,0,1,1-17.16,0C37.66,7.63,41.51,13.78,46.24,13.78Z"/><circle class="cls-4" cx="46.25" cy="12.37" r="5.53" transform="translate(4.8 36.33) rotate(-45)"/><path class="cls-6" d="M44.45,13.92a.62.62,0,1,1-.94.83h0a3.66,3.66,0,0,1,2.74-6.06.62.62,0,0,1,0,1.25,2.4,2.4,0,0,0-1.81,4Zm4.14-2.15A2.41,2.41,0,0,1,47,14.63a.62.62,0,1,0,.31,1.21l.08,0a3.64,3.64,0,0,0,2.4-4.3.63.63,0,1,0-1.23.26h0Z"/><path class="cls-3" d="M29.55,18.79h4.57a.87.87,0,0,1,.87.87h0a.87.87,0,0,1-.87.87H29.55Zm0-6.95h4.57a.87.87,0,0,1,.87.87h0a.87.87,0,0,1-.87.87H29.55V11.84Zm0,3.47h4.57a.87.87,0,0,1,.87.87h0a.87.87,0,0,1-.87.87H29.55Z"/><path class="cls-3" d="M41.05,7.34H38.9V5.19h1.74a.38.38,0,0,1,.38.38Z"/><path class="cls-3" d="M34.09,17a8.09,8.09,0,0,0,1.26-.1,7.05,7.05,0,0,0,2-.62,11.54,11.54,0,0,0,1.65-1c.77-.55,1.54-1.14,2.42-1.65a9.14,9.14,0,0,1,1.68-.75,9.93,9.93,0,0,1,3.16-.47h1.08a9.68,9.68,0,0,1,1.48.26c.25.06.48.14.71.22a9.34,9.34,0,0,1,1.55.71c1.08.61,2,1.34,2.95,2a8.17,8.17,0,0,0,3.11,1.29,8.09,8.09,0,0,0,1.26.1h4.55V11.61a4.43,4.43,0,0,0-.41-1.86,4.52,4.52,0,0,0-1.57-1.87,4.44,4.44,0,0,0-2-.72H34a4.44,4.44,0,0,0-2.47.75A4.52,4.52,0,0,0,30,9.76a4.43,4.43,0,0,0-.41,1.84V17Zm7.71-6.37V9a.86.86,0,0,1,.85-.85h7.16a.86.86,0,0,1,.85.85v1.65a.86.86,0,0,1-.85.85H42.66a.86.86,0,0,1-.85-.85Z"/><rect class="cls-6" x="70.54" y="3.3" width="43.86" height="19.58"/><rect class="cls-4" x="72.39" y="5.15" width="40.16" height="15.88"/><path class="cls-10" d="M78.92,17.3c2.34,0,4.24-8.1,4.24-5.76a4.24,4.24,0,0,1-8.47,0C74.68,9.2,76.58,17.3,78.92,17.3Z"/><polygon class="cls-3" points="100.39 21.03 72.39 21.03 85.44 12.05 100.39 21.03"/><polygon class="cls-3" points="112.55 21.03 89.94 21.03 100.49 15.71 112.55 21.03"/><polygon class="cls-2" points="67.55 8.39 75.59 0 78.14 2.47 70.12 10.85 67.55 8.39"/><polygon class="cls-2" points="106.78 23.54 114.81 15.15 117.38 17.62 109.35 26 106.78 23.54"/><polygon class="cls-14" points="177.63 31.67 178.94 35.73 183.2 35.72 179.75 38.22 181.07 42.27 177.63 39.76 174.19 42.27 175.51 38.22 172.07 35.72 176.33 35.73 177.63 31.67"/><polygon class="cls-14" points="182.04 113.33 182.04 120.79 188.58 117.02 182.04 113.33"/></g></g></svg>