<svg xmlns="http://www.w3.org/2000/svg" viewBox="0 0 120 120"><title>WachstumFlower</title><g id="Ebene_2" data-name="Ebene 2"><g id="Startseite"><g id="Section_-_Visuell_ansprechend_und_benutzerfreundlich" data-name="Section - Visuell ansprechend und benutzerfreundlich"><g id="WachstumFlower"><circle cx="60" cy="60" r="60" style="fill:#696969"/><g id="Graphics"><path d="M44.3,89.3a.4.4,0,0,1-.4.4h-27a.4.4,0,0,1-.4-.4v-36a.4.4,0,0,1,.4-.4h27a.4.4,0,0,1,.4.4Z" style="fill:#696969"/><rect x="19.2" y="54" width="22.4" height="32.64" style="fill:#fff"/><path d="M36.6,51.9H24.3a2.1,2.1,0,0,1,2.2-2.1h8A2.1,2.1,0,0,1,36.6,51.9Z" style="fill:#ebce3d"/><path d="M33.1,48.9a2.6,2.6,0,0,0-2.8-2.6,2.7,2.7,0,0,0-2.6,2.6v.9h5.4Z" style="fill:#c8deab"/><path d="M25.6,75.5H21.5V71.4h4.1Zm-3.7-.4h3.3V71.8H21.9Z" style="fill:#787e87"/><path d="M25.6,83.1H21.5V79h4.1Zm-3.7-.4h3.3V79.4H21.9Z" style="fill:#787e87"/><rect x="24.1" y="58.2" width="11.7" height="1.5" style="fill:#787e87"/><rect x="26.7" y="64.3" width="9.4" height="1.12" style="fill:#787e87"/><rect x="26.7" y="66.7" width="12" height="1.12" style="fill:#787e87"/><rect x="26.7" y="71.9" width="12" height="1.12" style="fill:#787e87"/><rect x="26.7" y="74.3" width="10.1" height="1.12" style="fill:#787e87"/><rect x="26.7" y="79.5" width="6.8" height="1.12" style="fill:#787e87"/><rect x="26.7" y="81.8" width="10.1" height="1.12" style="fill:#787e87"/><path d="M25.5,68H21.4V63.9h4.1Zm-3.7-.4h3.3V64.3H21.8Z" style="fill:#787e87"/><path d="M39,53.7a1.2,1.2,0,0,1-1.2,1.2H23.1a1.2,1.2,0,0,1-1.2-1.2V51.9H39Z" style="fill:#c8deab"/><ellipse cx="23.4" cy="66" rx="1.2" ry="1.2" style="fill:#616873"/><polygon points="94.4 59.8 88.7 59.8 88.7 54.1 88.8 54.1 94.4 59.8" style="fill:#fafbfb"/><path d="M94.4,59.8h0V89.3H68.7V54.1h20v5.7Z" style="fill:#fff"/><polygon points="94.4 60.9 89.8 61 88.7 59.8 94.4 59.8 94.4 60.9" style="fill:#cae0af"/><path d="M81.3,60.7a7,7,0,0,0-7,7.1,7.1,7.1,0,1,0,14.1,0H81.3Z" style="fill:#ebce3d"/><path d="M82.5,59.5h0v7.1h7.1A7.1,7.1,0,0,0,82.5,59.5Z" style="fill:#696969"/><rect x="73.7" y="77.8" width="9.8" height="1.37" style="fill:#7d828b"/><rect x="73.7" y="80.4" width="15.3" height="1.37" style="fill:#7d828b"/><rect x="73.7" y="82.8" width="12.8" height="1.37" style="fill:#7d828b"/><path d="M58.9,77A5.5,5.5,0,0,1,57,73.6c-.3-2.1.6-4.6,2.5-7.2l1.3-1.5c1-1.2,1.5-1.8,2.5-5.2s-1.4-6.9-3-9.4l-.2-.4c-2.4-4-1.8-13.2-1.8-13.6H60c0,.1-.6,9.1,1.5,12.6l.3.4c1.7,2.8,4.2,7,3.1,10.8S63.1,64.7,62,66l-1.1,1.4c-4.3,5.7-1.2,8.1-1,8.2Z" style="fill:#9dc56b"/><circle cx="59.4" cy="25.5" r="12.7" style="fill:#fff"/><path d="M55.2,21.4a2.9,2.9,0,0,0,2.9,2.9V18.5A2.9,2.9,0,0,0,55.2,21.4Z" style="fill:#ebce3d"/><path d="M59.4,9.2A16.3,16.3,0,1,0,75.6,25.5,16.3,16.3,0,0,0,59.4,9.2Zm1.7,15.1a5.1,5.1,0,0,1,3.4,1.3A4.8,4.8,0,0,1,65.9,29v.5a5.3,5.3,0,0,1-5.3,5.3h-.1v1.7H58.1V34.8h-.3a4.9,4.9,0,0,1-4.9-4.9h2.3a2.6,2.6,0,0,0,2.6,2.5h.3V26.6a4.8,4.8,0,0,1-3.7-1.5,5,5,0,0,1-1.5-3.7,5.2,5.2,0,0,1,5.2-5.2V14.4h2.4v1.8H61A4.8,4.8,0,0,1,65.9,21H63.6A2.6,2.6,0,0,0,61,18.5h-.5v5.8Z" style="fill:#ebce3d"/><path d="M60.5,32.4h.1a2.9,2.9,0,0,0,2.9-2.9V29a2.3,2.3,0,0,0-2.3-2.4h-.7Z" style="fill:#ebce3d"/><path d="M47.9,56.4a1.6,1.6,0,0,1,1.4-1.7H50c6,2.3,11.2,6.3,10.3,12.3l-.2.8a2,2,0,0,1-2,1.7h-1C51.1,69,48.5,62.9,47.9,56.4Z" style="fill:#9dc56b"/><path d="M75.5,51.1a1.4,1.4,0,0,0-1.2-1.5h-.6c-5.4,2-10.1,5.6-9.3,11v.7a1.8,1.8,0,0,0,1.8,1.5h.9C72.7,62.3,75,56.9,75.5,51.1Z" style="fill:#9dc56b"/><path d="M53.1,45.5a.8.8,0,0,1,.7-1h.3c3.6.8,6.8,2.6,6.8,6.1V51a1,1,0,0,1-1,1h-.5C55.9,52.3,54,49.1,53.1,45.5Z" style="fill:#9dc56b"/><path d="M48,73.6c-.2,0-.3.1-.3.2v6a12.4,12.4,0,0,0,3.4,8.4l4.3,4.3.3.2h7.7a.5.5,0,0,0,.4-.2L68,88.3A11.8,11.8,0,0,0,71.5,80V73.9c0-.2-.1-.2-.2-.2Z" style="fill:#162030"/><path d="M54,95.7a.9.9,0,0,0-.9-.8H40.8a1,1,0,0,0-.9.8v.2h0v.5c.1.5.4.9.9.9H53.1a.9.9,0,0,0,.9-.9v-.2h0Z" style="fill:#c4dca6"/><path d="M54,95.7a.9.9,0,0,0-.9-.8H40.8a1,1,0,0,0-.9.8v.2h0v.5c.1.5.4.9.9.9H53.1a.9.9,0,0,0,.9-.9v-.2h0Z" style="fill:#bfd99e"/><path d="M39.9,96.4h0a1,1,0,0,0,.9.8H53.1a.9.9,0,0,0,.9-.8H39.9Z" style="fill:#82b541"/><path d="M54,93.3a.9.9,0,0,0-.9-.8H40.8a1,1,0,0,0-.9.8v.2h0V94a.9.9,0,0,0,.9.9H53.1A.9.9,0,0,0,54,94h0v-.2h0Z" style="fill:#c4dca6"/><path d="M54,93.3a.9.9,0,0,0-.9-.8H40.8a1,1,0,0,0-.9.8v.2h0V94a.9.9,0,0,0,.9.9H53.1A.9.9,0,0,0,54,94h0v-.2h0Z" style="fill:#bfd99e"/><path d="M39.9,94h0a.9.9,0,0,0,.9.9H53.1a.9.9,0,0,0,.9-.8H39.9Z" style="fill:#82b541"/><path d="M54,90.9a.9.9,0,0,0-.9-.8H40.8a1,1,0,0,0-.9.8v.2h0v.5a.9.9,0,0,0,.9.9H53.1a.9.9,0,0,0,.9-.9v-.2h0Z" style="fill:#c4dca6"/><path d="M54,90.9a.9.9,0,0,0-.9-.8H40.8a1,1,0,0,0-.9.8v.2h0v.5a.9.9,0,0,0,.9.9H53.1a.9.9,0,0,0,.9-.9v-.2h0Z" style="fill:#bfd99e"/><path d="M39.9,91.6h0a.9.9,0,0,0,.9.9H53.1a.9.9,0,0,0,.9-.9H39.9Z" style="fill:#82b541"/><path d="M54,88.7a.9.9,0,0,0-.9-.9H40.8c-.5,0-.8.4-.9.9v.2h0v.5a.9.9,0,0,0,.9.9H53.1a.9.9,0,0,0,.9-.9h0v-.2h0Z" style="fill:#c4dca6"/><path d="M54,88.7a.9.9,0,0,0-.9-.9H40.8c-.5,0-.8.4-.9.9v.2h0v.5a.9.9,0,0,0,.9.9H53.1a.9.9,0,0,0,.9-.9h0v-.2h0Z" style="fill:#bfd99e"/><path d="M39.9,89.4h0a.9.9,0,0,0,.9.9H53.1a.9.9,0,0,0,.9-.9H39.9Z" style="fill:#82b541"/><path d="M50.5,86.3a.9.9,0,0,0-.9-.9H37.3a.9.9,0,0,0-.9.9v.2h0V87a.9.9,0,0,0,.9.8H49.6a.9.9,0,0,0,.9-.8h0v-.2h0Z" style="fill:#c4dca6"/><path d="M50.5,86.3a.9.9,0,0,0-.9-.9H37.3a.9.9,0,0,0-.9.9v.2h0V87a.9.9,0,0,0,.9.8H49.6a.9.9,0,0,0,.9-.8h0v-.2h0Z" style="fill:#bfd99e"/><path d="M36.4,86.9h0a.9.9,0,0,0,.9.8H49.6a.9.9,0,0,0,.9-.8H36.4Z" style="fill:#82b541"/><path d="M50.5,84a.9.9,0,0,0-.9-.8H37.3a.9.9,0,0,0-.9.8v.2h0v.6a.9.9,0,0,0,.9.8H49.6a.9.9,0,0,0,.9-.8v-.3h0Z" style="fill:#c4dca6"/><path d="M50.5,84a.9.9,0,0,0-.9-.8H37.3a.9.9,0,0,0-.9.8v.2h0v.6a.9.9,0,0,0,.9.8H49.6a.9.9,0,0,0,.9-.8v-.3h0Z" style="fill:#bfd99e"/><path d="M36.4,84.7h0a.9.9,0,0,0,.9.9H49.6a.9.9,0,0,0,.9-.9H36.4Z" style="fill:#82b541"/><path d="M53.2,81.6a.9.9,0,0,0-.9-.9H40a.9.9,0,0,0-.9.9v.2h0v.5a.9.9,0,0,0,.9.9H52.3a.9.9,0,0,0,.9-.9v-.2h0Z" style="fill:#c4dca6"/><path d="M53.2,81.6a.9.9,0,0,0-.9-.9H40a.9.9,0,0,0-.9.9v.2h0v.5a.9.9,0,0,0,.9.9H52.3a.9.9,0,0,0,.9-.9v-.2h0Z" style="fill:#bfd99e"/><path d="M39.1,82.3h0a.9.9,0,0,0,.9.9H52.3a.9.9,0,0,0,.9-.9H39.1Z" style="fill:#82b541"/><path d="M53.2,79.2a.9.9,0,0,0-.9-.9H40a.9.9,0,0,0-.9.9v.2h0v.5a.8.8,0,0,0,.9.8H52.3a.8.8,0,0,0,.9-.8h0v-.2h0Z" style="fill:#c4dca6"/><path d="M53.2,79.2a.9.9,0,0,0-.9-.9H40a.9.9,0,0,0-.9.9v.2h0v.5a.8.8,0,0,0,.9.8H52.3a.8.8,0,0,0,.9-.8h0v-.2h0Z" style="fill:#bfd99e"/><path d="M39.1,79.9h0a.8.8,0,0,0,.9.8H52.3a.8.8,0,0,0,.9-.8H39.1Z" style="fill:#82b541"/><rect x="84.9" y="77.3" width="16.7" height="23.09" rx="1.3" ry="1.3" style="fill:#696969"/><path d="M89.6,89.1a.7.7,0,0,1-.7.7H87.4a.7.7,0,0,1-.7-.7V87.6a.7.7,0,0,1,.7-.7h1.5a.7.7,0,0,1,.7.7Z" style="fill:#162030"/><path d="M94.7,89.1a.7.7,0,0,1-.7.7H92.5a.7.7,0,0,1-.7-.7V87.6a.7.7,0,0,1,.7-.7H94a.7.7,0,0,1,.7.7Z" style="fill:#162030"/><path d="M99.8,89.1a.7.7,0,0,1-.7.7H97.6a.7.7,0,0,1-.7-.7V87.6a.7.7,0,0,1,.7-.7h1.5a.7.7,0,0,1,.7.7Z" style="fill:#162030"/><path d="M89.6,93.3a.7.7,0,0,1-.7.7H87.4a.7.7,0,0,1-.7-.7V91.8a.7.7,0,0,1,.7-.7h1.5a.7.7,0,0,1,.7.7Z" style="fill:#162030"/><path d="M94.7,93.3a.7.7,0,0,1-.7.7H92.5a.7.7,0,0,1-.7-.7V91.8a.7.7,0,0,1,.7-.7H94a.7.7,0,0,1,.7.7Z" style="fill:#162030"/><path d="M99.8,93.3a.7.7,0,0,1-.7.7H97.6a.7.7,0,0,1-.7-.7V91.8a.7.7,0,0,1,.7-.7h1.5a.7.7,0,0,1,.7.7Z" style="fill:#162030"/><path d="M89.6,97.7a.8.8,0,0,1-.7.8H87.4a.8.8,0,0,1-.7-.8V96.2a.7.7,0,0,1,.7-.7h1.5a.7.7,0,0,1,.7.7Z" style="fill:#162030"/><path d="M99.6,97.7a.8.8,0,0,1-.7.8H92.3a1,1,0,0,1-.7-.8V96.2a.8.8,0,0,1,.7-.7h6.6a.7.7,0,0,1,.7.7h0Z" style="fill:#162030"/><rect x="86.6" y="79.7" width="13.4" height="4.87" style="fill:#f3f4f5"/><path d="M89.6,88.4a.7.7,0,0,1-.7.7H87.4a.7.7,0,0,1-.7-.7V86.9a.7.7,0,0,1,.7-.7h1.5a.7.7,0,0,1,.7.7Z" style="fill:#c9cccf"/><path d="M94.7,88.4a.7.7,0,0,1-.7.7H92.5a.7.7,0,0,1-.7-.7V86.9a.7.7,0,0,1,.7-.7H94a.7.7,0,0,1,.7.7Z" style="fill:#c9cccf"/><path d="M99.8,88.4a.7.7,0,0,1-.7.7H97.6a.7.7,0,0,1-.7-.7V86.9a.7.7,0,0,1,.7-.7h1.5a.7.7,0,0,1,.7.7Z" style="fill:#c9cccf"/><path d="M89.6,92.6a.7.7,0,0,1-.7.7H87.4a.7.7,0,0,1-.7-.7V91.1a.8.8,0,0,1,.7-.8h1.5a.8.8,0,0,1,.7.8Z" style="fill:#c9cccf"/><path d="M94.7,92.6a.7.7,0,0,1-.7.7H92.5a.7.7,0,0,1-.7-.7V91.1a.8.8,0,0,1,.7-.8H94a.8.8,0,0,1,.7.8Z" style="fill:#c9cccf"/><path d="M99.8,92.6a.7.7,0,0,1-.7.7H97.6a.7.7,0,0,1-.7-.7V91.1a.8.8,0,0,1,.7-.8h1.5a.8.8,0,0,1,.7.8Z" style="fill:#c9cccf"/><path d="M89.6,97a.7.7,0,0,1-.7.7H87.4a.7.7,0,0,1-.7-.7V95.5a.7.7,0,0,1,.7-.7h1.5a.7.7,0,0,1,.7.7Z" style="fill:#c9cccf"/><path d="M99.6,97a.7.7,0,0,1-.7.7H92.3a.8.8,0,0,1-.7-.7V95.5a.8.8,0,0,1,.7-.7h6.6a.7.7,0,0,1,.7.7Z" style="fill:#c9cccf"/></g></g></g></g></g></svg>