<svg xmlns="http://www.w3.org/2000/svg" viewBox="0 0 150 150"><defs><style>.cls-1{fill:#467cc0;}.cls-2{fill:#3598db;}.cls-3{fill:#fff;}.cls-4{fill:#ffb21a;}.cls-5{fill:#fccc75;}.cls-6{fill:#8e8e8e;}.cls-7{fill:#e84c3d;}.cls-8{fill:#fffbf3;}.cls-9{fill:#d0d4d7;}.cls-10{fill:#919191;}.cls-11{fill:#99c65d;}.cls-12{fill:#2d3e50;}.cls-13{fill:#f3d541;}.cls-14{fill:#ffc35a;}.cls-15{fill:#d38f18;}.cls-16{fill:#f5f5f5;}.cls-17{fill:#d1d1d1;}</style></defs><title>WachstumFlower</title><g id="Ebene_2" data-name="Ebene 2"><g id="Section_-_Visuell_ansprechend_und_benutzerfreundlich" data-name="Section - Visuell ansprechend und benutzerfreundlich"><circle class="cls-1" cx="75" cy="75" r="75"/><g id="Graphics"><path class="cls-2" d="M55.38,111.65a.5.5,0,0,1-.5.5H21.13a.5.5,0,0,1-.5-.5v-45a.5.5,0,0,1,.5-.5H54.88a.5.5,0,0,1,.5.5Z"/><rect class="cls-3" x="24" y="67.52" width="28.03" height="40.79"/><path class="cls-4" d="M45.79,64.86H30.39a2.68,2.68,0,0,1,2.69-2.66h10A2.68,2.68,0,0,1,45.79,64.86Z"/><path class="cls-5" d="M41.42,61.15a3.41,3.41,0,0,0-6.81,0v1h6.81Z"/><path class="cls-6" d="M32,94.39H26.83V89.28H32Zm-4.67-.5h4.17V89.77H27.34Z"/><path class="cls-6" d="M32,103.88H26.83V98.76H32Zm-4.67-.5h4.17V99.26H27.34Z"/><rect class="cls-6" x="30.18" y="72.73" width="14.65" height="1.87"/><rect class="cls-6" x="33.34" y="80.33" width="11.77" height="1.4"/><rect class="cls-6" x="33.34" y="83.33" width="15.02" height="1.4"/><rect class="cls-6" x="33.34" y="89.82" width="15.06" height="1.4"/><rect class="cls-6" x="33.34" y="92.82" width="12.62" height="1.4"/><rect class="cls-6" x="33.34" y="99.31" width="8.5" height="1.4"/><rect class="cls-6" x="33.34" y="102.31" width="12.62" height="1.4"/><path class="cls-6" d="M31.88,85H26.7V79.88h5.18Zm-4.67-.5h4.17v-4.1H27.21Z"/><path class="cls-5" d="M48.73,67.17a1.51,1.51,0,0,1-1.51,1.5H28.88a1.51,1.51,0,0,1-1.51-1.5V64.84H48.73Z"/><ellipse class="cls-7" cx="29.3" cy="82.48" rx="1.56" ry="1.54"/><polygon class="cls-8" points="117.95 74.8 110.86 74.8 110.86 67.62 110.94 67.62 117.95 74.8"/><path class="cls-3" d="M117.94,74.8h0v36.85H85.88v-44h25v7.19Z"/><polygon class="cls-9" points="117.95 76.17 112.31 76.2 110.87 74.8 117.95 74.8 117.95 76.17"/><path class="cls-4" d="M101.61,75.9a8.84,8.84,0,1,0,8.91,8.84h-8.91Z"/><path class="cls-2" d="M103.11,74.43h0v8.84H112A8.87,8.87,0,0,0,103.11,74.43Z"/><rect class="cls-10" x="92.18" y="97.28" width="12.23" height="1.71"/><rect class="cls-10" x="92.09" y="100.45" width="19.07" height="1.71"/><rect class="cls-10" x="92.18" y="103.53" width="15.99" height="1.71"/><path class="cls-11" d="M73.61,96.25A6.56,6.56,0,0,1,71.31,92c-.4-2.71.65-5.76,3.12-9.06.59-.79,1.11-1.36,1.51-1.86,1.24-1.44,1.92-2.21,3.17-6.48,1.14-3.9-1.77-8.63-3.69-11.76l-.35-.55c-3-4.91-2.18-16.51-2.14-17l2.07.15c0,.11-.81,11.42,1.85,15.76l.35.55c2.12,3.44,5.32,8.65,3.92,13.44s-2.21,5.64-3.59,7.25c-.41.48-.88,1-1.43,1.75-5.31,7.09-1.41,10.2-1.25,10.33Z"/><circle class="cls-3" cx="74.23" cy="31.83" r="15.87"/><path class="cls-4" d="M69,26.78a3.62,3.62,0,0,0,3.63,3.6V23.13A3.66,3.66,0,0,0,69,26.78Z"/><path class="cls-4" d="M74.23,11.49A20.33,20.33,0,1,0,94.56,31.83,20.33,20.33,0,0,0,74.23,11.49Zm2.21,18.85A6,6,0,0,1,80.64,32a5.84,5.84,0,0,1,1.73,4.18v.66a6.6,6.6,0,0,1-6.59,6.59h-.21v2.21H72.64V43.47h-.44a6.12,6.12,0,0,1-6.12-6.12v0H69a3.21,3.21,0,0,0,3.19,3.2h.44V33.31A6.44,6.44,0,0,1,68,31.42a6.51,6.51,0,0,1-1.93-4.64,6.59,6.59,0,0,1,6.56-6.59V18h2.92v2.21h.68a6.12,6.12,0,0,1,6.12,6.12H79.44a3.21,3.21,0,0,0-3.2-3.19h-.68v7.24Z"/><path class="cls-4" d="M75.56,40.54h.21a3.67,3.67,0,0,0,3.66-3.67v-.66a3,3,0,0,0-3-2.93h-.91Z"/><path class="cls-11" d="M59.91,70.48a1.9,1.9,0,0,1,2.54-2c7.58,2.8,14.09,7.84,12.89,15.42l-.18,1A2.48,2.48,0,0,1,72.68,87H71.42C63.84,86.21,60.68,78.58,59.91,70.48Z"/><path class="cls-11" d="M94.39,63.91a1.69,1.69,0,0,0-2.28-1.75c-6.79,2.5-12.64,7-11.61,13.73l.15.9a2.21,2.21,0,0,0,2.21,1.83H84C90.84,77.89,93.7,71.1,94.39,63.91Z"/><path class="cls-11" d="M66.42,56.85a1.07,1.07,0,0,1,1.26-1.29c4.46,1,8.51,3.24,8.46,7.58v.55a1.4,1.4,0,0,1-1.22,1.36l-.71.09C69.88,65.32,67.49,61.31,66.42,56.85Z"/><path class="cls-12" d="M59.94,92a.27.27,0,0,0-.27.27v7.47a15,15,0,0,0,4.26,10.46l5.28,5.43a.62.62,0,0,0,.45.19h9.63a.64.64,0,0,0,.45-.19L85,110.36A14.75,14.75,0,0,0,89.36,100V92.33a.27.27,0,0,0-.27-.27Z"/><path class="cls-13" d="M67.5,119.67a1.11,1.11,0,0,0-1.08-1.08H51a1.11,1.11,0,0,0-1.07,1.08v.25h0v.64A1.11,1.11,0,0,0,51,121.64H66.42a1.11,1.11,0,0,0,1.08-1.08v-.25h0Z"/><path class="cls-14" d="M67.5,119.67a1.11,1.11,0,0,0-1.08-1.08H51a1.11,1.11,0,0,0-1.07,1.08v.25h0v.64A1.11,1.11,0,0,0,51,121.64H66.42a1.11,1.11,0,0,0,1.08-1.08v-.25h0Z"/><path class="cls-15" d="M49.93,120.54v0A1.11,1.11,0,0,0,51,121.65H66.42a1.11,1.11,0,0,0,1.08-1.08v0Z"/><path class="cls-13" d="M67.5,116.67a1.11,1.11,0,0,0-1.08-1.08H51a1.11,1.11,0,0,0-1.08,1.08v.24h0v.64A1.07,1.07,0,0,0,51,118.62H66.42a1.07,1.07,0,0,0,1.08-1.07h0v-.25h0Z"/><path class="cls-14" d="M67.5,116.67a1.11,1.11,0,0,0-1.08-1.08H51a1.11,1.11,0,0,0-1.08,1.08v.24h0v.64A1.07,1.07,0,0,0,51,118.62H66.42a1.07,1.07,0,0,0,1.08-1.07h0v-.25h0Z"/><path class="cls-15" d="M49.93,117.52v0A1.07,1.07,0,0,0,51,118.64H66.42a1.07,1.07,0,0,0,1.08-1.07h0v0Z"/><path class="cls-13" d="M67.5,113.66a1.11,1.11,0,0,0-1.08-1.08H51a1.11,1.11,0,0,0-1.08,1.08v.25h0v.64A1.11,1.11,0,0,0,51,115.65H66.42a1.11,1.11,0,0,0,1.08-1.11v-.25h0Z"/><path class="cls-14" d="M67.5,113.66a1.11,1.11,0,0,0-1.08-1.08H51a1.11,1.11,0,0,0-1.08,1.08v.25h0v.64A1.11,1.11,0,0,0,51,115.65H66.42a1.11,1.11,0,0,0,1.08-1.11v-.25h0Z"/><path class="cls-15" d="M49.93,114.51v0A1.11,1.11,0,0,0,51,115.65H66.42a1.11,1.11,0,0,0,1.08-1.11v0Z"/><path class="cls-13" d="M67.5,110.88a1.07,1.07,0,0,0-1.07-1.08H51a1.11,1.11,0,0,0-1.08,1.08v.25h0v.64A1.07,1.07,0,0,0,51,112.84H66.42a1.07,1.07,0,0,0,1.08-1.07h0v-.25h0Z"/><path class="cls-14" d="M67.5,110.88a1.07,1.07,0,0,0-1.07-1.08H51a1.11,1.11,0,0,0-1.08,1.08v.25h0v.64A1.07,1.07,0,0,0,51,112.84H66.42a1.07,1.07,0,0,0,1.08-1.07h0v-.25h0Z"/><path class="cls-15" d="M49.93,111.73v0A1.07,1.07,0,0,0,51,112.84H66.42a1.07,1.07,0,0,0,1.08-1.07h0v0Z"/><path class="cls-13" d="M63.12,107.82A1.11,1.11,0,0,0,62,106.72H46.63a1.11,1.11,0,0,0-1.08,1.11v.24h0v.64a1.07,1.07,0,0,0,1.07,1.07H62a1.07,1.07,0,0,0,1.08-1.07h0v-.25h0Z"/><path class="cls-14" d="M63.12,107.82A1.11,1.11,0,0,0,62,106.72H46.63a1.11,1.11,0,0,0-1.08,1.11v.24h0v.64a1.07,1.07,0,0,0,1.07,1.07H62a1.07,1.07,0,0,0,1.08-1.07h0v-.25h0Z"/><path class="cls-15" d="M45.55,108.68v0a1.07,1.07,0,0,0,1.07,1.07H62a1.07,1.07,0,0,0,1.08-1.07h0v0Z"/><path class="cls-13" d="M63.12,105.05A1.11,1.11,0,0,0,62,103.94H46.63a1.11,1.11,0,0,0-1.08,1.11v.25h0v.64A1.11,1.11,0,0,0,46.63,107H62a1.11,1.11,0,0,0,1.08-1.11v-.25h0Z"/><path class="cls-14" d="M63.12,105.05A1.11,1.11,0,0,0,62,103.94H46.63a1.11,1.11,0,0,0-1.08,1.11v.25h0v.64A1.11,1.11,0,0,0,46.63,107H62a1.11,1.11,0,0,0,1.08-1.11v-.25h0Z"/><path class="cls-15" d="M45.55,105.9v0A1.11,1.11,0,0,0,46.63,107H62a1.11,1.11,0,0,0,1.08-1.11v0Z"/><path class="cls-13" d="M66.48,102a1.11,1.11,0,0,0-1.08-1.08H50A1.11,1.11,0,0,0,48.91,102v.25h0v.64A1.11,1.11,0,0,0,50,104H65.4a1.11,1.11,0,0,0,1.08-1.08v-.25h0Z"/><path class="cls-14" d="M66.48,102a1.11,1.11,0,0,0-1.08-1.08H50A1.11,1.11,0,0,0,48.91,102v.25h0v.64A1.11,1.11,0,0,0,50,104H65.4a1.11,1.11,0,0,0,1.08-1.08v-.25h0Z"/><path class="cls-15" d="M48.91,102.86v0A1.11,1.11,0,0,0,50,104H65.4a1.11,1.11,0,0,0,1.08-1.08v0Z"/><path class="cls-13" d="M66.48,99a1.11,1.11,0,0,0-1.08-1.11H50A1.11,1.11,0,0,0,48.91,99v.26h0v.64A1.07,1.07,0,0,0,50,100.93H65.4a1.07,1.07,0,0,0,1.08-1.07h0v-.25h0Z"/><path class="cls-14" d="M66.48,99a1.11,1.11,0,0,0-1.08-1.11H50A1.11,1.11,0,0,0,48.91,99v.26h0v.64A1.07,1.07,0,0,0,50,100.93H65.4a1.07,1.07,0,0,0,1.08-1.07h0v-.25h0Z"/><path class="cls-15" d="M48.91,99.82v0A1.07,1.07,0,0,0,50,100.92H65.4a1.07,1.07,0,0,0,1.08-1.07h0v0Z"/><rect class="cls-2" x="106.14" y="96.63" width="20.93" height="28.86" rx="1.6" ry="1.6"/><path class="cls-12" d="M112,111.38a.9.9,0,0,1-.89.9h-1.88a.9.9,0,0,1-.89-.9v-1.9a.9.9,0,0,1,.89-.9h1.88a.9.9,0,0,1,.89.9Z"/><path class="cls-12" d="M118.36,111.38a.9.9,0,0,1-.89.9h-1.88a.9.9,0,0,1-.89-.9v-1.9a.9.9,0,0,1,.89-.9h1.88a.9.9,0,0,1,.89.9Z"/><path class="cls-12" d="M124.73,111.38a.9.9,0,0,1-.89.9H122a.9.9,0,0,1-.89-.9v-1.9a.9.9,0,0,1,.89-.9h1.88a.9.9,0,0,1,.89.9Z"/><path class="cls-12" d="M112,116.62a.9.9,0,0,1-.89.9h-1.88a.9.9,0,0,1-.89-.9v-1.9a.9.9,0,0,1,.89-.9h1.88a.9.9,0,0,1,.89.9Z"/><path class="cls-12" d="M118.36,116.62a.9.9,0,0,1-.89.9h-1.88a.9.9,0,0,1-.89-.9v-1.9a.9.9,0,0,1,.89-.9h1.88a.9.9,0,0,1,.89.9Z"/><path class="cls-12" d="M124.73,116.62a.9.9,0,0,1-.89.9H122a.9.9,0,0,1-.89-.9v-1.9a.9.9,0,0,1,.89-.9h1.88a.9.9,0,0,1,.89.9Z"/><path class="cls-12" d="M112,122.17a.9.9,0,0,1-.89.9h-1.88a.9.9,0,0,1-.89-.9v-1.9a.89.89,0,0,1,.88-.9h1.88a.9.9,0,0,1,.89.9Z"/><path class="cls-12" d="M124.54,122.17a.9.9,0,0,1-.89.9h-8.22a.9.9,0,0,1-.89-.9v-1.9a.9.9,0,0,1,.89-.9h8.21a.89.89,0,0,1,.89.89h0Z"/><rect class="cls-16" x="108.22" y="99.6" width="16.77" height="6.09"/><path class="cls-17" d="M112,110.48a.9.9,0,0,1-.89.9h-1.88a.9.9,0,0,1-.89-.9v-1.9a.9.9,0,0,1,.89-.9h1.88a.9.9,0,0,1,.89.9Z"/><path class="cls-17" d="M118.36,110.48a.9.9,0,0,1-.89.9h-1.88a.9.9,0,0,1-.89-.9v-1.9a.9.9,0,0,1,.89-.9h1.88a.9.9,0,0,1,.89.9Z"/><path class="cls-17" d="M124.73,110.48a.9.9,0,0,1-.89.9H122a.9.9,0,0,1-.89-.9v-1.9a.9.9,0,0,1,.89-.9h1.88a.9.9,0,0,1,.89.9Z"/><path class="cls-17" d="M112,115.73a.9.9,0,0,1-.89.9h-1.88a.9.9,0,0,1-.89-.9v-1.9a.9.9,0,0,1,.89-.9h1.88a.9.9,0,0,1,.89.9Z"/><path class="cls-17" d="M118.36,115.73a.9.9,0,0,1-.89.9h-1.88a.9.9,0,0,1-.89-.9v-1.9a.9.9,0,0,1,.89-.9h1.88a.9.9,0,0,1,.89.9Z"/><path class="cls-17" d="M124.73,115.73a.9.9,0,0,1-.89.9H122a.9.9,0,0,1-.89-.9v-1.9a.9.9,0,0,1,.89-.9h1.88a.9.9,0,0,1,.89.9Z"/><path class="cls-17" d="M112,121.27a.9.9,0,0,1-.89.9h-1.88a.9.9,0,0,1-.89-.9v-1.9a.9.9,0,0,1,.89-.9h1.88a.9.9,0,0,1,.89.9Z"/><path class="cls-17" d="M124.54,121.27a.9.9,0,0,1-.89.9h-8.22a.9.9,0,0,1-.89-.9v-1.9a.9.9,0,0,1,.89-.9h8.21a.9.9,0,0,1,.89.9Z"/></g></g></g></svg>