<svg xmlns="http://www.w3.org/2000/svg" xmlns:xlink="http://www.w3.org/1999/xlink" viewBox="0 0 214.6 100"><defs><clipPath id="clip-path" transform="translate(0 0)"><rect width="214.6" height="100" style="fill:none"/></clipPath></defs><title>Website_Erstellen</title><g id="Ebene_2" data-name="Ebene 2"><g id="Startseite"><g id="Section_-_Willkommen" data-name="Section - Willkommen"><g id="Website_Erstellen"><g style="clip-path:url(#clip-path)"><line x1="209.4" y1="99.5" x2="15" y2="99.5" style="fill:none;stroke:#303030;stroke-linecap:round;stroke-linejoin:round;stroke-width:0.937404612472386px"/></g><path d="M87.8,96.7h5.7a7.6,7.6,0,0,0,7.6-7.5V86.9h11.2v2.3a7.6,7.6,0,0,0,7.5,7.5h5.8a.9.9,0,0,1,.8.8v1.3a.8.8,0,0,1-.8.7H87.8a.8.8,0,0,1-.8-.7V97.5a.9.9,0,0,1,.8-.8Z" transform="translate(0 0)" style="fill:#adadad"/><g style="clip-path:url(#clip-path)"><path d="M87.8,96.7h5.7a7.6,7.6,0,0,0,7.6-7.5V86.9h11.2v2.3a7.6,7.6,0,0,0,7.5,7.5h5.8a.9.9,0,0,1,.8.8v1.3a.8.8,0,0,1-.8.7H87.8a.8.8,0,0,1-.8-.7V97.5a.9.9,0,0,1,.8-.8Z" transform="translate(0 0)" style="fill:none;stroke:#303030;stroke-linejoin:round;stroke-width:0.937404612472386px"/></g><path d="M69,89.4h75.3a3.1,3.1,0,0,0,3.2-3.1V37.7a3.1,3.1,0,0,0-3.2-3.1H69a3.1,3.1,0,0,0-3.1,3.1V86.3A3.1,3.1,0,0,0,69,89.4Z" transform="translate(0 0)" style="fill:#e6e6e6"/><path d="M69,89.4h75.3a3.1,3.1,0,0,0,3.2-3.1V37.7a3.1,3.1,0,0,0-3.2-3.1H69a3.1,3.1,0,0,0-3.1,3.1V86.3A3.1,3.1,0,0,0,69,89.4Z" transform="translate(0 0)" style="fill:none;stroke:#303030;stroke-linejoin:round;stroke-width:0.937404612472386px"/><path d="M70.9,78.2h71.6a.9.9,0,0,0,.8-.8V39.6a.8.8,0,0,0-.8-.8H70.9a.8.8,0,0,0-.8.8V77.4a.9.9,0,0,0,.8.8Z" transform="translate(0 0)" style="fill:#fff"/><path d="M70.9,78.2h71.6a.9.9,0,0,0,.8-.8V39.6a.8.8,0,0,0-.8-.8H70.9a.8.8,0,0,0-.8.8V77.4a.9.9,0,0,0,.8.8Z" transform="translate(0 0)" style="fill:none;stroke:#333;stroke-linejoin:round;stroke-width:0.937404612472386px"/><path d="M87.8,99.5h37.8a.8.8,0,0,0,.8-.7V97.5a.9.9,0,0,0-.8-.8H87.8a.9.9,0,0,0-.8.8v1.3a.8.8,0,0,0,.8.7Z" transform="translate(0 0)" style="fill:#e6e6e6"/><g style="clip-path:url(#clip-path)"><path d="M87.8,99.5h37.8a.8.8,0,0,0,.8-.7V97.5a.9.9,0,0,0-.8-.8H87.8a.9.9,0,0,0-.8.8v1.3a.8.8,0,0,0,.8.7Z" transform="translate(0 0)" style="fill:none;stroke:#303030;stroke-linejoin:round;stroke-width:0.937404612472386px"/></g><path d="M95.3,42.9l.9,3h.1l.2-.9.7-2.1h1.5v.2l-2,5.4h-.8L95,45.8h0l-.9,2.7h-.8l-2-5.4v-.2h1.4l.8,2.1.2.9h0l1-3Z" transform="translate(0 0)" style="fill:#515b64"/><path d="M103,44.1h-2.1v.8h2v1.3h-2v1h2.2v1.3H99.5V42.9H103v1.2Z" transform="translate(0 0)" style="fill:#515b64"/><path d="M105.7,46.2v1h1.2c.5,0,.5-1,0-1Zm0-2.1v1h.9a.5.5,0,0,0,0-1Zm2.3,1.5a1.1,1.1,0,0,1,.7,1.1,1.7,1.7,0,0,1-1.7,1.8h-2.7V42.9h2.4a1.7,1.7,0,0,1,1.8,1.7,1.6,1.6,0,0,1-.5,1Z" transform="translate(0 0)" style="fill:#515b64"/><path d="M75.4,60.2V58.5H76v1.7a1,1,0,0,1-2,0V58.5h.6v1.7c0,.2.2.3.4.3s.4-.1.4-.3Z" transform="translate(0 0)" style="fill:#e6e6e6"/><path d="M77.8,60.5V61H76.4v-.5h.4V59h-.3v-.5h1.2V59h-.3v1.5Z" transform="translate(0 0)" style="fill:#e6e6e6"/><path d="M127.9,52.8V50.4h.9v2.5a1.3,1.3,0,0,1-1.4,1.2c-.8,0-1.5-.4-1.5-1.2V50.4h.9v2.4a.6.6,0,0,0,.6.5.5.5,0,0,0,.5-.5Z" transform="translate(0 0)" style="fill:#d6d6d6"/><polygon points="131 52.9 130.4 54.1 129.3 54.1 129.3 53.9 130.5 52.1 129.5 50.5 129.5 50.4 130.4 50.4 131 51.4 131.1 51.4 131.7 50.4 132.6 50.4 132.6 50.5 131.6 52.1 132.8 53.9 132.8 54.1 131.7 54.1 131.1 52.9 131 52.9 131 52.9" style="fill:#d6d6d6"/><path d="M34.7,83.3A11.9,11.9,0,1,1,22.9,71.5,11.8,11.8,0,0,1,34.7,83.3Z" transform="translate(0 0)" style="fill:#f2f2f2"/><path d="M34.7,83.3A11.9,11.9,0,1,1,22.9,71.5,11.8,11.8,0,0,1,34.7,83.3Z" transform="translate(0 0)" style="fill:none;stroke:#303030;stroke-linejoin:round;stroke-width:0.937404612472386px"/><path d="M31.7,83.3a8.9,8.9,0,1,1-8.8-8.9,8.8,8.8,0,0,1,8.8,8.9Z" transform="translate(0 0)" style="fill:#fff"/><path d="M31.7,83.3a8.9,8.9,0,1,1-8.8-8.9,8.8,8.8,0,0,1,8.8,8.9Z" transform="translate(0 0)" style="fill:none;stroke:#333;stroke-linecap:round;stroke-linejoin:round;stroke-width:0.937404612472386px"/><path d="M28.8,83.3a6,6,0,1,1-5.9-5.9,5.9,5.9,0,0,1,5.9,5.9Z" transform="translate(0 0)" style="fill:#f2f2f2"/><path d="M28.8,83.3a6,6,0,1,1-5.9-5.9,5.9,5.9,0,0,1,5.9,5.9Z" transform="translate(0 0)" style="fill:none;stroke:#303030;stroke-linejoin:round;stroke-width:0.937404612472386px"/><path d="M25.8,83.3a3,3,0,1,1-5.9,0,3,3,0,0,1,5.9,0Z" transform="translate(0 0)" style="fill:#fff"/><path d="M25.8,83.3a3,3,0,1,1-5.9,0,3,3,0,0,1,5.9,0Z" transform="translate(0 0)" style="fill:none;stroke:#333;stroke-linecap:round;stroke-linejoin:round;stroke-width:0.937404612472386px"/><line x1="21" y1="81.4" x2="9.5" y2="69.9" style="fill:#333"/><line x1="21" y1="81.4" x2="9.5" y2="69.9" style="fill:none;stroke:#333;stroke-linecap:round;stroke-linejoin:round;stroke-width:0.937404612472386px"/><polygon points="21 79.3 18.9 81.4 22 82.5 21 79.3 21 79.3" style="fill:#333"/><polygon points="21 79.3 18.9 81.4 22 82.5 21 79.3 21 79.3" style="fill:none;stroke:#333;stroke-linecap:round;stroke-linejoin:round;stroke-width:0.937404612472386px"/><polygon points="7.4 67.8 7.4 63.6 10.5 66.8 10.5 71 7.4 67.8 7.4 67.8" style="fill:#fff"/><polygon points="7.4 67.8 7.4 63.6 10.5 66.8 10.5 71 7.4 67.8 7.4 67.8" style="fill:none;stroke:#333;stroke-linecap:round;stroke-linejoin:round;stroke-width:0.937404612472386px"/><polygon points="6.3 71 10.5 71 7.4 67.8 3.2 67.8 6.3 71 6.3 71" style="fill:#fff"/><g style="clip-path:url(#clip-path)"><polygon points="6.3 71 10.5 71 7.4 67.8 3.2 67.8 6.3 71 6.3 71" style="fill:none;stroke:#333;stroke-linecap:round;stroke-linejoin:round;stroke-width:0.937404612472386px"/></g><polygon points="6.3 66.8 6.3 62.6 8.4 64.7 8.4 68.9 6.3 66.8 6.3 66.8" style="fill:#fff"/><polygon points="6.3 66.8 6.3 62.6 8.4 64.7 8.4 68.9 6.3 66.8 6.3 66.8" style="fill:none;stroke:#333;stroke-linecap:round;stroke-linejoin:round;stroke-width:0.937404612472386px"/><polygon points="4.2 68.9 8.4 68.9 6.3 66.8 2.1 66.8 4.2 68.9 4.2 68.9" style="fill:#fff"/><g style="clip-path:url(#clip-path)"><polygon points="4.2 68.9 8.4 68.9 6.3 66.8 2.1 66.8 4.2 68.9 4.2 68.9" style="fill:none;stroke:#333;stroke-linecap:round;stroke-linejoin:round;stroke-width:0.937404612472386px"/></g><path d="M46.6,40a4.5,4.5,0,0,1-4.3-4.3A4.6,4.6,0,1,1,46.6,40Zm9.9-6.2h-.8a.6.6,0,0,1-.6-.5,7.8,7.8,0,0,0-.9-2.1.8.8,0,0,1,.1-.8l.6-.5a.8.8,0,0,0,0-.9l-1.6-1.5a.5.5,0,0,0-.8,0l-.6.5a.5.5,0,0,1-.7.1,8.5,8.5,0,0,0-2.2-.9c-.3,0-.4-.3-.4-.5v-.9a.6.6,0,0,0-.6-.5H45.7a.5.5,0,0,0-.5.5v.9a.5.5,0,0,1-.5.5,6.7,6.7,0,0,0-2.1.9.6.6,0,0,1-.8-.1l-.5-.5a.6.6,0,0,0-.9,0L38.8,29a.8.8,0,0,0,0,.9l.6.5a.6.6,0,0,1,.1.8,7.8,7.8,0,0,0-.9,2.1.5.5,0,0,1-.5.5h-.9a.6.6,0,0,0-.6.6v2.2a.6.6,0,0,0,.6.6h.9c.2,0,.5.2.5.4a8.5,8.5,0,0,0,.9,2.2.5.5,0,0,1-.1.7l-.6.6a.6.6,0,0,0,0,.8l1.6,1.6a.8.8,0,0,0,.9,0l.5-.6a.8.8,0,0,1,.8-.1,6.7,6.7,0,0,0,2.1.9.6.6,0,0,1,.5.6v.8a.6.6,0,0,0,.5.6H48a.6.6,0,0,0,.6-.6v-.8a.5.5,0,0,1,.4-.6,8.5,8.5,0,0,0,2.2-.9.6.6,0,0,1,.7.1l.6.6a.6.6,0,0,0,.8,0l1.6-1.6a.6.6,0,0,0,0-.8l-.6-.6a.6.6,0,0,1-.1-.7,8.5,8.5,0,0,0,.9-2.2.7.7,0,0,1,.6-.4h.8a.6.6,0,0,0,.6-.6V34.4a.6.6,0,0,0-.6-.6Z" transform="translate(0 0)" style="fill:#f2f2f2"/><path d="M46.6,40a4.5,4.5,0,0,1-4.3-4.3A4.6,4.6,0,1,1,46.6,40Zm9.9-6.2h-.8a.6.6,0,0,1-.6-.5,7.8,7.8,0,0,0-.9-2.1.8.8,0,0,1,.1-.8l.6-.5a.8.8,0,0,0,0-.9l-1.6-1.5a.5.5,0,0,0-.8,0l-.6.5a.5.5,0,0,1-.7.1,8.5,8.5,0,0,0-2.2-.9c-.3,0-.4-.3-.4-.5v-.9a.6.6,0,0,0-.6-.5H45.7a.5.5,0,0,0-.5.5v.9a.5.5,0,0,1-.5.5,6.7,6.7,0,0,0-2.1.9.6.6,0,0,1-.8-.1l-.5-.5a.6.6,0,0,0-.9,0L38.8,29a.8.8,0,0,0,0,.9l.6.5a.6.6,0,0,1,.1.8,7.8,7.8,0,0,0-.9,2.1.5.5,0,0,1-.5.5h-.9a.6.6,0,0,0-.6.6v2.2a.6.6,0,0,0,.6.6h.9c.2,0,.5.2.5.4a8.5,8.5,0,0,0,.9,2.2.5.5,0,0,1-.1.7l-.6.6a.6.6,0,0,0,0,.8l1.6,1.6a.8.8,0,0,0,.9,0l.5-.6a.8.8,0,0,1,.8-.1,6.7,6.7,0,0,0,2.1.9.6.6,0,0,1,.5.6v.8a.6.6,0,0,0,.5.6H48a.6.6,0,0,0,.6-.6v-.8a.5.5,0,0,1,.4-.6,8.5,8.5,0,0,0,2.2-.9.6.6,0,0,1,.7.1l.6.6a.6.6,0,0,0,.8,0l1.6-1.6a.6.6,0,0,0,0-.8l-.6-.6a.6.6,0,0,1-.1-.7,8.5,8.5,0,0,0,.9-2.2.7.7,0,0,1,.6-.4h.8a.6.6,0,0,0,.6-.6V34.4a.6.6,0,0,0-.6-.6Z" transform="translate(0 0)" style="fill:none;stroke:#303030;stroke-linejoin:round;stroke-width:0.937404612472386px"/><path d="M171.1,8.9h0A10.2,10.2,0,0,0,160.9,19h0a9.8,9.8,0,0,0,1.7,5.6,30.2,30.2,0,0,1,3.2,6.5h0a.9.9,0,0,0,.9.6h8.7a.9.9,0,0,0,.9-.6h0a30.2,30.2,0,0,1,3.2-6.5,9.8,9.8,0,0,0,1.7-5.6h0A10.1,10.1,0,0,0,171.1,8.9Z" transform="translate(0 0)" style="fill:#f8f8f8"/><path d="M171.1,8.9h0A10.2,10.2,0,0,0,160.9,19h0a9.8,9.8,0,0,0,1.7,5.6,30.2,30.2,0,0,1,3.2,6.5h0a.9.9,0,0,0,.9.6h8.7a.9.9,0,0,0,.9-.6h0a30.2,30.2,0,0,1,3.2-6.5,9.8,9.8,0,0,0,1.7-5.6h0A10.1,10.1,0,0,0,171.1,8.9Z" transform="translate(0 0)" style="fill:none;stroke:#303030;stroke-linejoin:round;stroke-width:0.937404612472386px"/><path d="M178.7,22.4l-.6,1.2a2.5,2.5,0,0,0-.4.7m-6.6-13.6a8.3,8.3,0,0,1,8.3,8.3" transform="translate(0 0)" style="fill:none;stroke:#303030;stroke-linecap:round;stroke-linejoin:round;stroke-width:0.937404612472386px"/><path d="M175.6,34.8h-9.1a.7.7,0,0,1-.7-.7h0a.7.7,0,0,1,.7-.7h9.1a.7.7,0,0,1,.7.7h0a.7.7,0,0,1-.7.7Z" transform="translate(0 0)" style="fill:#303030"/><path d="M175.6,34.8h-9.1a.7.7,0,0,1-.7-.7h0a.7.7,0,0,1,.7-.7h9.1a.7.7,0,0,1,.7.7h0a.7.7,0,0,1-.7.7Z" transform="translate(0 0)" style="fill:none;stroke:#303030;stroke-miterlimit:10;stroke-width:0.937404612472386px"/><path d="M174.9,37.8h-7.7a.7.7,0,0,1-.7-.6V37a.7.7,0,0,1,.7-.6h7.7a.7.7,0,0,1,.7.6v.2a.7.7,0,0,1-.7.6Z" transform="translate(0 0)" style="fill:#303030"/><path d="M174.9,37.8h-7.7a.7.7,0,0,1-.7-.6V37a.7.7,0,0,1,.7-.6h7.7a.7.7,0,0,1,.7.6v.2a.7.7,0,0,1-.7.6Z" transform="translate(0 0)" style="fill:none;stroke:#303030;stroke-miterlimit:10;stroke-width:0.937404612472386px"/><path d="M172.1,39.1H170a.9.9,0,0,1-.9-.9h4a1,1,0,0,1-1,.9Z" transform="translate(0 0)" style="fill:#303030"/><g style="clip-path:url(#clip-path)"><path d="M172.1,39.1H170a.9.9,0,0,1-.9-.9h4a1,1,0,0,1-1,.9Zm-2.7-7.4V27.5L166,19.9l1.7.9,1.7-2.6,3.3,3.4,1.7-2.5,1.7.8-3.4,7.6v4.2" transform="translate(0 0)" style="fill:none;stroke:#303030;stroke-linejoin:round;stroke-width:0.937404612472386px"/><line x1="171.1" y1="5.6" x2="171.1" y2="0.5" style="fill:none;stroke:#303030;stroke-linecap:round;stroke-linejoin:round;stroke-width:0.937404612472386px"/></g><line x1="177.8" y1="7.4" x2="178.8" y2="5.8" style="fill:none;stroke:#303030;stroke-linecap:round;stroke-linejoin:round;stroke-width:0.937404612472386px"/><line x1="182.8" y1="12.3" x2="187.2" y2="9.8" style="fill:none;stroke:#303030;stroke-linecap:round;stroke-linejoin:round;stroke-width:0.937404612472386px"/><line x1="184.6" y1="19.1" x2="186.5" y2="19.1" style="fill:none;stroke:#303030;stroke-linecap:round;stroke-linejoin:round;stroke-width:0.937404612472386px"/><line x1="182.8" y1="25.9" x2="187.2" y2="28.4" style="fill:none;stroke:#303030;stroke-linecap:round;stroke-linejoin:round;stroke-width:0.937404612472386px"/><line x1="164.3" y1="7.4" x2="163.4" y2="5.8" style="fill:none;stroke:#303030;stroke-linecap:round;stroke-linejoin:round;stroke-width:0.937404612472386px"/><line x1="159.3" y1="12.3" x2="154.9" y2="9.8" style="fill:none;stroke:#303030;stroke-linecap:round;stroke-linejoin:round;stroke-width:0.937404612472386px"/><line x1="157.5" y1="19.1" x2="155.7" y2="19.1" style="fill:none;stroke:#303030;stroke-linecap:round;stroke-linejoin:round;stroke-width:0.937404612472386px"/><line x1="159.3" y1="25.9" x2="154.9" y2="28.4" style="fill:none;stroke:#303030;stroke-linecap:round;stroke-linejoin:round;stroke-width:0.937404612472386px"/><path d="M38.3,95.1H55.8a3.1,3.1,0,0,1,3.1,3.1v1.3H35.2V98.2a3.1,3.1,0,0,1,3.1-3.1Z" transform="translate(0 0)" style="fill:#515b64"/><g style="clip-path:url(#clip-path)"><path d="M38.3,95.1H55.8a3.1,3.1,0,0,1,3.1,3.1v1.3H35.2V98.2a3.1,3.1,0,0,1,3.1-3.1Z" transform="translate(0 0)" style="fill:none;stroke:#000;stroke-linecap:round;stroke-linejoin:round;stroke-width:0.937404612472386px"/></g><polygon points="44.1 87.6 50 87.6 50 95.1 44.1 95.1 44.1 87.6 44.1 87.6" style="fill:#515b64"/><polygon points="44.1 87.6 50 87.6 50 95.1 44.1 95.1 44.1 87.6 44.1 87.6" style="fill:none;stroke:#000;stroke-linecap:round;stroke-linejoin:round;stroke-width:0.937404612472386px"/><polygon points="36.3 70.4 38.9 69.1 47.6 86.5 45 87.8 36.3 70.4 36.3 70.4" style="fill:#e6e6e6"/><polygon points="36.3 70.4 38.9 69.1 47.6 86.5 45 87.8 36.3 70.4 36.3 70.4" style="fill:none;stroke:#303030;stroke-linejoin:round;stroke-width:0.937404612472386px"/><polygon points="50.2 52 52.3 54.1 38.2 68.2 36.1 66.1 50.2 52 50.2 52" style="fill:#e6e6e6"/><polygon points="50.2 52 52.3 54.1 38.2 68.2 36.1 66.1 50.2 52 50.2 52" style="fill:none;stroke:#303030;stroke-linejoin:round;stroke-width:0.937404612472386px"/><path d="M44.1,87.6A3,3,0,1,0,47,84.7a2.9,2.9,0,0,0-2.9,2.9Z" transform="translate(0 0)" style="fill:#515b64"/><path d="M44.1,87.6A3,3,0,1,0,47,84.7a2.9,2.9,0,0,0-2.9,2.9Z" transform="translate(0 0)" style="fill:none;stroke:#000;stroke-linecap:round;stroke-linejoin:round;stroke-width:0.937404612472386px"/><path d="M33.1,68.3a3,3,0,1,0,5.9,0,3,3,0,1,0-5.9,0Z" transform="translate(0 0)" style="fill:#515b64"/><path d="M33.1,68.3a3,3,0,1,0,5.9,0,3,3,0,1,0-5.9,0Z" transform="translate(0 0)" style="fill:none;stroke:#000;stroke-linecap:round;stroke-linejoin:round;stroke-width:0.937404612472386px"/><polygon points="53.9 53.4 58.4 53.4 58.4 50.5 53.9 50.5 53.9 53.4 53.9 53.4" style="fill:#fff"/><polygon points="53.9 53.4 58.4 53.4 58.4 50.5 53.9 50.5 53.9 53.4 53.9 53.4" style="fill:none;stroke:#000;stroke-linecap:round;stroke-linejoin:round;stroke-width:0.937404612472386px"/><path d="M65,61.4a3.7,3.7,0,0,0,5,1.5A3.5,3.5,0,0,0,71.5,58a3.6,3.6,0,0,0-4.9-1.6,3.8,3.8,0,0,0-1.6,5Z" transform="translate(0 0)" style="fill:#f8f8f8"/><path d="M65,61.4a3.7,3.7,0,0,0,5,1.5A3.5,3.5,0,0,0,71.5,58a3.6,3.6,0,0,0-4.9-1.6,3.8,3.8,0,0,0-1.6,5Z" transform="translate(0 0)" style="fill:none;stroke:#303030;stroke-linejoin:round;stroke-width:0.937404612472386px"/><path d="M49.3,52a3,3,0,1,0,5.9,0,3,3,0,1,0-5.9,0Z" transform="translate(0 0)" style="fill:#515b64"/><path d="M49.3,52a3,3,0,1,0,5.9,0,3,3,0,1,0-5.9,0Z" transform="translate(0 0)" style="fill:none;stroke:#000;stroke-linecap:round;stroke-linejoin:round;stroke-width:0.937404612472386px"/><polygon points="65.4 44.5 57.5 48.6 60.4 63.8 76.2 55.6 65.4 44.5 65.4 44.5" style="fill:#515b64"/><polygon points="65.4 44.5 57.5 48.6 60.4 63.8 76.2 55.6 65.4 44.5 65.4 44.5" style="fill:none;stroke:#000;stroke-linecap:round;stroke-linejoin:round;stroke-width:0.937404612472386px"/><line x1="68.7" y1="51.4" x2="64.9" y2="47.5" style="fill:#e5c13f"/><line x1="68.7" y1="51.4" x2="64.9" y2="47.5" style="fill:none;stroke:#000;stroke-linecap:round;stroke-miterlimit:10;stroke-width:0.937404612472386px"/><line x1="71.3" y1="54.1" x2="70.5" y2="53.3" style="fill:#e5c13f"/><line x1="71.3" y1="54.1" x2="70.5" y2="53.3" style="fill:none;stroke:#000;stroke-linecap:round;stroke-miterlimit:10;stroke-width:0.937404612472386px"/><path d="M116.5,87.2H101.2a2.8,2.8,0,0,1-2.7-2.8V69.1a2.7,2.7,0,0,1,2.7-2.7h15.3a2.7,2.7,0,0,1,2.7,2.7V84.4a2.8,2.8,0,0,1-2.7,2.8Z" transform="translate(0 0)" style="fill:#c2c2c2"/><path d="M116.5,87.2H101.2a2.8,2.8,0,0,1-2.7-2.8V69.1a2.7,2.7,0,0,1,2.7-2.7h15.3a2.7,2.7,0,0,1,2.7,2.7V84.4a2.8,2.8,0,0,1-2.7,2.8Z" transform="translate(0 0)" style="fill:none;stroke:#303030;stroke-linejoin:round;stroke-width:0.937404612472386px"/><path d="M106.7,80.6l-3.2-3.7-5,6.2v1.5a2.6,2.6,0,0,0,2.6,2.6h.4l5.2-6.6Z" transform="translate(0 0)" style="fill:gray"/><path d="M106.7,80.6l-3.2-3.7-5,6.2v1.5a2.6,2.6,0,0,0,2.6,2.6h.4l5.2-6.6Z" transform="translate(0 0)" style="fill:none;stroke:#303030;stroke-linejoin:round;stroke-width:0.937404612472386px"/><path d="M106.1,77.1a2.6,2.6,0,0,1-2.6,2.6,2.7,2.7,0,0,1,0-5.3,2.6,2.6,0,0,1,2.6,2.7Z" transform="translate(0 0)" style="fill:#fff"/><path d="M106.1,77.1a2.6,2.6,0,0,1-2.6,2.6,2.7,2.7,0,0,1,0-5.3,2.6,2.6,0,0,1,2.6,2.7Z" transform="translate(0 0)" style="fill:none;stroke:#333;stroke-linecap:round;stroke-linejoin:round;stroke-width:0.937404612472386px"/><path d="M116.8,74.7a5.1,5.1,0,0,1-10.2,0,5.1,5.1,0,1,1,10.2,0Z" transform="translate(0 0)" style="fill:#fff"/><path d="M116.8,74.7a5.1,5.1,0,0,1-10.2,0,5.1,5.1,0,1,1,10.2,0Z" transform="translate(0 0)" style="fill:none;stroke:#333;stroke-linecap:round;stroke-linejoin:round;stroke-width:0.937404612472386px"/><path d="M116.6,66.4H101.1A2.6,2.6,0,0,0,98.5,69V83.3l5-6.3,3.2,3.6,5-6.1,7.5,8.5V69a2.6,2.6,0,0,0-2.6-2.6Z" transform="translate(0 0)" style="fill:#f2f2f2"/><path d="M116.6,66.4H101.1A2.6,2.6,0,0,0,98.5,69V83.3l5-6.3,3.2,3.6,5-6.1,7.5,8.5V69a2.6,2.6,0,0,0-2.6-2.6Z" transform="translate(0 0)" style="fill:none;stroke:#303030;stroke-linejoin:round;stroke-width:0.937404612472386px"/><path d="M104.7,75.2h0a2.9,2.9,0,0,1-2.9-2.8h0a2.9,2.9,0,0,1,2.9-2.9h0a2.9,2.9,0,0,1,2.8,2.9h0a2.9,2.9,0,0,1-2.8,2.8Z" transform="translate(0 0)" style="fill:#f8f8f8"/><path d="M211.7,53.8H193.9a2.4,2.4,0,0,1-2.4-2.5V33.5a2.4,2.4,0,0,1,2.4-2.5h17.8a2.5,2.5,0,0,1,2.5,2.5V51.3a2.5,2.5,0,0,1-2.5,2.5Z" transform="translate(0 0)" style="fill:#fff"/><g style="clip-path:url(#clip-path)"><path d="M211.7,53.8H193.9a2.4,2.4,0,0,1-2.4-2.5V33.5a2.4,2.4,0,0,1,2.4-2.5h17.8a2.5,2.5,0,0,1,2.5,2.5V51.3a2.5,2.5,0,0,1-2.5,2.5Z" transform="translate(0 0)" style="fill:none;stroke:#333;stroke-linejoin:round;stroke-width:0.937404612472386px"/></g><path d="M214.2,37.6H191.5V33.5a2.4,2.4,0,0,1,2.4-2.5h17.8a2.5,2.5,0,0,1,2.5,2.5v4.1Z" transform="translate(0 0)" style="fill:#e5c13f"/><g style="clip-path:url(#clip-path)"><path d="M214.2,37.6H191.5V33.5a2.4,2.4,0,0,1,2.4-2.5h17.8a2.5,2.5,0,0,1,2.5,2.5v4.1ZM194,43.1v-3m0,5.7V45" transform="translate(0 0)" style="fill:none;stroke:#333;stroke-linecap:round;stroke-linejoin:round;stroke-width:0.937404612472386px"/></g><path d="M198.6,33.5h-.8a.5.5,0,0,1-.5-.5V29.5a.5.5,0,0,1,.5-.5h.8a.5.5,0,0,1,.5.5V33a.5.5,0,0,1-.5.5Z" transform="translate(0 0)"/><path d="M198.6,33.5h-.8a.5.5,0,0,1-.5-.5V29.5a.5.5,0,0,1,.5-.5h.8a.5.5,0,0,1,.5.5V33a.5.5,0,0,1-.5.5Z" transform="translate(0 0)" style="fill:none;stroke:#333;stroke-linecap:round;stroke-linejoin:round;stroke-width:0.937404612472386px"/><path d="M207.8,33.5H207a.6.6,0,0,1-.5-.5V29.5a.5.5,0,0,1,.5-.5h.8a.5.5,0,0,1,.5.5V33a.5.5,0,0,1-.5.5Z" transform="translate(0 0)"/><path d="M207.8,33.5H207a.6.6,0,0,1-.5-.5V29.5a.5.5,0,0,1,.5-.5h.8a.5.5,0,0,1,.5.5V33a.5.5,0,0,1-.5.5Z" transform="translate(0 0)" style="fill:none;stroke:#333;stroke-linecap:round;stroke-linejoin:round;stroke-width:0.937404612472386px"/><path d="M197.2,47h1.3a1.2,1.2,0,0,0,.5,1,1.5,1.5,0,0,0,1.1.4,1.7,1.7,0,0,0,1.3-.5,1.7,1.7,0,0,0,.5-1.2,1.7,1.7,0,0,0-.3-1,1.5,1.5,0,0,0-.6-.5,3.2,3.2,0,0,0-.9-.3h-1v-.2l2.1-3.1h-3.7V40.5h5.7v.2L200.9,44a2.3,2.3,0,0,1,1.8.8,3.1,3.1,0,0,1,.6,1.9,3.2,3.2,0,0,1-.8,2.1,3.2,3.2,0,0,1-2.3.9,3.3,3.3,0,0,1-2.1-.7,2.5,2.5,0,0,1-.9-2Z" transform="translate(0 0)" style="fill:#333"/><path d="M197.2,47h1.3a1.2,1.2,0,0,0,.5,1,1.5,1.5,0,0,0,1.1.4,1.7,1.7,0,0,0,1.3-.5,1.7,1.7,0,0,0,.5-1.2,1.7,1.7,0,0,0-.3-1,1.5,1.5,0,0,0-.6-.5,3.2,3.2,0,0,0-.9-.3h-1v-.2l2.1-3.1h-3.7V40.5h5.7v.2L200.9,44a2.3,2.3,0,0,1,1.8.8,3.1,3.1,0,0,1,.6,1.9,3.2,3.2,0,0,1-.8,2.1,3.2,3.2,0,0,1-2.3.9,3.3,3.3,0,0,1-2.1-.7,2.5,2.5,0,0,1-.9-2Z" transform="translate(0 0)" style="fill:none;stroke:#333;stroke-linejoin:round;stroke-width:0.781170510393655px"/><polygon points="206.2 41.7 204.8 41.7 204.8 40.5 207.7 40.5 207.7 48.4 209.4 48.4 209.4 49.5 204.6 49.5 204.6 48.4 206.2 48.4 206.2 41.7 206.2 41.7" style="fill:#333"/><polygon points="206.2 41.7 204.8 41.7 204.8 40.5 207.7 40.5 207.7 48.4 209.4 48.4 209.4 49.5 204.6 49.5 204.6 48.4 206.2 48.4 206.2 41.7 206.2 41.7" style="fill:none;stroke:#333;stroke-linejoin:round;stroke-width:0.781170510393655px"/><path d="M84.4,48h0a7.2,7.2,0,0,0-4.8-2h0a5.1,5.1,0,0,1-5.2-5.1V38.1h0a7.9,7.9,0,0,1,10,9.9Z" transform="translate(0 0)" style="fill:#333"/><path d="M84.4,48h0a7.2,7.2,0,0,0-4.8-2h0a5.1,5.1,0,0,1-5.2-5.1V38.1h0a7.9,7.9,0,0,1,10,9.9Z" transform="translate(0 0)" style="fill:none;stroke:#333;stroke-linecap:round;stroke-linejoin:round;stroke-width:0.937404612472386px"/><polygon points="73.4 35.1 71.5 37.1 74.4 40.1 76.4 38.1 73.4 35.1 73.4 35.1" style="fill:#f8f8f8"/><polygon points="73.4 35.1 71.5 37.1 74.4 40.1 76.4 38.1 73.4 35.1 73.4 35.1" style="fill:none;stroke:#303030;stroke-linejoin:round;stroke-width:0.937404612472386px"/><path d="M72.5,36.1l-1,1-1.7-1.3A60.2,60.2,0,0,1,57.3,22.6l-2.5-3.7c-.3-.3.1-.7.5-.5l3.6,2.5A60.3,60.3,0,0,1,72.1,33.4l1.3,1.7-.9,1Z" transform="translate(0 0)" style="fill:#515b64"/><path d="M72.5,36.1l-1,1-1.7-1.3A60.2,60.2,0,0,1,57.3,22.6l-2.5-3.7c-.3-.3.1-.7.5-.5l3.6,2.5A60.3,60.3,0,0,1,72.1,33.4l1.3,1.7-.9,1Z" transform="translate(0 0)" style="fill:none;stroke:#303030;stroke-linejoin:round;stroke-width:0.937404612472386px"/><polygon points="206.2 90.6 206.2 68.1 200.6 68.1 200.6 90.6 206.2 90.6 206.2 90.6" style="fill:#f2f2f2"/><polygon points="206.2 90.6 206.2 68.1 200.6 68.1 200.6 90.6 206.2 90.6 206.2 90.6" style="fill:none;stroke:#303030;stroke-linejoin:round;stroke-width:0.937404612472386px"/><polygon points="204.3 90.6 204.3 68.1 202.5 68.1 202.5 90.6 204.3 90.6 204.3 90.6" style="fill:#f2f2f2"/><polygon points="204.3 90.6 204.3 68.1 202.5 68.1 202.5 90.6 204.3 90.6 204.3 90.6" style="fill:none;stroke:#303030;stroke-linejoin:round;stroke-width:0.937404612472386px"/><path d="M202.6,61.1h1.7a1.3,1.3,0,0,1,1.3,1.3v2.9h-4.4V62.4a1.3,1.3,0,0,1,1.4-1.3Z" transform="translate(0 0)" style="fill:#82b541"/><path d="M202.6,61.1h1.7a1.3,1.3,0,0,1,1.3,1.3v2.9h-4.4V62.4a1.3,1.3,0,0,1,1.4-1.3Z" transform="translate(0 0)" style="fill:none;stroke:#333;stroke-linejoin:round;stroke-width:0.937404612472386px"/><polygon points="206.2 90.6 203.4 97.6 200.6 90.6 206.2 90.6 206.2 90.6" style="fill:#fff"/><g style="clip-path:url(#clip-path)"><polygon points="206.2 90.6 203.4 97.6 200.6 90.6 206.2 90.6 206.2 90.6" style="fill:none;stroke:#333;stroke-linecap:round;stroke-linejoin:round;stroke-width:0.937404612472386px"/></g><path d="M203.4,93.4a3.7,3.7,0,0,0-1.5.3l1.5,3.9,1.6-3.9a4.1,4.1,0,0,0-1.6-.3Z" transform="translate(0 0)" style="fill:#f2f2f2"/><g style="clip-path:url(#clip-path)"><path d="M203.4,93.4a3.7,3.7,0,0,0-1.5.3l1.5,3.9,1.6-3.9a4.1,4.1,0,0,0-1.6-.3Z" transform="translate(0 0)" style="fill:none;stroke:#303030;stroke-linejoin:round;stroke-width:0.937404612472386px"/></g><polygon points="200.6 63.9 206.2 63.9 206.2 68.1 200.6 68.1 200.6 63.9 200.6 63.9" style="fill:#f8f8f8"/><polygon points="200.6 63.9 206.2 63.9 206.2 68.1 200.6 68.1 200.6 63.9 200.6 63.9" style="fill:none;stroke:#303030;stroke-linejoin:round;stroke-width:0.937404612472386px"/><polygon points="112.7 28 112.7 22.4 79 22.4 79 28 112.7 28 112.7 28" style="fill:#ebebeb"/><polygon points="112.7 28 112.7 22.4 79 22.4 79 28 112.7 28 112.7 28" style="fill:none;stroke:#303030;stroke-linejoin:round;stroke-width:0.937404612472386px"/><path d="M81.8,23.8V22.4m2.8,2.8V22.4m2.8,1.4V22.4m2.8,2.8V22.4M93,23.8V22.4m2.9,2.8V22.4m2.8,1.4V22.4m2.8,2.8V22.4m2.8,1.4V22.4m2.8,2.8V22.4m2.8,1.4V22.4" transform="translate(0 0)" style="fill:none;stroke:#000;stroke-linecap:round;stroke-linejoin:round;stroke-width:0.937404612472386px"/><g style="clip-path:url(#clip-path)"><path d="M150.5,93.3V67.1a3.1,3.1,0,0,1,3.1-3.2h37.5a3.1,3.1,0,0,1,3.1,3.2V93.3a3.1,3.1,0,0,1-3.1,3.1H153.6a3.1,3.1,0,0,1-3.1-3.1Z" transform="translate(0 0)" style="fill:#fff"/><path d="M150.5,93.3V67.1a3.1,3.1,0,0,1,3.1-3.2h37.5a3.1,3.1,0,0,1,3.1,3.2V93.3a3.1,3.1,0,0,1-3.1,3.1H153.6a3.1,3.1,0,0,1-3.1-3.1Z" transform="translate(0 0)" style="fill:none;stroke:#333;stroke-linejoin:round;stroke-width:0.937404612472386px"/></g><path d="M152.3,93.3V67.1a1.3,1.3,0,0,1,1.3-1.3h37.5a1.2,1.2,0,0,1,1.2,1.3V93.3a1.2,1.2,0,0,1-1.2,1.3H153.6a1.3,1.3,0,0,1-1.3-1.3Z" transform="translate(0 0)" style="fill:#fff"/><path d="M152.3,93.3V67.1a1.3,1.3,0,0,1,1.3-1.3h37.5a1.2,1.2,0,0,1,1.2,1.3V93.3a1.2,1.2,0,0,1-1.2,1.3H153.6a1.3,1.3,0,0,1-1.3-1.3Z" transform="translate(0 0)" style="fill:none;stroke:#333;stroke-linejoin:round;stroke-width:0.937404612472386px"/><path d="M152.3,93.3V67.1a1.3,1.3,0,0,1,1.3-1.3h6.2a1.3,1.3,0,0,1,1.3,1.3V93.3a1.3,1.3,0,0,1-1.3,1.3h-6.2a1.3,1.3,0,0,1-1.3-1.3Z" transform="translate(0 0)" style="fill:#fff"/><path d="M152.3,93.3V67.1a1.3,1.3,0,0,1,1.3-1.3h6.2a1.3,1.3,0,0,1,1.3,1.3V93.3a1.3,1.3,0,0,1-1.3,1.3h-6.2a1.3,1.3,0,0,1-1.3-1.3Z" transform="translate(0 0)" style="fill:none;stroke:#333;stroke-linejoin:round;stroke-width:0.937404612472386px"/><path d="M152.3,93.3V67.1a1.3,1.3,0,0,1,1.3-1.3h6.2a1.3,1.3,0,0,1,1.3,1.3V93.3a1.3,1.3,0,0,1-1.3,1.3h-6.2a1.3,1.3,0,0,1-1.3-1.3Z" transform="translate(0 0)" style="fill:#fff"/><path d="M152.3,93.3V67.1a1.3,1.3,0,0,1,1.3-1.3h6.2a1.3,1.3,0,0,1,1.3,1.3V93.3a1.3,1.3,0,0,1-1.3,1.3h-6.2a1.3,1.3,0,0,1-1.3-1.3Z" transform="translate(0 0)" style="fill:none;stroke:#333;stroke-linejoin:round;stroke-width:0.937404612472386px"/><path d="M161.1,93.3V67.1a1.2,1.2,0,0,1,1.2-1.3h28.8a1.2,1.2,0,0,1,1.2,1.3V93.3a1.2,1.2,0,0,1-1.2,1.3H162.3a1.2,1.2,0,0,1-1.2-1.3Z" transform="translate(0 0)" style="fill:#fff"/><path d="M161.1,93.3V67.1a1.2,1.2,0,0,1,1.2-1.3h28.8a1.2,1.2,0,0,1,1.2,1.3V93.3a1.2,1.2,0,0,1-1.2,1.3H162.3a1.2,1.2,0,0,1-1.2-1.3Z" transform="translate(0 0)" style="fill:none;stroke:#333;stroke-linejoin:round;stroke-width:0.937404612472386px"/><polygon points="158.3 76 155.5 76 155.5 73.2 158.3 73.2 158.3 76 158.3 76" style="fill:#fff"/><polygon points="158.3 76 155.5 76 155.5 73.2 158.3 73.2 158.3 76 158.3 76" style="fill:none;stroke:#333;stroke-linejoin:round;stroke-width:0.937404612472386px"/><polygon points="158.3 87.2 155.5 87.2 155.5 84.4 158.3 84.4 158.3 87.2 158.3 87.2" style="fill:#fff"/><polygon points="158.3 87.2 155.5 87.2 155.5 84.4 158.3 84.4 158.3 87.2 158.3 87.2" style="fill:none;stroke:#333;stroke-linejoin:round;stroke-width:0.937404612472386px"/><polygon points="158.3 81.6 155.5 81.6 155.5 78.8 158.3 78.8 158.3 81.6 158.3 81.6" style="fill:#fff"/><polygon points="158.3 81.6 155.5 81.6 155.5 78.8 158.3 78.8 158.3 81.6 158.3 81.6" style="fill:none;stroke:#333;stroke-linejoin:round;stroke-width:0.937404612472386px"/><path d="M139.3,65.5s.4,22.5.4,25.1a12.9,12.9,0,0,0,.4,3.4h0l-1.7,3.5L136.6,94c.2-2,.5-2.3.5-3.5s.4-25,.4-25a.8.8,0,0,1,.9-.8h0a.8.8,0,0,1,.9.8Z" transform="translate(0 0)" style="fill:#fff"/><g style="clip-path:url(#clip-path)"><path d="M139.3,65.5s.4,22.5.4,25.1a12.9,12.9,0,0,0,.4,3.4h0l-1.7,3.5L136.6,94c.2-2,.5-2.3.5-3.5s.4-25,.4-25a.8.8,0,0,1,.9-.8h0a.8.8,0,0,1,.9.8Z" transform="translate(0 0)" style="fill:none;stroke:#333;stroke-linejoin:round;stroke-width:0.937404612472386px"/></g><polygon points="136.6 91.9 140.1 91.9 140.1 85.5 136.6 85.5 136.6 91.9 136.6 91.9" style="fill:#fff"/><polygon points="136.6 91.9 140.1 91.9 140.1 85.5 136.6 85.5 136.6 91.9 136.6 91.9" style="fill:none;stroke:#333;stroke-linejoin:round;stroke-width:0.937404612472386px"/><polygon points="136.7 84.3 140.1 84.3 139.8 66.2 137 66.2 136.7 84.3 136.7 84.3" style="fill:#fff"/><polygon points="136.7 84.3 140.1 84.3 139.8 66.2 137 66.2 136.7 84.3 136.7 84.3" style="fill:none;stroke:#333;stroke-linejoin:round;stroke-width:0.937404612472386px"/><line x1="138.4" y1="88" x2="138.4" y2="89.4" style="fill:none;stroke:#333;stroke-linecap:round;stroke-linejoin:round;stroke-width:0.937404612472386px"/><polygon points="127.8 28.9 118.6 28.9 118.6 25.2 127.8 25.2 127.8 28.9 127.8 28.9" style="fill:#fff"/><polygon points="127.8 28.9 118.6 28.9 118.6 25.2 127.8 25.2 127.8 28.9 127.8 28.9" style="fill:none;stroke:#333;stroke-linejoin:round;stroke-width:0.937404612472386px"/><polygon points="138.7 28.9 129.6 28.9 129.6 25.2 138.7 25.2 138.7 28.9 138.7 28.9" style="fill:#fff"/><polygon points="138.7 28.9 129.6 28.9 129.6 25.2 138.7 25.2 138.7 28.9 138.7 28.9" style="fill:none;stroke:#333;stroke-linejoin:round;stroke-width:0.937404612472386px"/><polygon points="149.6 28.9 140.5 28.9 140.5 25.2 149.6 25.2 149.6 28.9 149.6 28.9" style="fill:#515b64"/><polygon points="149.6 28.9 140.5 28.9 140.5 25.2 149.6 25.2 149.6 28.9 149.6 28.9" style="fill:none;stroke:#303030;stroke-linejoin:round;stroke-width:0.937404612472386px"/><polygon points="138.7 43.4 118.6 43.4 118.6 30.7 138.7 30.7 138.7 43.4 138.7 43.4" style="fill:#f2f2f2"/><polygon points="138.7 43.4 118.6 43.4 118.6 30.7 138.7 30.7 138.7 43.4 138.7 43.4" style="fill:none;stroke:#303030;stroke-linejoin:round;stroke-width:0.937404612472386px"/><polygon points="149.6 36.1 140.5 36.1 140.5 30.7 149.6 30.7 149.6 36.1 149.6 36.1" style="fill:#f8f8f8"/><polygon points="149.6 36.1 140.5 36.1 140.5 30.7 149.6 30.7 149.6 36.1 149.6 36.1" style="fill:none;stroke:#000;stroke-linecap:round;stroke-linejoin:round;stroke-width:0.937404612472386px"/><polygon points="149.6 43.4 140.5 43.4 140.5 38 149.6 38 149.6 43.4 149.6 43.4" style="fill:#ebebeb"/><polygon points="149.6 43.4 140.5 43.4 140.5 38 149.6 38 149.6 43.4 149.6 43.4" style="fill:none;stroke:#303030;stroke-linejoin:round;stroke-width:0.937404612472386px"/><polygon points="149.6 23.4 118.6 23.4 118.6 17.9 149.6 17.9 149.6 23.4 149.6 23.4" style="fill:#e5c13f"/><polygon points="149.6 23.4 118.6 23.4 118.6 17.9 149.6 17.9 149.6 23.4 149.6 23.4" style="fill:none;stroke:#000;stroke-linecap:round;stroke-linejoin:round;stroke-width:0.937404612472386px"/><path d="M60.4,78.9h0a1.5,1.5,0,0,1-2,0l-6-6,2-2,6,6a1.5,1.5,0,0,1,0,2Z" transform="translate(0 0)" style="fill:#fff"/><path d="M60.4,78.9h0a1.5,1.5,0,0,1-2,0l-6-6,2-2,6,6a1.5,1.5,0,0,1,0,2Z" transform="translate(0 0)" style="fill:none;stroke:#333;stroke-linejoin:round;stroke-width:0.937404612472386px"/><polygon points="56.4 70.9 52.4 74.9 50.5 72.9 54.4 68.9 56.4 70.9 56.4 70.9" style="fill:#e5c13f"/><polygon points="56.4 70.9 52.4 74.9 50.5 72.9 54.4 68.9 56.4 70.9 56.4 70.9" style="fill:none;stroke:#000;stroke-linecap:round;stroke-linejoin:round;stroke-width:0.937404612472386px"/><path d="M47.5,65.9h0a2.2,2.2,0,0,0,0,3L51,72.4l2.9-3-3.4-3.5a2.2,2.2,0,0,0-3,0Z" transform="translate(0 0)" style="fill:#e5c13f"/><path d="M47.5,65.9h0a2.2,2.2,0,0,0,0,3L51,72.4l2.9-3-3.4-3.5a2.2,2.2,0,0,0-3,0Z" transform="translate(0 0)" style="fill:none;stroke:#000;stroke-linecap:round;stroke-linejoin:round;stroke-width:0.937404612472386px"/><line x1="60.4" y1="78.9" x2="60.9" y2="79.4" style="fill:#fff"/><line x1="60.4" y1="78.9" x2="60.9" y2="79.4" style="fill:none;stroke:#333;stroke-linecap:round;stroke-linejoin:round;stroke-width:0.937404612472386px"/><path d="M182.4,46.2l-.6.2a1.4,1.4,0,0,0-.9.8,2.4,2.4,0,0,0,0,1.2,1.6,1.6,0,0,0,1.5,1h.6a1.4,1.4,0,0,0,.8-.9,1.3,1.3,0,0,0,0-1.2,1.5,1.5,0,0,0-1.4-1Zm-17,12.4a3.5,3.5,0,0,1-3.3-2.2.5.5,0,0,1,.2-.6l16.7-7a3,3,0,0,1,.1-2.3,3,3,0,0,1,1.9-1.9,3.2,3.2,0,0,1,1.4-.3,3.4,3.4,0,0,1,3.2,2.1,3.9,3.9,0,0,1,.1,2.8,4.4,4.4,0,0,1-1.9,1.9l-17.1,7.2a3.1,3.1,0,0,1-1.3.3Z" transform="translate(0 0)" style="fill:#f2f2f2"/><path d="M182.4,48.9a.9.9,0,0,1-1-.6,1.1,1.1,0,0,1,.5-1.5h.5a1.2,1.2,0,0,1,1,.7,1,1,0,0,1-.6,1.4Zm0-5.1a4,4,0,0,0-4,4.7l-16.2,6.9a.9.9,0,0,0-.5,1.2,3.9,3.9,0,0,0,3.7,2.5,2.8,2.8,0,0,0,1.5-.4l17-7.2a4,4,0,0,0,2.2-2.2,3.9,3.9,0,0,0,0-3,4.1,4.1,0,0,0-3.7-2.5Zm0,6.1.8-.2a2.1,2.1,0,0,0,1.1-2.7,2.1,2.1,0,0,0-1.9-1.2h-.8a2.1,2.1,0,0,0-1.1,2.7,2.1,2.1,0,0,0,1.9,1.3m0-5.2a3,3,0,0,1,2.8,1.9,3.2,3.2,0,0,1-1.6,4.1l-17,7.2-1.2.2a3.2,3.2,0,0,1-2.9-1.8l17-7.3a3.1,3.1,0,0,1,1.7-4,2.7,2.7,0,0,1,1.2-.3" transform="translate(0 0)" style="fill:#333"/><path d="M182.4,55.1a1.6,1.6,0,0,0-1.5,1,2.4,2.4,0,0,0,0,1.2,2,2,0,0,0,.9.9h.6a1.5,1.5,0,0,0,1.4-1,1.4,1.4,0,0,0-.8-2l-.6-.2Zm0,5.2A3.2,3.2,0,0,1,181,60a3.4,3.4,0,0,1-2-4.2l-16.7-7.1a.5.5,0,0,1-.2-.6,3.5,3.5,0,0,1,3.3-2.2,3.1,3.1,0,0,1,1.3.3l17.1,7.2a3.6,3.6,0,0,1,1.8,4.7,3.5,3.5,0,0,1-3.2,2.2Z" transform="translate(0 0)" style="fill:#f2f2f2"/><path d="M182.4,57.8h-.5a1,1,0,0,1-.5-.6.6.6,0,0,1,0-.8,1,1,0,0,1,1-.7h.4a1.1,1.1,0,0,1,.6,1.4,1.2,1.2,0,0,1-1,.7Zm-17-12.3a3.8,3.8,0,0,0-3.7,2.4.9.9,0,0,0,.5,1.2L178.4,56a4.1,4.1,0,0,0,2.4,4.4,4.1,4.1,0,0,0,1.6.3,4,4,0,0,0,3.7-2.4,4.2,4.2,0,0,0,0-3.1,4,4,0,0,0-2.2-2.2l-17-7.2a4,4,0,0,0-1.5-.3Zm17,13.3a2.2,2.2,0,0,0,1.9-1.3,2.2,2.2,0,0,0-1.1-2.7h-.8a2,2,0,0,0-1.9,1.2,2.1,2.1,0,0,0,1.1,2.7l.8.2m-17-12.4,1.2.2,17,7.3a3.1,3.1,0,0,1-1.2,5.9,2.7,2.7,0,0,1-1.2-.3,3.1,3.1,0,0,1-1.7-4l-17-7.2a3.1,3.1,0,0,1,2.9-1.9" transform="translate(0 0)" style="fill:#333"/><path d="M175.9,51.8a.4.4,0,1,1-.4.4.4.4,0,0,1,.4-.4Z" transform="translate(0 0)" style="fill:#303030"/><path d="M175.9,51.8a.4.4,0,1,1-.4.4.4.4,0,0,1,.4-.4Z" transform="translate(0 0)" style="fill:none;stroke:#303030;stroke-linejoin:round;stroke-width:0.937404612472386px"/><polygon points="90.2 67.1 91.4 67.8 92.1 66.6 90.8 65.9 90.2 67.1 90.2 67.1" style="fill:#fff"/><polygon points="90.2 67.1 91.4 67.8 92.1 66.6 90.8 65.9 90.2 67.1 90.2 67.1" style="fill:none;stroke:#e5c13f;stroke-linejoin:round;stroke-width:0.468702306236193px"/><polygon points="73 72 74.2 72.7 74.9 71.5 73.6 70.8 73 72 73 72" style="fill:#fff"/><polygon points="73 72 74.2 72.7 74.9 71.5 73.6 70.8 73 72 73 72" style="fill:none;stroke:#e5c13f;stroke-linejoin:round;stroke-width:0.468702306236193px"/><line x1="90.2" y1="67.1" x2="74.9" y2="71.5" style="fill:#fff"/><line x1="90.2" y1="67.1" x2="74.9" y2="71.5" style="fill:none;stroke:#e5c13f;stroke-linejoin:round;stroke-width:0.468702306236193px"/><path d="M91,73.5h0a4.2,4.2,0,0,0-4.3-4.2H78.3a4.2,4.2,0,0,1-4.2-4.2h0" transform="translate(0 0)" style="fill:none;stroke:#333;stroke-linejoin:round;stroke-width:0.937404612472386px"/><path d="M81.1,81.9a1.4,1.4,0,0,1,2.8,0,1.4,1.4,0,1,1-2.8,0Zm-5.6,1.4h0a6.3,6.3,0,0,1,4.2,5.9v1.2h5.6V89.2a6.3,6.3,0,0,1,4.2-5.9h0a26.2,26.2,0,0,1-6.1-9.8l-.9-2.8-.9,2.8a25,25,0,0,1-6.1,9.8Z" transform="translate(0 0)" style="fill:#fff"/><path d="M81.1,81.9a1.4,1.4,0,0,1,2.8,0,1.4,1.4,0,1,1-2.8,0Zm-5.6,1.4h0a6.3,6.3,0,0,1,4.2,5.9v1.2h5.6V89.2a6.3,6.3,0,0,1,4.2-5.9h0a26.2,26.2,0,0,1-6.1-9.8l-.9-2.8-.9,2.8a25,25,0,0,1-6.1,9.8Z" transform="translate(0 0)" style="fill:none;stroke:#333;stroke-linejoin:round;stroke-width:0.937404612472386px"/><polygon points="78.3 93.2 86.7 93.2 86.7 90.4 78.3 90.4 78.3 93.2 78.3 93.2" style="fill:#fff"/><polygon points="78.3 93.2 86.7 93.2 86.7 90.4 78.3 90.4 78.3 93.2 78.3 93.2" style="fill:none;stroke:#333;stroke-linejoin:round;stroke-width:0.937404612472386px"/><line x1="82.5" y1="70.7" x2="82.5" y2="80.5" style="fill:#fff"/><line x1="82.5" y1="70.7" x2="82.5" y2="80.5" style="fill:none;stroke:#333;stroke-linecap:round;stroke-linejoin:round;stroke-width:0.937404612472386px"/><g style="clip-path:url(#clip-path)"><polygon points="79.7 95.8 85.3 95.8 85.3 93.2 79.7 93.2 79.7 95.8 79.7 95.8" style="fill:#333"/><polygon points="79.7 95.8 85.3 95.8 85.3 93.2 79.7 93.2 79.7 95.8 79.7 95.8" style="fill:none;stroke:#333;stroke-linejoin:round;stroke-width:0.937404612472386px"/></g><polygon points="81.1 70.7 83.9 70.7 83.9 67.9 81.1 67.9 81.1 70.7 81.1 70.7" style="fill:#fff"/><polygon points="81.1 70.7 83.9 70.7 83.9 67.9 81.1 67.9 81.1 70.7 81.1 70.7" style="fill:none;stroke:#333;stroke-linejoin:round;stroke-width:0.937404612472386px"/><polygon points="89.5 76.3 92.4 76.3 92.4 73.5 89.5 73.5 89.5 76.3 89.5 76.3" style="fill:#fff"/><polygon points="89.5 76.3 92.4 76.3 92.4 73.5 89.5 73.5 89.5 76.3 89.5 76.3" style="fill:none;stroke:#333;stroke-linejoin:round;stroke-width:0.937404612472386px"/><polygon points="72.7 65.1 75.5 65.1 75.5 62.3 72.7 62.3 72.7 65.1 72.7 65.1" style="fill:#fff"/><polygon points="72.7 65.1 75.5 65.1 75.5 62.3 72.7 62.3 72.7 65.1 72.7 65.1" style="fill:none;stroke:#333;stroke-linejoin:round;stroke-width:0.937404612472386px"/><polygon points="21.7 61.9 29.3 61.9 29.3 31.7 21.7 31.7 21.7 61.9 21.7 61.9" style="fill:#fff"/><polygon points="21.7 61.9 29.3 61.9 29.3 31.7 21.7 31.7 21.7 61.9 21.7 61.9" style="fill:none;stroke:#333;stroke-linejoin:round;stroke-width:0.937404612472386px"/><polygon points="23.6 37.4 27.4 37.4 27.4 33.6 23.6 33.6 23.6 37.4 23.6 37.4" style="fill:#e5c13f"/><polygon points="23.6 43 27.4 43 27.4 39.2 23.6 39.2 23.6 43 23.6 43" style="fill:#e9ca5a"/><polygon points="23.6 48.7 27.4 48.7 27.4 44.9 23.6 44.9 23.6 48.7 23.6 48.7" style="fill:#ebce3d"/><polygon points="23.6 54.3 27.4 54.3 27.4 50.6 23.6 50.6 23.6 54.3 23.6 54.3" style="fill:#edd350"/><polygon points="23.6 60 27.4 60 27.4 56.2 23.6 56.2 23.6 60 23.6 60" style="fill:#eed762"/><polygon points="21.9 61.9 29.1 59.9 21.3 30.8 14 32.7 21.9 61.9 21.9 61.9" style="fill:#fff"/><polygon points="21.9 61.9 29.1 59.9 21.3 30.8 14 32.7 21.9 61.9 21.9 61.9" style="fill:none;stroke:#333;stroke-linejoin:round;stroke-width:0.937404612472386px"/><polygon points="17.3 37.7 21 36.7 20 33.1 16.4 34.1 17.3 37.7 17.3 37.7" style="fill:#f8f8f8"/><polygon points="18.8 43.2 22.4 42.2 21.5 38.5 17.8 39.5 18.8 43.2 18.8 43.2" style="fill:#162030"/><polygon points="20.3 48.6 23.9 47.7 22.9 44 19.3 45 20.3 48.6 20.3 48.6" style="fill:#467cc0"/><polygon points="21.7 54.1 25.4 53.1 24.4 49.5 20.7 50.5 21.7 54.1 21.7 54.1" style="fill:#5788c6"/><polygon points="23.2 59.6 26.8 58.6 25.9 55 22.2 55.9 23.2 59.6 23.2 59.6" style="fill:#272b40"/><polygon points="21.8 61.9 28.4 58.1 13.3 32 6.7 35.7 21.8 61.9 21.8 61.9" style="fill:#fff"/><polygon points="21.8 61.9 28.4 58.1 13.3 32 6.7 35.7 21.8 61.9 21.8 61.9" style="fill:none;stroke:#333;stroke-linejoin:round;stroke-width:0.937404612472386px"/><polygon points="11.2 39.7 14.5 37.8 12.6 34.5 9.3 36.4 11.2 39.7 11.2 39.7" style="fill:#ebebeb"/><polygon points="14 44.6 17.3 42.7 15.4 39.4 12.1 41.3 14 44.6 14 44.6" style="fill:#ebebeb"/><polygon points="16.9 49.5 20.1 47.6 18.2 44.3 15 46.2 16.9 49.5 16.9 49.5" style="fill:#ededed"/><polygon points="19.7 54.4 23 52.5 21.1 49.2 17.8 51.1 19.7 54.4 19.7 54.4" style="fill:#efefef"/><polygon points="22.5 59.3 25.8 57.4 23.9 54.2 20.6 56 22.5 59.3 22.5 59.3" style="fill:#f1f1f1"/><polygon points="21.8 61.9 27.2 56.5 5.8 35.2 0.5 40.5 21.8 61.9 21.8 61.9" style="fill:#fff"/><g style="clip-path:url(#clip-path)"><polygon points="21.8 61.9 27.2 56.5 5.8 35.2 0.5 40.5 21.8 61.9 21.8 61.9" style="fill:none;stroke:#333;stroke-linejoin:round;stroke-width:0.937404612472386px"/></g><polygon points="5.8 43.2 8.5 40.5 5.8 37.9 3.1 40.5 5.8 43.2 5.8 43.2" style="fill:#f2f2f2"/><polygon points="9.8 47.2 12.5 44.5 9.8 41.9 7.1 44.5 9.8 47.2 9.8 47.2" style="fill:#f5f5f5"/><polygon points="13.8 51.2 16.5 48.5 13.8 45.9 11.1 48.5 13.8 51.2 13.8 51.2" style="fill:#fff"/><polygon points="17.8 55.2 20.5 52.5 17.8 49.9 15.1 52.5 17.8 55.2 17.8 55.2" style="fill:#fff"/><polygon points="21.8 59.2 24.5 56.5 21.8 53.9 19.2 56.5 21.8 59.2 21.8 59.2" style="fill:#fff"/><g style="clip-path:url(#clip-path)"><path d="M65.7,99.5h4.7a3.1,3.1,0,0,0,3.1-3.1V87.2a.8.8,0,0,0-.8-.8H63.4a.8.8,0,0,0-.8.8v9.2a3.1,3.1,0,0,0,3.1,3.1Z" transform="translate(0 0)" style="fill:#e5c13f"/><path d="M65.7,99.5h4.7a3.1,3.1,0,0,0,3.1-3.1V87.2a.8.8,0,0,0-.8-.8H63.4a.8.8,0,0,0-.8.8v9.2a3.1,3.1,0,0,0,3.1,3.1Z" transform="translate(0 0)" style="fill:none;stroke:#000;stroke-linecap:round;stroke-linejoin:round;stroke-width:0.937404612472386px"/></g><path d="M71.3,92.1V88.5m0,6.7v-.9" transform="translate(0 0)" style="fill:none;stroke:#303030;stroke-linecap:round;stroke-linejoin:round;stroke-width:0.937404612472386px"/><path d="M62.6,95.2h0V88.6H62a1.6,1.6,0,0,0-1.6,1.6V93a2.2,2.2,0,0,0,2.2,2.2Z" transform="translate(0 0)" style="fill:none;stroke:#303030;stroke-linejoin:round;stroke-width:0.937404612472386px"/><path d="M68.3,75.5h0a2.2,2.2,0,0,1,0,3.5h0a3.2,3.2,0,0,0,0,5.2h0" transform="translate(0 0)" style="fill:none;stroke:#303030;stroke-linecap:round;stroke-linejoin:round;stroke-width:0.937404612472386px"/><polyline points="136.9 70.3 136.9 71.3 136 71.3" style="fill:none;stroke:#333;stroke-linecap:round;stroke-linejoin:round;stroke-width:0.468702306236193px"/><line x1="134.1" y1="71.3" x2="116" y2="71.3" style="fill:none;stroke:#333;stroke-linecap:round;stroke-linejoin:round;stroke-width:0.468702306236193px;stroke-dasharray:1.9049936532974243,1.9049936532974243"/><polyline points="115 71.3 114.1 71.3 114.1 70.3" style="fill:none;stroke:#333;stroke-linecap:round;stroke-linejoin:round;stroke-width:0.468702306236193px"/><line x1="114.1" y1="68.4" x2="114.1" y2="50.3" style="fill:none;stroke:#333;stroke-linecap:round;stroke-linejoin:round;stroke-width:0.468702306236193px;stroke-dasharray:1.9049936532974243,1.9049936532974243"/><polyline points="114.1 49.4 114.1 48.5 115 48.5" style="fill:none;stroke:#333;stroke-linecap:round;stroke-linejoin:round;stroke-width:0.468702306236193px"/><line x1="116.9" y1="48.5" x2="135" y2="48.5" style="fill:none;stroke:#333;stroke-linecap:round;stroke-linejoin:round;stroke-width:0.468702306236193px;stroke-dasharray:1.9049936532974243,1.9049936532974243"/><polyline points="136 48.5 136.9 48.5 136.9 49.4" style="fill:none;stroke:#333;stroke-linecap:round;stroke-linejoin:round;stroke-width:0.468702306236193px"/><line x1="136.9" y1="51.3" x2="136.9" y2="69.4" style="fill:none;stroke:#333;stroke-linecap:round;stroke-linejoin:round;stroke-width:0.468702306236193px;stroke-dasharray:1.9049936532974243,1.9049936532974243"/><polygon points="115.5 49.9 112.6 49.9 112.6 47 115.5 47 115.5 49.9 115.5 49.9" style="fill:#fff"/><polygon points="115.5 49.9 112.6 49.9 112.6 47 115.5 47 115.5 49.9 115.5 49.9" style="fill:none;stroke:#333;stroke-linejoin:round;stroke-width:0.937404612472386px"/><polygon points="115.5 72.8 112.6 72.8 112.6 69.8 115.5 69.8 115.5 72.8 115.5 72.8" style="fill:#fff"/><polygon points="115.5 72.8 112.6 72.8 112.6 69.8 115.5 69.8 115.5 72.8 115.5 72.8" style="fill:none;stroke:#333;stroke-linejoin:round;stroke-width:0.937404612472386px"/><polygon points="138.4 49.9 135.4 49.9 135.4 47 138.4 47 138.4 49.9 138.4 49.9" style="fill:#fff"/><polygon points="138.4 49.9 135.4 49.9 135.4 47 138.4 47 138.4 49.9 138.4 49.9" style="fill:none;stroke:#333;stroke-linejoin:round;stroke-width:0.937404612472386px"/><polygon points="138.4 72.8 135.4 72.8 135.4 69.8 138.4 69.8 138.4 72.8 138.4 72.8" style="fill:#fff"/><polygon points="138.4 72.8 135.4 72.8 135.4 69.8 138.4 69.8 138.4 72.8 138.4 72.8" style="fill:none;stroke:#333;stroke-linejoin:round;stroke-width:0.937404612472386px"/><path d="M79.9,50.9a2.8,2.8,0,0,1,3,2.5H81.3a1.3,1.3,0,0,0-1.4-1,1.8,1.8,0,0,0,0,3.6,1.3,1.3,0,0,0,1.4-1h1.6a2.8,2.8,0,0,1-3,2.5,3.3,3.3,0,0,1,0-6.6Z" transform="translate(0 0)" style="fill:#f2f2f2"/><path d="M87,52.5H85.9v1.6H87c.9,0,1-1.6,0-1.6Zm2.7,4.7v.3H87.8l-1.1-1.9h-.8v1.9H84.2V51H87a2.3,2.3,0,0,1,1.4,4.2l1.3,2Z" transform="translate(0 0)" style="fill:#f2f2f2"/><path d="M94.7,52.5H92.3v.9h2.2v1.5H92.3V56h2.5v1.5H90.7V51h4v1.5Z" transform="translate(0 0)" style="fill:#f2f2f2"/><path d="M98.7,53.5l-.8,1.7h1.5l-.7-1.7Zm1.2,3.1H97.4l-.4.9H95.4v-.3l2.9-6.3H99l2.9,6.3v.3h-1.6l-.4-.9Z" transform="translate(0 0)" style="fill:#f2f2f2"/><path d="M101.8,52.5V51h4.8v1.5H105v5h-1.6v-5Z" transform="translate(0 0)" style="fill:#f2f2f2"/><path d="M110.5,56v1.5h-3.3V56h.8V52.4h-.7V51h3.1v1.4h-.7V56Z" transform="translate(0 0)" style="fill:#f2f2f2"/><polygon points="114 54.7 114 54.7 115.5 51 117.1 51 117.1 51.2 114.4 57.5 113.7 57.5 110.9 51.2 110.9 51 112.5 51 114 54.7 114 54.7" style="fill:#f2f2f2"/><path d="M122.1,52.5h-2.4v.9h2.2v1.5h-2.2V56h2.5v1.5h-4.1V51h4v1.5Z" transform="translate(0 0)" style="fill:#f2f2f2"/><path d="M105.4,59.7a1.8,1.8,0,0,1,1.9,1.4h-1a1.1,1.1,0,0,0-.9-.5c-.7,0-1,.6-1,1.2s.4,1.2,1,1.2a1,1,0,0,0,.9-.6h-.9v-.9h2a2.5,2.5,0,0,1-.2,1.2,1.7,1.7,0,0,1-1.8,1.2,2.1,2.1,0,0,1,0-4.2Z" transform="translate(0 0)" style="fill:#e5c13f"/><path d="M110,60.7h-.7v1h.7a.5.5,0,0,0,0-1Zm1.7,3v.2h-1.2l-.7-1.2h-.5v1.2h-1.1V59.7H110a1.5,1.5,0,0,1,.9,2.7l.8,1.3Z" transform="translate(0 0)" style="fill:#e5c13f"/><path d="M114.1,61.4l-.5,1.1h1l-.5-1.1Zm.8,2h-1.6l-.3.5h-1v-.2l1.9-4h.4l1.9,4v.2h-1.1l-.2-.5Z" transform="translate(0 0)" style="fill:#e5c13f"/><path d="M118.5,60.7h-.7v1.2h.7c.6,0,.6-1.2,0-1.2Zm-1.8,3.2V59.7h1.8a1.6,1.6,0,0,1,0,3.1h-.7v1.1Z" transform="translate(0 0)" style="fill:#e5c13f"/><path d="M124.3,63.9h-1.1V62.2h-1.3v1.7h-1.1V59.7h1.1v1.5h1.3V59.7h1.1v4.2Z" transform="translate(0 0)" style="fill:#e5c13f"/><path d="M127.1,63v.9H125V63h.5V60.6H125v-.9h2v.9h-.4V63Z" transform="translate(0 0)" style="fill:#e5c13f"/><path d="M129.6,59.7a1.8,1.8,0,0,1,2,1.6h-1.1a.8.8,0,0,0-.9-.7c-.6,0-1,.5-1,1.2a1.1,1.1,0,0,0,1,1.2,1,1,0,0,0,1-.7h1a1.8,1.8,0,0,1-2,1.6,2.1,2.1,0,1,1,0-4.2Z" transform="translate(0 0)" style="fill:#e5c13f"/><polygon points="146.5 59.6 155.7 50.4 151.8 46.4 142.5 55.7 146.5 59.6 146.5 59.6" style="fill:#e5c13f"/><polygon points="146.5 59.6 155.7 50.4 151.8 46.4 142.5 55.7 146.5 59.6 146.5 59.6" style="fill:none;stroke:#000;stroke-linecap:round;stroke-linejoin:round;stroke-width:0.937404612472386px"/><polygon points="145.1 58.3 154.4 49 153.1 47.7 143.8 57 145.1 58.3 145.1 58.3" style="fill:#e5c13f"/><polygon points="145.1 58.3 154.4 49 153.1 47.7 143.8 57 145.1 58.3 145.1 58.3" style="fill:none;stroke:#000;stroke-linecap:round;stroke-linejoin:round;stroke-width:0.937404612472386px"/><path d="M158.1,42.8l1.2,1.2a1.2,1.2,0,0,1,0,1.9l-2,2-3.1-3.1,2-2a1.4,1.4,0,0,1,1.9,0Z" transform="translate(0 0)" style="fill:#82b541"/><path d="M158.1,42.8l1.2,1.2a1.2,1.2,0,0,1,0,1.9l-2,2-3.1-3.1,2-2a1.4,1.4,0,0,1,1.9,0Z" transform="translate(0 0)" style="fill:none;stroke:#333;stroke-linejoin:round;stroke-width:0.937404612472386px"/><polygon points="146.5 59.6 139.5 62.6 142.5 55.7 146.5 59.6 146.5 59.6" style="fill:#fff"/><polygon points="146.5 59.6 139.5 62.6 142.5 55.7 146.5 59.6 146.5 59.6" style="fill:none;stroke:#333;stroke-linecap:round;stroke-linejoin:round;stroke-width:0.937404612472386px"/><path d="M142.5,59.6a5.1,5.1,0,0,0-1.3-.9l-1.7,3.9,3.9-1.6a4.2,4.2,0,0,0-.9-1.4Z" transform="translate(0 0)" style="fill:#e5c13f"/><path d="M142.5,59.6a5.1,5.1,0,0,0-1.3-.9l-1.7,3.9,3.9-1.6a4.2,4.2,0,0,0-.9-1.4Z" transform="translate(0 0)" style="fill:none;stroke:#000;stroke-linecap:round;stroke-linejoin:round;stroke-width:0.937404612472386px"/><polygon points="154.8 43.4 158.7 47.4 155.7 50.4 151.8 46.4 154.8 43.4 154.8 43.4" style="fill:#f8f8f8"/><polygon points="154.8 43.4 158.7 47.4 155.7 50.4 151.8 46.4 154.8 43.4 154.8 43.4" style="fill:none;stroke:#303030;stroke-linejoin:round;stroke-width:0.937404612472386px"/><path d="M124,68.3V69h-1.6v-.7h.4V66.6h-.4v-.7h1.5v.7h-.3v1.7Z" transform="translate(0 0)" style="fill:#c9c9c9"/><path d="M125.9,65.9a1.3,1.3,0,0,1,1.4,1.1h-.7a.8.8,0,0,0-.7-.4.7.7,0,0,0-.8.8.8.8,0,0,0,.8.9.8.8,0,0,0,.7-.5h.7a1.3,1.3,0,0,1-1.4,1.2,1.5,1.5,0,0,1-1.6-1.6,1.5,1.5,0,0,1,1.6-1.5Z" transform="translate(0 0)" style="fill:#c9c9c9"/><path d="M130.1,67.5c0-1.2-1.5-1.2-1.5,0a.8.8,0,1,0,1.5,0Zm-2.4,0a1.6,1.6,0,1,1,3.2,0,1.6,1.6,0,0,1-3.2,0Z" transform="translate(0 0)" style="fill:#c9c9c9"/><path d="M132.3,67.5V69h-.8V65.9h.3l1.5,1.5V65.9h.8V69h-.2l-1.6-1.5Z" transform="translate(0 0)" style="fill:#c9c9c9"/><path d="M83.5,63.9v1.3h-3V63.9h.8V60.7h-.7V59.4h2.9v1.3h-.7v3.2Z" transform="translate(0 0)" style="fill:#f8f8f8"/><path d="M86.1,63.9h.7c1.9,0,1.9-3.1,0-3.1h-.7v3.1Zm.7,1.3H84.5V59.4h2.3c3.8,0,3.8,5.8,0,5.8Z" transform="translate(0 0)" style="fill:#f8f8f8"/><path d="M94.5,60.8H92.3v.8h2.1v1.3H92.3v1h2.3v1.3H90.8V59.4h3.7v1.4Z" transform="translate(0 0)" style="fill:#f8f8f8"/><path d="M98.2,61.7l-.7,1.5h1.3l-.6-1.5Zm1.1,2.8H97l-.4.7H95.2V65l2.6-5.7h.7l2.7,5.7v.2H99.7l-.4-.7Z" transform="translate(0 0)" style="fill:#f8f8f8"/></g></g></g></g></svg>