<svg id="Layer_1" data-name="Layer 1" xmlns="http://www.w3.org/2000/svg" viewBox="0 0 1424 688"><defs><style>.cls-1,.cls-14,.cls-22,.cls-33,.cls-53,.cls-54{fill:none;}.cls-1,.cls-11,.cls-12,.cls-13,.cls-14,.cls-15,.cls-16,.cls-17,.cls-18,.cls-19,.cls-2,.cls-25,.cls-27,.cls-28,.cls-29,.cls-3,.cls-8{stroke:#4c4c4c;}.cls-1,.cls-10,.cls-15,.cls-16,.cls-17,.cls-21,.cls-22,.cls-23,.cls-28,.cls-29,.cls-53,.cls-54,.cls-9{stroke-linecap:round;}.cls-1,.cls-10,.cls-11,.cls-13,.cls-14,.cls-15,.cls-16,.cls-18,.cls-19,.cls-2,.cls-21,.cls-22,.cls-23,.cls-24,.cls-25,.cls-26,.cls-27,.cls-28,.cls-29,.cls-3,.cls-32,.cls-33,.cls-34,.cls-4,.cls-53,.cls-54,.cls-8,.cls-9{stroke-linejoin:round;}.cls-1,.cls-10,.cls-11,.cls-12,.cls-13,.cls-14,.cls-15,.cls-16,.cls-17,.cls-18,.cls-19,.cls-2,.cls-21,.cls-22,.cls-23,.cls-25,.cls-26,.cls-27,.cls-28,.cls-29,.cls-3,.cls-33,.cls-34,.cls-4,.cls-8,.cls-9{stroke-width:6px;}.cls-2{fill:#b3b3b3;}.cls-3,.cls-6{fill:#e6e6e6;}.cls-16,.cls-32,.cls-4,.cls-9{fill:#fff;}.cls-10,.cls-21,.cls-22,.cls-23,.cls-24,.cls-26,.cls-33,.cls-34,.cls-4,.cls-53,.cls-54,.cls-9{stroke:#4d4d4d;}.cls-15,.cls-25,.cls-5{fill:#facb67;}.cls-7{fill:#d9d9d9;}.cls-30,.cls-8{fill:#a5cfe8;}.cls-10,.cls-24,.cls-31,.cls-34{fill:#4d4d4d;}.cls-11,.cls-20,.cls-28{fill:#fff361;}.cls-12,.cls-13,.cls-23{fill:#4c4c4c;}.cls-12,.cls-17{stroke-miterlimit:10;}.cls-17,.cls-21,.cls-29,.cls-35{fill:#e77e74;}.cls-18{fill:#c5c5c5;}.cls-19{fill:#8a8a8a;}.cls-24{stroke-width:5px;}.cls-26{fill:#9e8354;}.cls-27,.cls-44{fill:#84e7a3;}.cls-32{stroke:#e77e74;}.cls-32,.cls-53,.cls-54{stroke-width:3px;}.cls-36{fill:#e7938b;}.cls-37{fill:#e79d96;}.cls-38{fill:#e7a8a2;}.cls-39{fill:#e7b2ad;}.cls-40{fill:#fff580;}.cls-41{fill:#fff68c;}.cls-42{fill:#fff799;}.cls-43{fill:#fff8a6;}.cls-45{fill:#8be7a8;}.cls-46{fill:#96e7af;}.cls-47{fill:#a2e7b7;}.cls-48{fill:#ade7bf;}.cls-49{fill:#bad7e8;}.cls-50{fill:#c5dbe8;}.cls-51{fill:#d1dfe8;}.cls-52{fill:#dce4e8;}.cls-54{stroke-dasharray:12.19 12.19;}.cls-55{fill:#ccc;}</style></defs><title>Zeichenfläche 4</title><line class="cls-1" x1="1358.19" y1="656.03" x2="113.98" y2="656.03"/><path class="cls-2" d="M580,638h36.83A48.17,48.17,0,0,0,665,589.87V575h72v14.83A48.17,48.17,0,0,0,785.19,638H822a5,5,0,0,1,5,5v8a5,5,0,0,1-5,5H580a5,5,0,0,1-5-5v-8A5,5,0,0,1,580,638Z"/><rect class="cls-3" x="440.03" y="240.24" width="522" height="351" rx="20" ry="20" transform="translate(1402.05 831.47) rotate(180)"/><rect class="cls-4" x="467.03" y="267.24" width="468" height="252" rx="5" ry="5" transform="translate(1402.05 786.47) rotate(180)"/><rect class="cls-3" x="575.03" y="638.03" width="252" height="18" rx="5" ry="5" transform="translate(1402.05 1294.06) rotate(180)"/><path class="cls-5" d="M628,293.85,634.17,313h.15l1.59-6.12,4.58-13.58h9.15v1.39l-12.5,35h-5.3l-5.76-17.33h-.15l-5.76,17.33h-5.09l-12.65-35v-1.39h9.31l4.63,13.58L618,313h.15l6-19.13Z"/><path class="cls-5" d="M677.52,301.51H664.2v5.09h12.24v8.18H664.2v6.33H678v8.18H655v-36h22.47Z"/><path class="cls-5" d="M709.66,310.56a7.8,7.8,0,0,1,4.32,7.35c-.05,6.27-3.86,11.37-11.21,11.37H685.9v-36h15.38a11,11,0,0,1,11.21,11.06A8.6,8.6,0,0,1,709.66,310.56Zm-14.86-9.05v5.91h5.81c3.65,0,3.65-5.91-.05-5.91Zm0,13.47v6.12h7.35c3.7,0,3.65-6.12-.05-6.12Z"/><path class="cls-6" d="M500.62,404.09v-11h4v11c0,3.64-3.15,5.75-6.55,5.75s-6.58-2.1-6.58-5.75v-11h4v11c0,1.35,1.3,2,2.53,2S500.62,405.44,500.62,404.09Z"/><path class="cls-6" d="M515.8,406v3.71h-8.4V406h2.11v-9.15h-1.94v-3.69h8.07v3.69H513.7V406Z"/><path class="cls-7" d="M836.94,357.18V341.53h5.84v15.75c0,5.2-4.55,8.2-9.41,8.2s-9.38-3-9.38-8.2V341.53h5.77v15.65c0,1.92,1.86,2.87,3.61,2.87S836.94,359.11,836.94,357.18Z"/><path class="cls-7" d="M856.81,357.72l-4.32,7.42H846v-.91l7.62-11.61-6.82-10.19v-.91h6.28l3.75,6.14H857l3.78-6.14H867v.91l-6.81,10.19,7.66,11.61v.91h-6.51L857,357.72Z"/><circle class="cls-8" cx="164.38" cy="552.23" r="75.82"/><circle class="cls-9" cx="164.38" cy="552.23" r="56.87"/><circle class="cls-8" cx="164.38" cy="552.23" r="37.91"/><circle class="cls-9" cx="164.38" cy="552.23" r="18.96"/><line class="cls-10" x1="152.32" y1="540.17" x2="78.6" y2="466.45"/><polygon class="cls-10" points="152.32 526.76 138.92 540.17 159.03 546.87 152.32 526.76"/><polygon class="cls-9" points="65.2 453.04 65.2 426.23 85.3 446.34 85.3 473.15 65.2 453.04"/><polygon class="cls-9" points="58.49 473.15 85.3 473.15 65.2 453.04 38.39 453.04 58.49 473.15"/><polygon class="cls-9" points="58.49 446.34 58.49 419.53 71.9 432.94 71.9 459.74 58.49 446.34"/><polygon class="cls-9" points="45.09 459.74 71.9 459.74 58.49 446.34 31.69 446.34 45.09 459.74"/><path class="cls-8" d="M379.61,235.07h-5.23a3.79,3.79,0,0,1-3.65-2.86A54.13,54.13,0,0,0,365,218.43a3.79,3.79,0,0,1,.56-4.61l3.7-3.7a3.76,3.76,0,0,0,0-5.32l-10.08-10.08a3.76,3.76,0,0,0-5.32,0l-3.7,3.7a3.79,3.79,0,0,1-4.61.56,54.13,54.13,0,0,0-13.78-5.72,3.79,3.79,0,0,1-2.86-3.65v-5.23a3.76,3.76,0,0,0-3.76-3.76H310.89a3.76,3.76,0,0,0-3.76,3.76v5.23a3.79,3.79,0,0,1-2.86,3.65A54.13,54.13,0,0,0,290.48,199a3.79,3.79,0,0,1-4.61-.56l-3.7-3.7a3.76,3.76,0,0,0-5.32,0l-10.08,10.08a3.76,3.76,0,0,0,0,5.32l3.7,3.7a3.79,3.79,0,0,1,.56,4.61,54.13,54.13,0,0,0-5.72,13.78,3.79,3.79,0,0,1-3.65,2.86h-5.23a3.76,3.76,0,0,0-3.76,3.76v14.26a3.76,3.76,0,0,0,3.76,3.76h5.23a3.79,3.79,0,0,1,3.65,2.86A54.13,54.13,0,0,0,271,273.5a3.79,3.79,0,0,1-.56,4.61l-3.7,3.7a3.76,3.76,0,0,0,0,5.32l10.08,10.08a3.76,3.76,0,0,0,5.32,0l3.7-3.7a3.79,3.79,0,0,1,4.61-.56,54.13,54.13,0,0,0,13.78,5.72,3.79,3.79,0,0,1,2.86,3.65v5.23a3.76,3.76,0,0,0,3.76,3.76h14.26a3.76,3.76,0,0,0,3.76-3.76v-5.23a3.79,3.79,0,0,1,2.86-3.65A54.13,54.13,0,0,0,345.56,293a3.79,3.79,0,0,1,4.61.56l3.7,3.7a3.76,3.76,0,0,0,5.32,0l10.08-10.08a3.76,3.76,0,0,0,0-5.32l-3.7-3.7a3.79,3.79,0,0,1-.56-4.61,54.13,54.13,0,0,0,5.72-13.78,3.79,3.79,0,0,1,3.65-2.86h5.23a3.76,3.76,0,0,0,3.76-3.76V238.84A3.76,3.76,0,0,0,379.61,235.07Zm-63.1,39.85A29,29,0,1,1,347,244.46,29.1,29.1,0,0,1,316.51,274.92Z"/><path class="cls-11" d="M1113,76h0a64.91,64.91,0,0,0-64.91,64.91h0a64.6,64.6,0,0,0,10.54,35.48,183.2,183.2,0,0,1,20.49,41.47h0a6.16,6.16,0,0,0,5.84,4.19H1141a6.16,6.16,0,0,0,5.84-4.19h0a183.2,183.2,0,0,1,20.49-41.47,64.6,64.6,0,0,0,10.54-35.48h0A64.91,64.91,0,0,0,1113,76Z"/><path class="cls-1" d="M1162,162.54a53.35,53.35,0,0,1-4.15,7.63q-1.34,2.05-2.62,4.11"/><path class="cls-1" d="M1113,87.25a53.68,53.68,0,0,1,53.62,53.62"/><rect class="cls-12" x="1079.46" y="232.15" width="67.02" height="9.58" rx="4.34" ry="4.34"/><rect class="cls-12" x="1084.07" y="251.64" width="57.81" height="9.58" rx="4.34" ry="4.34"/><path class="cls-13" d="M1100.23,262.61h25.6a0,0,0,0,1,0,0v.76a6,6,0,0,1-6,6h-13.57a6,6,0,0,1-6-6v-.76a0,0,0,0,1,0,0Z"/><polyline class="cls-14" points="1102.16 222 1102.16 194.96 1080.52 146.28 1091.34 151.98 1102.16 135.75 1123.79 157.39 1134.61 141.16 1145.43 146.28 1123.79 194.96 1123.79 222"/><line class="cls-1" x1="1112.98" y1="54.62" x2="1112.98" y2="21.97"/><line class="cls-1" x1="1156.25" y1="66.22" x2="1162.26" y2="55.81"/><line class="cls-1" x1="1187.92" y1="97.89" x2="1216.2" y2="81.56"/><line class="cls-1" x1="1199.52" y1="141.16" x2="1211.54" y2="141.16"/><line class="cls-1" x1="1187.92" y1="184.43" x2="1216.2" y2="200.76"/><line class="cls-1" x1="1069.71" y1="66.22" x2="1063.7" y2="55.81"/><line class="cls-1" x1="1038.03" y1="97.89" x2="1009.75" y2="81.56"/><line class="cls-1" x1="1026.44" y1="141.16" x2="1014.42" y2="141.16"/><line class="cls-1" x1="1038.03" y1="184.43" x2="1009.75" y2="200.76"/><path class="cls-15" d="M243.17,627.5H394.34a1,1,0,0,1,1,1V636a20,20,0,0,1-20,20H263.17a20,20,0,0,1-20-20V627.5A0,0,0,0,1,243.17,627.5Z" transform="translate(638.51 1283.53) rotate(-180)"/><rect class="cls-15" x="300.23" y="579.95" width="38.04" height="47.55" transform="translate(638.51 1207.45) rotate(180)"/><rect class="cls-3" x="277.14" y="458.77" width="19.02" height="124.44" transform="translate(776.02 858.79) rotate(153.44)"/><rect class="cls-3" x="291.32" y="339.71" width="19.02" height="127.7" transform="translate(228.19 901.65) rotate(-135)"/><circle class="cls-15" cx="319.25" cy="579.95" r="19.02"/><circle class="cls-15" cx="248.96" cy="456.01" r="19.02"/><rect class="cls-16" x="363.09" y="341.88" width="28.53" height="19.02" transform="translate(754.7 702.78) rotate(180)"/><circle class="cls-11" cx="455.17" cy="401.04" r="23.43" transform="translate(-134 256.49) rotate(-27.6)"/><circle class="cls-15" cx="352.71" cy="351.69" r="19.02"/><polygon class="cls-15" points="436.4 303.54 385.83 329.97 404.6 427.48 505.75 374.61 436.4 303.54"/><line class="cls-17" x1="457.87" y1="348.24" x2="433.29" y2="323.05"/><line class="cls-17" x1="474.72" y1="365.51" x2="469.27" y2="359.92"/><path class="cls-18" d="M665.89,444H764a17.37,17.37,0,0,1,17.37,17.37v98.09A17.37,17.37,0,0,1,764,576.86H665.89a17.38,17.38,0,0,1-17.37-17.37V461.39A17.38,17.38,0,0,1,665.89,444Z"/><path class="cls-19" d="M701.27,535.09l-20.59-23.62-32.16,39.3v9.39s-.3,15.73,16.69,16.7h2.52Z"/><circle class="cls-9" cx="680.67" cy="512.15" r="16.79"/><circle class="cls-9" cx="733.05" cy="497.02" r="32.39"/><path class="cls-8" d="M764.71,444H665.18a16.66,16.66,0,0,0-16.66,16.66v91.49l32.17-40.29,20.59,23.22L733,495.54s48.31,55.31,48.31,54.48V460.66A16.65,16.65,0,0,0,764.71,444Z"/><path class="cls-20" d="M688.09,500.27h0A18.11,18.11,0,0,1,670,482.15h0A18.11,18.11,0,0,1,688.09,464h0a18.11,18.11,0,0,1,18.11,18.11h0A18.11,18.11,0,0,1,688.09,500.27Z"/><rect class="cls-4" x="1243.56" y="217.67" width="145.33" height="145.33" rx="15.54" ry="15.54"/><path class="cls-21" d="M1259.1,217.67h114.24a15.54,15.54,0,0,1,15.54,15.54v26.72a0,0,0,0,1,0,0H1243.56a0,0,0,0,1,0,0V233.22A15.54,15.54,0,0,1,1259.1,217.67Z"/><line class="cls-22" x1="1259.75" y1="294.83" x2="1259.75" y2="275.5"/><line class="cls-22" x1="1259.75" y1="311.83" x2="1259.75" y2="306.94"/><rect class="cls-23" x="1280.88" y="204.49" width="11.52" height="28.69" rx="3.2" ry="3.2"/><rect class="cls-23" x="1340.05" y="204.49" width="11.52" height="28.69" rx="3.2" ry="3.2"/><path class="cls-24" d="M1280.05,319.71h8.5a9.22,9.22,0,0,0,3.26,6.6,11.35,11.35,0,0,0,7.38,2.31,11.19,11.19,0,0,0,8.09-2.93,11.93,11.93,0,0,0,1.4-14,9.5,9.5,0,0,0-4.25-3.63,20.66,20.66,0,0,0-5.73-1.49,14.75,14.75,0,0,0-6.11.54v-1.65l13-19.39h-23.27v-7.76h36.55v1.49l-14.6,20.79a14.49,14.49,0,0,1,11,5.32,17.77,17.77,0,0,1,4.13,11.67,19,19,0,0,1-5.4,13.86q-5.4,5.53-14.64,5.53a19.87,19.87,0,0,1-13.45-4.62Q1280.55,327.72,1280.05,319.71Z"/><path class="cls-24" d="M1338.22,285.8H1329v-7.59h18.48v50.33h10.73V336h-30.53v-7.43h10.56Z"/><path class="cls-10" d="M558.21,326.44h0a43.46,43.46,0,0,0-30.73-12.73h0a32.91,32.91,0,0,1-32.91-32.91v-18h0c39.33-13.11,76.75,24.31,63.64,63.64Z"/><rect class="cls-11" x="482.39" y="246.11" width="18" height="27" transform="translate(-39.65 423.51) rotate(-45)"/><path class="cls-25" d="M481.85,250.07l-6.36,6.36-10.77-8.38a384.32,384.32,0,0,1-80-84.6l-16.09-23.24a2.44,2.44,0,0,1,3.4-3.4l23.24,16.09a384.32,384.32,0,0,1,84.6,80l8.38,10.77Z"/><rect class="cls-8" x="1302.19" y="454.87" width="36" height="144"/><rect class="cls-8" x="1314.32" y="454.87" width="11.75" height="144"/><path class="cls-26" d="M1306.19,409.87h28a0,0,0,0,1,0,0v18.5a8.5,8.5,0,0,1-8.5,8.5h-11a8.5,8.5,0,0,1-8.5-8.5v-18.5A0,0,0,0,1,1306.19,409.87Z" transform="translate(2640.39 846.75) rotate(180)"/><polygon class="cls-9" points="1338.19 598.88 1320.19 643.88 1302.19 598.88 1338.19 598.88"/><path class="cls-8" d="M1320.19,616.87a26.91,26.91,0,0,0-10,1.93l10,25.07,10-25.07A26.91,26.91,0,0,0,1320.19,616.87Z"/><rect class="cls-11" x="1302.19" y="427.87" width="36" height="27" transform="translate(2640.39 882.75) rotate(180)"/><rect class="cls-27" x="613.65" y="72.39" width="36" height="216" transform="translate(812.04 -451.26) rotate(90)"/><line class="cls-1" x1="541.65" y1="171.39" x2="541.65" y2="162.39"/><line class="cls-1" x1="559.65" y1="180.39" x2="559.65" y2="162.39"/><line class="cls-1" x1="577.65" y1="171.39" x2="577.65" y2="162.39"/><line class="cls-1" x1="595.65" y1="180.39" x2="595.65" y2="162.39"/><line class="cls-1" x1="613.65" y1="171.39" x2="613.65" y2="162.39"/><line class="cls-1" x1="631.65" y1="180.39" x2="631.65" y2="162.39"/><line class="cls-1" x1="649.65" y1="171.39" x2="649.65" y2="162.39"/><line class="cls-1" x1="667.65" y1="180.39" x2="667.65" y2="162.39"/><line class="cls-1" x1="685.65" y1="171.39" x2="685.65" y2="162.39"/><line class="cls-1" x1="703.65" y1="180.39" x2="703.65" y2="162.39"/><line class="cls-1" x1="721.65" y1="171.39" x2="721.65" y2="162.39"/><rect class="cls-4" x="1017.16" y="392.24" width="208" height="280" rx="20" ry="20" transform="translate(1653.39 -588.92) rotate(90)"/><rect class="cls-4" x="1029.16" y="404.24" width="184" height="256" rx="8" ry="8" transform="translate(1653.39 -588.92) rotate(90)"/><rect class="cls-4" x="929.16" y="504.24" width="184" height="56" rx="8" ry="8" transform="translate(1553.39 -488.92) rotate(90)"/><rect class="cls-4" x="929.16" y="504.24" width="184" height="56" rx="8" ry="8" transform="translate(1553.39 -488.92) rotate(90)"/><rect class="cls-4" x="1057.16" y="432.24" width="184" height="200" rx="8" ry="8" transform="translate(1681.39 -616.92) rotate(90)"/><rect class="cls-4" x="1013.16" y="487.24" width="18" height="18"/><rect class="cls-4" x="1013.16" y="559.24" width="18" height="18"/><rect class="cls-4" x="1013.16" y="523.24" width="18" height="18"/><path class="cls-4" d="M910,438s2.1,144.14,2.05,160.65c0,9,.32,7,2.83,21.74a.75.75,0,0,1,0,.39l-11,22.47-11.14-22.77c1.25-12.59,2.95-14.54,2.9-22.12-.08-12.41,2.63-160.37,2.63-160.37.11-2.74,2.72-4.92,5.9-4.92h0C907.26,433.06,909.87,435.24,910,438Z"/><rect class="cls-4" x="892.66" y="566.07" width="22.22" height="41.38" transform="translate(1807.54 1173.51) rotate(180)"/><polygon class="cls-4" points="892.84 558.86 914.7 558.86 913.11 442.76 895.07 442.76 892.84 558.86"/><line class="cls-22" x1="903.77" y1="582.14" x2="903.77" y2="591.36"/><rect class="cls-4" x="777.54" y="180.39" width="58.3" height="23.32"/><rect class="cls-4" x="847.5" y="180.39" width="58.3" height="23.32"/><rect class="cls-25" x="917.45" y="180.39" width="58.3" height="23.32"/><rect class="cls-8" x="777.54" y="215.37" width="128.25" height="81.61"/><rect class="cls-28" x="917.45" y="215.37" width="58.3" height="34.98"/><rect class="cls-27" x="917.45" y="262" width="58.3" height="34.98"/><rect class="cls-29" x="777.54" y="133.75" width="198.2" height="34.98"/><path class="cls-4" d="M404.7,523.77h0a9,9,0,0,1-12.73,0l-38.18-38.18,12.73-12.73L404.7,511A9,9,0,0,1,404.7,523.77Z"/><rect class="cls-29" x="342.16" y="470.22" width="36" height="18" transform="translate(-233.37 395.03) rotate(-45)"/><path class="cls-29" d="M322,441h0a13.5,13.5,0,0,0,0,19.09l22.27,22.27,19.09-19.09L341.07,441A13.5,13.5,0,0,0,322,441Z"/><line class="cls-9" x1="404.7" y1="523.77" x2="408.15" y2="527.22"/><path class="cls-30" d="M1076.52,394a22.7,22.7,0,0,1-20.93-13.85,3,3,0,0,1,1.59-3.93l106.35-45.14A22.73,22.73,0,1,1,1194.33,346l-108.93,46.24a22.57,22.57,0,0,1-8.87,1.81Zm108.92-79.09a10.12,10.12,0,1,0,9.32,6.17A10,10,0,0,0,1185.44,314.94Z"/><path class="cls-31" d="M1185.44,305.33a19.73,19.73,0,0,1,7.72,37.88l-108.93,46.24A19.71,19.71,0,0,1,1058.36,379l108.93-46.24a19.73,19.73,0,0,1,18.15-27.44m0,32.85a13.12,13.12,0,1,0-12.08-8,13.07,13.07,0,0,0,12.08,8m0-38.85a25.74,25.74,0,0,0-25.36,30L1056,373.48a6,6,0,0,0-3.18,7.87A25.71,25.71,0,0,0,1086.56,395l108.93-46.24a25.73,25.73,0,0,0-10.06-49.41Zm0,32.85a7.12,7.12,0,1,1,2.77-.57,7.11,7.11,0,0,1-2.77.57Z"/><path class="cls-30" d="M1185.44,404.68a22.74,22.74,0,0,1-21.9-28.77l-106.35-45.14a3,3,0,0,1-1.59-3.93,22.71,22.71,0,0,1,29.8-12L1194.33,361a22.73,22.73,0,0,1-8.89,43.65Zm0-32.79a10.06,10.06,0,1,0,3.92.8A10,10,0,0,0,1185.45,371.89Z"/><path class="cls-31" d="M1076.52,316a19.66,19.66,0,0,1,7.7,1.57l108.93,46.24a19.72,19.72,0,1,1-25.86,10.45L1058.36,328a19.73,19.73,0,0,1,18.16-12m108.92,79a13.06,13.06,0,1,0-5.09-1,13.06,13.06,0,0,0,5.09,1m-108.92-85a25.69,25.69,0,0,0-23.69,15.68,6,6,0,0,0,3.18,7.87l104.06,44.17a25.73,25.73,0,1,0,35.42-19.43L1086.56,312a25.57,25.57,0,0,0-10-2Zm108.92,79a7.05,7.05,0,1,1,6.5-4.3,7,7,0,0,1-6.5,4.3Z"/><circle class="cls-13" cx="1144.13" cy="353.02" r="2.42"/><rect class="cls-32" x="596.83" y="442.19" width="9" height="9" transform="translate(910.05 1129.2) rotate(-150.95)"/><rect class="cls-32" x="486.68" y="473.66" width="9" height="9" transform="translate(688.34 1134.69) rotate(-150.95)"/><line class="cls-32" x1="595.21" y1="448.44" x2="497.3" y2="476.41"/><path class="cls-33" d="M600.26,489.43h0a27,27,0,0,0-27-27h-54a27,27,0,0,1-27-27h0"/><path class="cls-4" d="M501.26,552.43h0a39.49,39.49,0,0,1,27,37.46v7.54h36v-7.54a39.49,39.49,0,0,1,27-37.46h0a161.75,161.75,0,0,1-39.07-63.22l-5.93-17.78-5.93,17.78A161.75,161.75,0,0,1,501.26,552.43Zm36-9a9,9,0,1,1,9,9A9,9,0,0,1,537.26,543.43Z"/><rect class="cls-4" x="519.26" y="597.43" width="54" height="18" transform="translate(1092.51 1212.85) rotate(180)"/><line class="cls-9" x1="546.26" y1="471.43" x2="546.26" y2="534.43"/><rect class="cls-34" x="528.26" y="615.43" width="36" height="16.86" transform="translate(1092.51 1247.71) rotate(180)"/><rect class="cls-4" x="537.26" y="453.43" width="18" height="18" transform="translate(1092.51 924.85) rotate(180)"/><rect class="cls-4" x="591.26" y="489.43" width="18" height="18" transform="translate(1200.51 996.85) rotate(180)"/><rect class="cls-4" x="483.26" y="417.43" width="18" height="18" transform="translate(984.51 852.85) rotate(180)"/><rect class="cls-4" x="157.16" y="221.81" width="48.32" height="193.27" transform="translate(362.64 636.88) rotate(180)"/><rect class="cls-35" x="169.24" y="233.89" width="24.16" height="24.16" transform="translate(362.64 491.93) rotate(180)"/><rect class="cls-36" x="169.24" y="270.12" width="24.16" height="24.16" transform="translate(362.64 564.41) rotate(180)"/><rect class="cls-37" x="169.24" y="306.36" width="24.16" height="24.16" transform="translate(362.64 636.88) rotate(180)"/><rect class="cls-38" x="169.24" y="342.6" width="24.16" height="24.16" transform="translate(362.64 709.36) rotate(180)"/><rect class="cls-39" x="169.24" y="378.84" width="24.16" height="24.16" transform="translate(362.64 781.83) rotate(180)"/><rect class="cls-4" x="132.17" y="218.85" width="48.32" height="193.27" transform="translate(388.99 579.75) rotate(165)"/><rect class="cls-20" x="125.49" y="233.4" width="24.16" height="24.16" transform="translate(333.99 446.98) rotate(165)"/><rect class="cls-40" x="134.87" y="268.4" width="24.16" height="24.16" transform="translate(361.49 513.36) rotate(165)"/><rect class="cls-41" x="144.25" y="303.4" width="24.16" height="24.16" transform="translate(388.99 579.75) rotate(165)"/><rect class="cls-42" x="153.63" y="338.4" width="24.16" height="24.16" transform="translate(416.49 646.14) rotate(165)"/><rect class="cls-43" x="163.01" y="373.41" width="24.16" height="24.16" transform="translate(443.98 712.52) rotate(165)"/><rect class="cls-4" x="106.32" y="222.67" width="48.32" height="193.27" transform="translate(403.14 530.6) rotate(150)"/><rect class="cls-44" x="82.16" y="244.46" width="24.16" height="24.16" transform="translate(304.13 431.59) rotate(150)"/><rect class="cls-45" x="100.28" y="275.85" width="24.16" height="24.16" transform="translate(353.63 481.09) rotate(150)"/><rect class="cls-46" x="118.4" y="307.23" width="24.16" height="24.16" transform="translate(403.14 530.6) rotate(150)"/><rect class="cls-47" x="136.52" y="338.61" width="24.16" height="24.16" transform="translate(452.64 580.1) rotate(150)"/><rect class="cls-48" x="154.64" y="369.99" width="24.16" height="24.16" transform="translate(502.14 629.6) rotate(150)"/><rect class="cls-4" x="82.36" y="233.03" width="48.32" height="193.27" transform="translate(414.95 487.44) rotate(135)"/><rect class="cls-30" x="43.2" y="266.33" width="24.16" height="24.16" transform="translate(291.23 436.2) rotate(135)"/><rect class="cls-49" x="68.82" y="291.96" width="24.16" height="24.16" transform="translate(353.09 461.82) rotate(135)"/><rect class="cls-50" x="94.44" y="317.58" width="24.16" height="24.16" transform="translate(414.95 487.44) rotate(135)"/><rect class="cls-51" x="120.07" y="343.21" width="24.16" height="24.16" transform="translate(476.81 513.07) rotate(135)"/><rect class="cls-52" x="145.69" y="368.83" width="24.16" height="24.16" transform="translate(538.68 538.69) rotate(135)"/><path class="cls-29" d="M438.7,572h30a20,20,0,0,1,20,20v59a5,5,0,0,1-5,5h-60a5,5,0,0,1-5-5V592A20,20,0,0,1,438.7,572Z" transform="translate(907.4 1228.06) rotate(180)"/><line class="cls-1" x1="474.7" y1="608.59" x2="474.7" y2="585.25"/><line class="cls-1" x1="474.7" y1="628.03" x2="474.7" y2="622.59"/><path class="cls-14" d="M404.7,586h0a14,14,0,0,1,14,14v18a10,10,0,0,1-10,10h-4a0,0,0,0,1,0,0V586A0,0,0,0,1,404.7,586Z" transform="translate(823.4 1214.06) rotate(180)"/><path class="cls-1" d="M455.15,502h0c7.73,6.19,7.73,16.21,0,22.4h0c-11.6,9.28-11.6,24.32,0,33.6h0"/><polyline class="cls-53" points="894.33 469.23 894.33 475.23 888.33 475.23"/><line class="cls-54" x1="876.14" y1="475.23" x2="760.3" y2="475.23"/><polyline class="cls-53" points="754.21 475.23 748.21 475.23 748.21 469.23"/><line class="cls-54" x1="748.21" y1="457.04" x2="748.21" y2="341.2"/><polyline class="cls-53" points="748.21 335.11 748.21 329.11 754.21 329.11"/><line class="cls-54" x1="766.4" y1="329.11" x2="882.24" y2="329.11"/><polyline class="cls-53" points="888.33 329.11 894.33 329.11 894.33 335.11"/><line class="cls-54" x1="894.33" y1="347.3" x2="894.33" y2="463.14"/><rect class="cls-4" x="738.77" y="319.67" width="18.87" height="18.87"/><rect class="cls-4" x="738.77" y="465.8" width="18.87" height="18.87"/><rect class="cls-4" x="884.9" y="319.67" width="18.87" height="18.87"/><rect class="cls-4" x="884.9" y="465.8" width="18.87" height="18.87"/><path class="cls-30" d="M529.41,344.89c8.58,0,17.86,4.67,19.46,15.73H538.45c-1.48-4.2-4.61-6.09-9-6.09-6.21,0-10.29,4.67-10.29,11.53,0,6.09,4,11.41,10.29,11.47,4.49,0,8.1-2.25,9.23-6.68H549c-1.54,11.71-10.82,16.32-19.63,16.32-10.53.06-21.17-7-21.23-21.11S518.88,344.89,529.41,344.89Z"/><path class="cls-30" d="M592.09,385.22v1.54H580.26l-7.1-12.18h-5.5v12.18H557.08v-41.4h18.16c16.26.06,19.22,19.63,8.75,26.73Zm-16.85-30.4c-2.48-.06-5.09,0-7.57,0v10.23h7.57C581,365.05,581.27,354.88,575.23,354.82Z"/><path class="cls-30" d="M624.31,354.82H609v5.85h14.08v9.4H609v7.27h15.85v9.4H598.47v-41.4h25.84Z"/><path class="cls-30" d="M657.84,381.55H641.52l-2.42,5.2H628.75v-1.54l18.63-40.39h4.55l18.69,40.39v1.54H660.27Zm-8.22-20L645,372.45h9.34Z"/><path class="cls-30" d="M669.67,354.82v-9.46h30.75v9.46H690.31v31.93H679.84V354.82Z"/><path class="cls-30" d="M725.43,377.47v9.28h-21v-9.28h5.26V354.59h-4.85v-9.23H725v9.23h-4.85v22.89Z"/><path class="cls-30" d="M747.78,368.84h.3l9.46-23.48h10.17V347l-17.56,40.27h-4.49L727.91,347v-1.6h10.17Z"/><path class="cls-30" d="M799.7,354.82H784.38v5.85h14.08v9.4H784.38v7.27h15.85v9.4H773.86v-41.4H799.7Z"/><path class="cls-35" d="M692.75,400.87c5.33,0,10.89,2.82,12.18,9.46h-6.66c-1.1-2.29-2.84-3.2-5.52-3.2-4.27,0-6.58,3.36-6.58,7.44,0,4.43,2.57,7.33,6.58,7.33,2.72,0,4.46-.72,5.67-3.28h-5.64V412.7H705.3a19.59,19.59,0,0,1-.76,7.82c-1.89,5.57-6.92,7.71-11.8,7.71-6.73,0-13.54-4.54-13.58-13.66S686,400.87,692.75,400.87Z"/><path class="cls-35" d="M733,426.93v1h-7.56l-4.54-7.86H717.4v7.86h-6.77V401.21h11.61c10.4,0,12.29,12.67,5.6,17.24Zm-10.78-19.61c-1.59,0-3.25,0-4.84,0v6.6h4.84C725.91,413.92,726.1,407.36,722.24,407.32Z"/><path class="cls-35" d="M753.55,424.56H743.12l-1.55,3.36h-6.62v-1l11.91-26.06h2.91l12,26.06v1h-6.62Zm-5.26-12.9-2.95,7h6Z"/><path class="cls-35" d="M765.2,427.92V401.21h11.65c12.67,0,12.67,19.88,0,19.88H772v6.83Zm11.61-20.6c-1.59,0-3.29,0-4.84,0v7.63h4.84C780.52,414.95,780.74,407.36,776.81,407.32Z"/><path class="cls-35" d="M813.49,427.92h-6.92V417.2H798.4v10.72h-6.92V401.21h6.92v9.69h8.17v-9.69h6.92Z"/><path class="cls-35" d="M831.49,421.93v6H818.07v-6h3.37V407.17h-3.1v-6h12.9v6h-3.1v14.76Z"/><path class="cls-35" d="M847.9,400.91c5.48,0,11.42,3,12.44,10.15h-6.66c-.95-2.71-3-3.93-5.79-3.93-4,0-6.58,3-6.58,7.44,0,3.93,2.57,7.36,6.58,7.4,2.87,0,5.18-1.45,5.9-4.31h6.66c-1,7.55-6.92,10.53-12.56,10.53-6.73,0-13.54-4.54-13.58-13.62S841.17,400.91,847.9,400.91Z"/><rect class="cls-29" x="930.56" y="340.26" width="84" height="36" transform="translate(31.52 792.64) rotate(-45)"/><rect class="cls-29" x="930.56" y="352.39" width="84" height="11.75" transform="translate(31.52 792.64) rotate(-45)"/><path class="cls-26" d="M1010.53,292.79h28a0,0,0,0,1,0,0v18.5a8.5,8.5,0,0,1-8.5,8.5h-11a8.5,8.5,0,0,1-8.5-8.5v-18.5a0,0,0,0,1,0,0Z" transform="translate(1532.4 1247.33) rotate(-135)"/><polygon class="cls-9" points="955.59 400.69 911.04 419.78 930.13 375.24 955.59 400.69"/><path class="cls-29" d="M930.13,400.69a26.91,26.91,0,0,0-8.46-5.72L911,419.78l24.82-10.64A26.91,26.91,0,0,0,930.13,400.69Z"/><rect class="cls-11" x="993.8" y="305.52" width="36" height="27" transform="translate(1501.68 1260.06) rotate(-135)"/><path class="cls-55" d="M811.62,456.1v4.41h-10V456.1h2.5V445.23h-2.3v-4.38h9.58v4.38h-2.3V456.1Z"/><path class="cls-55" d="M823.82,440.62c4.07,0,8.48,2.22,9.24,7.47h-4.94a4.13,4.13,0,0,0-4.3-2.89c-2.95,0-4.89,2.22-4.89,5.48,0,2.89,1.91,5.42,4.89,5.45A4.19,4.19,0,0,0,828.2,453h4.94c-.73,5.56-5.14,7.75-9.33,7.75-5,0-10.06-3.34-10.09-10S818.81,440.62,823.82,440.62Z"/><path class="cls-55" d="M835.78,450.71c0-13.6,20.17-13.6,20.17,0S835.78,464.34,835.78,450.71Zm15,0a4.94,4.94,0,1,0-9.86,0C841,457.85,850.81,457.85,850.81,450.71Z"/><path class="cls-55" d="M864.94,450.85v9.66h-5.2V440.76h1.83l9.95,9.72v-9.64h5.14v19.69h-1.8Z"/><path class="cls-20" d="M552.85,428.21v8.36H533.59v-8.36h4.83v-20.6H534v-8.3h18.5v8.3H548v20.6Z"/><path class="cls-20" d="M573.52,436.57H559.2V399.31h14.32C598.26,399.41,598.26,436.46,573.52,436.57Zm-4.61-8.68h4.61c12.1,0,12.1-19.91,0-19.91h-4.61Z"/><path class="cls-20" d="M623.16,407.82H609.1v5.27H622v8.46H609.1v6.55h14.54v8.46h-24.2V399.31h23.71Z"/><path class="cls-20" d="M653.91,431.88h-15l-2.22,4.68h-9.49v-1.38l17.09-36.35h4.18l17.14,36.35v1.38h-9.49Zm-7.54-18-4.23,9.79h8.57Z"/></svg>