<svg xmlns="http://www.w3.org/2000/svg" xmlns:xlink="http://www.w3.org/1999/xlink" viewBox="0 0 155.9 90"><defs><clipPath id="clip-path" transform="translate(0 0)"><rect width="155.9" height="90" style="fill:none"/></clipPath><clipPath id="clip-path-2" transform="translate(0 0)"><rect width="155.9" height="90" style="fill:none"/></clipPath></defs><title>whiteLogo</title><g id="Ebene_2" data-name="Ebene 2"><g id="scribble"><g id="Bildmaterial_3" data-name="Bildmaterial 3"><g style="clip-path:url(#clip-path)"><g style="clip-path:url(#clip-path-2)"><path d="M150.7,81.4,78,90,5.3,81.4A5.2,5.2,0,0,1,0,76.2V60.5a5.2,5.2,0,0,1,5.3-5.2H150.7a5.2,5.2,0,0,1,5.2,5.2V76.2a5.2,5.2,0,0,1-5.2,5.2" transform="translate(0 0)" style="fill:#e2e2e2"/><path d="M64.3,30.4v5.2a9.9,9.9,0,0,1-.7,3.5,7.5,7.5,0,0,1-1.8,2.8,6.8,6.8,0,0,1-2.6,1.8,9.9,9.9,0,0,1-3.5.6,5.7,5.7,0,0,1-4-1.5,5.5,5.5,0,0,1-1.4-3.4v-17H44.1V42.3a8,8,0,0,0,2.6,5.9,9.8,9.8,0,0,0,6.8,2.3,10.5,10.5,0,0,0,6.8-2.2,14.4,14.4,0,0,0,4.2-5.5l.7,7.7h5.2V22.4H64.3Z" transform="translate(0 0)" style="fill:#e2e2e2"/><path d="M59.5,18.2a4.3,4.3,0,0,0,2.8,1.1,4.2,4.2,0,0,0,2.6-1.1,3.7,3.7,0,0,0,1.2-2.9,3.6,3.6,0,0,0-1.2-2.8,3.9,3.9,0,0,0-2.6-1.2,3.9,3.9,0,0,0-2.8,1.2,3.7,3.7,0,0,0-1.3,2.8,3.8,3.8,0,0,0,1.3,2.9" transform="translate(0 0)" style="fill:#e2e2e2"/><path d="M47,18.2a4.5,4.5,0,0,0,2.8,1.1,4,4,0,0,0,2.6-1.1,3.8,3.8,0,0,0,1.3-2.9,3.7,3.7,0,0,0-1.3-2.8,3.7,3.7,0,0,0-2.6-1.2A4.1,4.1,0,0,0,47,12.5a3.6,3.6,0,0,0-1.2,2.8A3.7,3.7,0,0,0,47,18.2" transform="translate(0 0)" style="fill:#e2e2e2"/><path d="M101.7,24.6c-1.6-1.6-3.9-2.3-6.7-2.3a10.1,10.1,0,0,0-6.7,2.1,12.7,12.7,0,0,0-4,5.3V0H78.1V50.5h6.2V37.2a10.3,10.3,0,0,1,.6-3.5A9.5,9.5,0,0,1,86.6,31h.1a7.7,7.7,0,0,1,2.7-1.9,9.4,9.4,0,0,1,3.4-.7,5.3,5.3,0,0,1,4,1.6l.8,1a7.2,7.2,0,0,1,.7,2.5v17h6.1V30.6a8.1,8.1,0,0,0-2.7-6" transform="translate(0 0)" style="fill:#e2e2e2"/><polygon points="111.8 31 111.8 50.5 118 50.5 118 31 118 0 111.8 0 111.8 31" style="fill:#e2e2e2"/><path d="M32.1,37.3,27.5,31c0-.1-.1-.1-.2-.2L22.2,24l9.6-10.3c3.1-3.5,6.4-6.9,9.6-10.3h-10c-3,2.8-5.8,5.7-8.5,8.7s-5.5,6-8.4,8.8a2.7,2.7,0,0,1-.7.8l-.7.9c.1-.4.1-.8.2-1.2V3.4H4.6V50.5h8.7V32l1.1-1,.3-.3,1.4-1.4A10.9,10.9,0,0,0,17.4,31l2.8,3.8L24.1,40,28,45.1l4.2,5.4H42l-5-6.8-4.9-6.4" transform="translate(0 0)" style="fill:#e2e2e2"/><path d="M141.8,43.8a10.6,10.6,0,0,1-3.4.6,8.1,8.1,0,0,1-4.4-1.2,9,9,0,0,1-3.1-3.3l5.2-2,5.5-2.2,5.3-2.1,4.5-1.7a7.5,7.5,0,0,0-.5-1.6,15.2,15.2,0,0,0-4.5-5.8,12.4,12.4,0,0,0-8.1-2.9,13.4,13.4,0,0,0-5.6,1.2,15.5,15.5,0,0,0-4.6,3.1,14.9,14.9,0,0,0-3,4.4c-.1.1-.1.1-.1.2a13.4,13.4,0,0,0,0,11.1,14.9,14.9,0,0,0,3.1,4.6,13.3,13.3,0,0,0,4.7,3.1,13.9,13.9,0,0,0,5.7,1.2,16.6,16.6,0,0,0,5.8-1.1,15.7,15.7,0,0,0,4.9-2.8l-4.6-4.5a7.8,7.8,0,0,1-2.8,1.7M130,35.7a8.2,8.2,0,0,1,.7-3,7.8,7.8,0,0,1,1.6-2.4v-.2a12.7,12.7,0,0,1,2.7-1.8,8.8,8.8,0,0,1,3.3-.6,8,8,0,0,1,3,.6,5,5,0,0,1,2.3,2h0l-3,1.2-3.5,1.5-3.7,1.5L130,36Z" transform="translate(0 0)" style="fill:#e2e2e2"/><path d="M24.1,62,23,64.9l-1,2.7-.3,1c-.1.5-.3,1-.4,1.5a.6.6,0,0,1-.1.4.9.9,0,0,1-.1.5v-.5l-.2-.4a4.5,4.5,0,0,0-.2-.8l-.3-.7-.3-.7a13.4,13.4,0,0,0-.7-1.8c-.2-.7-.5-1.3-.7-2l-2-5.2h-3l.4,1.3c.2.6.3,1.1.5,1.6s.5,1.4.7,2.1L14,66.7l-.5,1.1-.4.8a.3.3,0,0,1-.1.2l-.3.8c-.2.3-.2.4-.2.5s-.1.3-.2.5a.8.8,0,0,0-.1.4,4.3,4.3,0,0,1-.1-.5c0-.1-.1-.3-.1-.4s-.3-1-.4-1.5L10.3,65,8.1,58.9H4.6c1.2,3.3,2.5,6.5,3.7,9.7h0c1.3,3.2,2.5,6.4,3.7,9.7.2-.5.4-.9.6-1.5l.8-1.6c.2-.6.5-1.2.7-1.7l.8-1.7c.4-1.1.9-2.1,1.4-3.2l.3-.8c.1,0,.1-.1.1-.2h.1v-.2c0,.1.1.2.1.3a.8.8,0,0,0,.1.3l.3.7,3.9,9.6c.4-1.3,1-2.7,1.6-4.3s1.2-3.2,1.9-4.8.1-.3.1-.5l1.8-4.7,2-5H25.3L24.1,62" transform="translate(0 0)" style="fill:#191919"/><polygon points="33.9 69.5 42.1 69.5 42.1 68.6 42.1 66.7 33.9 66.7 33.9 61.7 43.2 61.7 43.2 58.8 30.8 58.8 30.8 68.6 30.8 77.4 43.5 77.4 43.5 74.5 33.9 74.5 33.9 69.5" style="fill:#191919"/><path d="M57.4,69.2l-.7-.6-.4-.2L55,68l1.3-.7a3.9,3.9,0,0,0,.8-1,5.6,5.6,0,0,0,.4-1.2,6,6,0,0,0-.2-3.7,4.4,4.4,0,0,0-1.2-1.5,9.3,9.3,0,0,0-2-.8,8.8,8.8,0,0,0-2.4-.3H46.6V77.4h5.8a8.5,8.5,0,0,0,2.3-.3,6.1,6.1,0,0,0,2-.9,6.7,6.7,0,0,0,1.4-1.5,6,6,0,0,0,.5-2.4,5.2,5.2,0,0,0-.3-1.8,6,6,0,0,0-.9-1.3m-7.7-7.5h2.1a3.2,3.2,0,0,1,2,.6,2.2,2.2,0,0,1,.8,1.8,2.8,2.8,0,0,1-.6,1.8,2.6,2.6,0,0,1-2,.8H49.7Zm5.5,11.4a2.7,2.7,0,0,1-.7.8l-1.1.5-1.3.2H49.7V69.3h2.2l1.3.2,1.1.4a2.1,2.1,0,0,1,1.2,2,2.1,2.1,0,0,1-.3,1.2" transform="translate(0 0)" style="fill:#191919"/><path d="M74.4,61.9a9.1,9.1,0,0,0-3.1-2.2,11.4,11.4,0,0,0-4.8-.9H61.7V77.4h5.8a10.3,10.3,0,0,0,3.5-.6,8.3,8.3,0,0,0,5-4.7,9.5,9.5,0,0,0,.8-3.5v-.2a9.7,9.7,0,0,0-.6-3.4,6.5,6.5,0,0,0-1.8-3.1m-1.3,9a6.4,6.4,0,0,1-1.3,1.9A4.3,4.3,0,0,1,69.6,74a7.5,7.5,0,0,1-2.6.4H64.9V61.8h2.5a9.5,9.5,0,0,1,2.1.4,5.6,5.6,0,0,1,2,1.1A5.8,5.8,0,0,1,73,65.2a6.7,6.7,0,0,1,.6,3v.4a5.6,5.6,0,0,1-.5,2.3" transform="translate(0 0)" style="fill:#191919"/><polygon points="83 69.5 91.2 69.5 91.2 68.6 91.2 66.7 83 66.7 83 61.7 92.2 61.7 92.2 58.8 79.9 58.8 79.9 68.6 79.9 77.4 92.5 77.4 92.5 74.5 83 74.5 83 69.5" style="fill:#191919"/><path d="M105.7,68.6l-.9-.7a15.1,15.1,0,0,0-2.2-1.1l-2.2-.8-1.7-.9a1.9,1.9,0,0,1-.7-1.3,1.8,1.8,0,0,1,.9-1.6,4.6,4.6,0,0,1,2.5-.6l1.9.2,2.1.6,1.2-2.5-.6-.2-1.3-.4-1.6-.4-1.9-.2a7.8,7.8,0,0,0-2.8.5,6.2,6.2,0,0,0-1.9,1.2,5.2,5.2,0,0,0-1.2,1.7A5.8,5.8,0,0,0,95,64a3.8,3.8,0,0,0,.6,2.2,6.1,6.1,0,0,0,1.7,1.5,18.9,18.9,0,0,0,2.1.9h.1l2.2.9a5.5,5.5,0,0,1,1.7,1,1.7,1.7,0,0,1,.7,1.4,1.7,1.7,0,0,1-.5,1.3,3.6,3.6,0,0,1-1.2.8,7,7,0,0,1-1.4.3H99.8l-2.1-.3a7.9,7.9,0,0,1-2.3-.9L94,76l1,.6,1.3.5,1.6.3,2,.2a10,10,0,0,0,3.2-.4,7,7,0,0,0,2.3-1.1,5.2,5.2,0,0,0,1.3-1.7,5.4,5.4,0,0,0,.5-2.2,5,5,0,0,0-.7-2.6,3.9,3.9,0,0,0-.8-1" transform="translate(0 0)" style="fill:#191919"/><polygon points="110.1 68.6 110.1 77.4 113.3 77.4 113.3 68.6 113.3 58.8 110.1 58.8 110.1 68.6" style="fill:#191919"/><path d="M125.2,71.1h3.5v3.1l-1.5.4H126a5.9,5.9,0,0,1-2.7-.5,5.6,5.6,0,0,1-2-1.4,7.2,7.2,0,0,1-1.4-2,7.1,7.1,0,0,1-.4-2.1v-.3a6.2,6.2,0,0,1,.5-2.7,8,8,0,0,1,1.5-2.1,7.7,7.7,0,0,1,2.1-1.4,6.9,6.9,0,0,1,2.4-.5h2.1l1,.3.9.4,1.5-2.5-1.2-.6-1.4-.4-1.4-.3h-1.4a9.1,9.1,0,0,0-3.7.8,7.9,7.9,0,0,0-3.1,2,11.6,11.6,0,0,0-2.2,3.1,10.7,10.7,0,0,0-.7,4.1h0a10.5,10.5,0,0,0,.6,3.6,9.2,9.2,0,0,0,1.9,2.8,11.7,11.7,0,0,0,3,1.9,10.2,10.2,0,0,0,4,.7,11,11,0,0,0,3.1-.4,8.8,8.8,0,0,0,2.6-.9V68.6h-6.4Z" transform="translate(0 0)" style="fill:#191919"/><path d="M148.3,58.8V70.9l-.5-.7-.8-.8-.7-.8-.7-.6-2-1.8-2.2-2.1-2.2-2-2-1.8-1.5-1.5L135,58V77.4h3.2V65.1l.3.4.2.3.8.8,1.4,1.4.7.6,1.3,1.3L145,72l2.2,2.1,1.9,1.8,1.5,1.5a2.8,2.8,0,0,1,.8.9V58.8Z" transform="translate(0 0)" style="fill:#191919"/></g></g></g></g></g></svg>