<svg xmlns="http://www.w3.org/2000/svg" xmlns:xlink="http://www.w3.org/1999/xlink" viewBox="0 0 241.69 150"><defs><style>.cls-1{fill:none;}.cls-2{clip-path:url(#clip-path);}.cls-3{clip-path:url(#clip-path-2);}.cls-4{fill:#006f98;}.cls-5{fill:#4d4744;}</style><clipPath id="clip-path" transform="translate(-28.31 -32.34)"><rect class="cls-1" x="28.31" y="32.34" width="241.69" height="150"/></clipPath><clipPath id="clip-path-2" transform="translate(-28.31 -32.34)"><rect class="cls-1" width="302.41" height="216"/></clipPath></defs><title>WordPress_Logo</title><g id="Ebene_2" data-name="Ebene 2"><g id="Section_-_Wordpress" data-name="Section - Wordpress"><g class="cls-2"><g class="cls-3"><path class="cls-4" d="M137.12,158H124.67v1.32c3.9,0,4.52.83,4.52,5.77V174c0,4.94-.63,5.84-4.52,5.84-3-.42-5-2-7.79-5.08l-3.2-3.48c4.31-.77,6.61-3.48,6.61-6.54,0-3.82-3.27-6.75-9.39-6.75H98.65v1.32c3.9,0,4.52.83,4.52,5.77V174c0,4.94-.63,5.84-4.52,5.84v1.32H112.5v-1.32c-3.9,0-4.52-.9-4.52-5.84v-2.5h1.18l7.72,9.67h20.25c9.95,0,14.26-5.29,14.26-11.62S147.07,158,137.12,158M108,169.33v-9.25h2.85c3.13,0,4.52,2.16,4.52,4.66a4.25,4.25,0,0,1-4.52,4.59ZM137.33,179h-.49c-2.5,0-2.85-.63-2.85-3.83v-15.1h3.34c7.23,0,8.56,5.29,8.56,9.39s-1.32,9.53-8.56,9.53" transform="translate(-28.31 -32.34)"/><path class="cls-4" d="M59.9,171.9l4.8-14.19c1.39-4.1.77-5.29-3.69-5.29V151H74.09v1.39c-4.38,0-5.43,1-7.17,6.12L59,182.34h-.9L51,160.56l-7.23,21.78h-.9l-7.72-23.79c-1.67-5.08-2.78-6.12-6.82-6.12V151H43.76v1.39c-4.11,0-5.22,1-3.76,5.29l4.66,14.19,7-20.87H53Z" transform="translate(-28.31 -32.34)"/><path class="cls-4" d="M83.55,182.06c-7.65,0-13.91-5.64-13.91-12.52s6.26-12.45,13.91-12.45,13.92,5.64,13.92,12.45-6.26,12.52-13.92,12.52m0-22.82c-6.4,0-8.63,5.77-8.63,10.3s2.23,10.3,8.63,10.3,8.7-5.7,8.7-10.3-2.23-10.3-8.7-10.3" transform="translate(-28.31 -32.34)"/><path class="cls-5" d="M168.57,179.76v1.39H152.64v-1.39c4.66,0,5.5-1.18,5.5-8.14V160.49c0-7-.83-8.07-5.5-8.07V151H167c7.17,0,11.13,3.69,11.13,8.63s-4,8.56-11.13,8.56h-4v3.41c0,7,.84,8.14,5.5,8.14M167,153.53h-4v12.11h4c3.9,0,5.7-2.71,5.7-6s-1.81-6.12-5.7-6.12" transform="translate(-28.31 -32.34)"/><path class="cls-5" d="M226,174.61l-.35,1.25c-.63,2.3-1.39,3.13-6.33,3.13h-1c-3.62,0-4.24-.84-4.24-5.77V170c5.43,0,5.84.49,5.84,4.11h1.32V163.76h-1.32c0,3.62-.42,4.1-5.84,4.1v-7.79h3.83c4.94,0,5.7.83,6.33,3.13l.35,1.32h1.11L225.2,158H204.75v1.32c3.9,0,4.52.84,4.52,5.78V174c0,4.52-.53,5.66-3.6,5.82-2.92-.45-4.92-2-7.67-5.05l-3.2-3.48c4.31-.77,6.61-3.48,6.61-6.54,0-3.83-3.27-6.75-9.39-6.75H179.77v1.32c3.9,0,4.52.84,4.52,5.78V174c0,4.94-.63,5.84-4.52,5.84v1.32h13.85v-1.32c-3.9,0-4.52-.9-4.52-5.84v-2.5h1.18l7.72,9.67h28.59l.42-6.54Zm-36.87-5.29v-9.25h2.85c3.13,0,4.52,2.16,4.52,4.66a4.25,4.25,0,0,1-4.52,4.59Z" transform="translate(-28.31 -32.34)"/><path class="cls-5" d="M240.09,182.06a10.29,10.29,0,0,1-6.26-2.37,5,5,0,0,0-1.11,2.37h-1.32v-9.6h1.39c.56,4.59,3.76,7.3,7.86,7.3,2.22,0,4-1.25,4-3.34,0-1.81-1.6-3.2-4.45-4.52l-4-1.88c-2.78-1.32-4.87-3.62-4.87-6.68,0-3.34,3.13-6.19,7.44-6.19a8.7,8.7,0,0,1,5.43,1.81,3.93,3.93,0,0,0,.9-1.88h1.32v8.21H245c-.49-3.27-2.3-6-6-6-1.95,0-3.76,1.11-3.76,2.85s1.46,2.78,4.8,4.31l3.83,1.88c3.34,1.6,4.66,4.17,4.66,6.26,0,4.38-3.83,7.44-8.49,7.44" transform="translate(-28.31 -32.34)"/><path class="cls-5" d="M261.52,182.06a10.29,10.29,0,0,1-6.26-2.37,5,5,0,0,0-1.11,2.37h-1.32v-9.6h1.39c.56,4.59,3.76,7.3,7.86,7.3,2.23,0,4-1.25,4-3.34,0-1.81-1.6-3.2-4.45-4.52l-4-1.88c-2.78-1.32-4.87-3.62-4.87-6.68,0-3.34,3.13-6.19,7.44-6.19a8.71,8.71,0,0,1,5.43,1.81,3.93,3.93,0,0,0,.9-1.88h1.32v8.21h-1.46c-.49-3.27-2.3-6-6-6-1.95,0-3.76,1.11-3.76,2.85s1.46,2.78,4.8,4.31l3.83,1.88c3.34,1.6,4.66,4.17,4.66,6.26,0,4.38-3.83,7.44-8.49,7.44" transform="translate(-28.31 -32.34)"/><path class="cls-5" d="M104,84.73a45,45,0,0,0,25.33,40.45L107.86,66.44A44.81,44.81,0,0,0,104,84.73" transform="translate(-28.31 -32.34)"/><path class="cls-5" d="M179.27,82.46a23.67,23.67,0,0,0-3.71-12.4c-2.28-3.7-4.41-6.84-4.41-10.54a7.79,7.79,0,0,1,7.55-8c.2,0,.39,0,.58,0A44.94,44.94,0,0,0,111.36,60c1.06,0,2,.05,2.89.05,4.7,0,12-.57,12-.57a1.86,1.86,0,0,1,.29,3.7s-2.44.29-5.14.43l16.37,48.69,9.84-29.5-7-19.19c-2.42-.14-4.71-.43-4.71-.43-2.42-.14-2.14-3.84.29-3.7,0,0,7.42.57,11.84.57,4.7,0,12-.57,12-.57a1.86,1.86,0,0,1,.29,3.7s-2.44.29-5.14.43L171.36,112l4.48-15c1.94-6.22,3.42-10.68,3.42-14.53" transform="translate(-28.31 -32.34)"/><path class="cls-5" d="M149.71,88.66l-13.49,39.19a45,45,0,0,0,27.62-.72,4,4,0,0,1-.32-.62Z" transform="translate(-28.31 -32.34)"/><path class="cls-5" d="M188.36,63.17a34.5,34.5,0,0,1,.3,4.62,42.42,42.42,0,0,1-3.42,16.1l-13.73,39.7a45,45,0,0,0,16.84-60.42" transform="translate(-28.31 -32.34)"/><path class="cls-5" d="M148.92,32.34a52.4,52.4,0,1,0,52.4,52.4,52.46,52.46,0,0,0-52.4-52.4m0,102.39a50,50,0,1,1,50-50,50.05,50.05,0,0,1-50,50" transform="translate(-28.31 -32.34)"/></g></g></g></g></svg>