<svg xmlns="http://www.w3.org/2000/svg" viewBox="0 0 205.68 207.03"><defs><style>.cls-1{fill:#384c57;}.cls-2{fill:#2d3e50;}.cls-3{fill:#efefef;}.cls-4{fill:#2b3a42;}.cls-5{fill:#7ac0de;}.cls-6{fill:#c9c7c7;}.cls-7{fill:#5fb2ce;}.cls-8{fill:#eb4b48;}.cls-9{fill:#99c65d;}.cls-10{fill:#86cbf2;}.cls-11{fill:#fff;}.cls-12{fill:#e38a05;}.cls-13{fill:#fcba42;}.cls-14{fill:#173801;}.cls-15{fill:#999;}.cls-16{fill:#f9ebcf;}.cls-17{fill:#e84c3d;}.cls-18{fill:#fc8781;}.cls-19{fill:#f7f7f7;}.cls-20{fill:#9fadbe;}.cls-21{fill:#60707f;}.cls-22{fill:#a9cad8;}.cls-23{fill:#c7e3f2;}.cls-24{fill:#c10e05;}.cls-25{fill:#930300;}.cls-26{fill:#ffb21a;}.cls-27{fill:#f4f4f4;}.cls-28{fill:#d0d4d7;}.cls-29{fill:#e0e0e0;}.cls-30{fill:#ecf0f1;}.cls-31{fill:#b9d87c;}.cls-32{fill:#3598db;}.cls-33{fill:#cecece;}.cls-34{fill:#fcfcfc;}.cls-35{fill:#a0a3a5;}.cls-36{fill:#546574;}.cls-37{fill:#757575;}.cls-38{fill:#8e2626;}.cls-39{fill:#ccc;}.cls-40{fill:#990505;}.cls-41{fill:#848484;opacity:0.2;}.cls-41,.cls-42{isolation:isolate;}.cls-42,.cls-43{fill:#f5f5f5;}.cls-42{opacity:0.4;}</style></defs><title>Zielgerichtete_Weblösung</title><g id="Ebene_2" data-name="Ebene 2"><g id="Section_-_Erstellen_von_zielgerichteten_Weblösungen" data-name="Section - Erstellen von zielgerichteten Weblösungen"><g id="Graphics"><rect class="cls-1" x="112.84" y="18.92" width="21.71" height="41" rx="3.38" ry="3.38"/><path class="cls-2" d="M131.17,18.92h-15a3.38,3.38,0,0,0-3.38,3.38V56.55a3.38,3.38,0,0,0,3.38,3.38h15a3.38,3.38,0,0,0,3.38-3.38V22.3A3.38,3.38,0,0,0,131.17,18.92Zm2.22,37.63a2.22,2.22,0,0,1-2.22,2.22h-15A2.23,2.23,0,0,1,114,56.55V22.3a2.22,2.22,0,0,1,2.22-2.22h15a2.22,2.22,0,0,1,2.22,2.22h0Z"/><rect class="cls-3" x="114.05" y="23.64" width="19.3" height="28"/><path class="cls-4" d="M123.64,54.28A1.33,1.33,0,1,0,125,55.61h0A1.33,1.33,0,0,0,123.64,54.28Zm0,2.26a.94.94,0,1,1,.94-.94h0A.94.94,0,0,1,123.64,56.55Z"/><circle class="cls-3" cx="123.64" cy="55.61" r="0.94"/><rect class="cls-5" x="114.05" y="22.4" width="19.34" height="1.23"/><rect class="cls-5" x="114.05" y="50.4" width="19.34" height="1.23"/><rect class="cls-6" x="114.05" y="23.64" width="19.34" height="2.63"/><rect class="cls-6" x="114.05" y="47.72" width="19.34" height="2.63"/><polygon class="cls-7" points="115.71 25.92 114.75 24.95 115.71 23.98 115.98 24.26 115.29 24.95 115.98 25.64 115.71 25.92"/><rect class="cls-3" x="117.04" y="48.31" width="13.2" height="1.56"/><rect class="cls-8" x="116.11" y="27.7" width="8.05" height="6.47"/><rect class="cls-9" x="116.11" y="36.39" width="8.16" height="8.8"/><path class="cls-10" d="M74.3,199.08v1a3,3,0,0,1-3,3H51.39a4.17,4.17,0,0,1-4.19-4.15h0v-1.24a4.17,4.17,0,0,1,4.17-4.17H67.74a.62.62,0,1,1,0,1.19H51.39a3,3,0,0,0-3,3v1.24a3,3,0,0,0,3,3H71.33a1.79,1.79,0,0,0,1.79-1.79h0v-1a1.79,1.79,0,0,0-1.79-1.79H55.71a.79.79,0,0,0-.79.79v.4a.79.79,0,0,0,.79.79H67.86a.62.62,0,1,1,0,1.19H55.71a2,2,0,0,1-2-2h0v-.4a2,2,0,0,1,2-2H71.34A3,3,0,0,1,74.3,199.08Z"/><path class="cls-10" d="M190.12,149.66a1.93,1.93,0,0,1-.85-1.61,2,2,0,0,1,.87-1.64,3,3,0,0,0,1.11-3.38,3,3,0,0,0-2.87-2.2h-.14a1.93,1.93,0,0,1-1.59-.82,2,2,0,0,1-.25-1.82,2.88,2.88,0,0,0-.35-2.63,3.27,3.27,0,0,0-2.62-1.38,2.89,2.89,0,0,0-1.77.62,1.92,1.92,0,0,1-1.18.4,2,2,0,0,1-1.91-1.43,3.06,3.06,0,0,0-5.87,0,2,2,0,0,1-3.1,1,2.85,2.85,0,0,0-1.75-.62,3.25,3.25,0,0,0-2.6,1.38,2.92,2.92,0,0,0-.38,2.7,1.92,1.92,0,0,1-.24,1.77,2,2,0,0,1-1.62.84h-.14A3,3,0,0,0,160,143a3,3,0,0,0,1.13,3.43A1.92,1.92,0,0,1,162,148a2,2,0,0,1-.87,1.64,3,3,0,0,0-1.11,3.38,3,3,0,0,0,2.87,2.19H163a1.92,1.92,0,0,1,1.59.82,2,2,0,0,1,.25,1.82,2.88,2.88,0,0,0,.37,2.65,3.27,3.27,0,0,0,2.62,1.38,2.89,2.89,0,0,0,1.77-.62,1.92,1.92,0,0,1,1.18-.4,2,2,0,0,1,1.9,1.43,3,3,0,0,0,2.92,2.1,3,3,0,0,0,3-2.13,2,2,0,0,1,1.86-1.4,2,2,0,0,1,1.24.42,2.85,2.85,0,0,0,1.75.62,3.25,3.25,0,0,0,2.6-1.38,2.93,2.93,0,0,0,.38-2.7,1.92,1.92,0,0,1,.24-1.77,2,2,0,0,1,1.62-.84h.14a3.1,3.1,0,0,0,1.7-5.58Zm-.29,3a1.51,1.51,0,0,1-1.47,1.13h-.1a3.48,3.48,0,0,0-2.83,1.47,3.38,3.38,0,0,0-.43,3.1,1.45,1.45,0,0,1-.2,1.38,1.79,1.79,0,0,1-1.4.76,1.36,1.36,0,0,1-.85-.3,3.45,3.45,0,0,0-5.42,1.74A1.56,1.56,0,0,1,175.6,163a1.49,1.49,0,0,1-1.51-1,3.44,3.44,0,0,0-3.32-2.48,3.38,3.38,0,0,0-2.08.69,1.4,1.4,0,0,1-.87.3,1.8,1.8,0,0,1-1.42-.76,1.39,1.39,0,0,1-.19-1.31,3.48,3.48,0,0,0-.43-3.17,3.38,3.38,0,0,0-2.79-1.45h-.14a1.56,1.56,0,0,1-1.46-1.16,1.49,1.49,0,0,1,.53-1.73,3.47,3.47,0,0,0,1.51-2.86,3.42,3.42,0,0,0-1.49-2.82,1.53,1.53,0,0,1-.55-1.77,1.51,1.51,0,0,1,1.46-1.13h.1a3.47,3.47,0,0,0,2.83-1.47,3.37,3.37,0,0,0,.43-3.1,1.46,1.46,0,0,1,.2-1.35,1.79,1.79,0,0,1,1.4-.76,1.37,1.37,0,0,1,.85.3,3.45,3.45,0,0,0,5.42-1.76,1.59,1.59,0,0,1,3,0,3.44,3.44,0,0,0,3.32,2.48,3.38,3.38,0,0,0,2.08-.71,1.4,1.4,0,0,1,.87-.3,1.8,1.8,0,0,1,1.42.76,1.39,1.39,0,0,1,.19,1.31,3.48,3.48,0,0,0,.43,3.17,3.38,3.38,0,0,0,2.8,1.45h.14a1.56,1.56,0,0,1,1.46,1.16,1.49,1.49,0,0,1-.54,1.73,3.47,3.47,0,0,0-1.51,2.86,3.42,3.42,0,0,0,1.49,2.83,1.53,1.53,0,0,1,.56,1.76Z"/><path class="cls-10" d="M175.62,138.28a9.73,9.73,0,1,0,9.73,9.73A9.73,9.73,0,0,0,175.62,138.28Zm0,18a8.25,8.25,0,1,1,8.25-8.25h0a8.26,8.26,0,0,1-8.25,8.24Z"/><path class="cls-10" d="M48.21,26a13.64,13.64,0,0,1,5.63,7.29l6.25-1.37A20.08,20.08,0,0,0,47.31,18.58l-1.57,6.15A14,14,0,0,1,48.21,26Z"/><path class="cls-10" d="M53.1,43.61l5.42,3.47a19.9,19.9,0,0,0,2.19-12.4l-6.27,1.38A13.64,13.64,0,0,1,53.1,43.61Z"/><path class="cls-10" d="M34.8,49.83l-3.46,5.41A20.05,20.05,0,0,0,57,49.5L51.54,46A13.71,13.71,0,0,1,34.8,49.83Z"/><path class="cls-10" d="M29.84,45.73,24.33,49a20.25,20.25,0,0,0,4.59,4.77l3.45-5.39A13.68,13.68,0,0,1,29.84,45.73Z"/><path class="cls-10" d="M21.23,41.86a20.08,20.08,0,0,0,1.62,4.61l5.52-3.23a13.69,13.69,0,0,1,4.42-16.82l-3.21-5.49A20,20,0,0,0,21.23,41.86Z"/><path class="cls-10" d="M35.3,25A13.74,13.74,0,0,1,43,24l1.58-6.14a19.84,19.84,0,0,0-8,.13,20.06,20.06,0,0,0-4.44,1.54Z"/><path class="cls-10" d="M109.06,14a6.4,6.4,0,0,0-3.89-5.58h0c0-4.64-5-8.41-11.06-8.41S83.05,3.78,83.05,8.41a7.44,7.44,0,0,0,3,5.78l-.53,4.62a.77.77,0,0,0,1.18.74l4.84-3a3.32,3.32,0,0,1,.49.07c1.62,3,5.83,4.73,10.13,4l3.72,2.31a.79.79,0,0,0,.41.12.77.77,0,0,0,.77-.87l-.37-3.58A6,6,0,0,0,109.06,14Zm-17.5,1a.77.77,0,0,0-.56.1l-3.72,2.29.4-3.48a.78.78,0,0,0-.31-.71,6,6,0,0,1-2.74-4.8c0-3.78,4.26-6.86,9.5-6.86s9.48,3.08,9.48,6.86-4.26,6.86-9.5,6.86A12.85,12.85,0,0,1,91.56,15Zm13.86,2.66a.77.77,0,0,0-.31.71l.27,2.39-2.64-1.62a.77.77,0,0,0-.41-.12h-.15c-3.25.66-6.48-.35-8.13-2.23h.07c5.34,0,9.82-2.9,10.84-6.74A4.77,4.77,0,0,1,107.5,14,4.57,4.57,0,0,1,105.42,17.63Z"/><path class="cls-2" d="M169.86,194.36a.56.56,0,0,1-.56.56h-38a.56.56,0,0,1-.57-.56h0V143.67a.56.56,0,0,1,.56-.56h38a.56.56,0,0,1,.57.56h0Z"/><rect class="cls-11" x="134.53" y="144.7" width="31.55" height="45.91"/><path class="cls-12" d="M159.06,141.7H141.7a3,3,0,0,1,3-3H156a3,3,0,0,1,3,3Z"/><path class="cls-13" d="M154.13,137.53a3.84,3.84,0,1,0-7.67,0v1.17h7.67Z"/><path class="cls-14" d="M143.55,174.94H137.7v-5.76h5.83Zm-5.26-.56H143v-4.64h-4.66Z"/><path class="cls-14" d="M143.55,185.62H137.7v-5.76h5.83Zm-5.26-.56H143v-4.64h-4.66Z"/><rect class="cls-15" x="141.49" y="150.56" width="16.48" height="2.11"/><rect class="cls-15" x="145.04" y="159.11" width="13.25" height="1.58"/><rect class="cls-15" x="145.04" y="162.48" width="16.91" height="1.58"/><rect class="cls-15" x="145.04" y="169.8" width="16.95" height="1.58"/><rect class="cls-15" x="145.04" y="173.17" width="14.21" height="1.58"/><rect class="cls-15" x="145.04" y="180.48" width="9.56" height="1.58"/><rect class="cls-15" x="145.04" y="183.85" width="14.21" height="1.58"/><path class="cls-14" d="M143.4,164.4h-5.83v-5.76h5.83Zm-5.26-.56h4.69V159.2h-4.69Z"/><path class="cls-16" d="M176.52,193.51a1.13,1.13,0,0,1-1.13,1.12h-.62a1.13,1.13,0,0,1-1.11-1.12v-1.12h2.89Z"/><rect class="cls-17" x="173.46" y="155" width="3.27" height="36.68"/><rect class="cls-18" x="175.09" y="155" width="1.64" height="36.68"/><polygon class="cls-19" points="173.47 155.01 176.73 155 175.08 147.8 173.47 155.01"/><polygon class="cls-17" points="176.04 151.99 175.08 147.8 174.14 151.99 176.04 151.99"/><rect class="cls-20" x="173.44" y="190.75" width="3.29" height="2.25"/><rect class="cls-21" x="173.44" y="190.75" width="1.64" height="2.25"/><path class="cls-13" d="M162.38,144.32a1.7,1.7,0,0,1-1.7,1.69H140a1.7,1.7,0,0,1-1.7-1.69V141.7h24.06Z"/><ellipse class="cls-17" cx="140.5" cy="161.53" rx="1.75" ry="1.74"/><polygon class="cls-22" points="40.34 132.51 36.45 128.63 32.58 132.51 12.17 132.51 12.17 165.52 40.35 165.52 40.35 132.51 40.34 132.51"/><rect class="cls-23" x="19.77" y="133.39" width="16.61" height="28.26"/><rect class="cls-22" x="9.42" y="158.9" width="5.51" height="5.51" transform="translate(-110.74 55.95) rotate(-45)"/><polygon class="cls-24" points="36.45 128.63 32.58 132.51 32.47 132.51 40.35 140.4 40.35 132.51 40.34 132.51 36.45 128.63"/><polygon class="cls-11" points="36.44 154.56 36.44 128.63 8.29 128.63 8.29 161.65 29.35 161.65 36.44 154.56"/><rect class="cls-17" x="8.29" y="128.63" width="28.15" height="7.87"/><circle class="cls-25" cx="17.19" cy="133.39" r="1.14"/><path class="cls-23" d="M16.82,124.6a3.27,3.27,0,0,0-3.39,3.14V131a3.27,3.27,0,0,0,3.39,3.13h.08a.75.75,0,0,0,0-1.49h-.08a2.09,2.09,0,0,1-2-2.16v-2.24a2,2,0,1,1,4,0v.41h1.37v-.91A3.27,3.27,0,0,0,16.82,124.6Z"/><circle class="cls-25" cx="28.84" cy="133.39" r="1.14"/><path class="cls-23" d="M28.46,124.6a3.27,3.27,0,0,0-3.39,3.14V131a3.27,3.27,0,0,0,3.39,3.14h.08a.75.75,0,0,0,0-1.49h-.07a2.09,2.09,0,0,1-2-2.16v-2.24a2,2,0,1,1,4,0v.41h1.37v-.91a3.27,3.27,0,0,0-3.39-3.14Z"/><polygon class="cls-22" points="29.25 154.5 29.25 161.65 29.35 161.65 36.44 154.56 36.44 154.5 29.25 154.5"/><path class="cls-17" d="M22.06,152.29H14.93v-1.37l3.38-3.59a8.12,8.12,0,0,0,1-1.42,2.31,2.31,0,0,0,.31-1.07,1.61,1.61,0,0,0-.35-1.08,1.24,1.24,0,0,0-1-.42,1.3,1.3,0,0,0-1.1.49,2.1,2.1,0,0,0-.38,1.31h-2v0a3.16,3.16,0,0,1,.93-2.39,3.48,3.48,0,0,1,2.6-1,3.63,3.63,0,0,1,2.54.84,2.88,2.88,0,0,1,.92,2.24,3.14,3.14,0,0,1-.52,1.75,17.24,17.24,0,0,1-1.72,2.1l-1.86,2v0h4.39Z"/><path class="cls-17" d="M30.46,143.47a12.3,12.3,0,0,0-2.29,3.67,18.08,18.08,0,0,0-.88,4.11l-.1,1h-2.1l.1-1.06a15,15,0,0,1,1-4.23,13.09,13.09,0,0,1,2.2-3.54H23.08v-1.61h7.38Z"/><path class="cls-26" d="M160.91,101.59l14.45-13.83a1.54,1.54,0,0,1,2.13,0l14.45,13.83-9.71,19.71h-12Z"/><polygon class="cls-27" points="164.34 91.64 184.39 91.64 188.5 95.23 188.5 122.17 164.34 122.17 164.34 91.64"/><polygon class="cls-28" points="184.39 95.23 188.5 95.23 184.39 91.64 184.39 95.23"/><rect class="cls-2" x="168.06" y="100.51" width="16.89" height="1.51"/><rect class="cls-2" x="168.06" y="104.36" width="16.89" height="1.51"/><rect class="cls-2" x="168.06" y="108.21" width="16.89" height="1.51"/><rect class="cls-2" x="168.06" y="112.06" width="16.89" height="1.51"/><rect class="cls-28" x="168.06" y="115.9" width="16.89" height="1.51"/><path class="cls-29" d="M177.48,115.42a1.54,1.54,0,0,1-2.13,0l-14.45-13.83v22.32h31V101.59Z"/><path class="cls-30" d="M191.93,123.93h-31l11.43-8.13a7,7,0,0,1,8.15,0Z"/><rect class="cls-31" x="38.64" y="29.12" width="54.67" height="38.15"/><rect class="cls-2" x="48.41" y="54.49" width="5.75" height="8.43"/><rect class="cls-26" x="56.84" y="43.85" width="5.75" height="18.96"/><rect class="cls-32" x="65.27" y="47.2" width="5.75" height="15.73"/><rect class="cls-8" x="73.7" y="38.31" width="5.75" height="24.49"/><rect class="cls-8" x="82.13" y="31.97" width="5.75" height="30.84"/><rect class="cls-2" x="46.03" y="35.56" width="0.82" height="27.37"/><rect class="cls-2" x="46.39" y="62.07" width="43.14" height="0.86"/><rect class="cls-33" x="42.43" y="35.8" width="2.06" height="0.92"/><rect class="cls-33" x="42.43" y="40.17" width="2.06" height="0.92"/><rect class="cls-33" x="42.43" y="44.54" width="2.06" height="0.92"/><rect class="cls-33" x="42.43" y="48.9" width="2.06" height="0.92"/><rect class="cls-33" x="42.43" y="53.27" width="2.06" height="0.92"/><rect class="cls-33" x="42.43" y="57.64" width="2.06" height="0.92"/><rect class="cls-33" x="42.43" y="62.01" width="2.06" height="0.92"/><rect class="cls-34" x="71.94" y="171.38" width="49.42" height="35.65"/><rect class="cls-9" x="76.82" y="177.64" width="37.32" height="26.85"/><rect class="cls-2" x="76.49" y="174.11" width="0.81" height="30.39"/><polygon class="cls-2" points="76.9 172.26 75.27 175.24 78.53 175.24 76.9 172.26"/><rect class="cls-2" x="76.49" y="203.62" width="41.12" height="0.81"/><polygon class="cls-2" points="119.47 204.03 116.49 202.39 116.49 205.65 119.47 204.03"/><path class="cls-17" d="M78.53,201.83V197a.69.69,0,0,1,1.18-.49l2.34,2.35a.75.75,0,0,0,1.06,0l.06-.06,3.42-4.23a1.5,1.5,0,0,1,2.11-.23l.12.11.84.84a.77.77,0,0,0,1.1,0l0,0,5.9-6.82a1.45,1.45,0,0,1,2-.14l.14.14,3.31,2.48a.55.55,0,0,0,.92-.12l8.78-10.54a.38.38,0,0,1,.73.17v21.39Z"/><path class="cls-11" d="M24.88,118.68H2.41A2.41,2.41,0,0,1,0,116.27V75.2A2.41,2.41,0,0,1,2.41,72.8H31.61A2.41,2.41,0,0,1,34,75.2v34.32Z"/><path class="cls-35" d="M24.88,118.68v-7A2.1,2.1,0,0,1,27,109.52H34Z"/><circle class="cls-9" cx="17.02" cy="87.34" r="11.12" transform="translate(-56.78 37.61) rotate(-45)"/><path class="cls-32" d="M9.15,79.48a11.12,11.12,0,0,0,0,15.73L17,87.34Z"/><path class="cls-17" d="M9.15,79.48a11.08,11.08,0,0,0-3.25,7.9H17V76.23A11.08,11.08,0,0,0,9.15,79.48Z"/><path class="cls-32" d="M24.88,95.21A11.11,11.11,0,0,0,27.6,83.93L17.06,87.34l3.42,10.58A11.07,11.07,0,0,0,24.88,95.21Z"/><path class="cls-26" d="M17,87.38l9.92,5.08a11.12,11.12,0,0,0-4.75-15l-.08,0Z"/><rect class="cls-36" x="2.81" y="100.56" width="28.43" height="1.28"/><rect class="cls-36" x="2.81" y="103.45" width="24.46" height="1.28"/><rect class="cls-36" x="2.81" y="106.33" width="27.01" height="1.28"/><rect class="cls-36" x="2.81" y="109.22" width="21" height="1.28"/><rect class="cls-36" x="2.81" y="112.1" width="17.54" height="1.28"/><path class="cls-17" d="M155.91,39.39a.82.82,0,0,0-1.39-.72L142,51.2a8.28,8.28,0,0,0-2.28,4.34l-1.93,10.6L154.1,49.82Z"/><path class="cls-17" d="M166.57,50.06a.82.82,0,0,1,.72,1.38L154.77,64a8.28,8.28,0,0,1-4.34,2.28l-10.6,1.93,16.3-16.32Z"/><path class="cls-11" d="M152.66,109A55.92,55.92,0,1,1,96.74,53.06,55.92,55.92,0,0,1,152.66,109Z"/><path class="cls-37" d="M96.74,156.79A47.81,47.81,0,1,1,144.55,109h0A47.87,47.87,0,0,1,96.74,156.79Zm0-88.87A41.06,41.06,0,1,0,137.8,109,41.06,41.06,0,0,0,96.74,67.92Z"/><path class="cls-37" d="M96.74,139.65A30.67,30.67,0,1,1,127.41,109,30.67,30.67,0,0,1,96.74,139.65Zm0-54.55A23.91,23.91,0,1,0,120.65,109,23.91,23.91,0,0,0,96.74,85.1Z"/><ellipse class="cls-38" cx="96.74" cy="108.98" rx="11.37" ry="11.38"/><path class="cls-39" d="M115.38,106.87l3.25-3.87-19.56,4.43s-1,1.73-.81,2L118.63,114l-3.61-4.3h37.65V109c0-.71,0-1.41,0-2.11Z"/><rect class="cls-17" x="95.66" y="74.01" width="69.65" height="2.95" transform="translate(-15.16 114.38) rotate(-45)"/><path class="cls-17" d="M108.11,90.36,96.79,108.28l.09.1.38.38a2.16,2.16,0,0,0,1,.56l17.66-11.16-7.17-.62Z"/><path class="cls-17" d="M36.32,192.58a1.78,1.78,0,0,1-1.68-1.86V160.91a1.78,1.78,0,0,1,1.68-1.86H54.85a1.78,1.78,0,0,1,1.68,1.86v29.81a1.78,1.78,0,0,1-1.68,1.86Z"/><path class="cls-40" d="M40.76,176.18a1,1,0,0,1-.93,1H37.9a1,1,0,0,1-.93-1V174a1,1,0,0,1,.93-1h2a1,1,0,0,1,.93,1Z"/><path class="cls-40" d="M47.41,176.18a1,1,0,0,1-.93,1h-2a1,1,0,0,1-.93-1V174a1,1,0,0,1,.93-1h2a1,1,0,0,1,.93,1Z"/><path class="cls-40" d="M54.07,176.18a1,1,0,0,1-.93,1h-2a1,1,0,0,1-.93-1V174a1,1,0,0,1,.93-1h2a1,1,0,0,1,.93,1Z"/><path class="cls-40" d="M40.76,182.28a1,1,0,0,1-.93,1H37.9a1,1,0,0,1-.93-1v-2.2a1,1,0,0,1,.93-1h2a1,1,0,0,1,.93,1Z"/><path class="cls-40" d="M47.41,182.28a1,1,0,0,1-.93,1h-2a1,1,0,0,1-.93-1v-2.2a1,1,0,0,1,.93-1h2a1,1,0,0,1,.93,1Z"/><path class="cls-40" d="M54.07,182.28a1,1,0,0,1-.93,1h-2a1,1,0,0,1-.93-1v-2.2a1,1,0,0,1,.93-1h2a1,1,0,0,1,.93,1Z"/><path class="cls-40" d="M40.76,188.72a1,1,0,0,1-.93,1H37.9a1,1,0,0,1-.93-1v-2.2a1,1,0,0,1,.93-1h2a1,1,0,0,1,.93,1Z"/><path class="cls-40" d="M53.87,188.72a1,1,0,0,1-.93,1H44.36a1,1,0,0,1-.93-1v-2.2a1,1,0,0,1,.93-1h8.58a1,1,0,0,1,.93,1Z"/><rect class="cls-9" x="36.81" y="162.49" width="17.53" height="7.08"/><path class="cls-11" d="M40.76,175.14a1,1,0,0,1-.93,1H37.9a1,1,0,0,1-.93-1v-2.2a1,1,0,0,1,.93-1h2a1,1,0,0,1,.93,1Z"/><path class="cls-11" d="M47.41,175.14a1,1,0,0,1-.93,1h-2a1,1,0,0,1-.93-1v-2.2a1,1,0,0,1,.93-1h2a1,1,0,0,1,.93,1Z"/><path class="cls-11" d="M54.07,175.14a1,1,0,0,1-.93,1h-2a1,1,0,0,1-.93-1v-2.2a1,1,0,0,1,.93-1h2a1,1,0,0,1,.93,1Z"/><path class="cls-11" d="M40.76,181.23a1,1,0,0,1-.93,1H37.9a1,1,0,0,1-.93-1V179a1,1,0,0,1,.93-1h2a1,1,0,0,1,.93,1Z"/><path class="cls-11" d="M47.41,181.23a1,1,0,0,1-.93,1h-2a1,1,0,0,1-.93-1V179a1,1,0,0,1,.93-1h2a1,1,0,0,1,.93,1Z"/><path class="cls-11" d="M54.07,181.23a1,1,0,0,1-.93,1h-2a1,1,0,0,1-.93-1V179a1,1,0,0,1,.93-1h2a1,1,0,0,1,.93,1Z"/><path class="cls-11" d="M40.76,187.67a1,1,0,0,1-.93,1H37.9a1,1,0,0,1-.93-1v-2.2a1,1,0,0,1,.93-1h2a1,1,0,0,1,.93,1Z"/><path class="cls-11" d="M53.87,187.67a1,1,0,0,1-.93,1H44.36a1,1,0,0,1-.93-1v-2.2a1,1,0,0,1,.93-1h8.58a1,1,0,0,1,.93,1Z"/><path class="cls-41" d="M54.85,159H45.59v33.54h9.26a1.78,1.78,0,0,0,1.68-1.86V160.91A1.78,1.78,0,0,0,54.85,159Z"/><path class="cls-10" d="M168.17,64.09a.27.27,0,0,1,0-.38h0l3.1-3.1a.27.27,0,0,1,.38,0h0l.33.3a.81.81,0,0,0,1.13,0l5.67-5.67a.79.79,0,0,0,0-1.12h0l-.32-.32a.27.27,0,0,1,0-.37l3.19-3.19a.27.27,0,0,1,.38,0h0l.92.93A3.45,3.45,0,0,1,183,56h0l-9,9a3.45,3.45,0,0,1-4.88,0Z"/><path class="cls-10" d="M170.91,59.81h0l-.86-.83a.27.27,0,0,0-.38,0l-3.1,3.1a.27.27,0,0,0,0,.37l.87.87Z"/><path class="cls-10" d="M180,48.57l-3.19,3.19a.27.27,0,0,0,0,.38h0l.84.84h0l3.56-3.56-.87-.87A.27.27,0,0,0,180,48.57Z"/><path class="cls-10" d="M10.71,173.65a4,4,0,0,1,.67-2.48A3.29,3.29,0,0,1,12.88,170a4.59,4.59,0,0,1,1.54-.29,4.05,4.05,0,0,1,2.58.93,3.67,3.67,0,0,1,1.16,3,5.18,5.18,0,0,1-.33,1.79A3.46,3.46,0,0,1,16.66,177a3.56,3.56,0,0,1-2.23.62,4.34,4.34,0,0,1-1.27-.19,3.46,3.46,0,0,1-1.2-.62,3.35,3.35,0,0,1-.91-1.24A4.57,4.57,0,0,1,10.71,173.65Zm2.13,0a2.75,2.75,0,0,0,.5,1.82,1.33,1.33,0,0,0,2.18,0,2.75,2.75,0,0,0,.5-1.82,3.3,3.3,0,0,0-.27-1.46,1.63,1.63,0,0,0-.62-.74,1.24,1.24,0,0,0-1.38,0,1.71,1.71,0,0,0-.62.74,3.41,3.41,0,0,0-.27,1.46Zm.89,10.17,9.07-13.88h3.27L17,183.82Zm8.18-3.72a3.67,3.67,0,0,1,1.17-3,4,4,0,0,1,5.15,0,3.67,3.67,0,0,1,1.17,3,4.18,4.18,0,0,1-.62,2.35,3.25,3.25,0,0,1-1.44,1.24,4.16,4.16,0,0,1-3.4,0,3.3,3.3,0,0,1-1.45-1.24,4.18,4.18,0,0,1-.56-2.34Zm2.15,0a2.86,2.86,0,0,0,.47,1.8,1.39,1.39,0,0,0,1.12.62,1.43,1.43,0,0,0,.69-.2,1.63,1.63,0,0,0,.62-.74,3.32,3.32,0,0,0,.26-1.46,2.76,2.76,0,0,0-.49-1.86,1.44,1.44,0,0,0-1.08-.56,1.36,1.36,0,0,0-1.13.62,3,3,0,0,0-.44,1.8Z"/><circle class="cls-42" cx="180.94" cy="84.99" r="13.81"/><path class="cls-2" d="M205.11,109.82a1.9,1.9,0,0,1-2.69,0h0l-3.34-3.33a1.9,1.9,0,0,1,0-2.69h0l0,0a1.9,1.9,0,0,1,2.69,0l3.33,3.33a1.9,1.9,0,0,1,0,2.69Z"/><polygon class="cls-2" points="198.09 104.78 187.73 94.92 190.11 92.55 200.47 102.4 198.09 104.78"/><path class="cls-17" d="M204.27,108.86a3.84,3.84,0,0,1-5.42-.07L192.08,102c-1.16-1.16-1.31-2.35-.27-3.38l2-2c1.31-1.31,2.48-1.19,3.66,0l6.78,6.78a3.83,3.83,0,0,1,.07,5.42h0Z"/><path class="cls-2" d="M181.09,71.09A13.93,13.93,0,1,0,195,85h0A13.93,13.93,0,0,0,181.1,71.09Zm0,25.55A11.62,11.62,0,1,1,192.71,85a11.62,11.62,0,0,1-11.62,11.62Z"/><path class="cls-43" d="M181,75.11h0A9.88,9.88,0,0,0,171.17,85h0a.95.95,0,1,0,1.89,0h0a8,8,0,0,1,8-8h0a.95.95,0,0,0,.15-1.89H181Z"/></g></g></g></svg>