<svg xmlns="http://www.w3.org/2000/svg" viewBox="0 0 149 150"><title>Zielgerichtete_Weblösung</title><g id="Ebene_2" data-name="Ebene 2"><g id="Startseite"><g id="Section_-_Erstellen_von_zielgerichteten_Weblösungen" data-name="Section - Erstellen von zielgerichteten Weblösungen"><g id="Zielgerichtete_Weblösung"><g id="Graphics"><rect x="81.8" y="13.7" width="15.7" height="29.7" rx="2.4" ry="2.4" style="fill:#141414"/><path d="M95,13.7H84.2a2.5,2.5,0,0,0-2.4,2.5V41a2.4,2.4,0,0,0,2.4,2.4H95A2.5,2.5,0,0,0,97.5,41V16.2A2.5,2.5,0,0,0,95,13.7ZM96.6,41A1.6,1.6,0,0,1,95,42.6H84.2A1.6,1.6,0,0,1,82.6,41V16.2a1.6,1.6,0,0,1,1.6-1.6H95a1.6,1.6,0,0,1,1.6,1.6h0Z" style="fill:#050505"/><rect x="82.6" y="17.1" width="14" height="20.29" style="fill:#eaebec"/><path d="M89.6,39.3a1,1,0,0,0,0,2,1,1,0,0,0,.9-1h0A1,1,0,0,0,89.6,39.3Zm0,1.7a.7.7,0,1,1,.7-.7h0A.7.7,0,0,1,89.6,41Z"/><circle cx="89.6" cy="40.3" r="0.7" style="fill:#eaebec"/><rect x="82.6" y="16.2" width="14" height="0.89" style="fill:#1b333b"/><rect x="82.6" y="36.5" width="14" height="0.89" style="fill:#1b333b"/><rect x="82.6" y="17.1" width="14" height="1.91" style="fill:#b9bdc1"/><rect x="82.6" y="34.6" width="14" height="1.91" style="fill:#b9bdc1"/><polygon points="83.8 18.8 83.1 18.1 83.8 17.4 84 17.6 83.5 18.1 84 18.6 83.8 18.8" style="fill:#1b333b"/><rect x="84.8" y="35" width="9.6" height="1.13" style="fill:#eaebec"/><rect x="84.1" y="20.1" width="5.8" height="4.68" style="fill:#e5c13f"/><rect x="84.1" y="26.4" width="5.9" height="6.37" style="fill:#335b8c"/><path d="M53.8,144.2v.8a2.1,2.1,0,0,1-2.1,2.1H37.2a3,3,0,0,1-3-3h0v-.9a2.9,2.9,0,0,1,3-3H49.1a.4.4,0,1,1,.2.8H37.2a2.1,2.1,0,0,0-2.1,2.2v.9a2.1,2.1,0,0,0,2.1,2.1H51.7A1.2,1.2,0,0,0,53,145h0v-.8a1.3,1.3,0,0,0-1.3-1.3H40.4a.6.6,0,0,0-.6.6v.3a.6.6,0,0,0,.6.6h8.8a.4.4,0,0,1,.2.8c-.1.1-.2.1-.2,0H40.4a1.5,1.5,0,0,1-1.5-1.4h0v-.3a1.5,1.5,0,0,1,1.5-1.4H51.7A2.1,2.1,0,0,1,53.8,144.2Z" style="fill:#1b333b"/><path d="M137.7,108.4a1.5,1.5,0,0,1-.6-1.1,1.4,1.4,0,0,1,.7-1.2,2.4,2.4,0,0,0,.8-2.5,2.3,2.3,0,0,0-2.1-1.6h-.1a1.3,1.3,0,0,1-1.3-1.9,2.2,2.2,0,0,0-.3-1.9,2.3,2.3,0,0,0-1.9-1,2.1,2.1,0,0,0-1.3.5,1.9,1.9,0,0,1-.8.3,1.5,1.5,0,0,1-1.4-1.1,2.3,2.3,0,0,0-2.8-1.5,2.3,2.3,0,0,0-1.5,1.5,1.4,1.4,0,0,1-1.8,1c-.1-.1-.3-.1-.4-.3a2.8,2.8,0,0,0-1.3-.4,2.6,2.6,0,0,0-1.9,1,2.4,2.4,0,0,0-.3,2,1.3,1.3,0,0,1-.1,1.2,1.2,1.2,0,0,1-1.2.6H118a2.3,2.3,0,0,0-2.1,1.6,2.3,2.3,0,0,0,.9,2.5,1.5,1.5,0,0,1,.6,1.1,1.4,1.4,0,0,1-.7,1.2,2.4,2.4,0,0,0-.8,2.5,2.3,2.3,0,0,0,2.1,1.6h.1a1.4,1.4,0,0,1,1.2.6,1.5,1.5,0,0,1,.1,1.3,2.1,2.1,0,0,0,.3,1.9,2.6,2.6,0,0,0,1.9,1,2,2,0,0,0,1.3-.4,1.2,1.2,0,0,1,.9-.3,1.3,1.3,0,0,1,1.3,1,2.1,2.1,0,0,0,2.1,1.5,2.2,2.2,0,0,0,2.2-1.5,1.4,1.4,0,0,1,1.3-1,1.2,1.2,0,0,1,.9.3,2,2,0,0,0,1.3.4,2.3,2.3,0,0,0,1.9-1,2.1,2.1,0,0,0,.3-1.9,1.5,1.5,0,0,1,.1-1.3,1.4,1.4,0,0,1,1.2-.6h.1a2.3,2.3,0,0,0,2.2-2.4,2.8,2.8,0,0,0-.9-1.7Zm-.2,2.2a1,1,0,0,1-1,.8h-.1a2.3,2.3,0,0,0-2,1.1,2.5,2.5,0,0,0-.4,2.2.9.9,0,0,1-.1,1,1.1,1.1,0,0,1-1,.6l-.6-.2a2.4,2.4,0,0,0-3.5.4,2.2,2.2,0,0,0-.5.8,1.1,1.1,0,0,1-1.1.8,1.2,1.2,0,0,1-1.1-.8,2.6,2.6,0,0,0-2.4-1.8,3,3,0,0,0-1.5.5.9.9,0,0,1-.6.3,1.3,1.3,0,0,1-1-.6,1,1,0,0,1-.2-.9,2.3,2.3,0,0,0-.3-2.3,2.3,2.3,0,0,0-2-1.1H118a1.2,1.2,0,0,1-1.1-.8,1.2,1.2,0,0,1,.4-1.3,2.4,2.4,0,0,0,1.1-2.1,2.4,2.4,0,0,0-1.1-2,1.2,1.2,0,0,1-.4-1.3,1.2,1.2,0,0,1,1.1-.8h.1a2.4,2.4,0,0,0,2-1.1,2.2,2.2,0,0,0,.3-2.2,1.2,1.2,0,0,1,1.2-1.5.7.7,0,0,1,.6.2,2.5,2.5,0,0,0,3.5-.5,2,2,0,0,0,.4-.8,1.3,1.3,0,0,1,1.5-.8,1.1,1.1,0,0,1,.7.8,2.5,2.5,0,0,0,3.9,1.3.8.8,0,0,1,.7-.2,1.2,1.2,0,0,1,1,.5.9.9,0,0,1,.1,1,2.8,2.8,0,0,0,.4,2.3,2.5,2.5,0,0,0,2,1h.1a1.1,1.1,0,0,1,1,.8,1.2,1.2,0,0,1-.3,1.3,2.5,2.5,0,0,0-.1,4.1,1.1,1.1,0,0,1,.4,1.3Z" style="fill:#1b333b"/><path d="M127.2,100.2a7,7,0,0,0-7,7,7.1,7.1,0,1,0,7-7Zm0,13a5.9,5.9,0,0,1-5.9-6,5.8,5.8,0,0,1,5.9-5.9,5.9,5.9,0,0,1,6,5.9h0a6,6,0,0,1-6,6Z" style="fill:#1b333b"/><path d="M34.9,18.8A9.8,9.8,0,0,1,39,24.1l4.5-1a14.5,14.5,0,0,0-9.2-9.6l-1.2,4.4Z" style="fill:#1b333b"/><path d="M38.5,31.6l3.9,2.5a14.7,14.7,0,0,0,1.6-9l-4.6,1A9.5,9.5,0,0,1,38.5,31.6Z" style="fill:#1b333b"/><path d="M25.2,36.1,22.7,40a14.6,14.6,0,0,0,18.6-4.1l-4-2.5A10,10,0,0,1,25.2,36.1Z" style="fill:#1b333b"/><path d="M21.6,33.1l-4,2.4A13.7,13.7,0,0,0,21,38.9L23.5,35A8.6,8.6,0,0,1,21.6,33.1Z" style="fill:#1b333b"/><path d="M15.4,30.3a10.6,10.6,0,0,0,1.2,3.4l4-2.4a9.9,9.9,0,0,1,3.2-12.2l-2.4-3.9A14.4,14.4,0,0,0,15.4,30.3Z" style="fill:#1b333b"/><path d="M25.6,18.1a9.4,9.4,0,0,1,5.5-.7l1.2-4.5a16.2,16.2,0,0,0-5.8.1,17.3,17.3,0,0,0-3.2,1.1Z" style="fill:#1b333b"/><path d="M79,10.1a4.6,4.6,0,0,0-2.8-4h0c0-3.4-3.6-6.1-8-6.1s-8,2.7-8,6.1a5.1,5.1,0,0,0,2.2,4.2L62,13.6a.5.5,0,0,0,.2.6.6.6,0,0,0,.6,0L66.3,12h.4c1.2,2.1,4.2,3.4,7.3,2.8l2.7,1.7H77a.6.6,0,0,0,.6-.6h0l-.3-2.6A4.1,4.1,0,0,0,79,10.1Zm-12.7.7h-.4l-2.7,1.7.3-2.5a.7.7,0,0,0-.2-.6,4.2,4.2,0,0,1-2-3.4c0-2.8,3.1-5,6.9-5s6.9,2.2,6.9,5S72,11,68.2,11A6.2,6.2,0,0,1,66.3,10.8Zm10.1,2a.4.4,0,0,0-.2.5V15l-1.9-1.2H74a6.5,6.5,0,0,1-5.9-1.7h.1c3.9,0,7.1-2.1,7.8-4.8a3.3,3.3,0,0,1,1.9,2.8A3.6,3.6,0,0,1,76.4,12.8Z" style="fill:#1b333b"/><path d="M123.1,140.8a.4.4,0,0,1-.4.4H95.1a.4.4,0,0,1-.4-.4h0V104.1a.4.4,0,0,1,.4-.4h27.6a.4.4,0,0,1,.4.4h0Z" style="fill:#050505"/><rect x="97.5" y="104.8" width="22.9" height="33.27" style="fill:#fff"/><path d="M115.2,102.7H102.7a2.2,2.2,0,0,1,2.2-2.2H113a2.2,2.2,0,0,1,2.2,2.2Z" style="fill:#e38a05"/><path d="M111.7,99.6a2.8,2.8,0,0,0-5.6,0v.9h5.6Z" style="fill:#404040"/><path d="M104,126.7H99.8v-4.1H104Zm-3.8-.4h3.4V123h-3.4Z" style="fill:#f2f2f2"/><path d="M104,134.5H99.8v-4.2H104Zm-3.8-.4h3.4v-3.4h-3.4Z" style="fill:#f2f2f2"/><rect x="102.5" y="109.1" width="11.9" height="1.53" style="fill:#7e868c"/><rect x="105.1" y="115.3" width="9.6" height="1.15" style="fill:#7e868c"/><rect x="105.1" y="117.7" width="12.3" height="1.15" style="fill:#7e868c"/><rect x="105.1" y="123" width="12.3" height="1.15" style="fill:#7e868c"/><rect x="105.1" y="125.5" width="10.3" height="1.15" style="fill:#7e868c"/><rect x="105.1" y="130.8" width="6.9" height="1.15" style="fill:#7e868c"/><rect x="105.1" y="133.2" width="10.3" height="1.15" style="fill:#7e868c"/><path d="M103.9,119.1H99.7v-4.2h4.2Zm-3.8-.4h3.4v-3.4h-3.4Z" style="fill:#f2f2f2"/><path d="M127.9,140.2a.8.8,0,0,1-.8.8h-.5a.9.9,0,0,1-.8-.8v-.8h2.1Z" style="fill:#272b40"/><rect x="125.7" y="112.3" width="2.4" height="26.58" style="fill:#162030"/><rect x="126.9" y="112.3" width="1.2" height="26.58" style="fill:#eed782"/><polygon points="125.7 112.3 128 112.3 126.8 107.1 125.7 112.3" style="fill:#f5f5f6"/><polygon points="127.5 110.1 126.8 107.1 126.2 110.1 127.5 110.1" style="fill:#162030"/><rect x="125.7" y="138.2" width="2.4" height="1.63" style="fill:#82b541"/><rect x="125.7" y="138.2" width="1.2" height="1.63" style="fill:#454545"/><path d="M117.6,104.6a1.2,1.2,0,0,1-1.2,1.2h-15a1.3,1.3,0,0,1-1.2-1.2v-1.9h17.4Z" style="fill:#404040"/><ellipse cx="101.8" cy="117" rx="1.3" ry="1.3" style="fill:#162030"/><polygon points="29.2 96 26.4 93.2 23.6 96 8.8 96 8.8 119.9 29.2 119.9 29.2 96 29.2 96" style="fill:#a4c974"/><rect x="14.3" y="96.6" width="12" height="20.48" style="fill:#cce1b1"/><rect x="6.8" y="115.1" width="4" height="3.99" transform="translate(-80.2 40.5) rotate(-45)" style="fill:#a4c974"/><polygon points="26.4 93.2 23.6 96 23.5 96 29.2 101.7 29.2 96 29.2 96 26.4 93.2" style="fill:#c10e05"/><polygon points="26.4 112 26.4 93.2 6 93.2 6 117.1 21.3 117.1 26.4 112" style="fill:#fff"/><rect x="6" y="93.2" width="20.4" height="5.7" style="fill:#162030"/><circle cx="12.5" cy="96.6" r="0.8" style="fill:#930300"/><path d="M12.2,90.3a2.4,2.4,0,0,0-2.5,2.2v2.4a2.5,2.5,0,0,0,2.5,2.3h0a.6.6,0,0,0,.6-.6.6.6,0,0,0-.6-.5h0a1.6,1.6,0,0,1-1.5-1.6V92.9a1.6,1.6,0,0,1,1.4-1.6,1.5,1.5,0,0,1,1.5,1.4c.1.1.1.1,0,.2v.3h1v-.7A2.2,2.2,0,0,0,12.2,90.3Z" style="fill:#cce1b1"/><circle cx="20.9" cy="96.6" r="0.8" style="fill:#930300"/><path d="M20.6,90.3a2.2,2.2,0,0,0-2.4,2.2v2.4a2.3,2.3,0,0,0,2.4,2.3h.1a.6.6,0,0,0,.5-.6.5.5,0,0,0-.5-.5h-.1a1.4,1.4,0,0,1-1.4-1.6V92.9a1.3,1.3,0,0,1,1.3-1.5,1.4,1.4,0,0,1,1.6,1.3v.5h1v-.7a2.4,2.4,0,0,0-2.5-2.2Z" style="fill:#cce1b1"/><polygon points="21.2 111.9 21.2 117.1 21.3 117.1 26.4 112 26.4 111.9 21.2 111.9" style="fill:#a4c974"/><path d="M16,110.3H10.8v-1l2.5-2.6a3.6,3.6,0,0,0,.7-1,1.1,1.1,0,0,0,.2-.8.7.7,0,0,0-.2-.7.6.6,0,0,0-.7-.3.7.7,0,0,0-.8.3,1.7,1.7,0,0,0-.3,1H10.7a2.2,2.2,0,0,1,.7-1.7,2.3,2.3,0,0,1,1.9-.7,2.5,2.5,0,0,1,1.8.6,2.4,2.4,0,0,1,.7,1.6,2.8,2.8,0,0,1-.4,1.3l-1.3,1.5-1.3,1.5H16Z" style="fill:#162030"/><path d="M22.1,103.9a9.5,9.5,0,0,0-1.7,2.7,15.9,15.9,0,0,0-.6,3v.7H18.2v-.7a10.8,10.8,0,0,1,.7-3.1,10.1,10.1,0,0,1,1.6-2.6H16.7v-1.1h5.4Z" style="fill:#162030"/><path d="M116.6,73.6l10.5-10a1.1,1.1,0,0,1,1.5,0l10.5,10L132,87.9h-8.6Z" style="fill:#262626"/><polygon points="119.1 66.4 133.6 66.4 136.6 69 136.6 88.5 119.1 88.5 119.1 66.4" style="fill:#f1f2f3"/><polygon points="133.6 69 136.6 69 133.6 66.4 133.6 69" style="fill:#c7cbcd"/><rect x="121.8" y="72.8" width="12.2" height="1.09" style="fill:#050505"/><rect x="121.8" y="75.6" width="12.2" height="1.09" style="fill:#050505"/><rect x="121.8" y="78.4" width="12.2" height="1.09" style="fill:#050505"/><rect x="121.8" y="81.2" width="12.2" height="1.09" style="fill:#050505"/><rect x="121.8" y="84" width="12.2" height="1.09" style="fill:#c7cbcd"/><path d="M128.6,83.6a1.1,1.1,0,0,1-1.5,0l-10.5-10V89.8H139V73.6Z" style="fill:#d9dbdd"/><path d="M139.1,89.8H116.6l8.3-5.9a4.9,4.9,0,0,1,5.9,0Z" style="fill:#eaebec"/><rect x="28" y="21.1" width="39.6" height="27.64" style="fill:#6e8aae"/><rect x="35.1" y="39.5" width="4.2" height="6.11" style="fill:#050505"/><rect x="41.2" y="31.8" width="4.2" height="13.73" style="fill:#262626"/><rect x="47.3" y="34.2" width="4.2" height="11.39" style="fill:#1b333b"/><rect x="53.4" y="27.8" width="4.2" height="17.74" style="fill:#e5c13f"/><rect x="59.5" y="23.2" width="4.2" height="22.34" style="fill:#e5c13f"/><rect x="33.4" y="25.8" width="0.6" height="19.83" style="fill:#050505"/><rect x="33.6" y="45" width="31.3" height="0.62" style="fill:#050505"/><rect x="30.7" y="25.9" width="1.5" height="0.66" style="fill:#c0c4c7"/><rect x="30.7" y="29.1" width="1.5" height="0.66" style="fill:#c0c4c7"/><rect x="30.7" y="32.3" width="1.5" height="0.66" style="fill:#c0c4c7"/><rect x="30.7" y="35.4" width="1.5" height="0.66" style="fill:#c0c4c7"/><rect x="30.7" y="38.6" width="1.5" height="0.66" style="fill:#c0c4c7"/><rect x="30.7" y="41.8" width="1.5" height="0.66" style="fill:#c0c4c7"/><rect x="30.7" y="44.9" width="1.5" height="0.66" style="fill:#c0c4c7"/><rect x="52.1" y="124.2" width="35.8" height="25.83" style="fill:#fcfcfc"/><rect x="55.7" y="128.7" width="27" height="19.46" style="fill:#335b8c"/><rect x="55.4" y="126.1" width="0.6" height="22.02" style="fill:#050505"/><polygon points="55.7 124.8 54.5 127 56.9 127 55.7 124.8" style="fill:#050505"/><rect x="55.4" y="147.5" width="29.8" height="0.58" style="fill:#050505"/><polygon points="86.6 147.8 84.4 146.6 84.4 149 86.6 147.8" style="fill:#050505"/><path d="M56.9,146.2v-3.4a.5.5,0,0,1,.5-.5h.4l1.6,1.7a.6.6,0,0,0,.8,0h.1l2.4-3.1a1.2,1.2,0,0,1,1.6-.2h0l.7.6a.6.6,0,0,0,.8,0h0l4.3-5a1.1,1.1,0,0,1,1.4-.1h.1l2.4,1.8a.5.5,0,0,0,.6.1h.1l6.4-7.7a.2.2,0,0,1,.3-.1l.2.2v15.5Z" style="fill:#162030"/><path d="M18,86H1.7A1.8,1.8,0,0,1,0,84.2V54.5a1.8,1.8,0,0,1,1.7-1.8H22.9a1.9,1.9,0,0,1,1.8,1.8V79.3Z" style="fill:#fff"/><path d="M18,86V80.9a1.6,1.6,0,0,1,1.5-1.6h5.1Z" style="fill:#8a9197"/><circle cx="12.3" cy="63.3" r="8.1" style="fill:#335b8c"/><path d="M6.6,57.6A8.1,8.1,0,0,0,6.6,69l5.7-5.7Z" style="fill:#1b333b"/><path d="M6.6,57.6a8.1,8.1,0,0,0-2.3,5.7h8V55.2A8.2,8.2,0,0,0,6.6,57.6Z" style="fill:#162030"/><path d="M18,69a8.1,8.1,0,0,0,2-8.2l-7.6,2.5,2.4,7.6A7,7,0,0,0,18,69Z" style="fill:#1b333b"/><path d="M12.3,63.3,19.5,67A8.1,8.1,0,0,0,16,56.1h0Z" style="fill:#262626"/><rect x="2" y="72.9" width="20.6" height="0.93" style="fill:#383838"/><rect x="2" y="75" width="17.7" height="0.93" style="fill:#383838"/><rect x="2" y="77" width="19.6" height="0.93" style="fill:#383838"/><rect x="2" y="79.1" width="15.2" height="0.93" style="fill:#383838"/><rect x="2" y="81.2" width="12.7" height="0.93" style="fill:#383838"/><path d="M113,28.5a.6.6,0,0,0-.5-.6.4.4,0,0,0-.5.1l-9.1,9.1a5.6,5.6,0,0,0-1.7,3.1l-1.4,7.7,11.9-11.8Z" style="fill:#162030"/><path d="M120.7,36.3c.3-.1.6.1.7.5a1.7,1.7,0,0,1-.2.5l-9.1,9A5.3,5.3,0,0,1,109,48l-7.7,1.4,11.8-11.8Z" style="fill:#162030"/><path d="M110.6,79A40.5,40.5,0,1,1,70.1,38.4,40.5,40.5,0,0,1,110.6,79Z" style="fill:#fff"/><path d="M70.1,113.6A34.7,34.7,0,1,1,104.7,79h0A34.6,34.6,0,0,1,70.1,113.6Zm0-64.4A29.8,29.8,0,1,0,99.8,79,29.8,29.8,0,0,0,70.1,49.2Z" style="fill:#515b64"/><path d="M70.1,101.2A22.3,22.3,0,1,1,92.3,79,22.2,22.2,0,0,1,70.1,101.2Zm0-39.5a17.4,17.4,0,1,0,0-.1Z" style="fill:#515b64"/><ellipse cx="70.1" cy="79" rx="8.2" ry="8.2" style="fill:#8e2626"/><path d="M83.6,77.4,86,74.6,71.8,77.8s-.7,1.3-.6,1.5l14.7,3.3-2.6-3.1h27.3V77.4Z" style="fill:#bfc2c6"/><rect x="69.3" y="53.6" width="50.5" height="2.14" transform="translate(-11 82.9) rotate(-45)" style="fill:#162030"/><path d="M78.3,65.5l-8.2,13h.1l.3.3.7.4L84,71.1l-5.2-.4Z" style="fill:#162030"/><path d="M26.3,139.5a1.2,1.2,0,0,1-1.2-1.3V116.6a1.4,1.4,0,0,1,1.2-1.4H39.7a1.5,1.5,0,0,1,1.3,1.4v21.6a1.3,1.3,0,0,1-1.3,1.3Z" style="fill:#162030"/><path d="M29.5,127.6a.6.6,0,0,1-.6.8H27.5a.8.8,0,0,1-.7-.8v-1.5a.8.8,0,0,1,.7-.8h1.4a.8.8,0,0,1,.7.8Z" style="fill:#990505"/><path d="M34.4,127.6a.8.8,0,0,1-.7.8H32.3a.8.8,0,0,1-.7-.8v-1.5a.8.8,0,0,1,.7-.8h1.4a.8.8,0,0,1,.7.8Z" style="fill:#990505"/><path d="M39.2,127.6a.8.8,0,0,1-.7.8H37.1a.8.8,0,0,1-.7-.8v-1.5a.8.8,0,0,1,.7-.8h1.4a.8.8,0,0,1,.7.8Z" style="fill:#990505"/><path d="M29.5,132.1a.6.6,0,0,1-.6.7H27.5a.7.7,0,0,1-.7-.7v-1.6a.8.8,0,0,1,.7-.8h1.4a.8.8,0,0,1,.7.8Z" style="fill:#990505"/><path d="M34.4,132.1a.7.7,0,0,1-.7.7H32.3a.7.7,0,0,1-.7-.7v-1.6a.8.8,0,0,1,.7-.8h1.4a.8.8,0,0,1,.7.8Z" style="fill:#990505"/><path d="M39.2,132.1a.7.7,0,0,1-.7.7H37.1a.7.7,0,0,1-.7-.7v-1.6a.8.8,0,0,1,.7-.8h1.4a.8.8,0,0,1,.7.8Z" style="fill:#990505"/><path d="M29.5,136.7a.6.6,0,0,1-.6.8H27.5a.8.8,0,0,1-.7-.8v-1.6a.7.7,0,0,1,.7-.7h1.4a.7.7,0,0,1,.7.7Z" style="fill:#990505"/><path d="M39,136.7a.6.6,0,0,1-.6.8H32.1a.6.6,0,0,1-.6-.8v-1.6a.6.6,0,0,1,.6-.7h6.3a.6.6,0,0,1,.6.7Z" style="fill:#990505"/><rect x="26.7" y="117.7" width="12.7" height="5.13" style="fill:#335b8c"/><path d="M29.5,126.9a.6.6,0,0,1-.6.7H27.5a.7.7,0,0,1-.7-.7v-1.6a.8.8,0,0,1,.7-.8h1.4a.8.8,0,0,1,.7.8Z" style="fill:#fff"/><path d="M34.4,126.9a.7.7,0,0,1-.7.7H32.3a.7.7,0,0,1-.7-.7v-1.6a.8.8,0,0,1,.7-.8h1.4a.8.8,0,0,1,.7.8Z" style="fill:#fff"/><path d="M39.2,126.9a.7.7,0,0,1-.7.7H37.1a.7.7,0,0,1-.7-.7v-1.6a.8.8,0,0,1,.7-.8h1.4a.8.8,0,0,1,.7.8Z" style="fill:#fff"/><path d="M29.5,131.3c.1.4-.2.7-.6.8H27.5a.8.8,0,0,1-.7-.8v-1.6a.7.7,0,0,1,.7-.7h1.4a.7.7,0,0,1,.7.7Z" style="fill:#fff"/><path d="M34.4,131.3a.8.8,0,0,1-.7.8H32.3a.8.8,0,0,1-.7-.8v-1.6a.7.7,0,0,1,.7-.7h1.4a.7.7,0,0,1,.7.7Z" style="fill:#fff"/><path d="M39.2,131.3a.8.8,0,0,1-.7.8H37.1a.8.8,0,0,1-.7-.8v-1.6a.7.7,0,0,1,.7-.7h1.4a.7.7,0,0,1,.7.7Z" style="fill:#fff"/><path d="M29.5,136a.6.6,0,0,1-.6.7H27.5a.7.7,0,0,1-.7-.7v-1.6a.8.8,0,0,1,.7-.8h1.4a.8.8,0,0,1,.7.8Z" style="fill:#fff"/><path d="M39,136a.6.6,0,0,1-.6.7H32.1a.6.6,0,0,1-.6-.7v-1.6a.6.6,0,0,1,.6-.8h6.3a.6.6,0,0,1,.6.8Z" style="fill:#fff"/><path d="M39.7,115.2H33v24.3h6.7a1.3,1.3,0,0,0,1.3-1.3V116.6A1.5,1.5,0,0,0,39.7,115.2Z" style="fill:#646d75;opacity:0.200000002980232;isolation:isolate"/><path d="M121.8,46.4v-.2h0l2.3-2.3a.2.2,0,0,1,.3,0h0l.2.2a.5.5,0,0,0,.8,0l4.1-4.1a.5.5,0,0,0,0-.8h0l-.2-.2a.2.2,0,0,1,0-.3l2.3-2.3a.2.2,0,0,1,.3,0h0l.7.7a2.6,2.6,0,0,1,0,3.5h0L126,47.1a2.4,2.4,0,0,1-3.5,0Z" style="fill:#1b333b"/><path d="M123.8,43.3h0l-.6-.6h-.3L120.7,45c-.1,0-.1.2,0,.2l.6.7Z" style="fill:#1b333b"/><path d="M130.4,35.2l-2.3,2.3v.3h0l.6.6h0l2.6-2.6-.6-.6A.2.2,0,0,0,130.4,35.2Z" style="fill:#1b333b"/><path d="M7.8,125.8a2.8,2.8,0,0,1,.4-1.8,2.1,2.1,0,0,1,1.1-.8,5.3,5.3,0,0,1,1.2-.3,3.1,3.1,0,0,1,1.8.7,2.7,2.7,0,0,1,.9,2.2,2.8,2.8,0,0,1-.3,1.3,2.3,2.3,0,0,1-.8,1.1,2.5,2.5,0,0,1-1.6.5l-1-.2a2,2,0,0,1-.8-.4l-.7-.9A2.2,2.2,0,0,1,7.8,125.8Zm1.5,0a2,2,0,0,0,.4,1.3.9.9,0,0,0,1.3.3c.1-.1.2-.2.2-.3a2,2,0,0,0,.4-1.3,3,3,0,0,0-.2-1,.9.9,0,0,0-.4-.6.9.9,0,0,0-1,0c-.2.2-.4.3-.5.6a3.6,3.6,0,0,0-.2,1Zm.6,7.4,6.6-10.1h2.4l-6.6,10.1Zm6-2.7a2.8,2.8,0,0,1,.8-2.2,2.9,2.9,0,0,1,3.7,0,2.5,2.5,0,0,1,.9,2.2,2.6,2.6,0,0,1-.5,1.7,2.2,2.2,0,0,1-1,.9,3.6,3.6,0,0,1-2.5,0,2.2,2.2,0,0,1-1-.9,2.5,2.5,0,0,1-.4-1.7Zm1.5,0a2.2,2.2,0,0,0,.4,1.3.9.9,0,0,0,.8.4h.5a1,1,0,0,0,.4-.5,2.2,2.2,0,0,0,.2-1.1,1.8,1.8,0,0,0-.3-1.3,1.4,1.4,0,0,0-.8-.5.8.8,0,0,0-.8.5,2,2,0,0,0-.4,1.3Z" style="fill:#1b333b"/><circle cx="131.1" cy="61.6" r="10" style="fill:#f3f4f4;opacity:0.400000005960465;isolation:isolate"/><path d="M148.6,79.6a1.4,1.4,0,0,1-1.9,0h-.1l-2.4-2.4a1.5,1.5,0,0,1,0-2h.1a1.2,1.2,0,0,1,1.9,0l2.4,2.4a1.2,1.2,0,0,1,0,1.9Z" style="fill:#050505"/><polygon points="143.5 75.9 136 68.8 137.7 67.1 145.2 74.2 143.5 75.9" style="fill:#050505"/><path d="M148,78.9a2.8,2.8,0,0,1-3.9-.1l-4.9-4.9c-.9-.8-1-1.7-.2-2.4l1.4-1.5a1.6,1.6,0,0,1,2.7,0l4.9,4.9a2.8,2.8,0,0,1,.1,3.9H148Z" style="fill:#162030"/><path d="M131.2,51.5a10.1,10.1,0,1,0,10.1,10.1h0a10.1,10.1,0,0,0-10.1-10.1Zm0,18.5a8.4,8.4,0,1,1,0-16.8,8.3,8.3,0,0,1,8.4,8.4,8.5,8.5,0,0,1-8.4,8.4Z" style="fill:#050505"/><path d="M131.2,54.4h0a7.2,7.2,0,0,0-7.2,7.2h0a.7.7,0,0,0,.6.7c.4,0,.8-.2.8-.6h0a5.8,5.8,0,0,1,5.8-5.8h0c.3,0,.7-.3.7-.6a.9.9,0,0,0-.6-.8Z" style="fill:#f3f4f4"/></g></g></g></g></g></svg>